<svg version="1.1" xmlns="http://www.w3.org/2000/svg" viewBox="0 0 2328.442626953125 433.3333396911621" width="2328.442626953125" height="433.3333396911621">
  <!-- svg-source:excalidraw -->
  
  <defs>
    <style class="style-fonts">
      @font-face {
        font-family: "Virgil";
        src: url("https://excalidraw.com/Virgil.woff2");
      }
      @font-face {
        font-family: "Cascadia";
        src: url("https://excalidraw.com/Cascadia.woff2");
      }
      @font-face {
        font-family: "Assistant";
        src: url("https://excalidraw.com/Assistant-Regular.woff2");
      }
    </style>
    
  </defs>
  <g stroke-linecap="round" transform="translate(10 10) rotate(0 1154.2213134765625 137.16666666666663)"><path d="M0 0 C668.83 -5.9, 1338.85 -5.96, 2308.44 0 M0 0 C741.95 -5.77, 1484.47 -5.61, 2308.44 0 M2308.44 0 C2306.74 58.82, 2307.65 115.3, 2308.44 274.33 M2308.44 0 C2309.52 87.8, 2309.45 174.58, 2308.44 274.33 M2308.44 274.33 C1603.26 280.6, 897.64 281.08, 0 274.33 M2308.44 274.33 C1617.39 276.14, 925.61 275.4, 0 274.33 M0 274.33 C-1.99 182.7, -0.89 90.41, 0 0 M0 274.33 C0.06 183.31, -0.12 91.52, 0 0" stroke="#f08c00" stroke-width="2" fill="none"></path></g><g stroke-linecap="round" transform="translate(97.49479675292969 58.33333333333326) rotate(0 98 21.83333396911621)"><path d="M0 0 C72.5 -0.13, 144.43 -1.19, 196 0 M0 0 C70.49 1.33, 139.53 1.55, 196 0 M196 0 C195.69 11.21, 196.1 22.87, 196 43.67 M196 0 C194.78 13.14, 195.71 27.05, 196 43.67 M196 43.67 C122.05 44.93, 51.83 43.16, 0 43.67 M196 43.67 C133.34 44.42, 72.6 46.3, 0 43.67 M0 43.67 C1.38 32.27, 0.68 17.79, 0 0 M0 43.67 C-0.33 27.03, 0.99 10.35, 0 0" stroke="#f08c00" stroke-width="2" fill="none"></path></g><g stroke-linecap="round" transform="translate(45 202.33333587646484) rotate(0 150.4947967529297 21.83333396911621)"><path d="M0 0 C102.61 -1.02, 205.44 -1.57, 300.99 0 M0 0 C60.39 1.01, 121.7 0.82, 300.99 0 M300.99 0 C301.35 18.61, 301.04 32.48, 300.99 43.67 M300.99 0 C300.66 16.36, 301.29 31.36, 300.99 43.67 M300.99 43.67 C210.19 44.62, 119.64 45.78, 0 43.67 M300.99 43.67 C184.64 42.22, 67.7 41.53, 0 43.67 M0 43.67 C0.37 27.9, 1.39 12.14, 0 0 M0 43.67 C1.09 28.3, -0.58 11.88, 0 0" stroke="#f08c00" stroke-width="2" fill="none"></path></g><g stroke-linecap="round" transform="translate(370.98439025878906 58.33333333333326) rotate(0 155.4947967529297 21.83333396911621)"><path d="M0 0 C104.26 -0.37, 205.47 0.85, 310.99 0 M0 0 C74.97 0.35, 151.39 0.77, 310.99 0 M310.99 0 C311.13 12.76, 312.3 26.92, 310.99 43.67 M310.99 0 C311.69 12.49, 311.03 24.45, 310.99 43.67 M310.99 43.67 C198.81 43.8, 87.42 41.96, 0 43.67 M310.99 43.67 C247.61 45.68, 184.71 46.19, 0 43.67 M0 43.67 C1.54 27.05, 1.01 10.3, 0 0 M0 43.67 C-1.15 29.36, -1.36 16.15, 0 0" stroke="#f08c00" stroke-width="2" fill="none"></path></g><g stroke-linecap="round" transform="translate(461.0521011352539 202.33333587646484) rotate(0 65.42708587646484 21.83333396911621)"><path d="M0 0 C34.62 1.31, 71.98 -1.05, 130.85 0 M0 0 C35.51 0.78, 69.5 0.98, 130.85 0 M130.85 0 C132.1 14.8, 130.68 33.21, 130.85 43.67 M130.85 0 C131.17 14.69, 131.76 31.24, 130.85 43.67 M130.85 43.67 C96.89 42.79, 57.5 45.09, 0 43.67 M130.85 43.67 C80.2 44.32, 29.13 43.97, 0 43.67 M0 43.67 C0.79 30.15, -0.06 20.05, 0 0 M0 43.67 C-0.63 29.46, 1.2 14.93, 0 0" stroke="#f08c00" stroke-width="2" fill="none"></path></g><g stroke-linecap="round" transform="translate(785.9010772705078 58.33333333333326) rotate(0 107.91666412353516 21.83333396911621)"><path d="M0 0 C51.19 -2.1, 103.78 -1.5, 215.83 0 M0 0 C51.78 0.2, 103.75 0.07, 215.83 0 M215.83 0 C215.92 9.78, 217.26 20.71, 215.83 43.67 M215.83 0 C216.45 12.22, 215.57 24.6, 215.83 43.67 M215.83 43.67 C138.23 42.86, 65.59 42.11, 0 43.67 M215.83 43.67 C152.29 45.25, 87.39 45.69, 0 43.67 M0 43.67 C0.05 33.12, 0.26 17.41, 0 0 M0 43.67 C1.29 32.64, 1.09 21.8, 0 0" stroke="#f08c00" stroke-width="2" fill="none"></path></g><g stroke-linecap="round" transform="translate(773.1823272705078 202.33333587646484) rotate(0 120.63541412353516 21.83333396911621)"><path d="M0 0 C78.44 0.88, 157.04 3.31, 241.27 0 M0 0 C72.48 -0.34, 143 0.14, 241.27 0 M241.27 0 C242.39 10.64, 240.83 18.61, 241.27 43.67 M241.27 0 C241.27 9.17, 242.06 18.9, 241.27 43.67 M241.27 43.67 C189.1 44.32, 133.85 45.36, 0 43.67 M241.27 43.67 C152.32 45.04, 63.37 44.82, 0 43.67 M0 43.67 C0.45 30.8, -1.15 19.02, 0 0 M0 43.67 C0.29 30.09, 0.51 17.23, 0 0" stroke="#f08c00" stroke-width="2" fill="none"></path></g><g stroke-linecap="round" transform="translate(1084.1719207763672 58.33333333333326) rotate(0 117.60416412353516 21.83333396911621)"><path d="M0 0 C48.21 2.63, 98.44 1.59, 235.21 0 M0 0 C74.21 0.46, 149.01 -0.14, 235.21 0 M235.21 0 C235.06 13.37, 233.59 27.9, 235.21 43.67 M235.21 0 C235.61 13.95, 234.32 25.19, 235.21 43.67 M235.21 43.67 C155.83 44.52, 77.7 44.78, 0 43.67 M235.21 43.67 C156.65 45.82, 78.03 45.47, 0 43.67 M0 43.67 C-1.2 24.64, -0.07 11.21, 0 0 M0 43.67 C0.6 31.78, -0.6 19.88, 0 0" stroke="#f08c00" stroke-width="2" fill="none"></path></g><g stroke-linecap="round" transform="translate(1116.286506652832 202.33333587646484) rotate(0 85.48958587646484 30)"><path d="M0 0 C41.63 -0.97, 83.72 0.04, 170.98 0 M0 0 C50.95 -1.14, 103.7 -0.47, 170.98 0 M170.98 0 C168.99 23.29, 170.85 43.59, 170.98 60 M170.98 0 C170.52 17.98, 171.66 38.8, 170.98 60 M170.98 60 C122.02 62.44, 70.99 60.81, 0 60 M170.98 60 C104.85 61.14, 40.44 61.24, 0 60 M0 60 C0.36 48.25, -0.26 34.36, 0 0 M0 60 C-0.84 44.22, -0.4 28.01, 0 0" stroke="#f08c00" stroke-width="2" fill="none"></path></g><g stroke-linecap="round" transform="translate(1577.2187957763672 58.33333333333326) rotate(0 125.35416412353516 21.83333396911621)"><path d="M0 0 C98.05 0.71, 195.56 -1.85, 250.71 0 M0 0 C90.66 0.66, 181.78 0.03, 250.71 0 M250.71 0 C250.29 12.63, 250.61 27.38, 250.71 43.67 M250.71 0 C250.74 17.83, 250.31 33.81, 250.71 43.67 M250.71 43.67 C161.7 45.02, 72.98 44.89, 0 43.67 M250.71 43.67 C161.77 44.19, 70.72 43.54, 0 43.67 M0 43.67 C-0.6 36.11, -0.8 27.65, 0 0 M0 43.67 C0.27 30.13, -0.48 18.73, 0 0" stroke="#f08c00" stroke-width="2" fill="none"></path></g><g stroke-linecap="round" transform="translate(1509.6250457763672 202.33333587646484) rotate(0 192.9479217529297 30)"><path d="M0 0 C126.68 -2.72, 254.01 -2.83, 385.9 0 M0 0 C112.58 -1.43, 224.38 -1.87, 385.9 0 M385.9 0 C386.21 22.72, 387.64 41.82, 385.9 60 M385.9 0 C386.06 12.19, 386.69 25.13, 385.9 60 M385.9 60 C242.97 59.61, 98.74 59.33, 0 60 M385.9 60 C263.8 60.26, 142.03 60.6, 0 60 M0 60 C-0.61 38.56, 0.04 12.94, 0 0 M0 60 C-0.7 43.58, -0.23 26.75, 0 0" stroke="#f08c00" stroke-width="2" fill="none"></path></g><g stroke-linecap="round" transform="translate(2019.8385848999023 58.33333333333326) rotate(0 131.8020782470703 21.83333396911621)"><path d="M0 0 C100.88 0.25, 199.67 1.73, 263.6 0 M0 0 C94.32 -0.32, 189.1 0.42, 263.6 0 M263.6 0 C265.42 10.37, 261.75 24.58, 263.6 43.67 M263.6 0 C264.15 17.78, 264.31 34.52, 263.6 43.67 M263.6 43.67 C187.72 42.69, 110.24 44.77, 0 43.67 M263.6 43.67 C176.99 42.55, 92.6 42.3, 0 43.67 M0 43.67 C0.04 27.02, -0.13 11.88, 0 0 M0 43.67 C0.12 34.7, 0.7 22.96, 0 0" stroke="#f08c00" stroke-width="2" fill="none"></path></g><g stroke-linecap="round" transform="translate(2042.291707356771 202.33333587646484) rotate(0 115.18229675292969 31.666666666666686)"><path d="M0 0 C50.89 1.8, 103.08 2.86, 230.36 0 M0 0 C65 1.83, 128.73 1.97, 230.36 0 M230.36 0 C228.99 23.02, 232.75 44.44, 230.36 63.33 M230.36 0 C231.46 19.17, 230.64 38.51, 230.36 63.33 M230.36 63.33 C165.33 64.11, 100.22 61.28, 0 63.33 M230.36 63.33 C174.47 63.12, 117.67 63.03, 0 63.33 M0 63.33 C-0.26 38.97, -1.42 12.82, 0 0 M0 63.33 C0.53 39.15, -0.24 16.99, 0 0" stroke="#f08c00" stroke-width="2" fill="none"></path></g><g stroke-linecap="round" transform="translate(175.34115600585938 379.6666717529297) rotate(0 120.64583587646484 21.83333396911621)"><path d="M0 0 C52.29 1.02, 102.32 -0.08, 241.29 0 M0 0 C49.57 0.14, 100.02 0.74, 241.29 0 M241.29 0 C242.7 9.6, 240.82 20.58, 241.29 43.67 M241.29 0 C241.52 16.93, 241.44 32.75, 241.29 43.67 M241.29 43.67 C178.93 44.25, 114.81 43.9, 0 43.67 M241.29 43.67 C169 42.75, 96.34 43.02, 0 43.67 M0 43.67 C-1.39 30.68, 1.43 19.86, 0 0 M0 43.67 C-0.52 26.72, 0.75 8.51, 0 0" stroke="#f08c00" stroke-width="2" fill="none"></path></g><g stroke-linecap="round" transform="translate(920.5156707763672 379.6666717529297) rotate(0 216.2604217529297 21.83333396911621)"><path d="M0 0 C131.89 -1.48, 263.23 -0.87, 432.52 0 M0 0 C129.78 0.1, 258.64 -0.84, 432.52 0 M432.52 0 C432.87 15.87, 434.29 30.91, 432.52 43.67 M432.52 0 C432.32 15.14, 432.09 29.27, 432.52 43.67 M432.52 43.67 C262.6 41.02, 93.81 42.89, 0 43.67 M432.52 43.67 C315.94 42.76, 198.29 42.71, 0 43.67 M0 43.67 C1.68 29.66, 2.21 17.13, 0 0 M0 43.67 C1.08 33.7, -0.22 25.83, 0 0" stroke="#f08c00" stroke-width="2" fill="none"></path></g><g stroke-linecap="round" transform="translate(1403.0364990234375 379.6666717529297) rotate(0 234.5364532470703 21.83333396911621)"><path d="M0 0 C171.66 0.52, 345.01 -0.28, 469.07 0 M0 0 C147.76 -2.29, 296.38 -1.44, 469.07 0 M469.07 0 C470.43 14.31, 469.73 25.54, 469.07 43.67 M469.07 0 C468.6 16.94, 469.92 33.83, 469.07 43.67 M469.07 43.67 C363.61 42.41, 257.84 42.23, 0 43.67 M469.07 43.67 C346.74 43.46, 224.75 43.19, 0 43.67 M0 43.67 C1.59 34.13, -2.06 22.2, 0 0 M0 43.67 C-0.77 30.05, -0.01 15.48, 0 0" stroke="#f08c00" stroke-width="2" fill="none"></path></g><g stroke-linecap="round" transform="translate(1922.1094207763672 379.6666717529297) rotate(0 164.53125 21.83333396911621)"><path d="M0 0 C99.25 -1.76, 198.73 -0.68, 329.06 0 M0 0 C127.76 2.8, 254.97 2.15, 329.06 0 M329.06 0 C330.03 15.42, 331.05 30.86, 329.06 43.67 M329.06 0 C329.8 15.88, 328.14 30.7, 329.06 43.67 M329.06 43.67 C261.6 46.55, 194.4 46.85, 0 43.67 M329.06 43.67 C232.65 42.83, 135.62 43.79, 0 43.67 M0 43.67 C-2.17 30.56, 0.13 20.65, 0 0 M0 43.67 C0.55 34.08, 0.38 23.37, 0 0" stroke="#f08c00" stroke-width="2" fill="none"></path></g><g mask="url(#mask-QZPXP1fJIKNt3IflxNpVn)" stroke-linecap="round"><g transform="translate(195.4293030210486 103.00000127156568) rotate(0 0.025356960855717148 46.76649936421717)"><path d="M-0.33 0.19 C-0.34 15.95, 0.76 79.22, 0.67 94.58 M1.71 -0.76 C1.53 14.69, 0.08 77.37, 0.05 93.01" stroke="#f08c00" stroke-width="2" fill="none"></path></g><g transform="translate(195.4293030210486 103.00000127156568) rotate(0 0.025356960855717148 46.76649936421717)"><path d="M-8.17 69.4 C-4.89 78.99, -0.48 84.94, 0.05 93.01 M-8.17 69.4 C-6.47 74.11, -4.16 79.63, 0.05 93.01" stroke="#f08c00" stroke-width="2" fill="none"></path></g><g transform="translate(195.4293030210486 103.00000127156568) rotate(0 0.025356960855717148 46.76649936421717)"><path d="M8.93 69.64 C6.03 79.1, 4.26 84.96, 0.05 93.01 M8.93 69.64 C7.15 74.46, 5.97 79.93, 0.05 93.01" stroke="#f08c00" stroke-width="2" fill="none"></path></g></g><mask id="mask-QZPXP1fJIKNt3IflxNpVn"><rect x="0" y="0" fill="#fff" width="295.48001694276" height="296.533"></rect><rect x="93.16474298971684" y="137.26650063578285" fill="#000" width="204.579833984375" height="25" opacity="1"></rect></mask><g mask="url(#mask-upMmRrDbvEIhInPI0I2Bd)" stroke-linecap="round"><g transform="translate(526.4133026462664 103.00000127156568) rotate(0 0.02535708627897293 46.76649936421717)"><path d="M0.62 1.05 C0.53 16.41, -0.86 76.78, -0.88 92.38 M-0.51 0.56 C-0.21 16.01, 1.27 77.92, 1.34 93.31" stroke="#f08c00" stroke-width="2" fill="none"></path></g><g transform="translate(526.4133026462664 103.00000127156568) rotate(0 0.02535708627897293 46.76649936421717)"><path d="M-7.58 69.95 C-3.36 74.73, -4.6 83.4, 1.34 93.31 M-7.58 69.95 C-3.52 79.78, 0.13 88.58, 1.34 93.31" stroke="#f08c00" stroke-width="2" fill="none"></path></g><g transform="translate(526.4133026462664 103.00000127156568) rotate(0 0.02535708627897293 46.76649936421717)"><path d="M9.52 69.68 C9.08 74.62, 3.17 83.37, 1.34 93.31 M9.52 69.68 C6.88 79.61, 3.84 88.51, 1.34 93.31" stroke="#f08c00" stroke-width="2" fill="none"></path></g></g><mask id="mask-upMmRrDbvEIhInPI0I2Bd"><rect x="0" y="0" fill="#fff" width="626.4640168188243" height="296.533"></rect><rect x="416.6887512852798" y="124.76650063578285" fill="#000" width="219.49981689453125" height="50" opacity="1"></rect></mask><g mask="url(#mask-jv-2mg_Dmdl0z-uXuU8EL)" stroke-linecap="round"><g transform="translate(893.7523030745355 103.00000127156568) rotate(0 0.02535694383561804 46.76649936421717)"><path d="M-0.93 -1.16 C-0.95 14.44, 0.35 78.85, 0.5 94.63 M0.78 0.85 C0.59 16.66, 0.05 77.43, -0.22 93.08" stroke="#f08c00" stroke-width="2" fill="none"></path></g><g transform="translate(893.7523030745355 103.00000127156568) rotate(0 0.02535694383561804 46.76649936421717)"><path d="M-8.47 69.49 C-7.29 78.6, -0.63 86.04, -0.22 93.08 M-8.47 69.49 C-5.15 76.78, -3.51 84.31, -0.22 93.08" stroke="#f08c00" stroke-width="2" fill="none"></path></g><g transform="translate(893.7523030745355 103.00000127156568) rotate(0 0.02535694383561804 46.76649936421717)"><path d="M8.63 69.7 C3.79 78.6, 4.44 85.97, -0.22 93.08 M8.63 69.7 C6.86 77.05, 3.42 84.51, -0.22 93.08" stroke="#f08c00" stroke-width="2" fill="none"></path></g></g><mask id="mask-jv-2mg_Dmdl0z-uXuU8EL"><rect x="0" y="0" fill="#fff" width="993.8030169622067" height="296.533"></rect><rect x="798.3377415003048" y="124.76650063578285" fill="#000" width="190.8798370361328" height="50" opacity="1"></rect></mask><g mask="url(#mask-0r9sFkEMUy_UVkoeXCKdq)" stroke-linecap="round"><g transform="translate(1201.6946409537422 103.00000127156568) rotate(0 0.029419150456988064 46.76649936421717)"><path d="M0.45 1.1 C0.6 16.87, -0.06 77.96, -0.01 93.5 M-0.78 0.63 C-0.71 16.71, -1.18 79.72, -0.99 95.02" stroke="#f08c00" stroke-width="2" fill="none"></path></g><g transform="translate(1201.6946409537422 103.00000127156568) rotate(0 0.029419150456988064 46.76649936421717)"><path d="M-9.56 71.54 C-6.05 76.62, -6.03 83.1, -0.99 95.02 M-9.56 71.54 C-6.32 81.01, -3.24 89.39, -0.99 95.02" stroke="#f08c00" stroke-width="2" fill="none"></path></g><g transform="translate(1201.6946409537422 103.00000127156568) rotate(0 0.029419150456988064 46.76649936421717)"><path d="M7.54 71.52 C7.24 76.67, 3.46 83.16, -0.99 95.02 M7.54 71.52 C4.48 81.05, 1.26 89.44, -0.99 95.02" stroke="#f08c00" stroke-width="2" fill="none"></path></g></g><mask id="mask-0r9sFkEMUy_UVkoeXCKdq"><rect x="0" y="0" fill="#fff" width="1301.7534792546562" height="296.533"></rect><rect x="1133.8941269376953" y="124.76650063578285" fill="#000" width="135.6598663330078" height="50" opacity="1"></rect></mask><g mask="url(#mask-vpq9KjsMshHli6QwzgYzb)" stroke-linecap="round"><g transform="translate(1702.4916410960536 103.00000127156568) rotate(0 0.02941910753202137 46.76649936421717)"><path d="M-0.07 -0.03 C-0.02 15.51, 0.58 78.69, 0.75 94.35 M-1.56 -1.09 C-1.65 14.63, -0.21 77.18, 0.16 92.66" stroke="#f08c00" stroke-width="2" fill="none"></path></g><g transform="translate(1702.4916410960536 103.00000127156568) rotate(0 0.02941910753202137 46.76649936421717)"><path d="M-8.93 69.37 C-5.7 78.38, -1.22 86.55, 0.16 92.66 M-8.93 69.37 C-6.08 77.64, -3.29 84.98, 0.16 92.66" stroke="#f08c00" stroke-width="2" fill="none"></path></g><g transform="translate(1702.4916410960536 103.00000127156568) rotate(0 0.02941910753202137 46.76649936421717)"><path d="M8.17 68.98 C5.63 78.11, 4.35 86.41, 0.16 92.66 M8.17 68.98 C5.31 77.52, 2.41 84.99, 0.16 92.66" stroke="#f08c00" stroke-width="2" fill="none"></path></g></g><mask id="mask-vpq9KjsMshHli6QwzgYzb"><rect x="0" y="0" fill="#fff" width="1802.5504793111177" height="296.533"></rect><rect x="1618.3811294784878" y="124.76650063578285" fill="#000" width="168.2798614501953" height="50" opacity="1"></rect></mask><g mask="url(#mask-qeN2GES6kkpsbLvLOqTJw)" stroke-linecap="round"><g transform="translate(2152.422477782719 103.00000127156568) rotate(0 1.8035516920031114 46.76649936421717)"><path d="M0.69 0.82 C1.44 16.48, 4.01 78.31, 4.48 93.93 M-0.41 0.21 C0.27 15.5, 3.48 76.6, 3.99 92.02" stroke="#f08c00" stroke-width="2" fill="none"></path></g><g transform="translate(2152.422477782719 103.00000127156568) rotate(0 1.8035516920031114 46.76649936421717)"><path d="M-5.59 68.93 C-1.4 77.13, 0.72 82.3, 3.99 92.02 M-5.59 68.93 C-2.34 77.9, 2.66 86.89, 3.99 92.02" stroke="#f08c00" stroke-width="2" fill="none"></path></g><g transform="translate(2152.422477782719 103.00000127156568) rotate(0 1.8035516920031114 46.76649936421717)"><path d="M11.5 68.17 C10.65 76.7, 7.74 82.08, 3.99 92.02 M11.5 68.17 C8.18 77.54, 6.6 86.81, 3.99 92.02" stroke="#f08c00" stroke-width="2" fill="none"></path></g></g><mask id="mask-qeN2GES6kkpsbLvLOqTJw"><rect x="0" y="0" fill="#fff" width="2256.029581166725" height="296.533"></rect><rect x="2068.1360941719877" y="137.26650063578285" fill="#000" width="172.17987060546875" height="25" opacity="1"></rect></mask><g mask="url(#mask-ijihOeLi3kdr40_ZwBeON)" stroke-linecap="round"><g transform="translate(185.93723168869442 247.00000381469732) rotate(0 30.72320025497868 65.16449809265137)"><path d="M0.88 0.4 C10.98 22.15, 51.28 109.57, 61.34 131.34 M-0.12 -0.43 C9.76 20.93, 50.26 108.17, 60.34 129.75" stroke="#f08c00" stroke-width="2" fill="none"></path></g><g transform="translate(185.93723168869442 247.00000381469732) rotate(0 30.72320025497868 65.16449809265137)"><path d="M42.67 112.06 C49.77 118.08, 57.1 124.24, 60.34 129.75 M42.67 112.06 C49.84 118.62, 54.49 124.15, 60.34 129.75" stroke="#f08c00" stroke-width="2" fill="none"></path></g><g transform="translate(185.93723168869442 247.00000381469732) rotate(0 30.72320025497868 65.16449809265137)"><path d="M58.18 104.85 C59.79 113.55, 61.58 122.29, 60.34 129.75 M58.18 104.85 C59.77 114.01, 58.87 122.12, 60.34 129.75" stroke="#f08c00" stroke-width="2" fill="none"></path></g></g><mask id="mask-ijihOeLi3kdr40_ZwBeON"><rect x="0" y="0" fill="#fff" width="347.38363219865175" height="477.32900000000006"></rect><rect x="112.25051220490357" y="299.66450190734867" fill="#000" width="208.81983947753906" height="25" opacity="1"></rect></mask><g stroke-linecap="round"><g transform="translate(522.0941672013025 247.00000381469727) rotate(0 -77.78374327614054 65.16449809265134)"><path d="M-0.1 1.01 C-26.21 22.78, -129.78 109.44, -155.77 131.02 M-1.62 0.5 C-27.98 21.89, -130.91 107.36, -156.82 129.26" stroke="#f08c00" stroke-width="2" fill="none"></path></g><g transform="translate(522.0941672013025 247.00000381469727) rotate(0 -77.78374327614054 65.16449809265134)"><path d="M-144.28 107.63 C-147.2 115.36, -152.41 122.96, -156.82 129.26 M-144.28 107.63 C-148.79 113.94, -152.95 121.32, -156.82 129.26" stroke="#f08c00" stroke-width="2" fill="none"></path></g><g transform="translate(522.0941672013025 247.00000381469727) rotate(0 -77.78374327614054 65.16449809265134)"><path d="M-133.31 120.75 C-140.36 123.57, -149.66 126.28, -156.82 129.26 M-133.31 120.75 C-141.4 122.95, -149.02 126.2, -156.82 129.26" stroke="#f08c00" stroke-width="2" fill="none"></path></g></g><mask></mask><g stroke-linecap="round"><g transform="translate(1196.2345211444647 265.33333714803064) rotate(0 -24.59697651537988 54.26683142598466)"><path d="M-0.2 0.69 C-8.46 18.64, -41.69 90.69, -49.67 108.72 M-1.76 0.01 C-10.21 18.7, -43.12 91.97, -50.87 110.35" stroke="#f08c00" stroke-width="2" fill="none"></path></g><g transform="translate(1196.2345211444647 265.33333714803064) rotate(0 -24.59697651537988 54.26683142598466)"><path d="M-49.29 85.4 C-48.38 91.87, -49.69 101.77, -50.87 110.35 M-49.29 85.4 C-50.95 93.54, -49.64 101.35, -50.87 110.35" stroke="#f08c00" stroke-width="2" fill="none"></path></g><g transform="translate(1196.2345211444647 265.33333714803064) rotate(0 -24.59697651537988 54.26683142598466)"><path d="M-33.62 92.25 C-37.34 96.7, -43.21 104.6, -50.87 110.35 M-33.62 92.25 C-40.34 98.07, -44.12 103.65, -50.87 110.35" stroke="#f08c00" stroke-width="2" fill="none"></path></g></g><mask></mask><g stroke-linecap="round"><g transform="translate(1692.2601757471334 265.33333714803064) rotate(0 -22.23162449399149 54.26683142598466)"><path d="M-0.48 0.18 C-7.67 18.21, -35.88 90.89, -43.36 108.84 M1.47 -0.77 C-5.77 16.82, -36.33 88.61, -43.74 106.88" stroke="#f08c00" stroke-width="2" fill="none"></path></g><g transform="translate(1692.2601757471334 265.33333714803064) rotate(0 -22.23162449399149 54.26683142598466)"><path d="M-42.59 81.91 C-42.47 90.81, -42.58 94.56, -43.74 106.88 M-42.59 81.91 C-42.24 87.75, -42.72 93.79, -43.74 106.88" stroke="#f08c00" stroke-width="2" fill="none"></path></g><g transform="translate(1692.2601757471334 265.33333714803064) rotate(0 -22.23162449399149 54.26683142598466)"><path d="M-26.81 88.48 C-31.19 95.46, -35.78 97.34, -43.74 106.88 M-26.81 88.48 C-30.28 92.72, -34.64 97.14, -43.74 106.88" stroke="#f08c00" stroke-width="2" fill="none"></path></g></g><mask></mask><g transform="translate(1042.855369567871 15) rotate(0 121.3659439086914 17.5)"><text x="121.3659439086914" y="24.528" font-family="Virgil, Segoe UI Emoji" font-size="28px" fill="#f08c00" text-anchor="middle" style="white-space: pre;" direction="ltr" dominant-baseline="alphabetic">FishWatch System</text></g><g stroke-linecap="round"><g transform="translate(2143.6029764526847 268.666670481364) rotate(0 -22.83576617505514 52.60016475931798)"><path d="M1.1 0.31 C-6.58 17.7, -38.59 87.06, -46.57 104.55 M0.22 -0.58 C-7.05 16.95, -36.88 87.89, -44.33 105.75" stroke="#f08c00" stroke-width="2" fill="none"></path></g><g transform="translate(2143.6029764526847 268.666670481364) rotate(0 -22.83576617505514 52.60016475931798)"><path d="M-43.14 80.78 C-42.9 85.78, -44.81 91.86, -44.33 105.75 M-43.14 80.78 C-42.61 87.92, -42.75 95.78, -44.33 105.75" stroke="#f08c00" stroke-width="2" fill="none"></path></g><g transform="translate(2143.6029764526847 268.666670481364) rotate(0 -22.83576617505514 52.60016475931798)"><path d="M-27.37 87.39 C-31.24 90.82, -37.25 95.17, -44.33 105.75 M-27.37 87.39 C-31.66 92.48, -36.56 98.35, -44.33 105.75" stroke="#f08c00" stroke-width="2" fill="none"></path></g></g><mask></mask><g transform="translate(121.14486694335938 67.66666730244947) rotate(0 74.34992980957031 12.5)"><text x="74.34992980957031" y="17.52" font-family="Virgil, Segoe UI Emoji" font-size="20px" fill="#f08c00" text-anchor="middle" style="white-space: pre;" direction="ltr" dominant-baseline="alphabetic">Edge Computing</text></g><g transform="translate(69.49488830566406 211.66666984558105) rotate(0 125.99990844726562 12.5)"><text x="125.99990844726562" y="17.52" font-family="Virgil, Segoe UI Emoji" font-size="20px" fill="#f08c00" text-anchor="middle" style="white-space: pre;" direction="ltr" dominant-baseline="alphabetic">Data Volume and Velocity</text></g><g transform="translate(397.97930908203125 67.66666730244947) rotate(0 128.4998779296875 12.5)"><text x="128.4998779296875" y="17.52" font-family="Virgil, Segoe UI Emoji" font-size="20px" fill="#f08c00" text-anchor="middle" style="white-space: pre;" direction="ltr" dominant-baseline="alphabetic">Microservices Architecture</text></g><g transform="translate(476.97923278808594 211.66666984558105) rotate(0 49.49995422363281 12.5)"><text x="49.49995422363281" y="17.52" font-family="Virgil, Segoe UI Emoji" font-size="20px" fill="#f08c00" text-anchor="middle" style="white-space: pre;" direction="ltr" dominant-baseline="alphabetic">Scalability</text></g><g transform="translate(803.4778366088867 67.66666730244947) rotate(0 90.33990478515625 12.5)"><text x="90.33990478515625" y="17.52" font-family="Virgil, Segoe UI Emoji" font-size="20px" fill="#f08c00" text-anchor="middle" style="white-space: pre;" direction="ltr" dominant-baseline="alphabetic">Security Protocols</text></g><g transform="translate(792.9978256225586 211.66666984558105) rotate(0 100.81991577148438 12.5)"><text x="100.81991577148438" y="17.52" font-family="Virgil, Segoe UI Emoji" font-size="20px" fill="#f08c00" text-anchor="middle" style="white-space: pre;" direction="ltr" dominant-baseline="alphabetic">Security and Privacy</text></g><g transform="translate(1106.0161743164062 67.66666730244947) rotate(0 95.7599105834961 12.5)"><text x="95.7599105834961" y="17.52" font-family="Virgil, Segoe UI Emoji" font-size="20px" fill="#f08c00" text-anchor="middle" style="white-space: pre;" direction="ltr" dominant-baseline="alphabetic">User-Centric Design</text></g><g transform="translate(1146.396125793457 207.33333587646484) rotate(0 55.379966735839844 25)"><text x="55.379966735839844" y="17.52" font-family="Virgil, Segoe UI Emoji" font-size="20px" fill="#f08c00" text-anchor="middle" style="white-space: pre;" direction="ltr" dominant-baseline="alphabetic">Farm User </text><text x="55.379966735839844" y="42.519999999999996" font-family="Virgil, Segoe UI Emoji" font-size="20px" fill="#f08c00" text-anchor="middle" style="white-space: pre;" direction="ltr" dominant-baseline="alphabetic">Adoption</text></g><g transform="translate(1595.993034362793 67.66666730244947) rotate(0 106.57992553710938 12.5)"><text x="106.57992553710938" y="17.52" font-family="Virgil, Segoe UI Emoji" font-size="20px" fill="#f08c00" text-anchor="middle" style="white-space: pre;" direction="ltr" dominant-baseline="alphabetic">Flexible API Gateway</text></g><g transform="translate(1539.903091430664 207.33333587646484) rotate(0 162.6698760986328 25)"><text x="162.6698760986328" y="17.52" font-family="Virgil, Segoe UI Emoji" font-size="20px" fill="#f08c00" text-anchor="middle" style="white-space: pre;" direction="ltr" dominant-baseline="alphabetic">Existing hardware and software </text><text x="162.6698760986328" y="42.519999999999996" font-family="Virgil, Segoe UI Emoji" font-size="20px" fill="#f08c00" text-anchor="middle" style="white-space: pre;" direction="ltr" dominant-baseline="alphabetic">systems used by Fish Farms</text></g><g transform="translate(2045.8207702636719 67.66666730244947) rotate(0 105.81989288330078 12.5)"><text x="105.81989288330078" y="17.52" font-family="Virgil, Segoe UI Emoji" font-size="20px" fill="#f08c00" text-anchor="middle" style="white-space: pre;" direction="ltr" dominant-baseline="alphabetic">Connectivity Solutions</text></g><g transform="translate(2067.084088643392 209.00000254313153) rotate(0 90.3899154663086 25)"><text x="90.3899154663086" y="17.52" font-family="Virgil, Segoe UI Emoji" font-size="20px" fill="#f08c00" text-anchor="middle" style="white-space: pre;" direction="ltr" dominant-baseline="alphabetic">Connectivity using </text><text x="90.3899154663086" y="42.519999999999996" font-family="Virgil, Segoe UI Emoji" font-size="20px" fill="#f08c00" text-anchor="middle" style="white-space: pre;" direction="ltr" dominant-baseline="alphabetic">SatCom, LoROWAN</text></g><g transform="translate(191.87709045410156 389.0000057220459) rotate(0 104.10990142822266 12.5)"><text x="104.10990142822266" y="17.52" font-family="Virgil, Segoe UI Emoji" font-size="20px" fill="#f08c00" text-anchor="middle" style="white-space: pre;" direction="ltr" dominant-baseline="alphabetic">Cloud Infrastructure</text></g><g transform="translate(950.9462280273438 389.0000057220459) rotate(0 185.82986450195312 12.5)"><text x="185.82986450195312" y="17.52" font-family="Virgil, Segoe UI Emoji" font-size="20px" fill="#f08c00" text-anchor="middle" style="white-space: pre;" direction="ltr" dominant-baseline="alphabetic">User Engagement and Adoption Rates</text></g><g transform="translate(1434.6031188964844 389.0000057220459) rotate(0 202.96983337402344 12.5)"><text x="202.96983337402344" y="17.52" font-family="Virgil, Segoe UI Emoji" font-size="20px" fill="#f08c00" text-anchor="middle" style="white-space: pre;" direction="ltr" dominant-baseline="alphabetic">Existing Hardware and Software Systems</text></g><g transform="translate(1948.3607788085938 389.0000057220459) rotate(0 138.27989196777344 12.5)"><text x="138.27989196777344" y="17.52" font-family="Virgil, Segoe UI Emoji" font-size="20px" fill="#f08c00" text-anchor="middle" style="white-space: pre;" direction="ltr" dominant-baseline="alphabetic">Remote Fish Farm Locations</text></g><g transform="translate(93.16474298971684 137.26650063578285) rotate(0 102.95462371503343 12.646121579785813)"><text x="102.2899169921875" y="17.52" font-family="Virgil, Segoe UI Emoji" font-size="20px" fill="#f08c00" text-anchor="middle" style="white-space: pre;" direction="ltr" dominant-baseline="alphabetic">Process data locally</text></g><g transform="translate(416.6887512852797 124.76650063578285) rotate(0 109.95752775094239 25.16500104234555)"><text x="109.74990844726562" y="17.52" font-family="Virgil, Segoe UI Emoji" font-size="20px" fill="#f08c00" text-anchor="middle" style="white-space: pre;" direction="ltr" dominant-baseline="alphabetic">Independently scalable</text><text x="109.74990844726562" y="42.519999999999996" font-family="Virgil, Segoe UI Emoji" font-size="20px" fill="#f08c00" text-anchor="middle" style="white-space: pre;" direction="ltr" dominant-baseline="alphabetic">components</text></g><g transform="translate(798.3377415003047 124.76650063578285) rotate(0 95.34115657407108 24.97106730416418)"><text x="95.4399185180664" y="17.52" font-family="Virgil, Segoe UI Emoji" font-size="20px" fill="#f08c00" text-anchor="middle" style="white-space: pre;" direction="ltr" dominant-baseline="alphabetic">Industry-standard </text><text x="95.4399185180664" y="42.519999999999996" font-family="Virgil, Segoe UI Emoji" font-size="20px" fill="#f08c00" text-anchor="middle" style="white-space: pre;" direction="ltr" dominant-baseline="alphabetic">security</text></g><g transform="translate(1133.8941269376953 124.76650063578285) rotate(0 67.5177349074014 26.059148451546193)"><text x="67.8299331665039" y="17.52" font-family="Virgil, Segoe UI Emoji" font-size="20px" fill="#f08c00" text-anchor="middle" style="white-space: pre;" direction="ltr" dominant-baseline="alphabetic">Customizable </text><text x="67.8299331665039" y="42.519999999999996" font-family="Virgil, Segoe UI Emoji" font-size="20px" fill="#f08c00" text-anchor="middle" style="white-space: pre;" direction="ltr" dominant-baseline="alphabetic">dashboards</text></g><g transform="translate(1618.381129478488 124.76650063578285) rotate(0 83.70006614845931 24.86361639537384)"><text x="84.13993072509766" y="17.52" font-family="Virgil, Segoe UI Emoji" font-size="20px" fill="#f08c00" text-anchor="middle" style="white-space: pre;" direction="ltr" dominant-baseline="alphabetic">Integration with </text><text x="84.13993072509766" y="42.519999999999996" font-family="Virgil, Segoe UI Emoji" font-size="20px" fill="#f08c00" text-anchor="middle" style="white-space: pre;" direction="ltr" dominant-baseline="alphabetic">existing systems</text></g><g transform="translate(2068.1360941719877 137.26650063578285) rotate(0 86.3214097599639 12.803524924595834)"><text x="86.08993530273438" y="17.52" font-family="Virgil, Segoe UI Emoji" font-size="20px" fill="#f08c00" text-anchor="middle" style="white-space: pre;" direction="ltr" dominant-baseline="alphabetic">Ensure data flow</text></g><g transform="translate(112.25051220490354 299.6645019073487) rotate(0 104.29600827171933 12.78957401968998)"><text x="104.40991973876953" y="17.52" font-family="Virgil, Segoe UI Emoji" font-size="20px" fill="#f08c00" text-anchor="middle" style="white-space: pre;" direction="ltr" dominant-baseline="alphabetic">Reduce load on cloud</text></g></svg>