<svg xmlns="http://www.w3.org/2000/svg" xmlns:xlink="http://www.w3.org/1999/xlink" width="216" zoomAndPan="magnify" viewBox="0 0 162 55.5" height="74" preserveAspectRatio="xMidYMid meet" version="1.0"><defs><g/><clipPath id="9f3c8016d0"><path d="M 109.035156 1.589844 L 139 1.589844 L 139 27 L 109.035156 27 Z M 109.035156 1.589844 " clip-rule="nonzero"/></clipPath><clipPath id="0c54968048"><path d="M 131 14 L 161.277344 14 L 161.277344 41 L 131 41 Z M 131 14 " clip-rule="nonzero"/></clipPath><clipPath id="a763df777b"><path d="M 109.035156 27 L 139 27 L 139 53.304688 L 109.035156 53.304688 Z M 109.035156 27 " clip-rule="nonzero"/></clipPath><clipPath id="2a7aa4dcd4"><path d="M 138.550781 18.195312 L 156.574219 18.195312 L 156.574219 36.742188 L 138.550781 36.742188 Z M 138.550781 18.195312 " clip-rule="nonzero"/></clipPath><clipPath id="55461723a8"><path d="M 115 4 L 130.667969 4 L 130.667969 23.804688 L 115 23.804688 Z M 115 4 " clip-rule="nonzero"/></clipPath><clipPath id="8fca48dbcb"><path d="M 117 32.332031 L 131.984375 32.332031 L 131.984375 46.4375 L 117 46.4375 Z M 117 32.332031 " clip-rule="nonzero"/></clipPath><clipPath id="7dcb260987"><path d="M 113.703125 38 L 125 38 L 125 46.4375 L 113.703125 46.4375 Z M 113.703125 38 " clip-rule="nonzero"/></clipPath></defs><g fill="#e37e03" fill-opacity="1"><g transform="translate(0.723215, 35.957185)"><g><path d="M 0.6875 0 L 7.109375 -17.953125 L 10.9375 -17.953125 L 17.359375 0 L 13.75 0 L 12.28125 -4.15625 L 5.828125 -4.15625 L 4.3125 0 Z M 6.625 -7.328125 L 11.40625 -7.328125 L 9.03125 -14.453125 Z M 6.625 -7.328125 "/></g></g></g><g fill="#e37e03" fill-opacity="1"><g transform="translate(18.385239, 35.957185)"><g><path d="M 1.546875 0 L 1.546875 -12.84375 L 5.046875 -12.84375 L 5.046875 -9.796875 C 5.242188 -10.453125 5.53125 -11.023438 5.90625 -11.515625 C 6.289062 -12.003906 6.75 -12.382812 7.28125 -12.65625 C 7.820312 -12.9375 8.429688 -13.078125 9.109375 -13.078125 C 9.222656 -13.078125 9.332031 -13.070312 9.4375 -13.0625 C 9.539062 -13.050781 9.617188 -13.035156 9.671875 -13.015625 L 9.671875 -9.5625 C 9.597656 -9.59375 9.507812 -9.613281 9.40625 -9.625 C 9.300781 -9.632812 9.207031 -9.640625 9.125 -9.640625 C 8.414062 -9.703125 7.804688 -9.679688 7.296875 -9.578125 C 6.796875 -9.484375 6.382812 -9.316406 6.0625 -9.078125 C 5.75 -8.835938 5.519531 -8.539062 5.375 -8.1875 C 5.238281 -7.84375 5.171875 -7.457031 5.171875 -7.03125 L 5.171875 0 Z M 1.546875 0 "/></g></g></g><g fill="#e37e03" fill-opacity="1"><g transform="translate(28.103665, 35.957185)"><g><path d="M 7.046875 -13.078125 C 8.128906 -13.078125 9.0625 -12.859375 9.84375 -12.421875 C 10.625 -11.984375 11.238281 -11.390625 11.6875 -10.640625 C 12.132812 -9.898438 12.394531 -9.070312 12.46875 -8.15625 L 9.453125 -8.15625 C 9.390625 -8.5 9.265625 -8.835938 9.078125 -9.171875 C 8.898438 -9.503906 8.644531 -9.78125 8.3125 -10 C 7.988281 -10.21875 7.578125 -10.328125 7.078125 -10.328125 C 6.234375 -10.328125 5.546875 -10 5.015625 -9.34375 C 4.492188 -8.695312 4.234375 -7.710938 4.234375 -6.390625 C 4.234375 -5.140625 4.488281 -4.148438 5 -3.421875 C 5.507812 -2.691406 6.226562 -2.328125 7.15625 -2.328125 C 7.644531 -2.328125 8.050781 -2.445312 8.375 -2.6875 C 8.695312 -2.925781 8.945312 -3.210938 9.125 -3.546875 C 9.3125 -3.878906 9.429688 -4.191406 9.484375 -4.484375 L 12.421875 -4.484375 C 12.367188 -3.597656 12.113281 -2.796875 11.65625 -2.078125 C 11.195312 -1.359375 10.578125 -0.789062 9.796875 -0.375 C 9.015625 0.0390625 8.097656 0.25 7.046875 0.25 C 5.859375 0.25 4.796875 -0.015625 3.859375 -0.546875 C 2.921875 -1.078125 2.1875 -1.835938 1.65625 -2.828125 C 1.125 -3.816406 0.859375 -5 0.859375 -6.375 C 0.859375 -7.695312 1.113281 -8.863281 1.625 -9.875 C 2.132812 -10.882812 2.851562 -11.671875 3.78125 -12.234375 C 4.71875 -12.796875 5.804688 -13.078125 7.046875 -13.078125 Z M 7.046875 -13.078125 "/></g></g></g><g fill="#e37e03" fill-opacity="1"><g transform="translate(41.136061, 35.957185)"><g><path d="M 1.546875 0 L 1.546875 -18.453125 L 5.15625 -18.453125 L 5.15625 -10.984375 C 5.363281 -11.285156 5.625 -11.582031 5.9375 -11.875 C 6.25 -12.164062 6.640625 -12.410156 7.109375 -12.609375 C 7.585938 -12.804688 8.164062 -12.90625 8.84375 -12.90625 C 9.65625 -12.90625 10.398438 -12.742188 11.078125 -12.421875 C 11.753906 -12.109375 12.296875 -11.648438 12.703125 -11.046875 C 13.109375 -10.441406 13.3125 -9.707031 13.3125 -8.84375 L 13.3125 0 L 9.6875 0 L 9.6875 -8.3125 C 9.6875 -8.882812 9.472656 -9.328125 9.046875 -9.640625 C 8.628906 -9.953125 8.125 -10.109375 7.53125 -10.109375 C 7.144531 -10.109375 6.769531 -10.035156 6.40625 -9.890625 C 6.039062 -9.753906 5.742188 -9.539062 5.515625 -9.25 C 5.285156 -8.96875 5.171875 -8.613281 5.171875 -8.1875 L 5.171875 0 Z M 1.546875 0 "/></g></g></g><g fill="#e37e03" fill-opacity="1"><g transform="translate(55.471705, 35.957185)"><g><path d="M 2.015625 0 L 2.015625 -17.953125 L 8.515625 -17.953125 C 10.867188 -17.953125 12.613281 -17.546875 13.75 -16.734375 C 14.882812 -15.929688 15.453125 -14.769531 15.453125 -13.25 C 15.453125 -12.351562 15.222656 -11.578125 14.765625 -10.921875 C 14.316406 -10.265625 13.507812 -9.691406 12.34375 -9.203125 C 13.09375 -9.003906 13.695312 -8.742188 14.15625 -8.421875 C 14.625 -8.097656 14.984375 -7.738281 15.234375 -7.34375 C 15.484375 -6.957031 15.648438 -6.550781 15.734375 -6.125 C 15.828125 -5.695312 15.875 -5.273438 15.875 -4.859375 C 15.875 -3.210938 15.3125 -1.988281 14.1875 -1.1875 C 13.0625 -0.394531 11.269531 0 8.8125 0 Z M 5.625 -2.8125 L 8.890625 -2.8125 C 9.984375 -2.8125 10.804688 -3.03125 11.359375 -3.46875 C 11.921875 -3.90625 12.203125 -4.488281 12.203125 -5.21875 C 12.203125 -5.75 12.066406 -6.191406 11.796875 -6.546875 C 11.523438 -6.910156 11.15625 -7.179688 10.6875 -7.359375 C 10.21875 -7.546875 9.6875 -7.640625 9.09375 -7.640625 L 5.625 -7.640625 Z M 5.625 -10.53125 L 9.09375 -10.53125 C 9.457031 -10.53125 9.8125 -10.570312 10.15625 -10.65625 C 10.5 -10.738281 10.804688 -10.867188 11.078125 -11.046875 C 11.347656 -11.234375 11.5625 -11.46875 11.71875 -11.75 C 11.875 -12.039062 11.953125 -12.382812 11.953125 -12.78125 C 11.953125 -13.550781 11.660156 -14.132812 11.078125 -14.53125 C 10.492188 -14.9375 9.75 -15.140625 8.84375 -15.140625 L 5.625 -15.140625 Z M 5.625 -10.53125 "/></g></g></g><g fill="#e37e03" fill-opacity="1"><g transform="translate(72.091127, 35.957185)"><g><path d="M 4.53125 -5.59375 C 4.519531 -4.9375 4.625 -4.363281 4.84375 -3.875 C 5.0625 -3.394531 5.375 -3.023438 5.78125 -2.765625 C 6.1875 -2.503906 6.679688 -2.375 7.265625 -2.375 C 7.878906 -2.375 8.421875 -2.503906 8.890625 -2.765625 C 9.359375 -3.035156 9.6875 -3.472656 9.875 -4.078125 L 13.140625 -4.078125 C 12.992188 -3.160156 12.628906 -2.378906 12.046875 -1.734375 C 11.460938 -1.085938 10.753906 -0.59375 9.921875 -0.25 C 9.097656 0.0820312 8.238281 0.25 7.34375 0.25 C 6.082031 0.25 4.96875 -0.015625 4 -0.546875 C 3.039062 -1.085938 2.289062 -1.84375 1.75 -2.8125 C 1.207031 -3.789062 0.9375 -4.941406 0.9375 -6.265625 C 0.9375 -7.546875 1.179688 -8.703125 1.671875 -9.734375 C 2.160156 -10.765625 2.867188 -11.578125 3.796875 -12.171875 C 4.734375 -12.773438 5.851562 -13.078125 7.15625 -13.078125 C 8.46875 -13.078125 9.566406 -12.800781 10.453125 -12.25 C 11.347656 -11.707031 12.019531 -10.941406 12.46875 -9.953125 C 12.914062 -8.972656 13.140625 -7.84375 13.140625 -6.5625 L 13.140625 -5.59375 Z M 4.515625 -7.75 L 9.75 -7.75 C 9.75 -8.257812 9.65625 -8.726562 9.46875 -9.15625 C 9.28125 -9.59375 8.992188 -9.929688 8.609375 -10.171875 C 8.222656 -10.421875 7.738281 -10.546875 7.15625 -10.546875 C 6.59375 -10.546875 6.113281 -10.410156 5.71875 -10.140625 C 5.332031 -9.878906 5.035156 -9.53125 4.828125 -9.09375 C 4.617188 -8.664062 4.515625 -8.21875 4.515625 -7.75 Z M 4.515625 -7.75 "/></g></g></g><g fill="#e37e03" fill-opacity="1"><g transform="translate(85.830993, 35.957185)"><g><path d="M 4.53125 -5.59375 C 4.519531 -4.9375 4.625 -4.363281 4.84375 -3.875 C 5.0625 -3.394531 5.375 -3.023438 5.78125 -2.765625 C 6.1875 -2.503906 6.679688 -2.375 7.265625 -2.375 C 7.878906 -2.375 8.421875 -2.503906 8.890625 -2.765625 C 9.359375 -3.035156 9.6875 -3.472656 9.875 -4.078125 L 13.140625 -4.078125 C 12.992188 -3.160156 12.628906 -2.378906 12.046875 -1.734375 C 11.460938 -1.085938 10.753906 -0.59375 9.921875 -0.25 C 9.097656 0.0820312 8.238281 0.25 7.34375 0.25 C 6.082031 0.25 4.96875 -0.015625 4 -0.546875 C 3.039062 -1.085938 2.289062 -1.84375 1.75 -2.8125 C 1.207031 -3.789062 0.9375 -4.941406 0.9375 -6.265625 C 0.9375 -7.546875 1.179688 -8.703125 1.671875 -9.734375 C 2.160156 -10.765625 2.867188 -11.578125 3.796875 -12.171875 C 4.734375 -12.773438 5.851562 -13.078125 7.15625 -13.078125 C 8.46875 -13.078125 9.566406 -12.800781 10.453125 -12.25 C 11.347656 -11.707031 12.019531 -10.941406 12.46875 -9.953125 C 12.914062 -8.972656 13.140625 -7.84375 13.140625 -6.5625 L 13.140625 -5.59375 Z M 4.515625 -7.75 L 9.75 -7.75 C 9.75 -8.257812 9.65625 -8.726562 9.46875 -9.15625 C 9.28125 -9.59375 8.992188 -9.929688 8.609375 -10.171875 C 8.222656 -10.421875 7.738281 -10.546875 7.15625 -10.546875 C 6.59375 -10.546875 6.113281 -10.410156 5.71875 -10.140625 C 5.332031 -9.878906 5.035156 -9.53125 4.828125 -9.09375 C 4.617188 -8.664062 4.515625 -8.21875 4.515625 -7.75 Z M 4.515625 -7.75 "/></g></g></g><g fill="#e37e03" fill-opacity="1"><g transform="translate(99.570859, 35.957185)"><g><path d="M 6.625 0.25 C 5.726562 0.25 4.867188 0.101562 4.046875 -0.1875 C 3.222656 -0.488281 2.523438 -0.953125 1.953125 -1.578125 C 1.378906 -2.210938 1.015625 -3.035156 0.859375 -4.046875 L 4 -4.046875 C 4.101562 -3.585938 4.296875 -3.222656 4.578125 -2.953125 C 4.867188 -2.691406 5.195312 -2.503906 5.5625 -2.390625 C 5.925781 -2.285156 6.273438 -2.234375 6.609375 -2.234375 C 7.296875 -2.234375 7.851562 -2.34375 8.28125 -2.5625 C 8.707031 -2.78125 8.921875 -3.117188 8.921875 -3.578125 C 8.921875 -3.921875 8.796875 -4.195312 8.546875 -4.40625 C 8.296875 -4.613281 7.878906 -4.769531 7.296875 -4.875 L 5.046875 -5.34375 C 3.910156 -5.582031 3 -5.988281 2.3125 -6.5625 C 1.625 -7.144531 1.269531 -7.96875 1.25 -9.03125 C 1.25 -9.789062 1.453125 -10.476562 1.859375 -11.09375 C 2.273438 -11.707031 2.882812 -12.191406 3.6875 -12.546875 C 4.488281 -12.898438 5.472656 -13.078125 6.640625 -13.078125 C 8.222656 -13.078125 9.488281 -12.726562 10.4375 -12.03125 C 11.382812 -11.34375 11.863281 -10.363281 11.875 -9.09375 L 8.84375 -9.09375 C 8.757812 -9.59375 8.515625 -9.976562 8.109375 -10.25 C 7.710938 -10.519531 7.210938 -10.65625 6.609375 -10.65625 C 5.972656 -10.65625 5.453125 -10.539062 5.046875 -10.3125 C 4.640625 -10.09375 4.4375 -9.753906 4.4375 -9.296875 C 4.4375 -8.960938 4.601562 -8.695312 4.9375 -8.5 C 5.269531 -8.300781 5.785156 -8.132812 6.484375 -8 L 8.5625 -7.515625 C 9.28125 -7.347656 9.863281 -7.113281 10.3125 -6.8125 C 10.769531 -6.507812 11.125 -6.175781 11.375 -5.8125 C 11.625 -5.457031 11.796875 -5.097656 11.890625 -4.734375 C 11.984375 -4.378906 12.03125 -4.0625 12.03125 -3.78125 C 12.03125 -2.925781 11.800781 -2.195312 11.34375 -1.59375 C 10.882812 -0.988281 10.25 -0.53125 9.4375 -0.21875 C 8.632812 0.09375 7.695312 0.25 6.625 0.25 Z M 6.625 0.25 "/></g></g></g><g clip-path="url(#9f3c8016d0)"><path fill="#e37e03" d="M 131.003906 26.902344 L 116.359375 26.902344 L 109.035156 14.246094 L 116.359375 1.589844 L 131.003906 1.589844 L 138.324219 14.246094 Z M 116.925781 25.917969 L 130.433594 25.917969 L 137.1875 14.246094 L 130.433594 2.574219 L 116.925781 2.574219 L 110.171875 14.246094 Z M 116.925781 25.917969 " fill-opacity="1" fill-rule="nonzero"/></g><g clip-path="url(#0c54968048)"><path fill="#e37e03" d="M 153.953125 40.175781 L 139.308594 40.175781 L 131.988281 27.519531 L 139.308594 14.863281 L 153.953125 14.863281 L 161.277344 27.519531 Z M 139.878906 39.195312 L 153.386719 39.195312 L 160.140625 27.519531 L 153.386719 15.847656 L 139.878906 15.847656 L 133.125 27.519531 Z M 139.878906 39.195312 " fill-opacity="1" fill-rule="nonzero"/></g><g clip-path="url(#a763df777b)"><path fill="#e37e03" d="M 131.003906 53.304688 L 116.359375 53.304688 L 109.035156 40.648438 L 116.359375 27.992188 L 131.003906 27.992188 L 138.324219 40.648438 Z M 116.925781 52.320312 L 130.433594 52.320312 L 137.1875 40.648438 L 130.433594 28.976562 L 116.925781 28.976562 L 110.171875 40.648438 Z M 116.925781 52.320312 " fill-opacity="1" fill-rule="nonzero"/></g><path fill="#e37e03" d="M 147.542969 29.050781 C 147.714844 29.050781 147.851562 28.914062 147.851562 28.742188 L 147.851562 27.8125 L 148.164062 27.8125 C 148.675781 27.8125 149.09375 27.394531 149.09375 26.882812 C 149.09375 26.371094 148.675781 25.953125 148.164062 25.953125 L 147.542969 25.953125 C 147.371094 25.953125 147.234375 26.089844 147.234375 26.261719 L 147.234375 28.742188 C 147.234375 28.914062 147.371094 29.050781 147.542969 29.050781 Z M 147.851562 26.570312 L 148.164062 26.570312 C 148.332031 26.570312 148.472656 26.710938 148.472656 26.882812 C 148.472656 27.050781 148.332031 27.191406 148.164062 27.191406 L 147.851562 27.191406 Z M 147.851562 26.570312 " fill-opacity="1" fill-rule="nonzero"/><path fill="#e37e03" d="M 150.023438 29.050781 C 150.195312 29.050781 150.332031 28.914062 150.332031 28.742188 L 150.332031 26.261719 C 150.332031 26.089844 150.195312 25.953125 150.023438 25.953125 C 149.851562 25.953125 149.714844 26.089844 149.714844 26.261719 L 149.714844 28.742188 C 149.714844 28.914062 149.851562 29.050781 150.023438 29.050781 Z M 150.023438 29.050781 " fill-opacity="1" fill-rule="nonzero"/><path fill="#e37e03" d="M 145.0625 29.050781 C 145.234375 29.050781 145.371094 28.914062 145.371094 28.742188 L 145.371094 27.8125 L 145.992188 27.8125 L 145.992188 28.742188 C 145.992188 28.914062 146.132812 29.050781 146.300781 29.050781 C 146.472656 29.050781 146.613281 28.914062 146.613281 28.742188 L 146.613281 26.882812 C 146.613281 26.371094 146.195312 25.953125 145.683594 25.953125 C 145.171875 25.953125 144.753906 26.371094 144.753906 26.882812 L 144.753906 28.742188 C 144.753906 28.914062 144.890625 29.050781 145.0625 29.050781 Z M 145.371094 26.882812 C 145.371094 26.710938 145.511719 26.570312 145.683594 26.570312 C 145.851562 26.570312 145.992188 26.710938 145.992188 26.882812 L 145.992188 27.191406 L 145.371094 27.191406 Z M 145.371094 26.882812 " fill-opacity="1" fill-rule="nonzero"/><path fill="#e37e03" d="M 147.542969 32.152344 C 150.109375 32.152344 152.191406 30.066406 152.191406 27.5 C 152.191406 24.9375 150.109375 22.851562 147.542969 22.851562 C 144.976562 22.851562 142.890625 24.9375 142.890625 27.5 C 142.890625 30.066406 144.976562 32.152344 147.542969 32.152344 Z M 147.542969 23.472656 C 149.761719 23.472656 151.574219 25.28125 151.574219 27.5 C 151.574219 29.722656 149.761719 31.53125 147.542969 31.53125 C 145.320312 31.53125 143.511719 29.722656 143.511719 27.5 C 143.511719 25.28125 145.320312 23.472656 147.542969 23.472656 Z M 147.542969 23.472656 " fill-opacity="1" fill-rule="nonzero"/><g clip-path="url(#2a7aa4dcd4)"><path fill="#e37e03" d="M 139.480469 34.324219 C 139.992188 34.324219 140.410156 33.902344 140.410156 33.390625 C 140.410156 32.988281 140.152344 32.644531 139.792969 32.515625 L 139.792969 31.683594 L 142.125 29.816406 C 142.265625 30.136719 142.429688 30.449219 142.625 30.742188 L 142.054688 31.3125 C 141.933594 31.429688 141.933594 31.628906 142.054688 31.75 L 143.296875 32.988281 C 143.414062 33.109375 143.613281 33.109375 143.734375 32.988281 L 144.304688 32.417969 C 144.910156 32.820312 145.59375 33.105469 146.300781 33.261719 L 146.300781 34.324219 C 146.300781 34.492188 146.441406 34.632812 146.613281 34.632812 L 148.472656 34.632812 C 148.644531 34.632812 148.78125 34.492188 148.78125 34.324219 L 148.78125 33.261719 C 149.042969 33.207031 149.296875 33.132812 149.546875 33.039062 L 150.027344 35.921875 C 150.050781 36.074219 150.183594 36.183594 150.332031 36.183594 L 151.316406 36.183594 C 151.445312 36.542969 151.789062 36.800781 152.191406 36.800781 C 152.703125 36.800781 153.125 36.382812 153.125 35.871094 C 153.125 35.359375 152.703125 34.941406 152.191406 34.941406 C 151.789062 34.941406 151.445312 35.203125 151.316406 35.5625 L 150.597656 35.5625 L 150.136719 32.792969 C 150.359375 32.683594 150.578125 32.558594 150.785156 32.417969 L 151.355469 32.988281 C 151.476562 33.109375 151.675781 33.109375 151.792969 32.988281 L 153.035156 31.75 C 153.15625 31.628906 153.15625 31.429688 153.035156 31.3125 L 152.464844 30.742188 C 152.496094 30.695312 152.527344 30.648438 152.554688 30.601562 L 154.726562 30.601562 C 154.855469 30.960938 155.199219 31.222656 155.605469 31.222656 C 156.117188 31.222656 156.535156 30.804688 156.535156 30.292969 C 156.535156 29.78125 156.117188 29.363281 155.605469 29.363281 C 155.199219 29.363281 154.855469 29.621094 154.726562 29.980469 L 152.886719 29.980469 C 153.074219 29.585938 153.210938 29.167969 153.304688 28.742188 L 154.363281 28.742188 C 154.535156 28.742188 154.671875 28.601562 154.671875 28.429688 L 154.671875 26.570312 C 154.671875 26.402344 154.535156 26.261719 154.363281 26.261719 L 153.300781 26.261719 C 153.152344 25.550781 152.863281 24.871094 152.460938 24.261719 L 153.03125 23.691406 C 153.152344 23.570312 153.152344 23.375 153.03125 23.253906 L 151.789062 22.015625 C 151.671875 21.894531 151.472656 21.894531 151.351562 22.015625 L 150.78125 22.582031 C 150.574219 22.449219 150.355469 22.324219 150.136719 22.210938 L 151.75 19.441406 L 152.867188 19.441406 C 152.996094 19.800781 153.339844 20.058594 153.742188 20.058594 C 154.253906 20.058594 154.671875 19.640625 154.671875 19.128906 C 154.671875 18.617188 154.253906 18.199219 153.742188 18.199219 C 153.339844 18.199219 152.996094 18.460938 152.867188 18.820312 L 151.574219 18.820312 C 151.464844 18.820312 151.359375 18.878906 151.304688 18.976562 L 149.5625 21.96875 C 149.308594 21.875 149.050781 21.800781 148.785156 21.742188 L 148.785156 20.679688 C 148.785156 20.511719 148.648438 20.371094 148.476562 20.371094 L 146.617188 20.371094 C 146.445312 20.371094 146.304688 20.511719 146.304688 20.679688 L 146.304688 21.742188 C 145.597656 21.894531 144.914062 22.179688 144.308594 22.582031 L 143.738281 22.015625 C 143.617188 21.894531 143.417969 21.894531 143.300781 22.015625 L 142.851562 22.453125 L 141.34375 21.445312 L 141.34375 20.007812 C 141.703125 19.878906 141.960938 19.535156 141.960938 19.128906 C 141.960938 18.617188 141.542969 18.199219 141.03125 18.199219 C 140.519531 18.199219 140.101562 18.617188 140.101562 19.128906 C 140.101562 19.535156 140.363281 19.878906 140.722656 20.007812 L 140.722656 21.609375 C 140.722656 21.714844 140.773438 21.8125 140.863281 21.871094 L 142.40625 22.902344 L 142.054688 23.253906 C 141.933594 23.375 141.933594 23.570312 142.054688 23.691406 L 142.625 24.261719 C 142.226562 24.871094 141.9375 25.550781 141.785156 26.261719 L 140.722656 26.261719 C 140.550781 26.261719 140.410156 26.402344 140.410156 26.570312 L 140.410156 28.429688 C 140.410156 28.601562 140.550781 28.742188 140.722656 28.742188 L 141.785156 28.742188 C 141.820312 28.898438 141.855469 29.046875 141.902344 29.199219 L 139.292969 31.292969 C 139.21875 31.351562 139.175781 31.4375 139.175781 31.53125 L 139.175781 32.515625 C 138.816406 32.644531 138.554688 32.988281 138.554688 33.390625 C 138.550781 33.902344 138.96875 34.324219 139.480469 34.324219 Z M 152.191406 35.5625 C 152.363281 35.5625 152.503906 35.703125 152.503906 35.871094 C 152.503906 36.042969 152.363281 36.183594 152.191406 36.183594 C 152.023438 36.183594 151.882812 36.042969 151.882812 35.871094 C 151.882812 35.703125 152.023438 35.5625 152.191406 35.5625 Z M 155.605469 29.980469 C 155.773438 29.980469 155.914062 30.121094 155.914062 30.292969 C 155.914062 30.460938 155.773438 30.601562 155.605469 30.601562 C 155.433594 30.601562 155.292969 30.460938 155.292969 30.292969 C 155.292969 30.121094 155.433594 29.980469 155.605469 29.980469 Z M 153.742188 18.820312 C 153.914062 18.820312 154.054688 18.960938 154.054688 19.128906 C 154.054688 19.300781 153.914062 19.441406 153.742188 19.441406 C 153.574219 19.441406 153.433594 19.300781 153.433594 19.128906 C 153.433594 18.960938 153.574219 18.820312 153.742188 18.820312 Z M 141.03125 19.441406 C 140.863281 19.441406 140.722656 19.300781 140.722656 19.128906 C 140.722656 18.960938 140.863281 18.820312 141.03125 18.820312 C 141.203125 18.820312 141.34375 18.960938 141.34375 19.128906 C 141.34375 19.300781 141.203125 19.441406 141.03125 19.441406 Z M 141.03125 28.121094 L 141.03125 26.882812 L 142.039062 26.882812 C 142.191406 26.882812 142.320312 26.773438 142.347656 26.621094 C 142.476562 25.828125 142.804688 25.058594 143.277344 24.40625 C 143.363281 24.28125 143.351562 24.109375 143.246094 24 L 142.710938 23.472656 L 143.511719 22.667969 L 144.046875 23.203125 C 144.15625 23.3125 144.324219 23.324219 144.449219 23.234375 C 145.105469 22.757812 145.871094 22.4375 146.667969 22.304688 C 146.816406 22.28125 146.925781 22.148438 146.925781 22 L 146.925781 20.992188 L 148.167969 20.992188 L 148.167969 22 C 148.167969 22.148438 148.273438 22.277344 148.425781 22.304688 C 149.222656 22.4375 149.988281 22.761719 150.644531 23.234375 C 150.765625 23.324219 150.9375 23.3125 151.046875 23.203125 L 151.582031 22.667969 L 152.382812 23.472656 L 151.847656 24.003906 C 151.738281 24.113281 151.726562 24.285156 151.816406 24.410156 C 152.292969 25.0625 152.617188 25.832031 152.746094 26.625 C 152.769531 26.777344 152.902344 26.886719 153.054688 26.886719 L 154.0625 26.886719 L 154.0625 28.125 L 153.054688 28.125 C 152.902344 28.125 152.773438 28.234375 152.746094 28.386719 C 152.617188 29.179688 152.289062 29.945312 151.816406 30.601562 C 151.726562 30.726562 151.738281 30.894531 151.847656 31.003906 L 152.382812 31.539062 L 151.574219 32.335938 L 151.039062 31.800781 C 150.929688 31.691406 150.757812 31.679688 150.636719 31.769531 C 149.980469 32.246094 149.214844 32.566406 148.417969 32.699219 C 148.265625 32.722656 148.160156 32.851562 148.160156 33.003906 L 148.160156 34.011719 L 146.917969 34.011719 L 146.917969 33.003906 C 146.917969 32.851562 146.808594 32.726562 146.660156 32.699219 C 145.863281 32.566406 145.097656 32.246094 144.441406 31.769531 C 144.316406 31.679688 144.148438 31.691406 144.039062 31.800781 L 143.511719 32.335938 L 142.710938 31.53125 L 143.246094 30.996094 C 143.351562 30.886719 143.363281 30.71875 143.277344 30.59375 C 142.800781 29.9375 142.476562 29.171875 142.347656 28.378906 C 142.324219 28.226562 142.191406 28.117188 142.039062 28.117188 L 141.03125 28.117188 Z M 139.480469 33.082031 C 139.652344 33.082031 139.792969 33.222656 139.792969 33.390625 C 139.792969 33.5625 139.652344 33.703125 139.480469 33.703125 C 139.3125 33.703125 139.171875 33.5625 139.171875 33.390625 C 139.171875 33.222656 139.3125 33.082031 139.480469 33.082031 Z M 139.480469 33.082031 " fill-opacity="1" fill-rule="nonzero"/></g><g clip-path="url(#55461723a8)"><path fill="#e37e03" d="M 128.585938 21.1875 L 120.820312 21.1875 C 119.691406 21.1875 119.101562 22.566406 119.914062 23.378906 C 120.144531 23.609375 120.46875 23.757812 120.820312 23.757812 L 128.152344 23.757812 C 128.859375 23.757812 129.433594 23.179688 129.433594 22.472656 L 129.433594 22.035156 C 129.433594 21.570312 129.054688 21.1875 128.585938 21.1875 Z M 118.796875 11.082031 C 117.972656 10.257812 116.640625 10.257812 115.820312 11.082031 C 114.996094 11.902344 114.996094 13.234375 115.820312 14.058594 C 116.640625 14.878906 117.972656 14.878906 118.796875 14.058594 C 119.617188 13.230469 119.617188 11.898438 118.796875 11.082031 Z M 117.152344 12.199219 C 116.832031 11.882812 116.28125 12.109375 116.28125 12.5625 C 116.28125 13.015625 116.832031 13.242188 117.152344 12.921875 C 117.351562 12.722656 117.351562 12.402344 117.152344 12.199219 Z M 116.789062 11.605469 C 117.636719 11.605469 118.0625 12.636719 117.460938 13.234375 C 116.863281 13.835938 115.832031 13.410156 115.832031 12.5625 C 115.835938 12.03125 116.261719 11.605469 116.789062 11.605469 Z M 124.503906 10.734375 L 123.589844 10.734375 L 123.589844 12.648438 L 124.503906 12.648438 Z M 123.367188 10.289062 L 124.726562 10.289062 C 124.851562 10.289062 124.949219 10.386719 124.949219 10.511719 L 124.949219 12.871094 C 124.949219 12.992188 124.851562 13.09375 124.726562 13.09375 L 123.367188 13.09375 C 123.246094 13.09375 123.144531 12.996094 123.144531 12.871094 L 123.144531 10.515625 C 123.144531 10.394531 123.242188 10.289062 123.367188 10.289062 Z M 122.234375 11.53125 C 122.527344 11.53125 122.527344 11.972656 122.234375 11.972656 L 121.871094 11.972656 L 121.871094 13.003906 L 122.234375 13.003906 C 122.527344 13.003906 122.527344 13.449219 122.234375 13.449219 L 121.871094 13.449219 L 121.871094 13.871094 L 126.222656 13.871094 L 126.222656 13.449219 L 125.875 13.449219 C 125.582031 13.449219 125.582031 13.003906 125.875 13.003906 L 126.222656 13.003906 L 126.222656 11.972656 L 125.875 11.972656 C 125.582031 11.972656 125.582031 11.53125 125.875 11.53125 L 126.222656 11.53125 L 126.222656 10.5 L 125.875 10.5 C 125.582031 10.5 125.582031 10.054688 125.875 10.054688 L 126.222656 10.054688 L 126.222656 9.519531 L 121.871094 9.519531 L 121.871094 10.054688 L 122.234375 10.054688 C 122.527344 10.054688 122.527344 10.5 122.234375 10.5 L 121.871094 10.5 L 121.871094 11.53125 Z M 124.652344 18.539062 C 125.472656 17.933594 125.917969 16.953125 126.015625 15.636719 C 126.035156 15.34375 126.480469 15.378906 126.453125 15.667969 C 126.230469 18.683594 124.316406 19.757812 121.757812 19.746094 L 121.757812 20.742188 L 127.773438 20.742188 L 127.773438 18.550781 C 127.773438 18.460938 127.828125 18.378906 127.902344 18.34375 C 128.503906 18.011719 129.046875 17.597656 129.53125 17.117188 C 130.007812 16.652344 130.421875 16.121094 130.757812 15.542969 L 130.757812 7.964844 C 130.097656 6.832031 129.152344 5.882812 128.019531 5.222656 C 125.386719 3.695312 122.085938 3.90625 119.675781 5.738281 C 118.285156 6.792969 117.28125 8.308594 116.878906 10.050781 C 118.042969 9.851562 119.171875 10.476562 119.644531 11.53125 L 121.429688 11.53125 L 121.429688 10.5 L 120.671875 10.5 C 120.546875 10.5 120.449219 10.402344 120.449219 10.277344 L 120.449219 8.140625 C 120.011719 7.980469 119.882812 7.417969 120.21875 7.082031 C 120.621094 6.679688 121.308594 6.96875 121.308594 7.535156 C 121.308594 7.808594 121.136719 8.046875 120.890625 8.136719 L 120.890625 10.050781 L 121.425781 10.050781 L 121.425781 9.292969 C 121.425781 9.171875 121.523438 9.070312 121.648438 9.070312 L 126.445312 9.070312 C 126.566406 9.070312 126.667969 9.167969 126.667969 9.292969 L 126.667969 10.050781 L 127.859375 10.050781 L 127.859375 8.136719 C 127.421875 7.976562 127.292969 7.414062 127.628906 7.078125 C 128.03125 6.675781 128.71875 6.964844 128.71875 7.53125 C 128.71875 7.804688 128.546875 8.042969 128.300781 8.132812 L 128.300781 10.269531 C 128.300781 10.386719 128.203125 10.492188 128.082031 10.492188 L 126.667969 10.492188 L 126.667969 11.519531 L 128.847656 11.519531 C 129.007812 11.085938 129.574219 10.957031 129.90625 11.289062 C 130.308594 11.695312 130.023438 12.382812 129.453125 12.382812 C 129.175781 12.382812 128.941406 12.210938 128.851562 11.964844 L 126.667969 11.964844 L 126.667969 13.003906 L 128.085938 13.003906 C 128.203125 13.003906 128.308594 13.101562 128.308594 13.226562 L 128.308594 15.363281 C 128.742188 15.523438 128.871094 16.089844 128.539062 16.417969 C 128.132812 16.820312 127.445312 16.53125 127.445312 15.964844 C 127.445312 15.691406 127.613281 15.453125 127.863281 15.363281 L 127.863281 13.449219 L 126.667969 13.449219 L 126.667969 14.09375 C 126.667969 14.21875 126.570312 14.316406 126.445312 14.316406 L 121.648438 14.316406 C 121.527344 14.316406 121.425781 14.21875 121.425781 14.09375 L 121.425781 13.449219 L 120.886719 13.449219 L 120.886719 15.363281 C 121.324219 15.523438 121.453125 16.089844 121.117188 16.417969 C 120.714844 16.820312 120.027344 16.53125 120.027344 15.964844 C 120.027344 15.691406 120.195312 15.453125 120.445312 15.363281 L 120.445312 13.226562 C 120.445312 13.105469 120.542969 13.003906 120.664062 13.003906 L 121.425781 13.003906 L 121.425781 11.972656 L 119.785156 11.972656 C 120.226562 13.828125 118.550781 15.492188 116.703125 15.039062 C 116.722656 16.191406 116.734375 16.785156 116.738281 18.277344 C 116.742188 18.839844 117.199219 19.296875 117.761719 19.296875 L 122.054688 19.296875 C 122.992188 19.273438 123.929688 19.074219 124.652344 18.539062 Z M 124.652344 18.539062 " fill-opacity="1" fill-rule="nonzero"/></g><g clip-path="url(#8fca48dbcb)"><path fill="#e37e03" d="M 118.597656 41.199219 L 118.597656 34.777344 L 131.4375 34.777344 L 131.4375 41.199219 Z M 130.214844 44.5625 L 129.605469 44.5625 L 129.605469 41.808594 L 130.214844 41.808594 Z M 127.160156 41.808594 L 127.769531 41.808594 L 127.769531 42.421875 C 127.769531 42.589844 127.90625 42.726562 128.074219 42.726562 C 128.246094 42.726562 128.382812 42.589844 128.382812 42.421875 L 128.382812 41.808594 L 128.992188 41.808594 L 128.992188 44.5625 L 127.160156 44.5625 Z M 131.4375 32.945312 L 131.4375 34.167969 L 118.597656 34.167969 L 118.597656 32.945312 Z M 131.746094 32.332031 L 118.292969 32.332031 C 118.125 32.332031 117.988281 32.46875 117.988281 32.636719 L 117.988281 41.503906 C 117.988281 41.671875 118.125 41.808594 118.292969 41.808594 L 126.546875 41.808594 L 126.546875 44.5625 L 125.324219 44.5625 L 125.324219 45.171875 L 130.214844 45.171875 L 130.214844 45.785156 L 125.324219 45.785156 L 125.324219 46.398438 L 130.523438 46.398438 C 130.691406 46.398438 130.828125 46.257812 130.828125 46.089844 L 130.828125 41.808594 L 131.746094 41.808594 C 131.914062 41.808594 132.050781 41.671875 132.050781 41.503906 L 132.050781 32.636719 C 132.050781 32.46875 131.914062 32.332031 131.746094 32.332031 " fill-opacity="1" fill-rule="nonzero"/></g><g clip-path="url(#7dcb260987)"><path fill="#e37e03" d="M 118.164062 45.171875 L 118.382812 45.390625 C 118.4375 45.445312 118.515625 45.480469 118.597656 45.480469 L 119.820312 45.480469 C 119.902344 45.480469 119.980469 45.445312 120.039062 45.390625 L 120.253906 45.171875 L 124.050781 45.171875 C 123.921875 45.53125 123.582031 45.785156 123.183594 45.785156 L 115.234375 45.785156 C 114.835938 45.785156 114.496094 45.53125 114.371094 45.171875 Z M 115.234375 46.398438 L 123.183594 46.398438 C 124.027344 46.398438 124.714844 45.710938 124.714844 44.867188 C 124.714844 44.699219 124.574219 44.5625 124.40625 44.5625 L 123.183594 44.5625 L 123.183594 42.421875 L 122.574219 42.421875 L 122.574219 44.5625 L 115.847656 44.5625 L 115.847656 39.363281 L 117.375 39.363281 L 117.375 38.753906 L 115.539062 38.753906 C 115.371094 38.753906 115.234375 38.890625 115.234375 39.058594 L 115.234375 44.5625 L 114.011719 44.5625 C 113.84375 44.5625 113.707031 44.699219 113.707031 44.867188 C 113.707031 45.710938 114.390625 46.398438 115.234375 46.398438 " fill-opacity="1" fill-rule="nonzero"/></g><path fill="#e37e03" d="M 119.210938 33.859375 C 119.378906 33.859375 119.515625 33.722656 119.515625 33.554688 C 119.515625 33.386719 119.378906 33.25 119.210938 33.25 C 119.039062 33.25 118.902344 33.386719 118.902344 33.554688 C 118.902344 33.722656 119.039062 33.859375 119.210938 33.859375 " fill-opacity="1" fill-rule="nonzero"/><path fill="#e37e03" d="M 120.125 33.859375 C 120.296875 33.859375 120.433594 33.722656 120.433594 33.554688 C 120.433594 33.386719 120.296875 33.25 120.125 33.25 C 119.957031 33.25 119.820312 33.386719 119.820312 33.554688 C 119.820312 33.722656 119.957031 33.859375 120.125 33.859375 " fill-opacity="1" fill-rule="nonzero"/><path fill="#e37e03" d="M 121.042969 33.859375 C 121.210938 33.859375 121.351562 33.722656 121.351562 33.554688 C 121.351562 33.386719 121.210938 33.25 121.042969 33.25 C 120.875 33.25 120.738281 33.386719 120.738281 33.554688 C 120.738281 33.722656 120.875 33.859375 121.042969 33.859375 " fill-opacity="1" fill-rule="nonzero"/><path fill="#e37e03" d="M 119.210938 36 L 120.125 36 L 120.125 35.390625 L 119.210938 35.390625 L 119.210938 36 " fill-opacity="1" fill-rule="nonzero"/><path fill="#e37e03" d="M 123.183594 35.390625 L 121.042969 35.390625 L 121.042969 36 L 123.183594 36 L 123.183594 35.390625 " fill-opacity="1" fill-rule="nonzero"/><path fill="#e37e03" d="M 123.796875 36 L 124.714844 36 L 124.714844 35.390625 L 123.796875 35.390625 L 123.796875 36 " fill-opacity="1" fill-rule="nonzero"/><path fill="#e37e03" d="M 119.210938 37.53125 L 120.125 37.53125 L 120.125 36.917969 L 119.210938 36.917969 L 119.210938 37.53125 " fill-opacity="1" fill-rule="nonzero"/><path fill="#e37e03" d="M 122.265625 36.917969 L 121.042969 36.917969 L 121.042969 37.53125 L 122.265625 37.53125 L 122.265625 36.917969 " fill-opacity="1" fill-rule="nonzero"/><path fill="#e37e03" d="M 122.878906 37.53125 L 124.714844 37.53125 L 124.714844 36.917969 L 122.878906 36.917969 L 122.878906 37.53125 " fill-opacity="1" fill-rule="nonzero"/><path fill="#e37e03" d="M 119.210938 39.058594 L 120.125 39.058594 L 120.125 38.445312 L 119.210938 38.445312 L 119.210938 39.058594 " fill-opacity="1" fill-rule="nonzero"/><path fill="#e37e03" d="M 121.042969 39.058594 L 124.714844 39.058594 L 124.714844 38.445312 L 121.042969 38.445312 L 121.042969 39.058594 " fill-opacity="1" fill-rule="nonzero"/><path fill="#e37e03" d="M 119.210938 40.585938 L 120.125 40.585938 L 120.125 39.976562 L 119.210938 39.976562 L 119.210938 40.585938 " fill-opacity="1" fill-rule="nonzero"/><path fill="#e37e03" d="M 121.042969 40.585938 L 122.265625 40.585938 L 122.265625 39.976562 L 121.042969 39.976562 L 121.042969 40.585938 " fill-opacity="1" fill-rule="nonzero"/><path fill="#e37e03" d="M 122.878906 40.585938 L 124.714844 40.585938 L 124.714844 39.976562 L 122.878906 39.976562 L 122.878906 40.585938 " fill-opacity="1" fill-rule="nonzero"/><path fill="#e37e03" d="M 126.636719 36.703125 L 125.71875 37.621094 C 125.601562 37.738281 125.601562 37.933594 125.71875 38.050781 L 126.636719 38.96875 L 127.070312 38.535156 L 126.367188 37.835938 L 127.070312 37.132812 L 126.636719 36.703125 " fill-opacity="1" fill-rule="nonzero"/><path fill="#e37e03" d="M 129.515625 36.703125 L 129.082031 37.132812 L 129.785156 37.835938 L 129.082031 38.535156 L 129.515625 38.96875 L 130.433594 38.050781 C 130.550781 37.933594 130.550781 37.738281 130.433594 37.621094 L 129.515625 36.703125 " fill-opacity="1" fill-rule="nonzero"/><path fill="#e37e03" d="M 127.175781 39.574219 L 127.753906 39.765625 L 128.976562 36.097656 L 128.398438 35.90625 L 127.175781 39.574219 " fill-opacity="1" fill-rule="nonzero"/><g fill="#e37e03" fill-opacity="1"><g transform="translate(13.692732, 16.007131)"><g><path d="M 0.203125 -6.40625 L 0.203125 -7.8125 L 6.453125 -7.8125 L 6.453125 -6.40625 L 4.15625 -6.40625 L 4.15625 0 L 2.5625 0 L 2.5625 -6.40625 Z M 0.203125 -6.40625 "/></g></g></g><g fill="#e37e03" fill-opacity="1"><g transform="translate(20.184427, 16.007131)"><g><path d="M 0.671875 0 L 0.671875 -8.03125 L 2.25 -8.03125 L 2.25 -4.78125 C 2.332031 -4.914062 2.441406 -5.046875 2.578125 -5.171875 C 2.722656 -5.296875 2.894531 -5.398438 3.09375 -5.484375 C 3.300781 -5.578125 3.550781 -5.625 3.84375 -5.625 C 4.207031 -5.625 4.535156 -5.550781 4.828125 -5.40625 C 5.117188 -5.269531 5.351562 -5.070312 5.53125 -4.8125 C 5.707031 -4.550781 5.796875 -4.226562 5.796875 -3.84375 L 5.796875 0 L 4.21875 0 L 4.21875 -3.609375 C 4.21875 -3.867188 4.125 -4.066406 3.9375 -4.203125 C 3.757812 -4.335938 3.539062 -4.40625 3.28125 -4.40625 C 3.113281 -4.40625 2.945312 -4.375 2.78125 -4.3125 C 2.625 -4.25 2.492188 -4.15625 2.390625 -4.03125 C 2.296875 -3.90625 2.25 -3.75 2.25 -3.5625 L 2.25 0 Z M 0.671875 0 "/></g></g></g><g fill="#e37e03" fill-opacity="1"><g transform="translate(26.42228, 16.007131)"><g><path d="M 1.96875 -2.4375 C 1.96875 -2.144531 2.015625 -1.894531 2.109375 -1.6875 C 2.203125 -1.476562 2.335938 -1.316406 2.515625 -1.203125 C 2.691406 -1.085938 2.90625 -1.03125 3.15625 -1.03125 C 3.425781 -1.03125 3.660156 -1.085938 3.859375 -1.203125 C 4.066406 -1.316406 4.210938 -1.503906 4.296875 -1.765625 L 5.71875 -1.765625 C 5.65625 -1.367188 5.492188 -1.03125 5.234375 -0.75 C 4.984375 -0.46875 4.675781 -0.253906 4.3125 -0.109375 C 3.957031 0.0351562 3.585938 0.109375 3.203125 0.109375 C 2.648438 0.109375 2.160156 -0.00390625 1.734375 -0.234375 C 1.316406 -0.472656 0.988281 -0.800781 0.75 -1.21875 C 0.519531 -1.644531 0.40625 -2.148438 0.40625 -2.734375 C 0.40625 -3.285156 0.507812 -3.785156 0.71875 -4.234375 C 0.9375 -4.691406 1.25 -5.050781 1.65625 -5.3125 C 2.0625 -5.570312 2.550781 -5.703125 3.125 -5.703125 C 3.6875 -5.703125 4.160156 -5.582031 4.546875 -5.34375 C 4.941406 -5.101562 5.234375 -4.769531 5.421875 -4.34375 C 5.617188 -3.914062 5.71875 -3.421875 5.71875 -2.859375 L 5.71875 -2.4375 Z M 1.96875 -3.375 L 4.25 -3.375 C 4.25 -3.59375 4.207031 -3.796875 4.125 -3.984375 C 4.039062 -4.171875 3.914062 -4.316406 3.75 -4.421875 C 3.582031 -4.535156 3.375 -4.59375 3.125 -4.59375 C 2.875 -4.59375 2.660156 -4.535156 2.484375 -4.421875 C 2.316406 -4.304688 2.1875 -4.15625 2.09375 -3.96875 C 2.007812 -3.78125 1.96875 -3.582031 1.96875 -3.375 Z M 1.96875 -3.375 "/></g></g></g></svg>