<svg version="1.1" xmlns="http://www.w3.org/2000/svg" viewBox="0 0 2423.7726854856337 567.6115267025828" width="4847.545370971267" height="1135.2230534051655">
  <!-- svg-source:excalidraw -->
  
  <defs>
    <style class="style-fonts">
      @font-face {
        font-family: "Virgil";
        src: url("https://excalidraw.com/Virgil.woff2");
      }
      @font-face {
        font-family: "Cascadia";
        src: url("https://excalidraw.com/Cascadia.woff2");
      }
      @font-face {
        font-family: "Assistant";
        src: url("https://excalidraw.com/Assistant-Regular.woff2");
      }
    </style>
    
  </defs>
  <g stroke-opacity="0.1" fill-opacity="0.1" stroke-linecap="round" transform="translate(10 10) rotate(0 1201.8863427428169 273.8057633512914)"><path d="M7.86 8.16 C7.86 8.16, 7.86 8.16, 7.86 8.16 M7.86 8.16 C7.86 8.16, 7.86 8.16, 7.86 8.16 M1.43 27.75 C8.41 19.28, 14.98 10.58, 24.4 1.33 M1.43 27.75 C6.12 23.08, 10.52 17.1, 24.4 1.33 M0.26 41.3 C11.13 31, 20.2 14.82, 36.34 -0.21 M0.26 41.3 C11.01 28.22, 22.57 13.54, 36.34 -0.21 M0.39 53.34 C12.78 41.67, 21.29 27.97, 46.97 -0.25 M0.39 53.34 C10.51 40.29, 22.22 27.8, 46.97 -0.25 M0.52 65.38 C18.6 46.68, 36.38 25.33, 57.6 -0.28 M0.52 65.38 C20.91 40.75, 41.9 17.34, 57.6 -0.28 M0 78.17 C12.12 62.48, 28.19 44.86, 67.57 0.44 M0 78.17 C19.83 53.81, 40.51 31.14, 67.57 0.44 M0.13 90.22 C28 59.37, 55.4 26.84, 78.2 0.41 M0.13 90.22 C29.93 55.57, 61.51 18.19, 78.2 0.41 M0.26 102.26 C33.69 64.54, 65.34 29.2, 88.83 0.37 M0.26 102.26 C27.86 69.65, 57.41 36.73, 88.83 0.37 M0.4 114.3 C34.29 71.15, 71.66 33.02, 99.46 0.34 M0.4 114.3 C25.67 86.91, 50.37 58.44, 99.46 0.34 M0.53 126.34 C42.18 82.3, 81.7 37.09, 110.09 0.3 M0.53 126.34 C29.12 93.11, 56.6 60.43, 110.09 0.3 M0.01 139.13 C43.17 91.68, 83.66 46.89, 120.72 0.27 M0.01 139.13 C31.78 103.54, 65.34 66.27, 120.72 0.27 M0.14 151.17 C48.36 94.18, 94.83 40.26, 131.35 0.23 M0.14 151.17 C27.14 119.08, 55.44 87.32, 131.35 0.23 M0.27 163.22 C56.98 98.48, 114.67 32.73, 141.98 0.2 M0.27 163.22 C37.62 120.86, 74.19 79.8, 141.98 0.2 M0.41 175.26 C43.56 125.4, 84.06 80.3, 152.61 0.16 M0.41 175.26 C52.12 116.77, 103.65 58.37, 152.61 0.16 M0.54 187.3 C66 117.15, 129.02 43.62, 163.24 0.13 M0.54 187.3 C55.39 123.37, 110.02 59.77, 163.24 0.13 M0.02 200.09 C46.29 145.54, 93.19 92.18, 173.87 0.09 M0.02 200.09 C50.56 143.62, 100.86 86.29, 173.87 0.09 M0.15 212.13 C45.02 159.1, 89.99 105.99, 184.5 0.06 M0.15 212.13 C55.34 144.81, 112.85 78.91, 184.5 0.06 M0.28 224.17 C52.9 167.68, 101.04 110.5, 195.13 0.03 M0.28 224.17 C40.76 176.54, 81.29 129.03, 195.13 0.03 M0.42 236.22 C55.35 176.1, 106.24 115.71, 205.76 -0.01 M0.42 236.22 C53.04 176.2, 104.61 117.82, 205.76 -0.01 M-0.11 249.01 C55.18 185.8, 111.16 121.23, 216.39 -0.04 M-0.11 249.01 C72.19 167.93, 141.97 87.9, 216.39 -0.04 M0.03 261.05 C85 165.05, 167.98 65.72, 227.02 -0.08 M0.03 261.05 C73.49 173.44, 149.3 87.12, 227.02 -0.08 M0.16 273.09 C49.54 216.58, 97.06 161.8, 237.65 -0.11 M0.16 273.09 C83.53 176.43, 167.35 80.42, 237.65 -0.11 M0.29 285.13 C73.31 200.25, 145.34 116.51, 248.28 -0.15 M0.29 285.13 C52.91 224.63, 106.02 163.01, 248.28 -0.15 M0.43 297.17 C87.28 197.49, 174.03 95.78, 258.91 -0.18 M0.43 297.17 C75.21 209.38, 151.69 121.64, 258.91 -0.18 M-0.1 309.97 C56.22 240.37, 116.9 173.38, 269.54 -0.22 M-0.1 309.97 C65.5 232.67, 133.57 155.73, 269.54 -0.22 M0.04 322.01 C61.82 249.92, 124.21 180.58, 279.52 0.5 M0.04 322.01 C66.96 245.92, 133.53 169.51, 279.52 0.5 M0.17 334.05 C76.8 246.55, 150.67 160.45, 290.15 0.47 M0.17 334.05 C78 246.46, 154.81 157.73, 290.15 0.47 M0.3 346.09 C95.39 239.43, 189.45 131.35, 300.78 0.44 M0.3 346.09 C111.15 218.71, 221.21 93, 300.78 0.44 M0.44 358.13 C75.59 272.88, 148.37 187.6, 311.41 0.4 M0.44 358.13 C119.11 222.04, 238.01 84.83, 311.41 0.4 M-0.09 370.93 C63.35 296, 127.65 221.37, 322.04 0.37 M-0.09 370.93 C110.77 245.03, 219.95 118.47, 322.04 0.37 M0.05 382.97 C98.11 269.19, 196.16 154.43, 332.67 0.33 M0.05 382.97 C72.54 301.38, 144.43 218.31, 332.67 0.33 M0.18 395.01 C130.22 245.41, 260.21 94.85, 343.3 0.3 M0.18 395.01 C109.28 268.25, 218.04 142.9, 343.3 0.3 M0.31 407.05 C99.73 290.53, 200.11 176.36, 353.93 0.26 M0.31 407.05 C90.78 301.21, 181.79 196.44, 353.93 0.26 M0.45 419.09 C92.86 312.49, 185.43 205.62, 364.56 0.23 M0.45 419.09 C122.83 277.17, 244.91 137.35, 364.56 0.23 M-0.08 431.89 C136.53 273.66, 272.54 116.71, 375.19 0.19 M-0.08 431.89 C111.68 303.25, 222.38 175.43, 375.19 0.19 M0.06 443.93 C132.09 290.74, 264.34 138.99, 385.82 0.16 M0.06 443.93 C122.97 300.69, 247.17 158.26, 385.82 0.16 M0.19 455.97 C82.81 359.69, 165.25 264.8, 396.45 0.12 M0.19 455.97 C156.93 273.35, 315.53 92.12, 396.45 0.12 M0.32 468.01 C114.83 338.66, 228.05 207.42, 407.08 0.09 M0.32 468.01 C119.94 330.34, 238.89 193.9, 407.08 0.09 M0.46 480.05 C85.31 380.21, 173.1 279.57, 417.71 0.06 M0.46 480.05 C135.1 322.63, 271.23 166.29, 417.71 0.06 M-0.07 492.85 C88.93 393.53, 175.88 292.88, 428.34 0.02 M-0.07 492.85 C148.87 317.73, 299.51 144.66, 428.34 0.02 M0.07 504.89 C114.94 372.51, 229.19 240.44, 438.97 -0.01 M0.07 504.89 C144.14 340.97, 287.1 176.3, 438.97 -0.01 M0.2 516.93 C168.78 323.32, 337.36 128.59, 449.6 -0.05 M0.2 516.93 C129.23 369.06, 258.62 220.41, 449.6 -0.05 M1.64 527.46 C176.49 325.23, 350.83 123.01, 460.23 -0.08 M1.64 527.46 C152.3 354.26, 304.02 179.03, 460.23 -0.08 M5.06 535.73 C176.79 340.79, 347.03 144.36, 470.86 -0.12 M5.06 535.73 C184.38 332.96, 361.05 129.63, 470.86 -0.12 M11.1 540.98 C150.1 381.17, 288.05 220.48, 481.49 -0.15 M11.1 540.98 C184.71 343.62, 356.36 147.06, 481.49 -0.15 M17.79 545.47 C135.6 409.87, 252.76 273.74, 492.12 -0.19 M17.79 545.47 C204.47 331.5, 390.79 117.03, 492.12 -0.19 M26.45 547.7 C140.97 416.69, 254.65 286.8, 502.09 0.53 M26.45 547.7 C183.87 364.82, 343.35 182.22, 502.09 0.53 M37.08 547.66 C145.01 423.8, 252.33 300.45, 512.72 0.5 M37.08 547.66 C220.36 339.91, 401.74 130.94, 512.72 0.5 M47.71 547.63 C222.19 351.22, 393.05 153.82, 523.35 0.47 M47.71 547.63 C163.21 417.1, 275.95 286.87, 523.35 0.47 M58.34 547.6 C249.88 327.66, 439.91 109.9, 533.98 0.43 M58.34 547.6 C191.94 393.28, 326.82 237.76, 533.98 0.43 M68.97 547.56 C222.69 368.24, 378.99 189.34, 544.61 0.4 M68.97 547.56 C238.53 352.34, 409.39 156.43, 544.61 0.4 M79.6 547.53 C266.64 335.46, 450.25 122.55, 555.24 0.36 M79.6 547.53 C237.78 368.39, 394.3 188.56, 555.24 0.36 M90.23 547.49 C240.66 375.99, 388.4 205.71, 565.87 0.33 M90.23 547.49 C217.29 401.95, 345.81 254.7, 565.87 0.33 M100.86 547.46 C253.93 370.03, 410.16 190.87, 576.5 0.29 M100.86 547.46 C213.45 418.84, 323.58 291.49, 576.5 0.29 M111.49 547.42 C209.63 437.18, 303.86 327.01, 587.14 0.26 M111.49 547.42 C221.65 422.65, 329.8 297.81, 587.14 0.26 M122.12 547.39 C242.67 409.07, 364.31 268.48, 597.77 0.22 M122.12 547.39 C312.2 331.15, 501.13 114.63, 597.77 0.22 M132.75 547.35 C323.18 332.25, 511.75 114.68, 608.4 0.19 M132.75 547.35 C315.8 338.43, 497.7 129.12, 608.4 0.19 M142.73 548.07 C302.11 364.17, 462.25 181.05, 619.03 0.16 M142.73 548.07 C290.44 379.13, 438.76 208.39, 619.03 0.16 M153.36 548.04 C255.92 431.83, 355.96 316.8, 629.66 0.12 M153.36 548.04 C329.72 346.63, 503.3 146.28, 629.66 0.12 M163.99 548.01 C271.23 424.03, 379.42 298.95, 640.29 0.09 M163.99 548.01 C331.62 352.48, 500.88 157.34, 640.29 0.09 M174.62 547.97 C302.71 399.35, 430.92 251.75, 650.92 0.05 M174.62 547.97 C316.06 382.8, 458.98 218.48, 650.92 0.05 M185.25 547.94 C338.39 371.21, 491.68 195.5, 661.55 0.02 M185.25 547.94 C372.01 330.04, 559.91 113.39, 661.55 0.02 M195.88 547.9 C343.37 379.7, 491.03 209.38, 672.18 -0.02 M195.88 547.9 C381.57 330.66, 569.74 114.98, 672.18 -0.02 M206.51 547.87 C355.4 377.79, 501.12 208.83, 682.81 -0.05 M206.51 547.87 C387.13 339.36, 568.91 130.28, 682.81 -0.05 M217.14 547.83 C400.2 339.43, 581.75 130.29, 693.44 -0.09 M217.14 547.83 C381.29 357.59, 546.14 167.37, 693.44 -0.09 M227.77 547.8 C414.95 331.22, 602.82 116.42, 704.07 -0.12 M227.77 547.8 C397.34 352.67, 567.48 156.95, 704.07 -0.12 M238.4 547.76 C356.74 412.98, 474.28 279.1, 714.04 0.6 M238.4 547.76 C398.65 363.42, 559.88 177.63, 714.04 0.6 M249.03 547.73 C391.28 386.02, 531.4 225.36, 724.67 0.56 M249.03 547.73 C366.45 412.59, 484.11 276.9, 724.67 0.56 M259.66 547.69 C441.06 336.72, 622.51 128.25, 735.3 0.53 M259.66 547.69 C376.48 414.8, 493.15 280.99, 735.3 0.53 M270.29 547.66 C388.16 410.75, 506.94 275.27, 745.93 0.5 M270.29 547.66 C400.82 401.52, 528.86 253.75, 745.93 0.5 M280.92 547.63 C457.1 344.28, 634.87 138.83, 756.56 0.46 M280.92 547.63 C387.33 428.16, 493.17 306.65, 756.56 0.46 M291.55 547.59 C478.07 329.81, 666.17 115.21, 767.19 0.43 M291.55 547.59 C447.5 370.12, 602.35 191.19, 767.19 0.43 M302.18 547.56 C457.14 368.94, 610.54 190.86, 777.82 0.39 M302.18 547.56 C452.04 374.49, 602.95 200.48, 777.82 0.39 M312.81 547.52 C498.62 332.15, 684.15 118.89, 788.45 0.36 M312.81 547.52 C409.82 433.43, 508.99 320.15, 788.45 0.36 M323.44 547.49 C441.88 412.85, 558.72 279.48, 799.08 0.32 M323.44 547.49 C452.32 402.04, 578.53 256.62, 799.08 0.32 M334.07 547.45 C432.09 435.15, 529.24 323.82, 809.71 0.29 M334.07 547.45 C522.04 332.23, 707.96 117.91, 809.71 0.29 M344.7 547.42 C470.29 402.34, 593.97 260.86, 820.34 0.25 M344.7 547.42 C483.05 388.03, 620.22 229.82, 820.34 0.25 M355.33 547.38 C506.07 374.48, 657.27 198.99, 830.97 0.22 M355.33 547.38 C470.95 414.46, 587.38 280.87, 830.97 0.22 M365.3 548.1 C464.02 434.03, 563.33 318.63, 841.6 0.19 M365.3 548.1 C508.26 385.88, 649.82 223.37, 841.6 0.19 M375.93 548.07 C533.13 369.73, 688.75 190.67, 852.23 0.15 M375.93 548.07 C481.56 427.13, 585.42 307.66, 852.23 0.15 M386.56 548.04 C502.51 415.87, 616.68 281.99, 862.86 0.12 M386.56 548.04 C522.24 393.63, 657.22 238.04, 862.86 0.12 M397.19 548 C559.36 363.66, 719.2 180.62, 873.49 0.08 M397.19 548 C516.33 411.17, 636.72 272.54, 873.49 0.08 M407.82 547.97 C512.44 426.79, 616.32 306.47, 884.12 0.05 M407.82 547.97 C565.91 362.46, 725.98 178.27, 884.12 0.05 M418.45 547.93 C591.06 348.44, 765.03 150.33, 894.75 0.01 M418.45 547.93 C596.12 342.62, 775.58 136.49, 894.75 0.01 M429.08 547.9 C582.93 372.69, 735.67 197.11, 905.38 -0.02 M429.08 547.9 C537.36 424.34, 643.84 301.56, 905.38 -0.02 M439.71 547.86 C605.25 360.18, 768.24 171.84, 916.01 -0.06 M439.71 547.86 C584.27 380.53, 729.75 212.5, 916.01 -0.06 M450.34 547.83 C556.97 422.14, 665.01 296.76, 926.64 -0.09 M450.34 547.83 C549.33 432.8, 647.76 319.06, 926.64 -0.09 M460.97 547.79 C610.35 372.99, 762.04 198.56, 936.62 0.63 M460.97 547.79 C576.1 414.88, 691.05 282.37, 936.62 0.63 M471.6 547.76 C633.75 359.94, 797.97 171.16, 947.25 0.6 M471.6 547.76 C581.07 421.45, 691.4 293.4, 947.25 0.6 M482.23 547.73 C597.7 414.51, 715.12 281.39, 957.88 0.56 M482.23 547.73 C616.17 397.05, 748.17 244.82, 957.88 0.56 M492.86 547.69 C677.69 339.6, 860.21 129.08, 968.51 0.53 M492.86 547.69 C651.89 363.42, 810.58 179.92, 968.51 0.53 M503.49 547.66 C689.04 334.88, 874.59 121.95, 979.14 0.49 M503.49 547.66 C688.61 333.11, 873.72 120.24, 979.14 0.49 M514.12 547.62 C689.49 346.24, 865.1 145.2, 989.77 0.46 M514.12 547.62 C624.85 418.75, 736.61 290.74, 989.77 0.46 M524.75 547.59 C683.69 361.74, 844.7 176.85, 1000.4 0.42 M524.75 547.59 C640.2 414.58, 755.31 282.06, 1000.4 0.42 M535.38 547.55 C650.63 415.66, 765.35 284.54, 1011.03 0.39 M535.38 547.55 C696.93 362.25, 858.66 175.6, 1011.03 0.39 M546.01 547.52 C729.39 337.06, 910.7 128.74, 1021.66 0.35 M546.01 547.52 C731.89 333.84, 916.88 121.33, 1021.66 0.35 M556.64 547.48 C672.53 412.64, 790.63 278.13, 1032.29 0.32 M556.64 547.48 C722.57 354.86, 889.29 162.64, 1032.29 0.32 M567.27 547.45 C722.48 368.28, 877.69 189.35, 1042.92 0.28 M567.27 547.45 C697.83 398.31, 827.17 249.67, 1042.92 0.28 M577.25 548.17 C741.32 354.69, 907.2 163.6, 1053.55 0.25 M577.25 548.17 C694.84 412.48, 814.18 275.05, 1053.55 0.25 M587.88 548.13 C725.77 386.36, 866.09 225.87, 1064.18 0.22 M587.88 548.13 C692.57 428.25, 795.26 309.78, 1064.18 0.22 M598.51 548.1 C705.97 425.46, 813.07 302.88, 1074.81 0.18 M598.51 548.1 C743.87 380.64, 890.75 212.05, 1074.81 0.18 M609.14 548.07 C759.03 376.49, 907.94 205.08, 1085.44 0.15 M609.14 548.07 C722.76 415.62, 836.42 284.3, 1085.44 0.15 M619.77 548.03 C743.79 405.62, 867.98 262.38, 1096.07 0.11 M619.77 548.03 C755.18 392.01, 890.84 236.03, 1096.07 0.11 M630.4 548 C787.03 368.33, 943.93 188.63, 1106.7 0.08 M630.4 548 C748.29 414.44, 864.47 280.67, 1106.7 0.08 M641.03 547.96 C810.25 350.99, 980.75 155.75, 1117.33 0.04 M641.03 547.96 C748.82 425.15, 856.71 300.41, 1117.33 0.04 M651.66 547.93 C842.47 330.34, 1031.33 112.42, 1127.96 0.01 M651.66 547.93 C756.06 427.34, 860.92 306.38, 1127.96 0.01 M662.29 547.89 C818.4 369.48, 974.45 190.28, 1138.59 -0.03 M662.29 547.89 C788.89 401.76, 917.15 254.57, 1138.59 -0.03 M672.92 547.86 C810.55 389.7, 947.54 231.99, 1148.56 0.69 M672.92 547.86 C791.95 412.46, 909.39 277.47, 1148.56 0.69 M683.55 547.82 C823.87 385.93, 965 224, 1159.19 0.66 M683.55 547.82 C792.89 422.02, 903.72 294.63, 1159.19 0.66 M694.18 547.79 C828.7 393.1, 963.66 239.33, 1169.82 0.63 M694.18 547.79 C830.01 390.75, 966.92 233.14, 1169.82 0.63 M704.81 547.76 C850.37 382.68, 993.7 218.08, 1180.45 0.59 M704.81 547.76 C813.65 423.56, 921.57 300.03, 1180.45 0.59 M715.44 547.72 C892.75 344.22, 1070.04 141.7, 1191.08 0.56 M715.44 547.72 C905.35 329.86, 1093.64 113.45, 1191.08 0.56 M726.07 547.69 C867.79 386.18, 1005.79 226.43, 1201.71 0.52 M726.07 547.69 C844.77 411.87, 963.29 276.33, 1201.71 0.52 M736.7 547.65 C864.81 400.34, 991.62 253.72, 1212.34 0.49 M736.7 547.65 C887.85 376.13, 1036.75 204.01, 1212.34 0.49 M747.33 547.62 C905.67 364.66, 1063.07 182.93, 1222.97 0.45 M747.33 547.62 C927.18 340.66, 1108.25 132.4, 1222.97 0.45 M757.96 547.58 C941.87 338.03, 1125.5 127.52, 1233.6 0.42 M757.96 547.58 C886.01 400.87, 1013.11 255.03, 1233.6 0.42 M768.59 547.55 C956.72 330.38, 1145.71 113.35, 1244.23 0.38 M768.59 547.55 C956.72 329.52, 1145.26 113.18, 1244.23 0.38 M779.22 547.51 C899.19 406.84, 1020.13 267.34, 1254.86 0.35 M779.22 547.51 C956.38 345.62, 1134.18 141.31, 1254.86 0.35 M789.85 547.48 C967.59 342.24, 1146.19 138, 1265.49 0.32 M789.85 547.48 C956.83 354.61, 1125.06 160.48, 1265.49 0.32 M799.82 548.2 C955.5 367.71, 1111.26 190.93, 1276.12 0.28 M799.82 548.2 C910.83 420.79, 1021.46 293.99, 1276.12 0.28 M810.45 548.17 C935.58 402.31, 1059.72 258.59, 1286.75 0.25 M810.45 548.17 C904.81 436.13, 1000.52 326.34, 1286.75 0.25 M821.08 548.13 C985.57 356.57, 1151.85 164.71, 1297.38 0.21 M821.08 548.13 C983.3 361.9, 1143.53 176.91, 1297.38 0.21 M831.71 548.1 C1009.27 340.88, 1187.42 134.58, 1308.01 0.18 M831.71 548.1 C1008.35 345.72, 1184.86 142.23, 1308.01 0.18 M842.34 548.06 C1028.93 330.66, 1216.89 114.29, 1318.64 0.14 M842.34 548.06 C967.17 402.83, 1093.74 256.99, 1318.64 0.14 M852.97 548.03 C1014.95 361.92, 1176.51 174.96, 1329.27 0.11 M852.97 548.03 C1037.56 335.93, 1221.38 123.74, 1329.27 0.11 M863.6 547.99 C981.48 413.15, 1099.03 276.14, 1339.9 0.07 M863.6 547.99 C995.58 394.39, 1130.03 240.02, 1339.9 0.07 M874.23 547.96 C1011.79 386.89, 1151.02 227.3, 1350.53 0.04 M874.23 547.96 C995.58 407.23, 1116.76 267.56, 1350.53 0.04 M884.86 547.92 C1074.47 330.78, 1264.04 111.13, 1361.16 0 M884.86 547.92 C1048.45 361.12, 1209.89 175.14, 1361.16 0 M895.49 547.89 C1030.66 391.76, 1163.2 238.64, 1371.14 0.72 M895.49 547.89 C1026.63 399.26, 1157.13 248.98, 1371.14 0.72 M906.12 547.85 C1026.97 408.92, 1147.37 268.36, 1381.77 0.69 M906.12 547.85 C1040.32 395.69, 1173.23 243.11, 1381.77 0.69 M916.75 547.82 C1044.93 400.18, 1173.07 250.97, 1392.4 0.66 M916.75 547.82 C1025.84 421.88, 1134.37 296.89, 1392.4 0.66 M927.38 547.79 C1088.33 363.81, 1248.26 180.98, 1403.03 0.62 M927.38 547.79 C1036.01 423.65, 1144.59 298.52, 1403.03 0.62 M938.02 547.75 C1097.66 361.8, 1256.9 177.78, 1413.66 0.59 M938.02 547.75 C1124.9 335.8, 1310.83 123.16, 1413.66 0.59 M948.65 547.72 C1075.35 398.69, 1205.6 250.93, 1424.29 0.55 M948.65 547.72 C1046.08 437.61, 1142.41 326.25, 1424.29 0.55 M959.28 547.68 C1084.95 399.96, 1212.28 253.71, 1434.92 0.52 M959.28 547.68 C1111.2 374.05, 1261.79 200.87, 1434.92 0.52 M969.91 547.65 C1069.09 435.42, 1166.58 321.26, 1445.55 0.48 M969.91 547.65 C1116.52 380.74, 1262.42 213.57, 1445.55 0.48 M980.54 547.61 C1153.04 351.51, 1324.28 154.52, 1456.18 0.45 M980.54 547.61 C1099.92 408.8, 1221.32 269.21, 1456.18 0.45 M991.17 547.58 C1179.42 327.69, 1368.69 110.1, 1466.81 0.41 M991.17 547.58 C1148.67 367.48, 1303.86 188.41, 1466.81 0.41 M1001.8 547.54 C1109.59 420.64, 1218.79 294.66, 1477.44 0.38 M1001.8 547.54 C1164.61 362.64, 1326.79 176.2, 1477.44 0.38 M1012.43 547.51 C1116.37 430.36, 1219.44 312.74, 1488.07 0.35 M1012.43 547.51 C1174.6 357.27, 1339.02 168.78, 1488.07 0.35 M1022.4 548.23 C1116.51 440.08, 1213.37 328.72, 1498.7 0.31 M1022.4 548.23 C1208.7 331.3, 1396.23 115.26, 1498.7 0.31 M1033.03 548.2 C1195.08 362.57, 1355.98 176.75, 1509.33 0.28 M1033.03 548.2 C1186.73 369.67, 1340.89 191.75, 1509.33 0.28 M1043.66 548.16 C1191.06 376.69, 1340.68 206.33, 1519.96 0.24 M1043.66 548.16 C1197.44 370.62, 1352.71 192.19, 1519.96 0.24 M1054.29 548.13 C1229.42 351.59, 1401.06 153.63, 1530.59 0.21 M1054.29 548.13 C1205.69 374.95, 1357.21 200.34, 1530.59 0.21 M1064.92 548.09 C1211.9 377.12, 1361.4 205.95, 1541.22 0.17 M1064.92 548.09 C1222.61 367.61, 1379.5 186.41, 1541.22 0.17 M1075.55 548.06 C1262.55 334.72, 1449.54 120.54, 1551.85 0.14 M1075.55 548.06 C1201.18 401.36, 1328.71 254.82, 1551.85 0.14 M1086.18 548.02 C1213.03 401.53, 1338.63 256.56, 1562.48 0.1 M1086.18 548.02 C1227.54 386.28, 1367.12 225.02, 1562.48 0.1 M1096.81 547.99 C1216.34 410.97, 1334.69 275.65, 1573.11 0.07 M1096.81 547.99 C1192.57 438.81, 1288.04 328.61, 1573.11 0.07 M1107.44 547.95 C1273.38 359.28, 1436.97 170.15, 1583.08 0.79 M1107.44 547.95 C1290.25 335.14, 1474.29 123.17, 1583.08 0.79 M1118.07 547.92 C1243.38 405.11, 1367.66 262.27, 1593.71 0.76 M1118.07 547.92 C1230.36 419.73, 1340.49 293.09, 1593.71 0.76 M1128.7 547.89 C1243.21 415.15, 1357.72 285.14, 1604.34 0.72 M1128.7 547.89 C1257.38 400.38, 1385.08 252.75, 1604.34 0.72 M1139.33 547.85 C1267.78 396.41, 1399.39 244.73, 1614.97 0.69 M1139.33 547.85 C1312.22 348.66, 1486.13 148.98, 1614.97 0.69 M1149.96 547.82 C1316.36 357.39, 1482.52 166.16, 1625.6 0.65 M1149.96 547.82 C1288.09 392.18, 1424.93 234.09, 1625.6 0.65 M1160.59 547.78 C1280.24 413.18, 1397.38 278.52, 1636.23 0.62 M1160.59 547.78 C1297.15 391, 1434.95 232.44, 1636.23 0.62 M1171.22 547.75 C1354.99 334.96, 1539.35 122.55, 1646.86 0.58 M1171.22 547.75 C1303.51 397.97, 1434.47 246.59, 1646.86 0.58 M1181.85 547.71 C1300.03 414.74, 1417.74 280.39, 1657.49 0.55 M1181.85 547.71 C1363.3 337.52, 1546.45 127.08, 1657.49 0.55 M1192.48 547.68 C1370.3 340.83, 1552.24 131.82, 1668.12 0.51 M1192.48 547.68 C1359.9 354.2, 1529.4 159.72, 1668.12 0.51 M1203.11 547.64 C1321.52 409.88, 1442.05 272.42, 1678.75 0.48 M1203.11 547.64 C1353.08 376.76, 1502.27 204.9, 1678.75 0.48 M1213.74 547.61 C1338.23 402.79, 1463.52 259.01, 1689.38 0.44 M1213.74 547.61 C1373.99 364.75, 1534.88 179.83, 1689.38 0.44 M1224.37 547.57 C1396.93 349.99, 1569.66 152.94, 1700.01 0.41 M1224.37 547.57 C1336.39 419.15, 1447.41 292.32, 1700.01 0.41 M1234.35 548.29 C1372.5 393.16, 1506.97 236.07, 1710.64 0.38 M1234.35 548.29 C1386.48 375.23, 1536.17 202.19, 1710.64 0.38 M1244.98 548.26 C1426.96 342.97, 1607.12 135.46, 1721.27 0.34 M1244.98 548.26 C1424.69 339.44, 1605.53 131.85, 1721.27 0.34 M1255.61 548.23 C1356.25 429.76, 1458.09 312.72, 1731.9 0.31 M1255.61 548.23 C1386.61 396.96, 1517.72 246.12, 1731.9 0.31 M1266.24 548.19 C1372.9 426.28, 1479.02 305.58, 1742.53 0.27 M1266.24 548.19 C1400.46 394.19, 1535.58 238.63, 1742.53 0.27 M1276.87 548.16 C1430.76 373, 1582.25 198.3, 1753.16 0.24 M1276.87 548.16 C1415.94 390.33, 1553.83 232.1, 1753.16 0.24 M1287.5 548.12 C1443.71 372.27, 1599.29 194.16, 1763.79 0.2 M1287.5 548.12 C1456.53 353.34, 1627.61 156.82, 1763.79 0.2 M1298.13 548.09 C1486.03 331.72, 1672.38 116.36, 1774.42 0.17 M1298.13 548.09 C1447.7 377.14, 1597.46 204.72, 1774.42 0.17 M1308.76 548.05 C1417.26 420.65, 1526.24 293.93, 1785.05 0.13 M1308.76 548.05 C1457.24 379.96, 1604.39 210.28, 1785.05 0.13 M1319.39 548.02 C1476.36 365.54, 1634.49 184.35, 1795.68 0.1 M1319.39 548.02 C1415.46 437.93, 1510.73 328.15, 1795.68 0.1 M1330.02 547.98 C1516.11 332.44, 1703.64 116.06, 1805.66 0.82 M1330.02 547.98 C1483.7 368.11, 1638.34 189.42, 1805.66 0.82 M1340.65 547.95 C1509.44 355.86, 1676.62 164.13, 1816.29 0.79 M1340.65 547.95 C1474.81 394.22, 1607.39 241.46, 1816.29 0.79 M1351.28 547.92 C1534.12 335.35, 1719.77 122.22, 1826.92 0.75 M1351.28 547.92 C1487.97 391.64, 1623.79 235.66, 1826.92 0.75 M1361.91 547.88 C1540.35 343.99, 1719.47 139.05, 1837.55 0.72 M1361.91 547.88 C1537.72 342.49, 1715.55 138.89, 1837.55 0.72 M1372.54 547.85 C1508.46 386.95, 1646.49 228.69, 1848.18 0.68 M1372.54 547.85 C1539.54 355.81, 1707.88 162.81, 1848.18 0.68 M1383.17 547.81 C1497.01 414.8, 1612.83 281.37, 1858.81 0.65 M1383.17 547.81 C1570.15 334.36, 1756.22 120.74, 1858.81 0.65 M1393.8 547.78 C1533.16 385.98, 1674.09 223.28, 1869.44 0.61 M1393.8 547.78 C1576.95 337.52, 1759.18 127.86, 1869.44 0.61 M1404.43 547.74 C1545.76 383.25, 1690.45 219.2, 1880.07 0.58 M1404.43 547.74 C1559.51 368.93, 1716.81 188.36, 1880.07 0.58 M1415.06 547.71 C1562.66 377.69, 1710.18 207.17, 1890.7 0.54 M1415.06 547.71 C1566.8 376.7, 1715.93 204.57, 1890.7 0.54 M1425.69 547.67 C1525.9 428.81, 1628.84 310.13, 1901.33 0.51 M1425.69 547.67 C1557.47 396.11, 1688.2 246, 1901.33 0.51 M1436.32 547.64 C1606.49 354.71, 1777.34 159.37, 1911.96 0.48 M1436.32 547.64 C1615.99 341.63, 1795.02 135.33, 1911.96 0.48 M1446.95 547.61 C1620.38 352.5, 1791.85 154.61, 1922.59 0.44 M1446.95 547.61 C1633.41 332.63, 1821.42 116.1, 1922.59 0.44 M1456.92 548.33 C1631.34 348.82, 1802.75 150.44, 1933.22 0.41 M1456.92 548.33 C1591.93 392.48, 1727.07 236.21, 1933.22 0.41 M1467.55 548.29 C1574.74 425.05, 1682.36 301.89, 1943.85 0.37 M1467.55 548.29 C1637.61 354.18, 1805.61 160.19, 1943.85 0.37 M1478.18 548.26 C1656.61 345.34, 1833.49 142.15, 1954.48 0.34 M1478.18 548.26 C1590.91 418.14, 1705.25 286.77, 1954.48 0.34 M1488.81 548.22 C1586.77 435.57, 1684.24 322.39, 1965.11 0.3 M1488.81 548.22 C1626.3 389.84, 1765.47 229.68, 1965.11 0.3 M1499.44 548.19 C1661.2 361.5, 1823.99 175.29, 1975.74 0.27 M1499.44 548.19 C1657.58 366.21, 1817.53 182.79, 1975.74 0.27 M1510.07 548.15 C1613.3 429.55, 1718.63 309.13, 1986.37 0.23 M1510.07 548.15 C1628.52 411.22, 1746.56 275.19, 1986.37 0.23 M1520.7 548.12 C1683.53 361, 1846.38 174.11, 1997 0.2 M1520.7 548.12 C1686.17 357.52, 1850.71 167.21, 1997 0.2 M1531.33 548.08 C1670.33 390.72, 1807.99 231.97, 2007.63 0.16 M1531.33 548.08 C1696.23 359.28, 1860.34 170.64, 2007.63 0.16 M1541.96 548.05 C1707.38 354.49, 1874.6 162.86, 2017.6 0.88 M1541.96 548.05 C1701.59 363.34, 1863.84 176.94, 2017.6 0.88 M1552.59 548.01 C1718.38 354.79, 1886.96 162.59, 2028.23 0.85 M1552.59 548.01 C1737.03 335.95, 1920.86 124.02, 2028.23 0.85 M1563.22 547.98 C1691.86 403.88, 1818.63 256.1, 2038.86 0.82 M1563.22 547.98 C1691.8 400.83, 1819.73 253.96, 2038.86 0.82 M1573.85 547.95 C1698.12 407.51, 1821.46 264.96, 2049.5 0.78 M1573.85 547.95 C1705.39 397.56, 1835.55 247.22, 2049.5 0.78 M1584.48 547.91 C1724.95 385.6, 1865.25 223.92, 2060.13 0.75 M1584.48 547.91 C1760.9 343.71, 1938.96 139.55, 2060.13 0.75 M1595.11 547.88 C1774.25 344.07, 1952.54 139.19, 2070.76 0.71 M1595.11 547.88 C1781.35 332.41, 1966.9 119.05, 2070.76 0.71 M1605.74 547.84 C1774.78 355.71, 1943.31 161.88, 2081.39 0.68 M1605.74 547.84 C1787.32 339.17, 1968.96 130.98, 2081.39 0.68 M1616.37 547.81 C1793.78 345.18, 1970.38 142.06, 2092.02 0.64 M1616.37 547.81 C1716.25 433.36, 1814.17 320.23, 2092.02 0.64 M1627 547.77 C1754.71 396.92, 1885.23 248.06, 2102.65 0.61 M1627 547.77 C1773.08 378.17, 1919.85 209.59, 2102.65 0.61 M1637.63 547.74 C1751.15 417.74, 1864.4 288.74, 2113.28 0.57 M1637.63 547.74 C1772.34 393.88, 1907.12 239.52, 2113.28 0.57 M1648.26 547.7 C1836.56 330.88, 2025.69 112.66, 2123.91 0.54 M1648.26 547.7 C1769.38 406.07, 1891.75 265.65, 2123.91 0.54 M1658.89 547.67 C1789.38 398, 1919.69 247.98, 2134.54 0.51 M1658.89 547.67 C1785.36 403.81, 1911.04 259.71, 2134.54 0.51 M1668.87 548.39 C1850.4 337.81, 2035.64 126.76, 2145.17 0.47 M1668.87 548.39 C1774.12 428.47, 1878.16 309.46, 2145.17 0.47 M1679.5 548.36 C1817.97 385.65, 1957.67 226.5, 2155.8 0.44 M1679.5 548.36 C1814.49 390.1, 1950.68 232.92, 2155.8 0.44 M1690.13 548.32 C1787.94 436.48, 1885.85 325.18, 2166.43 0.4 M1690.13 548.32 C1819.27 401.38, 1947 253.5, 2166.43 0.4 M1700.76 548.29 C1807.61 428.48, 1910.69 308.65, 2177.06 0.37 M1700.76 548.29 C1876.38 344.27, 2052.65 141.21, 2177.06 0.37 M1711.39 548.25 C1873.91 364.28, 2033.08 179.56, 2187.69 0.33 M1711.39 548.25 C1889.61 342.05, 2068.34 136.59, 2187.69 0.33 M1722.02 548.22 C1862.84 388.77, 2002.31 227.82, 2198.32 0.3 M1722.02 548.22 C1828.18 425.59, 1935.74 302.64, 2198.32 0.3 M1732.65 548.18 C1913.49 342.18, 2091.54 136.5, 2208.95 0.26 M1732.65 548.18 C1920.8 332.89, 2106.98 118.96, 2208.95 0.26 M1743.28 548.15 C1868.82 404.58, 1993.19 262.1, 2219.58 0.23 M1743.28 548.15 C1860.15 412.61, 1978.33 276.41, 2219.58 0.23 M1753.91 548.11 C1862.65 425.68, 1971.9 301.13, 2230.21 0.19 M1753.91 548.11 C1873.43 409.29, 1995.1 269.04, 2230.21 0.19 M1764.54 548.08 C1947.38 336.39, 2132.45 123.47, 2240.18 0.92 M1764.54 548.08 C1917.02 370.99, 2070.53 194.72, 2240.18 0.92 M1775.17 548.05 C1924.45 378.28, 2072.62 209.18, 2250.81 0.88 M1775.17 548.05 C1965.87 330.06, 2153.81 112.72, 2250.81 0.88 M1785.8 548.01 C1905.66 411.76, 2023.15 276.31, 2261.44 0.85 M1785.8 548.01 C1890.59 425.32, 1995.87 303.93, 2261.44 0.85 M1796.43 547.98 C1964.67 354.47, 2135.97 158.6, 2272.07 0.81 M1796.43 547.98 C1954.82 367.77, 2111.15 187.05, 2272.07 0.81 M1807.06 547.94 C1965.17 366.29, 2121.06 186.32, 2282.7 0.78 M1807.06 547.94 C1902.83 437.94, 1999.4 326.76, 2282.7 0.78 M1817.69 547.91 C1918.97 433.94, 2019.32 317.79, 2293.33 0.74 M1817.69 547.91 C1941.43 405.77, 2064.59 264.15, 2293.33 0.74 M1828.32 547.87 C1940.58 420.96, 2051.53 293.18, 2303.96 0.71 M1828.32 547.87 C1928.8 429.23, 2030.8 311.61, 2303.96 0.71 M1838.95 547.84 C1948.96 422.15, 2057.83 297.12, 2314.59 0.67 M1838.95 547.84 C1969.92 398.05, 2100.55 248.95, 2314.59 0.67 M1849.58 547.8 C1978.29 399.65, 2107.33 251.23, 2325.22 0.64 M1849.58 547.8 C1987.53 389.42, 2125.34 230.42, 2325.22 0.64 M1860.21 547.77 C1993.94 395.48, 2127.74 241.44, 2335.85 0.6 M1860.21 547.77 C2025.4 355.85, 2192.82 163.61, 2335.85 0.6 M1870.84 547.73 C2000.32 399.95, 2126.6 253.66, 2346.48 0.57 M1870.84 547.73 C2037.38 356.76, 2204.08 165.53, 2346.48 0.57 M1881.47 547.7 C2046.66 358.9, 2210.62 170.61, 2357.11 0.54 M1881.47 547.7 C2052.58 352.85, 2223.65 156.64, 2357.11 0.54 M1891.44 548.42 C2063.77 350.9, 2236.22 152.24, 2367.74 0.5 M1891.44 548.42 C1988.58 434.17, 2086.63 322.12, 2367.74 0.5 M1902.07 548.39 C2053.41 373.73, 2204.97 198.9, 2378.37 0.47 M1902.07 548.39 C2019.35 414.11, 2137.12 277.52, 2378.37 0.47 M1912.7 548.35 C2008.13 435.99, 2104.36 324.54, 2387.03 2.7 M1912.7 548.35 C2078.17 357.34, 2244.55 165.56, 2387.03 2.7 M1923.33 548.32 C2018.81 438.45, 2116.02 326.37, 2393.73 7.19 M1923.33 548.32 C2046.99 409.09, 2169.36 269.11, 2393.73 7.19 M1933.96 548.28 C2098.13 356.48, 2262.04 166.44, 2399.11 13.19 M1933.96 548.28 C2105.89 347.7, 2279.25 147.65, 2399.11 13.19 M1944.59 548.25 C2094.31 375.45, 2244.22 203.09, 2402.52 21.46 M1944.59 548.25 C2090.69 380, 2237.74 210.76, 2402.52 21.46 M1955.22 548.21 C2084.75 396.05, 2215.35 246.07, 2403.97 31.99 M1955.22 548.21 C2110.9 371.5, 2264.21 195.49, 2403.97 31.99 M1965.85 548.18 C2105.66 386.9, 2243.11 228.68, 2404.1 44.03 M1965.85 548.18 C2077.18 420.99, 2186.29 295.59, 2404.1 44.03 M1976.48 548.14 C2061.99 448.78, 2148.08 349.89, 2403.58 56.83 M1976.48 548.14 C2070.91 441.02, 2163.45 334.26, 2403.58 56.83 M1987.11 548.11 C2114.93 397.43, 2244.69 248.24, 2403.71 68.87 M1987.11 548.11 C2131.99 383.07, 2276.43 217.1, 2403.71 68.87 M1997.74 548.08 C2153.84 369.25, 2310.64 189.55, 2403.84 80.91 M1997.74 548.08 C2097.29 432.16, 2197.32 317.4, 2403.84 80.91 M2008.37 548.04 C2156.49 380.2, 2303.58 210.47, 2403.98 92.95 M2008.37 548.04 C2087.75 454.77, 2167.21 362.84, 2403.98 92.95 M2019 548.01 C2115.29 436.08, 2213.7 323.83, 2404.11 104.99 M2019 548.01 C2159.45 387.78, 2298.44 227.9, 2404.11 104.99 M2029.63 547.97 C2129.38 432.28, 2228.62 317.16, 2403.59 117.79 M2029.63 547.97 C2141.77 420.32, 2252.16 292.87, 2403.59 117.79 M2040.26 547.94 C2160.99 409.01, 2281.98 269.91, 2403.72 129.83 M2040.26 547.94 C2180.84 387.93, 2320.32 226.74, 2403.72 129.83 M2050.89 547.9 C2150.13 435.41, 2249.1 323.09, 2403.85 141.87 M2050.89 547.9 C2188.64 390.4, 2326.7 231.32, 2403.85 141.87 M2061.52 547.87 C2152.76 443.88, 2241.02 341.34, 2403.99 153.91 M2061.52 547.87 C2139.25 459.86, 2217.52 370.13, 2403.99 153.91 M2072.15 547.83 C2203.53 396.49, 2336.04 244.8, 2403.46 166.71 M2072.15 547.83 C2186.14 417.02, 2299.25 286.59, 2403.46 166.71 M2082.78 547.8 C2207.93 404.17, 2332.26 259.89, 2403.6 178.75 M2082.78 547.8 C2172.45 442.94, 2263.98 337.67, 2403.6 178.75 M2093.41 547.76 C2197.52 425.84, 2300.46 306.54, 2403.73 190.79 M2093.41 547.76 C2184.2 445.53, 2273.78 343.24, 2403.73 190.79 M2103.39 548.49 C2216.81 417.02, 2330.65 287.95, 2403.86 202.83 M2103.39 548.49 C2176.92 465.18, 2249.01 382.8, 2403.86 202.83 M2114.02 548.45 C2203.14 446.09, 2290.87 344.78, 2404 214.87 M2114.02 548.45 C2189.58 461.77, 2264.39 375.45, 2404 214.87 M2124.65 548.42 C2180.83 483.71, 2237.57 418.54, 2403.47 227.66 M2124.65 548.42 C2198.55 463.27, 2273.03 377.34, 2403.47 227.66 M2135.28 548.38 C2201.38 471.24, 2266.58 395.83, 2403.61 239.71 M2135.28 548.38 C2233.46 435, 2332.12 321.43, 2403.61 239.71 M2145.91 548.35 C2237.08 443.32, 2327.69 339.01, 2403.74 251.75 M2145.91 548.35 C2203.18 483.23, 2260.58 417.02, 2403.74 251.75 M2156.54 548.31 C2256.54 436.01, 2354.05 321.27, 2403.87 263.79 M2156.54 548.31 C2211.8 487, 2266.54 423.93, 2403.87 263.79 M2167.17 548.28 C2220.17 485.28, 2274.03 421.63, 2403.35 276.58 M2167.17 548.28 C2227.7 480.37, 2288.52 411.07, 2403.35 276.58 M2177.8 548.24 C2246.54 468.55, 2318.52 387.77, 2403.48 288.62 M2177.8 548.24 C2247.78 469.48, 2316.46 390.54, 2403.48 288.62 M2188.43 548.21 C2263.55 465.28, 2337.29 379.3, 2403.62 300.66 M2188.43 548.21 C2272.9 448.35, 2357.85 350.6, 2403.62 300.66 M2199.06 548.17 C2255.76 484.49, 2307.96 422.81, 2403.75 312.71 M2199.06 548.17 C2281.92 454.72, 2363.66 360.64, 2403.75 312.71 M2209.69 548.14 C2271.2 478.31, 2332.07 408.7, 2403.88 324.75 M2209.69 548.14 C2281.83 465.29, 2354.38 382.07, 2403.88 324.75 M2220.32 548.11 C2264.28 499.52, 2305.93 451.47, 2403.36 337.54 M2220.32 548.11 C2286.83 470.19, 2355.04 391.98, 2403.36 337.54 M2230.95 548.07 C2280.49 490.29, 2329.45 432.66, 2403.49 349.58 M2230.95 548.07 C2297.88 471.9, 2365.3 393.15, 2403.49 349.58 M2241.58 548.04 C2291.34 491.22, 2342.28 431.39, 2403.63 361.62 M2241.58 548.04 C2301.66 478.24, 2361.3 409.62, 2403.63 361.62 M2252.21 548 C2300.81 494.46, 2348.62 437.79, 2403.76 373.66 M2252.21 548 C2304.79 486.35, 2356.36 426.63, 2403.76 373.66 M2262.84 547.97 C2307.18 499.52, 2350.95 448.7, 2403.24 386.46 M2262.84 547.97 C2298.45 509.58, 2331.2 472.08, 2403.24 386.46 M2273.47 547.93 C2319.22 494.54, 2367.01 440.87, 2403.37 398.5 M2273.47 547.93 C2301.08 516.07, 2330.96 482.66, 2403.37 398.5 M2284.1 547.9 C2327.19 501.12, 2368.92 454.15, 2403.5 410.54 M2284.1 547.9 C2320.98 504.97, 2358.31 462.26, 2403.5 410.54 M2294.73 547.86 C2326.64 513.14, 2355.45 477.3, 2403.64 422.58 M2294.73 547.86 C2326.3 511.32, 2357.98 473.78, 2403.64 422.58 M2305.36 547.83 C2329.24 517.47, 2357.13 490.92, 2403.77 434.62 M2305.36 547.83 C2342.13 504.25, 2380.92 460.13, 2403.77 434.62 M2315.99 547.8 C2342.14 517.7, 2366.23 491.53, 2403.25 447.42 M2315.99 547.8 C2342 514.77, 2370.91 482.76, 2403.25 447.42 M2325.96 548.52 C2355.21 516.63, 2382.51 482.7, 2403.38 459.46 M2325.96 548.52 C2355.49 513.98, 2386.11 481.04, 2403.38 459.46 M2336.59 548.48 C2354.01 526.34, 2370.86 506.09, 2403.51 471.5 M2336.59 548.48 C2360.01 521.89, 2384.22 496.42, 2403.51 471.5 M2347.22 548.45 C2366.77 526.97, 2388.11 503.42, 2403.65 483.54 M2347.22 548.45 C2363.22 530.62, 2378.74 511.03, 2403.65 483.54 M2357.85 548.41 C2370.36 535.04, 2380.94 523.27, 2403.12 496.34 M2357.85 548.41 C2370.8 531.69, 2384.46 517.26, 2403.12 496.34 M2368.48 548.38 C2381.77 531.66, 2395.92 519.97, 2403.26 508.38 M2368.48 548.38 C2381.15 533.33, 2394.14 518.45, 2403.26 508.38 M2381.08 546.08 C2386.68 538.7, 2393.72 529.66, 2403.39 520.42 M2381.08 546.08 C2385.51 539.46, 2389.65 533.96, 2403.39 520.42" stroke="#f08c00" stroke-width="1" fill="none"></path><path d="M32 0 C759.46 6.94, 1486.05 6.26, 2371.77 0 M32 0 C522.82 8.58, 1013.16 8.88, 2371.77 0 M2371.77 0 C2392.49 -0.23, 2402.83 9.35, 2403.77 32 M2371.77 0 C2393.12 -1.39, 2402.93 8.48, 2403.77 32 M2403.77 32 C2403.47 198.45, 2403.85 365.63, 2403.77 515.61 M2403.77 32 C2402.45 164.87, 2402.32 298.01, 2403.77 515.61 M2403.77 515.61 C2404.19 538.52, 2392.28 548.52, 2371.77 547.61 M2403.77 515.61 C2403.44 537.27, 2393.93 549.07, 2371.77 547.61 M2371.77 547.61 C1495.21 541.18, 618.07 540.21, 32 547.61 M2371.77 547.61 C1687.7 550.85, 1004.13 550.98, 32 547.61 M32 547.61 C12.45 546.95, -1.93 535.04, 0 515.61 M32 547.61 C12.78 547.92, 2.29 535.19, 0 515.61 M0 515.61 C1.55 333.35, 1.47 151.09, 0 32 M0 515.61 C-0.17 405.35, -0.1 294.3, 0 32 M0 32 C0.61 10.73, 12.59 -0.56, 32 0 M0 32 C-0.95 11.37, 10.61 -1.43, 32 0" stroke="#f08c00" stroke-width="2" fill="none"></path></g><g stroke-opacity="0.6" fill-opacity="0.6" stroke-linecap="round" transform="translate(62.36683317967868 45.52995179513073) rotate(0 1153.549127141321 155.74394202671567)"><path d="M0 0 C668.44 -5.9, 1338.07 -5.95, 2307.1 0 M0 0 C741.52 -5.77, 1483.61 -5.61, 2307.1 0 M2307.1 0 C2305.43 66.49, 2306.28 130.82, 2307.1 311.49 M2307.1 0 C2308.3 99.59, 2308.23 198.24, 2307.1 311.49 M2307.1 311.49 C1602.32 317.75, 897.12 318.23, 0 311.49 M2307.1 311.49 C1616.45 313.29, 925.07 312.56, 0 311.49 M0 311.49 C-2.07 207.25, -1.06 102.42, 0 0 M0 311.49 C0.07 208.04, -0.09 103.88, 0 0" stroke="#f08c00" stroke-width="2" fill="none"></path></g><g stroke-linecap="round" transform="translate(149.86162993260837 93.86328512846399) rotate(0 98 21.83333396911621)"><path d="M0 0 C72.5 -0.13, 144.43 -1.19, 196 0 M0 0 C70.49 1.33, 139.53 1.55, 196 0 M196 0 C195.69 11.21, 196.1 22.87, 196 43.67 M196 0 C194.78 13.14, 195.71 27.05, 196 43.67 M196 43.67 C122.05 44.93, 51.83 43.16, 0 43.67 M196 43.67 C133.34 44.42, 72.6 46.3, 0 43.67 M0 43.67 C1.38 32.27, 0.68 17.79, 0 0 M0 43.67 C-0.33 27.03, 0.99 10.35, 0 0" stroke="#f08c00" stroke-width="2" fill="none"></path></g><g stroke-linecap="round" transform="translate(95.70016651301205 282.38428973647655) rotate(0 150.4947967529297 21.83333396911621)"><path d="M0 0 C102.61 -1.02, 205.44 -1.57, 300.99 0 M0 0 C60.39 1.01, 121.7 0.82, 300.99 0 M300.99 0 C301.35 18.61, 301.04 32.48, 300.99 43.67 M300.99 0 C300.66 16.36, 301.29 31.36, 300.99 43.67 M300.99 43.67 C210.19 44.62, 119.64 45.78, 0 43.67 M300.99 43.67 C184.64 42.22, 67.7 41.53, 0 43.67 M0 43.67 C0.37 27.9, 1.39 12.14, 0 0 M0 43.67 C1.09 28.3, -0.58 11.88, 0 0" stroke="#f08c00" stroke-width="2" fill="none"></path></g><g stroke-linecap="round" transform="translate(380.3312979830057 95.2076577989472) rotate(0 155.4947967529297 21.83333396911621)"><path d="M0 0 C104.26 -0.37, 205.47 0.85, 310.99 0 M0 0 C74.97 0.35, 151.39 0.77, 310.99 0 M310.99 0 C311.13 12.76, 312.3 26.92, 310.99 43.67 M310.99 0 C311.69 12.49, 311.03 24.45, 310.99 43.67 M310.99 43.67 C198.81 43.8, 87.42 41.96, 0 43.67 M310.99 43.67 C247.61 45.68, 184.71 46.19, 0 43.67 M0 43.67 C1.54 27.05, 1.01 10.3, 0 0 M0 43.67 C-1.15 29.36, -1.36 16.15, 0 0" stroke="#f08c00" stroke-width="2" fill="none"></path></g><g stroke-linecap="round" transform="translate(468.7323421928039 283.72866240695976) rotate(0 65.42708587646484 21.83333396911621)"><path d="M0 0 C34.62 1.31, 71.98 -1.05, 130.85 0 M0 0 C35.51 0.78, 69.5 0.98, 130.85 0 M130.85 0 C132.1 14.8, 130.68 33.21, 130.85 43.67 M130.85 0 C131.17 14.69, 131.76 31.24, 130.85 43.67 M130.85 43.67 C96.89 42.79, 57.5 45.09, 0 43.67 M130.85 43.67 C80.2 44.32, 29.13 43.97, 0 43.67 M0 43.67 C0.79 30.15, -0.06 20.05, 0 0 M0 43.67 C-0.63 29.46, 1.2 14.93, 0 0" stroke="#f08c00" stroke-width="2" fill="none"></path></g><g stroke-linecap="round" transform="translate(1058.7450284094298 95.20765779894714) rotate(0 132.78755852747418 22.605950312342458)"><path d="M0 0 C63.32 -2.01, 127.89 -1.47, 265.58 0 M0 0 C63.63 0.19, 127.43 0.07, 265.58 0 M265.58 0 C265.67 10.13, 267.01 21.39, 265.58 45.21 M265.58 0 C266.2 12.65, 265.31 25.47, 265.58 45.21 M265.58 45.21 C170.63 44.17, 80.18 43.5, 0 45.21 M265.58 45.21 C187.17 46.91, 107.55 47.32, 0 45.21 M0 45.21 C0.04 34.23, 0.25 18.08, 0 0 M0 45.21 C1.31 33.8, 1.11 22.59, 0 0" stroke="#f08c00" stroke-width="2" fill="none"></path></g><g stroke-linecap="round" transform="translate(1075.2801831638767 283.7286624069597) rotate(0 120.63541412353516 17.5)"><path d="M0 0 C78.44 0.88, 157.04 3.31, 241.27 0 M0 0 C72.48 -0.34, 143 0.14, 241.27 0 M241.27 0 C242.39 8.8, 240.84 14.92, 241.27 35 M241.27 0 C241.22 7.38, 242 15.32, 241.27 35 M241.27 35 C189.1 35.65, 133.85 36.7, 0 35 M241.27 35 C152.32 36.37, 63.37 36.15, 0 35 M0 35 C0.46 24.39, -1.14 14.86, 0 0 M0 35 C0.37 24.04, 0.59 13.8, 0 0" stroke="#f08c00" stroke-width="2" fill="none"></path></g><g stroke-linecap="round" transform="translate(1378.5258346430205 99.24077581039677) rotate(0 117.60416412353516 17.5)"><path d="M0 0 C48.21 2.63, 98.44 1.59, 235.21 0 M0 0 C74.21 0.46, 149.01 -0.14, 235.21 0 M235.21 0 C235.01 10.72, 233.54 22.61, 235.21 35 M235.21 0 C235.63 11.36, 234.34 20, 235.21 35 M235.21 35 C155.83 35.85, 77.7 36.12, 0 35 M235.21 35 C156.65 37.16, 78.03 36.8, 0 35 M0 35 C-1.17 19.37, -0.05 9.33, 0 0 M0 35 C0.66 25.46, -0.54 15.91, 0 0" stroke="#f08c00" stroke-width="2" fill="none"></path></g><g stroke-linecap="round" transform="translate(1392.8412818070206 282.3842897364766) rotate(0 104.98298959847097 20.589391306617642)"><path d="M0 0 C51.14 -1.17, 102.69 -0.27, 209.97 0 M0 0 C62.87 -1.22, 127.33 -0.63, 209.97 0 M209.97 0 C208.01 16.37, 209.87 29.75, 209.97 41.18 M209.97 0 C209.4 12.04, 210.55 26.92, 209.97 41.18 M209.97 41.18 C149.37 43.53, 86.94 42.09, 0 41.18 M209.97 41.18 C128.9 42.38, 49.34 42.48, 0 41.18 M0 41.18 C0.26 33.66, -0.37 24, 0 0 M0 41.18 C-0.68 30.3, -0.23 18.99, 0 0" stroke="#f08c00" stroke-width="2" fill="none"></path></g><g stroke-linecap="round" transform="translate(1735.7910699242177 96.55203046943035) rotate(0 125.35416412353516 21.83333396911621)"><path d="M0 0 C98.05 0.71, 195.56 -1.85, 250.71 0 M0 0 C90.66 0.66, 181.78 0.03, 250.71 0 M250.71 0 C250.29 12.63, 250.61 27.38, 250.71 43.67 M250.71 0 C250.74 17.83, 250.31 33.81, 250.71 43.67 M250.71 43.67 C161.7 45.02, 72.98 44.89, 0 43.67 M250.71 43.67 C161.77 44.19, 70.72 43.54, 0 43.67 M0 43.67 C-0.6 36.11, -0.8 27.65, 0 0 M0 43.67 C0.27 30.13, -0.48 18.73, 0 0" stroke="#f08c00" stroke-width="2" fill="none"></path></g><g stroke-linecap="round" transform="translate(1666.5306532575512 285.0730350774429) rotate(0 192.9479217529297 30)"><path d="M0 0 C126.68 -2.72, 254.01 -2.83, 385.9 0 M0 0 C112.58 -1.43, 224.38 -1.87, 385.9 0 M385.9 0 C386.21 22.72, 387.64 41.82, 385.9 60 M385.9 0 C386.06 12.19, 386.69 25.13, 385.9 60 M385.9 60 C242.97 59.61, 98.74 59.33, 0 60 M385.9 60 C263.8 60.26, 142.03 60.6, 0 60 M0 60 C-0.61 38.56, 0.04 12.94, 0 0 M0 60 C-0.7 43.58, -0.23 26.75, 0 0" stroke="#f08c00" stroke-width="2" fill="none"></path></g><g stroke-linecap="round" transform="translate(2072.2054180795812 93.86328512846399) rotate(0 131.8020782470703 21.83333396911621)"><path d="M0 0 C100.88 0.25, 199.67 1.73, 263.6 0 M0 0 C94.32 -0.32, 189.1 0.42, 263.6 0 M263.6 0 C265.42 10.37, 261.75 24.58, 263.6 43.67 M263.6 0 C264.15 17.78, 264.31 34.52, 263.6 43.67 M263.6 43.67 C187.72 42.69, 110.24 44.77, 0 43.67 M263.6 43.67 C176.99 42.55, 92.6 42.3, 0 43.67 M0 43.67 C0.04 27.02, -0.13 11.88, 0 0 M0 43.67 C0.12 34.7, 0.7 22.96, 0 0" stroke="#f08c00" stroke-width="2" fill="none"></path></g><g stroke-linecap="round" transform="translate(2092.9918738697834 282.38428973647655) rotate(0 115.18229675292969 31.666666666666686)"><path d="M0 0 C50.89 1.8, 103.08 2.86, 230.36 0 M0 0 C65 1.83, 128.73 1.97, 230.36 0 M230.36 0 C228.99 23.02, 232.75 44.44, 230.36 63.33 M230.36 0 C231.46 19.17, 230.64 38.51, 230.36 63.33 M230.36 63.33 C165.33 64.11, 100.22 61.28, 0 63.33 M230.36 63.33 C174.47 63.12, 117.67 63.03, 0 63.33 M0 63.33 C-0.26 38.97, -1.42 12.82, 0 0 M0 63.33 C0.53 39.15, -0.24 16.99, 0 0" stroke="#f08c00" stroke-width="2" fill="none"></path></g><g stroke-linecap="round" transform="translate(74.88219211813635 450.739704287241) rotate(0 167.69887934337652 22.505520304357788)"><path d="M0 0 C72.13 0.79, 142.42 -0.1, 335.4 0 M0 0 C69.04 0.12, 138.78 0.6, 335.4 0 M335.4 0 C336.79 9.9, 334.91 21.18, 335.4 45.01 M335.4 0 C335.64 17.43, 335.56 33.74, 335.4 45.01 M335.4 45.01 C248.47 46.07, 160.11 45.78, 0 45.01 M335.4 45.01 C234.6 44.08, 133.49 44.3, 0 45.01 M0 45.01 C-1.39 31.66, 1.43 20.48, 0 0 M0 45.01 C-0.53 27.53, 0.74 8.79, 0 0" stroke="#f08c00" stroke-width="2" fill="none"></path></g><g stroke-linecap="round" transform="translate(1140.8186943949459 454.7728222986906) rotate(0 198.7835770366484 22.87749068193284)"><path d="M0 0 C121.19 -1.52, 241.78 -0.84, 397.57 0 M0 0 C119.35 0.14, 237.66 -0.91, 397.57 0 M397.57 0 C397.93 16.58, 399.35 32.32, 397.57 45.75 M397.57 0 C397.36 15.83, 397.13 30.66, 397.57 45.75 M397.57 45.75 C241.27 42.95, 86.23 45.04, 0 45.75 M397.57 45.75 C290.5 44.82, 182.23 44.77, 0 45.75 M0 45.75 C1.69 31.1, 2.22 17.9, 0 0 M0 45.75 C1.09 35.34, -0.21 27.03, 0 0" stroke="#f08c00" stroke-width="2" fill="none"></path></g><g stroke-linecap="round" transform="translate(1561.1760858036062 455.79490097299015) rotate(0 234.5364532470703 21.83333396911621)"><path d="M0 0 C171.66 0.52, 345.01 -0.28, 469.07 0 M0 0 C147.76 -2.29, 296.38 -1.44, 469.07 0 M469.07 0 C470.43 14.31, 469.73 25.54, 469.07 43.67 M469.07 0 C468.6 16.94, 469.92 33.83, 469.07 43.67 M469.07 43.67 C363.61 42.41, 257.84 42.23, 0 43.67 M469.07 43.67 C346.74 43.46, 224.75 43.19, 0 43.67 M0 43.67 C1.59 34.13, -2.06 22.2, 0 0 M0 43.67 C-0.77 30.05, -0.01 15.48, 0 0" stroke="#f08c00" stroke-width="2" fill="none"></path></g><g stroke-linecap="round" transform="translate(2047.3946721583213 458.80594031013993) rotate(0 164.53125 21.83333396911621)"><path d="M0 0 C99.25 -1.76, 198.73 -0.68, 329.06 0 M0 0 C127.76 2.8, 254.97 2.15, 329.06 0 M329.06 0 C330.03 15.42, 331.05 30.86, 329.06 43.67 M329.06 0 C329.8 15.88, 328.14 30.7, 329.06 43.67 M329.06 43.67 C261.6 46.55, 194.4 46.85, 0 43.67 M329.06 43.67 C232.65 42.83, 135.62 43.79, 0 43.67 M0 43.67 C-2.17 30.56, 0.13 20.65, 0 0 M0 43.67 C0.55 34.08, 0.38 23.37, 0 0" stroke="#f08c00" stroke-width="2" fill="none"></path></g><g mask="url(#mask-QZPXP1fJIKNt3IflxNpVn)" stroke-linecap="round"><g transform="translate(247.65848365995123 138.5299530666964) rotate(0 -0.6096312110420712 69.02700039665766)"><path d="M-0.33 0.19 C-0.55 23.37, -0.29 116.32, -0.6 139.1 M1.71 -0.76 C1.31 22.11, -0.98 114.47, -1.22 137.53" stroke="#f08c00" stroke-width="2" fill="none"></path></g><g transform="translate(247.65848365995123 138.5299530666964) rotate(0 -0.6096312110420712 69.02700039665766)"><path d="M-9.33 113.88 C-6.09 123.49, -1.72 129.45, -1.22 137.53 M-9.33 113.88 C-7.65 118.6, -5.37 124.13, -1.22 137.53" stroke="#f08c00" stroke-width="2" fill="none"></path></g><g transform="translate(247.65848365995123 138.5299530666964) rotate(0 -0.6096312110420712 69.02700039665766)"><path d="M7.77 114.2 C4.83 123.65, 3.02 129.49, -1.22 137.53 M7.77 114.2 C5.97 119.01, 4.76 124.47, -1.22 137.53" stroke="#f08c00" stroke-width="2" fill="none"></path></g></g><mask id="mask-QZPXP1fJIKNt3IflxNpVn"><rect x="0" y="0" fill="#fff" width="348.8777460820354" height="376.5839538600117"></rect><rect x="144.75893545672164" y="195.05695346335403" fill="#000" width="204.579833984375" height="25" opacity="1"></rect></mask><g mask="url(#mask-upMmRrDbvEIhInPI0I2Bd)" stroke-linecap="round"><g transform="translate(535.8566877062999 139.87432573717962) rotate(0 -0.7071720797150078 69.02700039665766)"><path d="M0.62 1.05 C0.28 23.83, -2.08 113.88, -2.34 136.9 M-0.51 0.56 C-0.45 23.43, 0.04 115.02, -0.12 137.83" stroke="#f08c00" stroke-width="2" fill="none"></path></g><g transform="translate(535.8566877062999 139.87432573717962) rotate(0 -0.7071720797150078 69.02700039665766)"><path d="M-8.67 114.34 C-4.55 119.15, -5.89 127.86, -0.12 137.83 M-8.67 114.34 C-4.76 124.22, -1.26 133.07, -0.12 137.83" stroke="#f08c00" stroke-width="2" fill="none"></path></g><g transform="translate(535.8566877062999 139.87432573717962) rotate(0 -0.7071720797150078 69.02700039665766)"><path d="M8.43 114.34 C7.88 119.24, 1.87 127.95, -0.12 137.83 M8.43 114.34 C5.64 124.22, 2.45 133.06, -0.12 137.83" stroke="#f08c00" stroke-width="2" fill="none"></path></g></g><mask id="mask-upMmRrDbvEIhInPI0I2Bd"><rect x="0" y="0" fill="#fff" width="637.2710318657299" height="377.9283265304949"></rect><rect x="425.3996071793193" y="183.9013261338373" fill="#000" width="219.49981689453125" height="50" opacity="1"></rect></mask><g mask="url(#mask-jv-2mg_Dmdl0z-uXuU8EL)" stroke-linecap="round"><g transform="translate(1192.0992511137993 141.41955842363205) rotate(0 1.6300702717393278 68.25438405343141)"><path d="M-0.93 -1.16 C-0.42 21.6, 3.02 114.67, 3.71 137.61 M0.78 0.85 C1.12 23.82, 2.73 113.24, 2.99 136.06" stroke="#f08c00" stroke-width="2" fill="none"></path></g><g transform="translate(1192.0992511137993 141.41955842363205) rotate(0 1.6300702717393278 68.25438405343141)"><path d="M-5.91 112.7 C-4.5 121.73, 2.39 129.09, 2.99 136.06 M-5.91 112.7 C-2.4 119.92, -0.57 127.38, 2.99 136.06" stroke="#f08c00" stroke-width="2" fill="none"></path></g><g transform="translate(1192.0992511137993 141.41955842363205) rotate(0 1.6300702717393278 68.25438405343141)"><path d="M11.19 112.44 C6.58 121.43, 7.46 128.88, 2.99 136.06 M11.19 112.44 C9.61 119.86, 6.36 127.39, 2.99 136.06" stroke="#f08c00" stroke-width="2" fill="none"></path></g></g><mask id="mask-jv-2mg_Dmdl0z-uXuU8EL"><rect x="0" y="0" fill="#fff" width="1295.359391657278" height="377.92832653049487"></rect><rect x="1091.549412633097" y="184.67394247706346" fill="#000" width="204.3598175048828" height="50" opacity="1"></rect></mask><g mask="url(#mask-0r9sFkEMUy_UVkoeXCKdq)" stroke-linecap="round"><g transform="translate(1496.4406738058317 135.24077581039677) rotate(0 0.5829088666228017 70.6715890248075)"><path d="M0.45 1.1 C0.79 24.84, 0.86 117.8, 1.1 141.31 M-0.78 0.63 C-0.52 24.68, -0.26 119.56, 0.11 142.83" stroke="#f08c00" stroke-width="2" fill="none"></path></g><g transform="translate(1496.4406738058317 135.24077581039677) rotate(0 0.5829088666228017 70.6715890248075)"><path d="M-8.63 119.41 C-5.08 124.48, -5.02 130.95, 0.11 142.83 M-8.63 119.41 C-5.33 128.86, -2.18 137.22, 0.11 142.83" stroke="#f08c00" stroke-width="2" fill="none"></path></g><g transform="translate(1496.4406738058317 135.24077581039677) rotate(0 0.5829088666228017 70.6715890248075)"><path d="M8.47 119.27 C8.21 124.43, 4.47 130.93, 0.11 142.83 M8.47 119.27 C5.48 128.82, 2.32 137.24, 0.11 142.83" stroke="#f08c00" stroke-width="2" fill="none"></path></g></g><mask id="mask-0r9sFkEMUy_UVkoeXCKdq"><rect x="0" y="0" fill="#fff" width="1597.6064915390773" height="376.5839538600118"></rect><rect x="1398.5136644595636" y="168.41236483520424" fill="#000" width="197.01983642578125" height="75" opacity="1"></rect></mask><g mask="url(#mask-vpq9KjsMshHli6QwzgYzb)" stroke-linecap="round"><g transform="translate(1861.1748627619174 141.21869840766277) rotate(0 -0.6734799532683837 69.02700039665766)"><path d="M-0.07 -0.03 C-0.25 22.93, -0.59 115.79, -0.66 138.87 M-1.56 -1.09 C-1.88 22.05, -1.38 114.28, -1.25 137.18" stroke="#f08c00" stroke-width="2" fill="none"></path></g><g transform="translate(1861.1748627619174 141.21869840766277) rotate(0 -0.6734799532683837 69.02700039665766)"><path d="M-9.92 113.74 C-6.83 122.79, -2.49 131.02, -1.25 137.18 M-9.92 113.74 C-7.22 122.06, -4.56 129.45, -1.25 137.18" stroke="#f08c00" stroke-width="2" fill="none"></path></g><g transform="translate(1861.1748627619174 141.21869840766277) rotate(0 -0.6734799532683837 69.02700039665766)"><path d="M7.18 113.65 C4.5 122.72, 3.08 130.98, -1.25 137.18 M7.18 113.65 C4.18 122.14, 1.14 129.57, -1.25 137.18" stroke="#f08c00" stroke-width="2" fill="none"></path></g></g><mask id="mask-vpq9KjsMshHli6QwzgYzb"><rect x="0" y="0" fill="#fff" width="1962.5218226684542" height="379.2726992009781"></rect><rect x="1776.3614520835513" y="185.24569880432045" fill="#000" width="168.2798614501953" height="50" opacity="1"></rect></mask><g mask="url(#mask-qeN2GES6kkpsbLvLOqTJw)" stroke-linecap="round"><g transform="translate(2204.4875962865 138.5299530666964) rotate(0 1.4500091360442866 69.02700039665766)"><path d="M0.69 0.82 C1.33 23.9, 3.42 115.41, 3.78 138.46 M-0.41 0.21 C0.15 22.92, 2.89 113.7, 3.29 136.54" stroke="#f08c00" stroke-width="2" fill="none"></path></g><g transform="translate(2204.4875962865 138.5299530666964) rotate(0 1.4500091360442866 69.02700039665766)"><path d="M-5.84 113.27 C-1.79 121.53, 0.2 126.75, 3.29 136.54 M-5.84 113.27 C-2.77 122.32, 2.05 131.37, 3.29 136.54" stroke="#f08c00" stroke-width="2" fill="none"></path></g><g transform="translate(2204.4875962865 138.5299530666964) rotate(0 1.4500091360442866 69.02700039665766)"><path d="M11.26 112.85 C10.27 121.33, 7.23 126.67, 3.29 136.54 M11.26 112.85 C7.76 122.16, 6.01 131.37, 3.29 136.54" stroke="#f08c00" stroke-width="2" fill="none"></path></g></g><mask id="mask-qeN2GES6kkpsbLvLOqTJw"><rect x="0" y="0" fill="#fff" width="2307.387614558588" height="376.5839538600117"></rect><rect x="2119.8476701198097" y="195.05695346335403" fill="#000" width="172.17987060546875" height="25" opacity="1"></rect></mask><g mask="url(#mask-ijihOeLi3kdr40_ZwBeON)" stroke-linecap="round"><g transform="translate(186.9406288617239 328.3953303451922) rotate(0 3.1689250238529496 60.00335109455955)"><path d="M0.88 0.4 C1.8 20.43, 5.36 100.97, 6.23 121.02 M-0.12 -0.43 C0.57 19.21, 4.33 99.57, 5.23 119.43" stroke="#f08c00" stroke-width="2" fill="none"></path></g><g transform="translate(186.9406288617239 328.3953303451922) rotate(0 3.1689250238529496 60.00335109455955)"><path d="M-4.39 96.35 C-0.13 104.35, 4.33 112.44, 5.23 119.43 M-4.39 96.35 C-0.12 104.85, 1.65 112.31, 5.23 119.43" stroke="#f08c00" stroke-width="2" fill="none"></path></g><g transform="translate(186.9406288617239 328.3953303451922) rotate(0 3.1689250238529496 60.00335109455955)"><path d="M12.69 95.57 C10.86 103.97, 9.22 112.34, 5.23 119.43 M12.69 95.57 C10.85 104.37, 6.51 112.11, 5.23 119.43" stroke="#f08c00" stroke-width="2" fill="none"></path></g></g><mask id="mask-ijihOeLi3kdr40_ZwBeON"><rect x="0" y="0" fill="#fff" width="293.2784789094298" height="548.4020325343113"></rect><rect x="85.69963414680728" y="375.8986814397517" fill="#000" width="208.81983947753906" height="25" opacity="1"></rect></mask><g stroke-linecap="round"><g transform="translate(523.5467768183585 328.39533034519224) rotate(0 -92.56209340521688 60.00335109455952)"><path d="M-0.1 1.01 C-31.14 21.06, -154.41 100.84, -185.32 120.7 M-1.62 0.5 C-32.9 20.17, -155.54 98.76, -186.38 118.94" stroke="#f08c00" stroke-width="2" fill="none"></path></g><g transform="translate(523.5467768183585 328.39533034519224) rotate(0 -92.56209340521688 60.00335109455952)"><path d="M-171.29 99.01 C-175.16 106.1, -181.32 113.07, -186.38 118.94 M-171.29 99.01 C-176.61 104.79, -181.58 111.63, -186.38 118.94" stroke="#f08c00" stroke-width="2" fill="none"></path></g><g transform="translate(523.5467768183585 328.39533034519224) rotate(0 -92.56209340521688 60.00335109455952)"><path d="M-162 113.37 C-169.39 115.09, -179.01 116.71, -186.38 118.94 M-162 113.37 C-170.39 114.65, -178.28 116.96, -186.38 118.94" stroke="#f08c00" stroke-width="2" fill="none"></path></g></g><mask></mask><g stroke-linecap="round"><g transform="translate(1512.319350493121 326.5630736212778) rotate(0 -42.13879498677659 59.86066579175832)"><path d="M-0.2 0.69 C-14.31 20.51, -70.92 100.01, -84.75 119.9 M-1.76 0.01 C-16.06 20.57, -72.35 101.29, -85.95 121.54" stroke="#f08c00" stroke-width="2" fill="none"></path></g><g transform="translate(1512.319350493121 326.5630736212778) rotate(0 -42.13879498677659 59.86066579175832)"><path d="M-79.71 97.33 C-80.17 103.58, -82.84 113.26, -85.95 121.54 M-79.71 97.33 C-82.89 105.2, -83.09 112.77, -85.95 121.54" stroke="#f08c00" stroke-width="2" fill="none"></path></g><g transform="translate(1512.319350493121 326.5630736212778) rotate(0 -42.13879498677659 59.86066579175832)"><path d="M-65.61 107.01 C-70.26 110.41, -77.04 117.27, -85.95 121.54 M-65.61 107.01 C-73.31 111.65, -78.1 116.07, -85.95 121.54" stroke="#f08c00" stroke-width="2" fill="none"></path></g></g><mask></mask><g stroke-linecap="round"><g transform="translate(1870.5199914224074 348.0730363490087) rotate(0 -9.064562833402988 50.9610964355258)"><path d="M-0.48 0.18 C-3.28 17.11, -13.94 85.38, -17.03 102.23 M1.47 -0.77 C-1.38 15.72, -14.39 83.1, -17.4 100.27" stroke="#f08c00" stroke-width="2" fill="none"></path></g><g transform="translate(1870.5199914224074 348.0730363490087) rotate(0 -9.064562833402988 50.9610964355258)"><path d="M-21.53 75.61 C-19.91 84.45, -18.53 88.1, -17.4 100.27 M-21.53 75.61 C-19.88 81.38, -19.07 87.34, -17.4 100.27" stroke="#f08c00" stroke-width="2" fill="none"></path></g><g transform="translate(1870.5199914224074 348.0730363490087) rotate(0 -9.064562833402988 50.9610964355258)"><path d="M-4.72 78.73 C-7.88 86.61, -11.27 89.39, -17.4 100.27 M-4.72 78.73 C-7.17 83.73, -10.49 88.93, -17.4 100.27" stroke="#f08c00" stroke-width="2" fill="none"></path></g></g><mask></mask><g stroke-opacity="0.6" fill-opacity="0.6" transform="translate(1094.5500164123082 50.52995179513073) rotate(0 121.3659439086914 17.5)"><text x="121.3659439086914" y="24.528" font-family="Virgil, Segoe UI Emoji" font-size="28px" fill="#f08c00" text-anchor="middle" style="white-space: pre;" direction="ltr" dominant-baseline="alphabetic">FishWatch System</text></g><g stroke-linecap="round"><g transform="translate(2209.6250101070264 348.71762434137577) rotate(0 0.6452654233530666 52.14432210791722)"><path d="M1.1 0.31 C1.24 17.55, 0.55 86.3, 0.39 103.64 M0.22 -0.58 C0.78 16.8, 2.26 87.13, 2.63 104.83" stroke="#f08c00" stroke-width="2" fill="none"></path></g><g transform="translate(2209.6250101070264 348.71762434137577) rotate(0 0.6452654233530666 52.14432210791722)"><path d="M-6.42 81.53 C-3.51 86.01, -2.76 91.65, 2.63 104.83 M-6.42 81.53 C-2.81 88.2, 0.14 95.56, 2.63 104.83" stroke="#f08c00" stroke-width="2" fill="none"></path></g><g transform="translate(2209.6250101070264 348.71762434137577) rotate(0 0.6452654233530666 52.14432210791722)"><path d="M10.68 81.17 C9.13 85.9, 5.44 91.63, 2.63 104.83 M10.68 81.17 C9.13 87.89, 6.91 95.37, 2.63 104.83" stroke="#f08c00" stroke-width="2" fill="none"></path></g></g><mask></mask><g transform="translate(173.51170012303805 103.1966190975802) rotate(0 74.34992980957031 12.5)"><text x="74.34992980957031" y="17.52" font-family="Virgil, Segoe UI Emoji" font-size="20px" fill="#f08c00" text-anchor="middle" style="white-space: pre;" direction="ltr" dominant-baseline="alphabetic">Edge Computing</text></g><g transform="translate(120.19505481867611 291.71762370559276) rotate(0 125.99990844726562 12.5)"><text x="125.99990844726562" y="17.52" font-family="Virgil, Segoe UI Emoji" font-size="20px" fill="#f08c00" text-anchor="middle" style="white-space: pre;" direction="ltr" dominant-baseline="alphabetic">Data Volume and Velocity</text></g><g transform="translate(407.3262168062479 104.5409917680634) rotate(0 128.4998779296875 12.5)"><text x="128.4998779296875" y="17.52" font-family="Virgil, Segoe UI Emoji" font-size="20px" fill="#f08c00" text-anchor="middle" style="white-space: pre;" direction="ltr" dominant-baseline="alphabetic">Microservices Architecture</text></g><g transform="translate(484.65947384563594 293.06199637607597) rotate(0 49.49995422363281 12.5)"><text x="49.49995422363281" y="17.52" font-family="Virgil, Segoe UI Emoji" font-size="20px" fill="#f08c00" text-anchor="middle" style="white-space: pre;" direction="ltr" dominant-baseline="alphabetic">Scalability</text></g><g transform="translate(1065.7026766585836 105.3136081112896) rotate(0 125.82991027832031 12.5)"><text x="125.82991027832031" y="17.52" font-family="Virgil, Segoe UI Emoji" font-size="20px" fill="#f08c00" text-anchor="middle" style="white-space: pre;" direction="ltr" dominant-baseline="alphabetic">Data Insight &amp; Analytics</text></g><g transform="translate(1097.845689145322 288.7286624069597) rotate(0 98.06990814208984 12.5)"><text x="98.06990814208984" y="17.52" font-family="Virgil, Segoe UI Emoji" font-size="20px" fill="#f08c00" text-anchor="middle" style="white-space: pre;" direction="ltr" dominant-baseline="alphabetic">Cross farm Insights</text></g><g transform="translate(1388.5700927606963 104.24077581039677) rotate(0 107.55990600585938 12.5)"><text x="107.55990600585938" y="17.52" font-family="Virgil, Segoe UI Emoji" font-size="20px" fill="#f08c00" text-anchor="middle" style="white-space: pre;" direction="ltr" dominant-baseline="alphabetic">Web/Mobile Application</text></g><g transform="translate(1401.6743461735578 290.47368104309425) rotate(0 96.14992523193365 12.5)"><text x="96.1499252319336" y="17.52" font-family="Virgil, Segoe UI Emoji" font-size="20px" fill="#f08c00" text-anchor="middle" style="white-space: pre;" direction="ltr" dominant-baseline="alphabetic">Farm User Adoption</text></g><g transform="translate(1754.5653085106435 105.88536443854656) rotate(0 106.57992553710938 12.5)"><text x="106.57992553710938" y="17.52" font-family="Virgil, Segoe UI Emoji" font-size="20px" fill="#f08c00" text-anchor="middle" style="white-space: pre;" direction="ltr" dominant-baseline="alphabetic">Flexible API Gateway</text></g><g transform="translate(1719.068693418684 290.0730350774429) rotate(0 140.40988159179688 25)"><text x="140.40988159179688" y="17.52" font-family="Virgil, Segoe UI Emoji" font-size="20px" fill="#f08c00" text-anchor="middle" style="white-space: pre;" direction="ltr" dominant-baseline="alphabetic">Integration with Security &amp; </text><text x="140.40988159179688" y="42.519999999999996" font-family="Virgil, Segoe UI Emoji" font-size="20px" fill="#f08c00" text-anchor="middle" style="white-space: pre;" direction="ltr" dominant-baseline="alphabetic">Scalability</text></g><g transform="translate(2098.187603443351 103.1966190975802) rotate(0 105.81989288330078 12.5)"><text x="105.81989288330078" y="17.52" font-family="Virgil, Segoe UI Emoji" font-size="20px" fill="#f08c00" text-anchor="middle" style="white-space: pre;" direction="ltr" dominant-baseline="alphabetic">Connectivity Solutions</text></g><g transform="translate(2101.484259734041 289.05095640314323) rotate(0 106.68991088867188 25)"><text x="106.68991088867188" y="17.52" font-family="Virgil, Segoe UI Emoji" font-size="20px" fill="#f08c00" text-anchor="middle" style="white-space: pre;" direction="ltr" dominant-baseline="alphabetic">Connectivity SatCom, </text><text x="106.68991088867188" y="42.519999999999996" font-family="Virgil, Segoe UI Emoji" font-size="20px" fill="#f08c00" text-anchor="middle" style="white-space: pre;" direction="ltr" dominant-baseline="alphabetic">LoROWAN</text></g><g transform="translate(138.4711700332902 460.7452245915988) rotate(0 104.10990142822266 12.5)"><text x="104.10990142822266" y="17.52" font-family="Virgil, Segoe UI Emoji" font-size="20px" fill="#f08c00" text-anchor="middle" style="white-space: pre;" direction="ltr" dominant-baseline="alphabetic">Cloud Infrastructure</text></g><g transform="translate(1153.772406929641 465.1503129806234) rotate(0 185.82986450195318 12.5)"><text x="185.82986450195312" y="17.52" font-family="Virgil, Segoe UI Emoji" font-size="20px" fill="#f08c00" text-anchor="middle" style="white-space: pre;" direction="ltr" dominant-baseline="alphabetic">User Engagement and Adoption Rates</text></g><g transform="translate(1592.742705676653 465.12823494210636) rotate(0 202.96983337402344 12.5)"><text x="202.96983337402344" y="17.52" font-family="Virgil, Segoe UI Emoji" font-size="20px" fill="#f08c00" text-anchor="middle" style="white-space: pre;" direction="ltr" dominant-baseline="alphabetic">Existing Hardware and Software Systems</text></g><g transform="translate(2073.646030190548 468.13927427925614) rotate(0 138.27989196777344 12.5)"><text x="138.27989196777344" y="17.52" font-family="Virgil, Segoe UI Emoji" font-size="20px" fill="#f08c00" text-anchor="middle" style="white-space: pre;" direction="ltr" dominant-baseline="alphabetic">Remote Fish Farm Locations</text></g><g transform="translate(144.75893545672164 195.05695346335403) rotate(0 103.1421421456244 12.64612157978587)"><text x="102.2899169921875" y="17.52" font-family="Virgil, Segoe UI Emoji" font-size="20px" fill="#f08c00" text-anchor="middle" style="white-space: pre;" direction="ltr" dominant-baseline="alphabetic">Process data locally</text></g><g transform="translate(425.3996071793192 183.9013261338373) rotate(0 109.59565324112772 25.165001042345523)"><text x="109.74990844726562" y="17.52" font-family="Virgil, Segoe UI Emoji" font-size="20px" fill="#f08c00" text-anchor="middle" style="white-space: pre;" direction="ltr" dominant-baseline="alphabetic">Independently scalable</text><text x="109.74990844726562" y="42.519999999999996" font-family="Virgil, Segoe UI Emoji" font-size="20px" fill="#f08c00" text-anchor="middle" style="white-space: pre;" direction="ltr" dominant-baseline="alphabetic">components</text></g><g transform="translate(1091.5494126330973 184.67394247706346) rotate(0 101.9387198619545 24.97106730416418)"><text x="102.1799087524414" y="17.52" font-family="Virgil, Segoe UI Emoji" font-size="20px" fill="#f08c00" text-anchor="middle" style="white-space: pre;" direction="ltr" dominant-baseline="alphabetic">Analyze factors </text><text x="102.1799087524414" y="42.519999999999996" font-family="Virgil, Segoe UI Emoji" font-size="20px" fill="#f08c00" text-anchor="middle" style="white-space: pre;" direction="ltr" dominant-baseline="alphabetic">contributing growth  </text></g><g transform="translate(1398.513664459564 168.41236483520424) rotate(0 98.08760375245936 38.55914845154622)"><text x="98.50991821289062" y="17.52" font-family="Virgil, Segoe UI Emoji" font-size="20px" fill="#f08c00" text-anchor="middle" style="white-space: pre;" direction="ltr" dominant-baseline="alphabetic">Customizable </text><text x="98.50991821289062" y="42.519999999999996" font-family="Virgil, Segoe UI Emoji" font-size="20px" fill="#f08c00" text-anchor="middle" style="white-space: pre;" direction="ltr" dominant-baseline="alphabetic">dashboards &amp; user </text><text x="98.50991821289062" y="67.52" font-family="Virgil, Segoe UI Emoji" font-size="20px" fill="#f08c00" text-anchor="middle" style="white-space: pre;" direction="ltr" dominant-baseline="alphabetic">centric design</text></g><g transform="translate(1776.3614520835515 185.24569880432045) rotate(0 83.94574013665692 24.86361639537381)"><text x="84.13993072509766" y="17.52" font-family="Virgil, Segoe UI Emoji" font-size="20px" fill="#f08c00" text-anchor="middle" style="white-space: pre;" direction="ltr" dominant-baseline="alphabetic">Integration with </text><text x="84.13993072509766" y="42.519999999999996" font-family="Virgil, Segoe UI Emoji" font-size="20px" fill="#f08c00" text-anchor="middle" style="white-space: pre;" direction="ltr" dominant-baseline="alphabetic">existing systems</text></g><g transform="translate(2119.8476701198097 195.05695346335403) rotate(0 86.32140975996379 12.803524924595862)"><text x="86.08993530273438" y="17.52" font-family="Virgil, Segoe UI Emoji" font-size="20px" fill="#f08c00" text-anchor="middle" style="white-space: pre;" direction="ltr" dominant-baseline="alphabetic">Ensure data flow</text></g><g transform="translate(85.69963414680728 375.8986814397517) rotate(0 104.29600827171936 12.789574019690065)"><text x="104.40991973876953" y="17.52" font-family="Virgil, Segoe UI Emoji" font-size="20px" fill="#f08c00" text-anchor="middle" style="white-space: pre;" direction="ltr" dominant-baseline="alphabetic">Reduce load on cloud</text></g><g stroke-linecap="round" transform="translate(790.1712535172338 456.6171517359379) rotate(0 167.06615674338838 22.666667302449582)"><path d="M0 0 C71.65 -0.21, 142.06 -0.78, 334.13 0 M0 0 C91.13 0.07, 182.7 -0.05, 334.13 0 M334.13 0 C334.48 12.43, 333.93 21.74, 334.13 45.33 M334.13 0 C334.47 13.34, 333.85 25.36, 334.13 45.33 M334.13 45.33 C208.36 44.28, 79.62 45.02, 0 45.33 M334.13 45.33 C233.61 47.9, 133.44 47.32, 0 45.33 M0 45.33 C-1.16 29.86, 0.81 14.54, 0 0 M0 45.33 C0.46 32.96, -1.24 20.06, 0 0" stroke="#f08c00" stroke-width="2" fill="none"></path></g><g transform="translate(799.5075518621848 466.7838190383875) rotate(0 157.7298583984375 12.5)"><text x="157.7298583984375" y="17.52" font-family="Virgil, Segoe UI Emoji" font-size="20px" fill="#f08c00" text-anchor="middle" style="white-space: pre;" direction="ltr" dominant-baseline="alphabetic">Optimize Operations &amp; Harvests</text></g><g stroke-linecap="round"><g transform="translate(1197.1864871136233 319.7286624069597) rotate(0 -86.15822900909899 62.9596716271291)"><path d="M0.03 0.72 C-28.42 21.69, -143 104.51, -171.56 125.18 M-1.42 0.05 C-29.87 21.22, -143.74 105.43, -172.12 126.32" stroke="#f08c00" stroke-width="2" fill="none"></path></g><g transform="translate(1197.1864871136233 319.7286624069597) rotate(0 -86.15822900909899 62.9596716271291)"><path d="M-158.29 105.49 C-160.32 111.45, -165.88 116.46, -172.12 126.32 M-158.29 105.49 C-161.34 110.37, -164.95 113.45, -172.12 126.32" stroke="#f08c00" stroke-width="2" fill="none"></path></g><g transform="translate(1197.1864871136233 319.7286624069597) rotate(0 -86.15822900909899 62.9596716271291)"><path d="M-148.14 119.25 C-152.38 122.11, -160.23 124.01, -172.12 126.32 M-148.14 119.25 C-153.14 121.37, -158.8 121.68, -172.12 126.32" stroke="#f08c00" stroke-width="2" fill="none"></path></g></g><mask></mask><g stroke-linecap="round" transform="translate(721.0304900981498 95.59358336887362) rotate(0 156.59097156754763 17.5)"><path d="M0 0 C79.53 -2.18, 161.76 -0.9, 313.18 0 M0 0 C93.59 -0.13, 188.45 -0.97, 313.18 0 M313.18 0 C314.77 10.87, 311.29 24.22, 313.18 35 M313.18 0 C313.83 14.27, 313.38 26.14, 313.18 35 M313.18 35 C218.63 33.21, 122.76 34.71, 0 35 M313.18 35 C226.03 33.72, 137.49 33.4, 0 35 M0 35 C1.9 24.46, -0.92 13.4, 0 0 M0 35 C0.06 22.04, 0.79 11.08, 0 0" stroke="#f08c00" stroke-width="2" fill="none"></path></g><g stroke-linecap="round" transform="translate(695.0147571476539 285.45896064736945) rotate(0 172.87380945787226 17.5)"><path d="M0 0 C121.28 1.89, 242.5 2.02, 345.75 0 M0 0 C113.65 -1.87, 226.38 -1.99, 345.75 0 M345.75 0 C344.42 15.83, 347.81 27.97, 345.75 35 M345.75 0 C346.16 11.72, 346.03 26.25, 345.75 35 M345.75 35 C250.99 33.13, 153.52 32.37, 0 35 M345.75 35 C264 35.4, 183.49 35.47, 0 35 M0 35 C-1.28 27.04, 0.73 16.17, 0 0 M0 35 C0.88 22.25, -0.95 7.32, 0 0" stroke="#f08c00" stroke-width="2" fill="none"></path></g><g mask="url(#mask-8b2rVLsVwKrn1k3Lftuwm)" stroke-linecap="round"><g transform="translate(849.430205470179 137.77236598210897) rotate(0 1.5404773645881846 71.61531572963946)"><path d="M0.2 0 C0.91 23.92, 3.02 119.55, 3.4 143.56 M-1.16 -1.05 C-0.5 22.5, 2.19 117.74, 2.62 141.61" stroke="#f08c00" stroke-width="2" fill="none"></path></g><g transform="translate(849.430205470179 137.77236598210897) rotate(0 1.5404773645881846 71.61531572963946)"><path d="M-6.49 118.32 C-4.42 124.11, -1.82 127.85, 2.62 141.61 M-6.49 118.32 C-2.76 126.23, 1.38 136.4, 2.62 141.61" stroke="#f08c00" stroke-width="2" fill="none"></path></g><g transform="translate(849.430205470179 137.77236598210897) rotate(0 1.5404773645881846 71.61531572963946)"><path d="M10.61 117.92 C8.8 123.82, 7.54 127.65, 2.62 141.61 M10.61 117.92 C8.05 125.89, 5.91 136.2, 2.62 141.61" stroke="#f08c00" stroke-width="2" fill="none"></path></g></g><mask id="mask-8b2rVLsVwKrn1k3Lftuwm"><rect x="0" y="0" fill="#fff" width="952.5111601993553" height="381.0029974413879"></rect><rect x="762.4807383767594" y="184.38768171174843" fill="#000" width="176.97988891601562" height="50" opacity="1"></rect></mask><g stroke-linecap="round"><g transform="translate(862.9263075213125 321.4589606473695) rotate(0 -113.30788120042251 63.27787139891723)"><path d="M0.32 0.33 C-37.58 21.55, -189.55 106.43, -227.21 127.37 M-0.97 -0.55 C-38.49 20.34, -187.32 104.42, -224.82 125.67" stroke="#f08c00" stroke-width="2" fill="none"></path></g><g transform="translate(862.9263075213125 321.4589606473695) rotate(0 -113.30788120042251 63.27787139891723)"><path d="M-208.58 106.66 C-213.17 111.72, -217.5 120.32, -224.82 125.67 M-208.58 106.66 C-211.59 112.19, -216.77 115.18, -224.82 125.67" stroke="#f08c00" stroke-width="2" fill="none"></path></g><g transform="translate(862.9263075213125 321.4589606473695) rotate(0 -113.30788120042251 63.27787139891723)"><path d="M-200.16 121.55 C-207.42 121.92, -214.41 125.81, -224.82 125.67 M-200.16 121.55 C-205.3 123.32, -212.57 122.6, -224.82 125.67" stroke="#f08c00" stroke-width="2" fill="none"></path></g></g><mask></mask><g transform="translate(776.5515458942131 100.59358336887362) rotate(0 101.06991577148438 12.5)"><text x="101.06991577148438" y="17.52" font-family="Virgil, Segoe UI Emoji" font-size="20px" fill="#f08c00" text-anchor="middle" style="white-space: pre;" direction="ltr" dominant-baseline="alphabetic">Event Driven System</text></g><g transform="translate(731.56868135162 290.45896064736945) rotate(0 136.31988525390628 12.5)"><text x="136.31988525390625" y="17.52" font-family="Virgil, Segoe UI Emoji" font-size="20px" fill="#f08c00" text-anchor="middle" style="white-space: pre;" direction="ltr" dominant-baseline="alphabetic">Monitoring and Observability</text></g><g transform="translate(762.4807383767593 184.38768171174843) rotate(0 88.068895380334 24.63997160726693)"><text x="88.48994445800781" y="17.52" font-family="Virgil, Segoe UI Emoji" font-size="20px" fill="#f08c00" text-anchor="middle" style="white-space: pre;" direction="ltr" dominant-baseline="alphabetic">Manage alerts &amp; </text><text x="88.48994445800781" y="42.519999999999996" font-family="Virgil, Segoe UI Emoji" font-size="20px" fill="#f08c00" text-anchor="middle" style="white-space: pre;" direction="ltr" dominant-baseline="alphabetic">notifications</text></g><g stroke-linecap="round" transform="translate(425.11813674732184 450.8185334619327) rotate(0 174.2181821283554 23.54967701717436)"><path d="M0 0 C134.52 -0.35, 270.57 1.57, 348.44 0 M0 0 C72.13 0.17, 145.09 0.1, 348.44 0 M348.44 0 C346.45 19.15, 346.84 33.01, 348.44 47.1 M348.44 0 C347.84 13.64, 348.7 27.18, 348.44 47.1 M348.44 47.1 C258.31 49.37, 169.43 48.1, 0 47.1 M348.44 47.1 C232.12 49.03, 115.52 49.11, 0 47.1 M0 47.1 C-2.1 34.86, 1.26 19.38, 0 0 M0 47.1 C0.47 29.24, -0.27 9.87, 0 0" stroke="#f08c00" stroke-width="2" fill="none"></path></g><g transform="translate(433.68646230829444 461.8682104791071) rotate(0 165.6498565673828 12.5)"><text x="165.6498565673828" y="17.52" font-family="Virgil, Segoe UI Emoji" font-size="20px" fill="#f08c00" text-anchor="middle" style="white-space: pre;" direction="ltr" dominant-baseline="alphabetic">Ensure farming ecosystem health </text></g></svg>