<svg version="1.1" xmlns="http://www.w3.org/2000/svg" viewBox="0 0 2334.0903389786426 476.9426564532416" width="4668.180677957285" height="953.8853129064833">
  <!-- svg-source:excalidraw -->
  
  <defs>
    <style class="style-fonts">
      @font-face {
        font-family: "Virgil";
        src: url("https://excalidraw.com/Virgil.woff2");
      }
      @font-face {
        font-family: "Cascadia";
        src: url("https://excalidraw.com/Cascadia.woff2");
      }
      @font-face {
        font-family: "Assistant";
        src: url("https://excalidraw.com/Assistant-Regular.woff2");
      }
    </style>
    
  </defs>
  <g stroke-linecap="round" transform="translate(10 10) rotate(0 1153.549127141321 155.74394202671567)"><path d="M0 0 C668.44 -5.9, 1338.07 -5.95, 2307.1 0 M0 0 C741.52 -5.77, 1483.61 -5.61, 2307.1 0 M2307.1 0 C2305.43 66.49, 2306.28 130.82, 2307.1 311.49 M2307.1 0 C2308.3 99.59, 2308.23 198.24, 2307.1 311.49 M2307.1 311.49 C1602.32 317.75, 897.12 318.23, 0 311.49 M2307.1 311.49 C1616.45 313.29, 925.07 312.56, 0 311.49 M0 311.49 C-2.07 207.25, -1.06 102.42, 0 0 M0 311.49 C0.07 208.04, -0.09 103.88, 0 0" stroke="#f08c00" stroke-width="2" fill="none"></path></g><g stroke-linecap="round" transform="translate(97.49479675292969 58.33333333333326) rotate(0 98 21.83333396911621)"><path d="M0 0 C72.5 -0.13, 144.43 -1.19, 196 0 M0 0 C70.49 1.33, 139.53 1.55, 196 0 M196 0 C195.69 11.21, 196.1 22.87, 196 43.67 M196 0 C194.78 13.14, 195.71 27.05, 196 43.67 M196 43.67 C122.05 44.93, 51.83 43.16, 0 43.67 M196 43.67 C133.34 44.42, 72.6 46.3, 0 43.67 M0 43.67 C1.38 32.27, 0.68 17.79, 0 0 M0 43.67 C-0.33 27.03, 0.99 10.35, 0 0" stroke="#f08c00" stroke-width="2" fill="none"></path></g><g stroke-linecap="round" transform="translate(43.33333333333337 246.85433794134582) rotate(0 150.4947967529297 21.83333396911621)"><path d="M0 0 C102.61 -1.02, 205.44 -1.57, 300.99 0 M0 0 C60.39 1.01, 121.7 0.82, 300.99 0 M300.99 0 C301.35 18.61, 301.04 32.48, 300.99 43.67 M300.99 0 C300.66 16.36, 301.29 31.36, 300.99 43.67 M300.99 43.67 C210.19 44.62, 119.64 45.78, 0 43.67 M300.99 43.67 C184.64 42.22, 67.7 41.53, 0 43.67 M0 43.67 C0.37 27.9, 1.39 12.14, 0 0 M0 43.67 C1.09 28.3, -0.58 11.88, 0 0" stroke="#f08c00" stroke-width="2" fill="none"></path></g><g stroke-linecap="round" transform="translate(327.964464803327 59.67770600381647) rotate(0 155.4947967529297 21.83333396911621)"><path d="M0 0 C104.26 -0.37, 205.47 0.85, 310.99 0 M0 0 C74.97 0.35, 151.39 0.77, 310.99 0 M310.99 0 C311.13 12.76, 312.3 26.92, 310.99 43.67 M310.99 0 C311.69 12.49, 311.03 24.45, 310.99 43.67 M310.99 43.67 C198.81 43.8, 87.42 41.96, 0 43.67 M310.99 43.67 C247.61 45.68, 184.71 46.19, 0 43.67 M0 43.67 C1.54 27.05, 1.01 10.3, 0 0 M0 43.67 C-1.15 29.36, -1.36 16.15, 0 0" stroke="#f08c00" stroke-width="2" fill="none"></path></g><g stroke-linecap="round" transform="translate(416.36550901312523 248.19871061182903) rotate(0 65.42708587646484 21.83333396911621)"><path d="M0 0 C34.62 1.31, 71.98 -1.05, 130.85 0 M0 0 C35.51 0.78, 69.5 0.98, 130.85 0 M130.85 0 C132.1 14.8, 130.68 33.21, 130.85 43.67 M130.85 0 C131.17 14.69, 131.76 31.24, 130.85 43.67 M130.85 43.67 C96.89 42.79, 57.5 45.09, 0 43.67 M130.85 43.67 C80.2 44.32, 29.13 43.97, 0 43.67 M0 43.67 C0.79 30.15, -0.06 20.05, 0 0 M0 43.67 C-0.63 29.46, 1.2 14.93, 0 0" stroke="#f08c00" stroke-width="2" fill="none"></path></g><g stroke-linecap="round" transform="translate(1006.3781952297511 59.67770600381641) rotate(0 132.78755852747418 22.605950312342458)"><path d="M0 0 C63.32 -2.01, 127.89 -1.47, 265.58 0 M0 0 C63.63 0.19, 127.43 0.07, 265.58 0 M265.58 0 C265.67 10.13, 267.01 21.39, 265.58 45.21 M265.58 0 C266.2 12.65, 265.31 25.47, 265.58 45.21 M265.58 45.21 C170.63 44.17, 80.18 43.5, 0 45.21 M265.58 45.21 C187.17 46.91, 107.55 47.32, 0 45.21 M0 45.21 C0.04 34.23, 0.25 18.08, 0 0 M0 45.21 C1.31 33.8, 1.11 22.59, 0 0" stroke="#f08c00" stroke-width="2" fill="none"></path></g><g stroke-linecap="round" transform="translate(1022.9133499841979 248.19871061182897) rotate(0 120.63541412353516 17.5)"><path d="M0 0 C78.44 0.88, 157.04 3.31, 241.27 0 M0 0 C72.48 -0.34, 143 0.14, 241.27 0 M241.27 0 C242.39 8.8, 240.84 14.92, 241.27 35 M241.27 0 C241.22 7.38, 242 15.32, 241.27 35 M241.27 35 C189.1 35.65, 133.85 36.7, 0 35 M241.27 35 C152.32 36.37, 63.37 36.15, 0 35 M0 35 C0.46 24.39, -1.14 14.86, 0 0 M0 35 C0.37 24.04, 0.59 13.8, 0 0" stroke="#f08c00" stroke-width="2" fill="none"></path></g><g stroke-linecap="round" transform="translate(1326.1590014633418 63.71082401526604) rotate(0 117.60416412353516 17.5)"><path d="M0 0 C48.21 2.63, 98.44 1.59, 235.21 0 M0 0 C74.21 0.46, 149.01 -0.14, 235.21 0 M235.21 0 C235.01 10.72, 233.54 22.61, 235.21 35 M235.21 0 C235.63 11.36, 234.34 20, 235.21 35 M235.21 35 C155.83 35.85, 77.7 36.12, 0 35 M235.21 35 C156.65 37.16, 78.03 36.8, 0 35 M0 35 C-1.17 19.37, -0.05 9.33, 0 0 M0 35 C0.66 25.46, -0.54 15.91, 0 0" stroke="#f08c00" stroke-width="2" fill="none"></path></g><g stroke-linecap="round" transform="translate(1340.4744486273416 246.85433794134588) rotate(0 104.98298959847097 20.589391306617642)"><path d="M0 0 C51.14 -1.17, 102.69 -0.27, 209.97 0 M0 0 C62.87 -1.22, 127.33 -0.63, 209.97 0 M209.97 0 C208.01 16.37, 209.87 29.75, 209.97 41.18 M209.97 0 C209.4 12.04, 210.55 26.92, 209.97 41.18 M209.97 41.18 C149.37 43.53, 86.94 42.09, 0 41.18 M209.97 41.18 C128.9 42.38, 49.34 42.48, 0 41.18 M0 41.18 C0.26 33.66, -0.37 24, 0 0 M0 41.18 C-0.68 30.3, -0.23 18.99, 0 0" stroke="#f08c00" stroke-width="2" fill="none"></path></g><g stroke-linecap="round" transform="translate(1683.424236744539 61.02207867429962) rotate(0 125.35416412353516 21.83333396911621)"><path d="M0 0 C98.05 0.71, 195.56 -1.85, 250.71 0 M0 0 C90.66 0.66, 181.78 0.03, 250.71 0 M250.71 0 C250.29 12.63, 250.61 27.38, 250.71 43.67 M250.71 0 C250.74 17.83, 250.31 33.81, 250.71 43.67 M250.71 43.67 C161.7 45.02, 72.98 44.89, 0 43.67 M250.71 43.67 C161.77 44.19, 70.72 43.54, 0 43.67 M0 43.67 C-0.6 36.11, -0.8 27.65, 0 0 M0 43.67 C0.27 30.13, -0.48 18.73, 0 0" stroke="#f08c00" stroke-width="2" fill="none"></path></g><g stroke-linecap="round" transform="translate(1614.1638200778725 249.54308328231218) rotate(0 192.9479217529297 30)"><path d="M0 0 C126.68 -2.72, 254.01 -2.83, 385.9 0 M0 0 C112.58 -1.43, 224.38 -1.87, 385.9 0 M385.9 0 C386.21 22.72, 387.64 41.82, 385.9 60 M385.9 0 C386.06 12.19, 386.69 25.13, 385.9 60 M385.9 60 C242.97 59.61, 98.74 59.33, 0 60 M385.9 60 C263.8 60.26, 142.03 60.6, 0 60 M0 60 C-0.61 38.56, 0.04 12.94, 0 0 M0 60 C-0.7 43.58, -0.23 26.75, 0 0" stroke="#f08c00" stroke-width="2" fill="none"></path></g><g stroke-linecap="round" transform="translate(2019.8385848999023 58.33333333333326) rotate(0 131.8020782470703 21.83333396911621)"><path d="M0 0 C100.88 0.25, 199.67 1.73, 263.6 0 M0 0 C94.32 -0.32, 189.1 0.42, 263.6 0 M263.6 0 C265.42 10.37, 261.75 24.58, 263.6 43.67 M263.6 0 C264.15 17.78, 264.31 34.52, 263.6 43.67 M263.6 43.67 C187.72 42.69, 110.24 44.77, 0 43.67 M263.6 43.67 C176.99 42.55, 92.6 42.3, 0 43.67 M0 43.67 C0.04 27.02, -0.13 11.88, 0 0 M0 43.67 C0.12 34.7, 0.7 22.96, 0 0" stroke="#f08c00" stroke-width="2" fill="none"></path></g><g stroke-linecap="round" transform="translate(2040.6250406901045 246.85433794134582) rotate(0 115.18229675292969 31.666666666666686)"><path d="M0 0 C50.89 1.8, 103.08 2.86, 230.36 0 M0 0 C65 1.83, 128.73 1.97, 230.36 0 M230.36 0 C228.99 23.02, 232.75 44.44, 230.36 63.33 M230.36 0 C231.46 19.17, 230.64 38.51, 230.36 63.33 M230.36 63.33 C165.33 64.11, 100.22 61.28, 0 63.33 M230.36 63.33 C174.47 63.12, 117.67 63.03, 0 63.33 M0 63.33 C-0.26 38.97, -1.42 12.82, 0 0 M0 63.33 C0.53 39.15, -0.24 16.99, 0 0" stroke="#f08c00" stroke-width="2" fill="none"></path></g><g stroke-linecap="round" transform="translate(22.515358938457666 415.2097524921103) rotate(0 167.69887934337652 22.505520304357788)"><path d="M0 0 C72.13 0.79, 142.42 -0.1, 335.4 0 M0 0 C69.04 0.12, 138.78 0.6, 335.4 0 M335.4 0 C336.79 9.9, 334.91 21.18, 335.4 45.01 M335.4 0 C335.64 17.43, 335.56 33.74, 335.4 45.01 M335.4 45.01 C248.47 46.07, 160.11 45.78, 0 45.01 M335.4 45.01 C234.6 44.08, 133.49 44.3, 0 45.01 M0 45.01 C-1.39 31.66, 1.43 20.48, 0 0 M0 45.01 C-0.53 27.53, 0.74 8.79, 0 0" stroke="#f08c00" stroke-width="2" fill="none"></path></g><g stroke-linecap="round" transform="translate(1088.451861215267 419.24287050355986) rotate(0 198.7835770366484 22.87749068193284)"><path d="M0 0 C121.19 -1.52, 241.78 -0.84, 397.57 0 M0 0 C119.35 0.14, 237.66 -0.91, 397.57 0 M397.57 0 C397.93 16.58, 399.35 32.32, 397.57 45.75 M397.57 0 C397.36 15.83, 397.13 30.66, 397.57 45.75 M397.57 45.75 C241.27 42.95, 86.23 45.04, 0 45.75 M397.57 45.75 C290.5 44.82, 182.23 44.77, 0 45.75 M0 45.75 C1.69 31.1, 2.22 17.9, 0 0 M0 45.75 C1.09 35.34, -0.21 27.03, 0 0" stroke="#f08c00" stroke-width="2" fill="none"></path></g><g stroke-linecap="round" transform="translate(1508.8092526239275 420.2649491778594) rotate(0 234.5364532470703 21.83333396911621)"><path d="M0 0 C171.66 0.52, 345.01 -0.28, 469.07 0 M0 0 C147.76 -2.29, 296.38 -1.44, 469.07 0 M469.07 0 C470.43 14.31, 469.73 25.54, 469.07 43.67 M469.07 0 C468.6 16.94, 469.92 33.83, 469.07 43.67 M469.07 43.67 C363.61 42.41, 257.84 42.23, 0 43.67 M469.07 43.67 C346.74 43.46, 224.75 43.19, 0 43.67 M0 43.67 C1.59 34.13, -2.06 22.2, 0 0 M0 43.67 C-0.77 30.05, -0.01 15.48, 0 0" stroke="#f08c00" stroke-width="2" fill="none"></path></g><g stroke-linecap="round" transform="translate(1995.0278389786426 423.2759885150092) rotate(0 164.53125 21.83333396911621)"><path d="M0 0 C99.25 -1.76, 198.73 -0.68, 329.06 0 M0 0 C127.76 2.8, 254.97 2.15, 329.06 0 M329.06 0 C330.03 15.42, 331.05 30.86, 329.06 43.67 M329.06 0 C329.8 15.88, 328.14 30.7, 329.06 43.67 M329.06 43.67 C261.6 46.55, 194.4 46.85, 0 43.67 M329.06 43.67 C232.65 42.83, 135.62 43.79, 0 43.67 M0 43.67 C-2.17 30.56, 0.13 20.65, 0 0 M0 43.67 C0.55 34.08, 0.38 23.37, 0 0" stroke="#f08c00" stroke-width="2" fill="none"></path></g><g mask="url(#mask-QZPXP1fJIKNt3IflxNpVn)" stroke-linecap="round"><g transform="translate(195.29165048027255 103.00000127156568) rotate(0 -0.6096312110420712 69.02700039665766)"><path d="M-0.33 0.19 C-0.55 23.37, -0.29 116.32, -0.6 139.1 M1.71 -0.76 C1.31 22.11, -0.98 114.47, -1.22 137.53" stroke="#f08c00" stroke-width="2" fill="none"></path></g><g transform="translate(195.29165048027255 103.00000127156568) rotate(0 -0.6096312110420712 69.02700039665766)"><path d="M-9.33 113.88 C-6.09 123.49, -1.72 129.45, -1.22 137.53 M-9.33 113.88 C-7.65 118.6, -5.37 124.13, -1.22 137.53" stroke="#f08c00" stroke-width="2" fill="none"></path></g><g transform="translate(195.29165048027255 103.00000127156568) rotate(0 -0.6096312110420712 69.02700039665766)"><path d="M7.77 114.2 C4.83 123.65, 3.02 129.49, -1.22 137.53 M7.77 114.2 C5.97 119.01, 4.76 124.47, -1.22 137.53" stroke="#f08c00" stroke-width="2" fill="none"></path></g></g><mask id="mask-QZPXP1fJIKNt3IflxNpVn"><rect x="0" y="0" fill="#fff" width="296.5109129023567" height="341.054002064881"></rect><rect x="92.39210227704297" y="159.5270016682233" fill="#000" width="204.579833984375" height="25" opacity="1"></rect></mask><g mask="url(#mask-upMmRrDbvEIhInPI0I2Bd)" stroke-linecap="round"><g transform="translate(483.4898545266212 104.34437394204889) rotate(0 -0.7071720797150078 69.02700039665766)"><path d="M0.62 1.05 C0.28 23.83, -2.08 113.88, -2.34 136.9 M-0.51 0.56 C-0.45 23.43, 0.04 115.02, -0.12 137.83" stroke="#f08c00" stroke-width="2" fill="none"></path></g><g transform="translate(483.4898545266212 104.34437394204889) rotate(0 -0.7071720797150078 69.02700039665766)"><path d="M-8.67 114.34 C-4.55 119.15, -5.89 127.86, -0.12 137.83 M-8.67 114.34 C-4.76 124.22, -1.26 133.07, -0.12 137.83" stroke="#f08c00" stroke-width="2" fill="none"></path></g><g transform="translate(483.4898545266212 104.34437394204889) rotate(0 -0.7071720797150078 69.02700039665766)"><path d="M8.43 114.34 C7.88 119.24, 1.87 127.95, -0.12 137.83 M8.43 114.34 C5.64 124.22, 2.45 133.06, -0.12 137.83" stroke="#f08c00" stroke-width="2" fill="none"></path></g></g><mask id="mask-upMmRrDbvEIhInPI0I2Bd"><rect x="0" y="0" fill="#fff" width="584.9041986860511" height="342.3983747353642"></rect><rect x="373.0327739996406" y="148.37137433870657" fill="#000" width="219.49981689453125" height="50" opacity="1"></rect></mask><g mask="url(#mask-jv-2mg_Dmdl0z-uXuU8EL)" stroke-linecap="round"><g transform="translate(1139.7324179341206 105.88960662850133) rotate(0 1.6300702717393278 68.25438405343141)"><path d="M-0.93 -1.16 C-0.42 21.6, 3.02 114.67, 3.71 137.61 M0.78 0.85 C1.12 23.82, 2.73 113.24, 2.99 136.06" stroke="#f08c00" stroke-width="2" fill="none"></path></g><g transform="translate(1139.7324179341206 105.88960662850133) rotate(0 1.6300702717393278 68.25438405343141)"><path d="M-5.91 112.7 C-4.5 121.73, 2.39 129.09, 2.99 136.06 M-5.91 112.7 C-2.4 119.92, -0.57 127.38, 2.99 136.06" stroke="#f08c00" stroke-width="2" fill="none"></path></g><g transform="translate(1139.7324179341206 105.88960662850133) rotate(0 1.6300702717393278 68.25438405343141)"><path d="M11.19 112.44 C6.58 121.43, 7.46 128.88, 2.99 136.06 M11.19 112.44 C9.61 119.86, 6.36 127.39, 2.99 136.06" stroke="#f08c00" stroke-width="2" fill="none"></path></g></g><mask id="mask-jv-2mg_Dmdl0z-uXuU8EL"><rect x="0" y="0" fill="#fff" width="1242.9925584775992" height="342.39837473536414"></rect><rect x="1039.1825794534186" y="149.14399068193273" fill="#000" width="204.3598175048828" height="50" opacity="1"></rect></mask><g mask="url(#mask-0r9sFkEMUy_UVkoeXCKdq)" stroke-linecap="round"><g transform="translate(1444.073840626153 99.71082401526604) rotate(0 0.5829088666228017 70.6715890248075)"><path d="M0.45 1.1 C0.79 24.84, 0.86 117.8, 1.1 141.31 M-0.78 0.63 C-0.52 24.68, -0.26 119.56, 0.11 142.83" stroke="#f08c00" stroke-width="2" fill="none"></path></g><g transform="translate(1444.073840626153 99.71082401526604) rotate(0 0.5829088666228017 70.6715890248075)"><path d="M-8.63 119.41 C-5.08 124.48, -5.02 130.95, 0.11 142.83 M-8.63 119.41 C-5.33 128.86, -2.18 137.22, 0.11 142.83" stroke="#f08c00" stroke-width="2" fill="none"></path></g><g transform="translate(1444.073840626153 99.71082401526604) rotate(0 0.5829088666228017 70.6715890248075)"><path d="M8.47 119.27 C8.21 124.43, 4.47 130.93, 0.11 142.83 M8.47 119.27 C5.48 128.82, 2.32 137.24, 0.11 142.83" stroke="#f08c00" stroke-width="2" fill="none"></path></g></g><mask id="mask-0r9sFkEMUy_UVkoeXCKdq"><rect x="0" y="0" fill="#fff" width="1545.2396583593986" height="341.05400206488105"></rect><rect x="1346.1468312798852" y="132.88241304007352" fill="#000" width="197.01983642578125" height="75" opacity="1"></rect></mask><g mask="url(#mask-vpq9KjsMshHli6QwzgYzb)" stroke-linecap="round"><g transform="translate(1808.8080295822388 105.68874661253204) rotate(0 -0.6734799532683837 69.02700039665766)"><path d="M-0.07 -0.03 C-0.25 22.93, -0.59 115.79, -0.66 138.87 M-1.56 -1.09 C-1.88 22.05, -1.38 114.28, -1.25 137.18" stroke="#f08c00" stroke-width="2" fill="none"></path></g><g transform="translate(1808.8080295822388 105.68874661253204) rotate(0 -0.6734799532683837 69.02700039665766)"><path d="M-9.92 113.74 C-6.83 122.79, -2.49 131.02, -1.25 137.18 M-9.92 113.74 C-7.22 122.06, -4.56 129.45, -1.25 137.18" stroke="#f08c00" stroke-width="2" fill="none"></path></g><g transform="translate(1808.8080295822388 105.68874661253204) rotate(0 -0.6734799532683837 69.02700039665766)"><path d="M7.18 113.65 C4.5 122.72, 3.08 130.98, -1.25 137.18 M7.18 113.65 C4.18 122.14, 1.14 129.57, -1.25 137.18" stroke="#f08c00" stroke-width="2" fill="none"></path></g></g><mask id="mask-vpq9KjsMshHli6QwzgYzb"><rect x="0" y="0" fill="#fff" width="1910.1549894887755" height="343.74274740584735"></rect><rect x="1723.9946189038728" y="149.71574700918973" fill="#000" width="168.2798614501953" height="50" opacity="1"></rect></mask><g mask="url(#mask-qeN2GES6kkpsbLvLOqTJw)" stroke-linecap="round"><g transform="translate(2152.120763106821 103.00000127156568) rotate(0 1.4500091360442866 69.02700039665766)"><path d="M0.69 0.82 C1.33 23.9, 3.42 115.41, 3.78 138.46 M-0.41 0.21 C0.15 22.92, 2.89 113.7, 3.29 136.54" stroke="#f08c00" stroke-width="2" fill="none"></path></g><g transform="translate(2152.120763106821 103.00000127156568) rotate(0 1.4500091360442866 69.02700039665766)"><path d="M-5.84 113.27 C-1.79 121.53, 0.2 126.75, 3.29 136.54 M-5.84 113.27 C-2.77 122.32, 2.05 131.37, 3.29 136.54" stroke="#f08c00" stroke-width="2" fill="none"></path></g><g transform="translate(2152.120763106821 103.00000127156568) rotate(0 1.4500091360442866 69.02700039665766)"><path d="M11.26 112.85 C10.27 121.33, 7.23 126.67, 3.29 136.54 M11.26 112.85 C7.76 122.16, 6.01 131.37, 3.29 136.54" stroke="#f08c00" stroke-width="2" fill="none"></path></g></g><mask id="mask-qeN2GES6kkpsbLvLOqTJw"><rect x="0" y="0" fill="#fff" width="2255.0207813789093" height="341.054002064881"></rect><rect x="2067.4808369401308" y="159.5270016682233" fill="#000" width="172.17987060546875" height="25" opacity="1"></rect></mask><g mask="url(#mask-ijihOeLi3kdr40_ZwBeON)" stroke-linecap="round"><g transform="translate(134.57379568204522 292.86537855006145) rotate(0 3.1689250238529496 60.00335109455955)"><path d="M0.88 0.4 C1.8 20.43, 5.36 100.97, 6.23 121.02 M-0.12 -0.43 C0.57 19.21, 4.33 99.57, 5.23 119.43" stroke="#f08c00" stroke-width="2" fill="none"></path></g><g transform="translate(134.57379568204522 292.86537855006145) rotate(0 3.1689250238529496 60.00335109455955)"><path d="M-4.39 96.35 C-0.13 104.35, 4.33 112.44, 5.23 119.43 M-4.39 96.35 C-0.12 104.85, 1.65 112.31, 5.23 119.43" stroke="#f08c00" stroke-width="2" fill="none"></path></g><g transform="translate(134.57379568204522 292.86537855006145) rotate(0 3.1689250238529496 60.00335109455955)"><path d="M12.69 95.57 C10.86 103.97, 9.22 112.34, 5.23 119.43 M12.69 95.57 C10.85 104.37, 6.51 112.11, 5.23 119.43" stroke="#f08c00" stroke-width="2" fill="none"></path></g></g><mask id="mask-ijihOeLi3kdr40_ZwBeON"><rect x="0" y="0" fill="#fff" width="240.91164572975111" height="512.8720807391805"></rect><rect x="33.332800967128605" y="340.368729644621" fill="#000" width="208.81983947753906" height="25" opacity="1"></rect></mask><g stroke-linecap="round"><g transform="translate(471.17994363867973 292.8653785500615) rotate(0 -92.56209340521688 60.00335109455952)"><path d="M-0.1 1.01 C-31.14 21.06, -154.41 100.84, -185.32 120.7 M-1.62 0.5 C-32.9 20.17, -155.54 98.76, -186.38 118.94" stroke="#f08c00" stroke-width="2" fill="none"></path></g><g transform="translate(471.17994363867973 292.8653785500615) rotate(0 -92.56209340521688 60.00335109455952)"><path d="M-171.29 99.01 C-175.16 106.1, -181.32 113.07, -186.38 118.94 M-171.29 99.01 C-176.61 104.79, -181.58 111.63, -186.38 118.94" stroke="#f08c00" stroke-width="2" fill="none"></path></g><g transform="translate(471.17994363867973 292.8653785500615) rotate(0 -92.56209340521688 60.00335109455952)"><path d="M-162 113.37 C-169.39 115.09, -179.01 116.71, -186.38 118.94 M-162 113.37 C-170.39 114.65, -178.28 116.96, -186.38 118.94" stroke="#f08c00" stroke-width="2" fill="none"></path></g></g><mask></mask><g stroke-linecap="round"><g transform="translate(1459.9525173134423 291.03312182614707) rotate(0 -42.13879498677659 59.86066579175832)"><path d="M-0.2 0.69 C-14.31 20.51, -70.92 100.01, -84.75 119.9 M-1.76 0.01 C-16.06 20.57, -72.35 101.29, -85.95 121.54" stroke="#f08c00" stroke-width="2" fill="none"></path></g><g transform="translate(1459.9525173134423 291.03312182614707) rotate(0 -42.13879498677659 59.86066579175832)"><path d="M-79.71 97.33 C-80.17 103.58, -82.84 113.26, -85.95 121.54 M-79.71 97.33 C-82.89 105.2, -83.09 112.77, -85.95 121.54" stroke="#f08c00" stroke-width="2" fill="none"></path></g><g transform="translate(1459.9525173134423 291.03312182614707) rotate(0 -42.13879498677659 59.86066579175832)"><path d="M-65.61 107.01 C-70.26 110.41, -77.04 117.27, -85.95 121.54 M-65.61 107.01 C-73.31 111.65, -78.1 116.07, -85.95 121.54" stroke="#f08c00" stroke-width="2" fill="none"></path></g></g><mask></mask><g stroke-linecap="round"><g transform="translate(1818.1531582427288 312.543084553878) rotate(0 -9.064562833402988 50.9610964355258)"><path d="M-0.48 0.18 C-3.28 17.11, -13.94 85.38, -17.03 102.23 M1.47 -0.77 C-1.38 15.72, -14.39 83.1, -17.4 100.27" stroke="#f08c00" stroke-width="2" fill="none"></path></g><g transform="translate(1818.1531582427288 312.543084553878) rotate(0 -9.064562833402988 50.9610964355258)"><path d="M-21.53 75.61 C-19.91 84.45, -18.53 88.1, -17.4 100.27 M-21.53 75.61 C-19.88 81.38, -19.07 87.34, -17.4 100.27" stroke="#f08c00" stroke-width="2" fill="none"></path></g><g transform="translate(1818.1531582427288 312.543084553878) rotate(0 -9.064562833402988 50.9610964355258)"><path d="M-4.72 78.73 C-7.88 86.61, -11.27 89.39, -17.4 100.27 M-4.72 78.73 C-7.17 83.73, -10.49 88.93, -17.4 100.27" stroke="#f08c00" stroke-width="2" fill="none"></path></g></g><mask></mask><g transform="translate(1042.1831832326295 15) rotate(0 121.3659439086914 17.5)"><text x="121.3659439086914" y="24.528" font-family="Virgil, Segoe UI Emoji" font-size="28px" fill="#f08c00" text-anchor="middle" style="white-space: pre;" direction="ltr" dominant-baseline="alphabetic">FishWatch System</text></g><g stroke-linecap="round"><g transform="translate(2157.2581769273474 313.18767254624504) rotate(0 0.6452654233530666 52.14432210791722)"><path d="M1.1 0.31 C1.24 17.55, 0.55 86.3, 0.39 103.64 M0.22 -0.58 C0.78 16.8, 2.26 87.13, 2.63 104.83" stroke="#f08c00" stroke-width="2" fill="none"></path></g><g transform="translate(2157.2581769273474 313.18767254624504) rotate(0 0.6452654233530666 52.14432210791722)"><path d="M-6.42 81.53 C-3.51 86.01, -2.76 91.65, 2.63 104.83 M-6.42 81.53 C-2.81 88.2, 0.14 95.56, 2.63 104.83" stroke="#f08c00" stroke-width="2" fill="none"></path></g><g transform="translate(2157.2581769273474 313.18767254624504) rotate(0 0.6452654233530666 52.14432210791722)"><path d="M10.68 81.17 C9.13 85.9, 5.44 91.63, 2.63 104.83 M10.68 81.17 C9.13 87.89, 6.91 95.37, 2.63 104.83" stroke="#f08c00" stroke-width="2" fill="none"></path></g></g><mask></mask><g transform="translate(121.14486694335938 67.66666730244947) rotate(0 74.34992980957031 12.5)"><text x="74.34992980957031" y="17.52" font-family="Virgil, Segoe UI Emoji" font-size="20px" fill="#f08c00" text-anchor="middle" style="white-space: pre;" direction="ltr" dominant-baseline="alphabetic">Edge Computing</text></g><g transform="translate(67.82822163899743 256.18767191046203) rotate(0 125.99990844726562 12.5)"><text x="125.99990844726562" y="17.52" font-family="Virgil, Segoe UI Emoji" font-size="20px" fill="#f08c00" text-anchor="middle" style="white-space: pre;" direction="ltr" dominant-baseline="alphabetic">Data Volume and Velocity</text></g><g transform="translate(354.9593836265692 69.01103997293268) rotate(0 128.4998779296875 12.5)"><text x="128.4998779296875" y="17.52" font-family="Virgil, Segoe UI Emoji" font-size="20px" fill="#f08c00" text-anchor="middle" style="white-space: pre;" direction="ltr" dominant-baseline="alphabetic">Microservices Architecture</text></g><g transform="translate(432.29264066595726 257.53204458094524) rotate(0 49.49995422363281 12.5)"><text x="49.49995422363281" y="17.52" font-family="Virgil, Segoe UI Emoji" font-size="20px" fill="#f08c00" text-anchor="middle" style="white-space: pre;" direction="ltr" dominant-baseline="alphabetic">Scalability</text></g><g transform="translate(1013.335843478905 69.78365631615887) rotate(0 125.82991027832031 12.5)"><text x="125.82991027832031" y="17.52" font-family="Virgil, Segoe UI Emoji" font-size="20px" fill="#f08c00" text-anchor="middle" style="white-space: pre;" direction="ltr" dominant-baseline="alphabetic">Data Insight &amp; Analytics</text></g><g transform="translate(1045.478855965643 253.19871061182897) rotate(0 98.06990814208984 12.5)"><text x="98.06990814208984" y="17.52" font-family="Virgil, Segoe UI Emoji" font-size="20px" fill="#f08c00" text-anchor="middle" style="white-space: pre;" direction="ltr" dominant-baseline="alphabetic">Cross farm Insights</text></g><g transform="translate(1336.2032595810176 68.71082401526604) rotate(0 107.55990600585938 12.5)"><text x="107.55990600585938" y="17.52" font-family="Virgil, Segoe UI Emoji" font-size="20px" fill="#f08c00" text-anchor="middle" style="white-space: pre;" direction="ltr" dominant-baseline="alphabetic">Web/Mobile Application</text></g><g transform="translate(1349.3075129938793 254.94372924796352) rotate(0 96.14992523193365 12.5)"><text x="96.1499252319336" y="17.52" font-family="Virgil, Segoe UI Emoji" font-size="20px" fill="#f08c00" text-anchor="middle" style="white-space: pre;" direction="ltr" dominant-baseline="alphabetic">Farm User Adoption</text></g><g transform="translate(1702.1984753309648 70.35541264341583) rotate(0 106.57992553710938 12.5)"><text x="106.57992553710938" y="17.52" font-family="Virgil, Segoe UI Emoji" font-size="20px" fill="#f08c00" text-anchor="middle" style="white-space: pre;" direction="ltr" dominant-baseline="alphabetic">Flexible API Gateway</text></g><g transform="translate(1666.7018602390053 254.54308328231218) rotate(0 140.40988159179688 25)"><text x="140.40988159179688" y="17.52" font-family="Virgil, Segoe UI Emoji" font-size="20px" fill="#f08c00" text-anchor="middle" style="white-space: pre;" direction="ltr" dominant-baseline="alphabetic">Integration with Security &amp; </text><text x="140.40988159179688" y="42.519999999999996" font-family="Virgil, Segoe UI Emoji" font-size="20px" fill="#f08c00" text-anchor="middle" style="white-space: pre;" direction="ltr" dominant-baseline="alphabetic">Scalability</text></g><g transform="translate(2045.8207702636719 67.66666730244947) rotate(0 105.81989288330078 12.5)"><text x="105.81989288330078" y="17.52" font-family="Virgil, Segoe UI Emoji" font-size="20px" fill="#f08c00" text-anchor="middle" style="white-space: pre;" direction="ltr" dominant-baseline="alphabetic">Connectivity Solutions</text></g><g transform="translate(2049.1174265543623 253.5210046080125) rotate(0 106.68991088867188 25)"><text x="106.68991088867188" y="17.52" font-family="Virgil, Segoe UI Emoji" font-size="20px" fill="#f08c00" text-anchor="middle" style="white-space: pre;" direction="ltr" dominant-baseline="alphabetic">Connectivity SatCom, </text><text x="106.68991088867188" y="42.519999999999996" font-family="Virgil, Segoe UI Emoji" font-size="20px" fill="#f08c00" text-anchor="middle" style="white-space: pre;" direction="ltr" dominant-baseline="alphabetic">LoROWAN</text></g><g transform="translate(86.10433685361153 425.21527279646807) rotate(0 104.10990142822266 12.5)"><text x="104.10990142822266" y="17.52" font-family="Virgil, Segoe UI Emoji" font-size="20px" fill="#f08c00" text-anchor="middle" style="white-space: pre;" direction="ltr" dominant-baseline="alphabetic">Cloud Infrastructure</text></g><g transform="translate(1101.4055737499625 429.6203611854927) rotate(0 185.82986450195318 12.5)"><text x="185.82986450195312" y="17.52" font-family="Virgil, Segoe UI Emoji" font-size="20px" fill="#f08c00" text-anchor="middle" style="white-space: pre;" direction="ltr" dominant-baseline="alphabetic">User Engagement and Adoption Rates</text></g><g transform="translate(1540.3758724969744 429.59828314697563) rotate(0 202.96983337402344 12.5)"><text x="202.96983337402344" y="17.52" font-family="Virgil, Segoe UI Emoji" font-size="20px" fill="#f08c00" text-anchor="middle" style="white-space: pre;" direction="ltr" dominant-baseline="alphabetic">Existing Hardware and Software Systems</text></g><g transform="translate(2021.2791970108692 432.6093224841254) rotate(0 138.27989196777344 12.5)"><text x="138.27989196777344" y="17.52" font-family="Virgil, Segoe UI Emoji" font-size="20px" fill="#f08c00" text-anchor="middle" style="white-space: pre;" direction="ltr" dominant-baseline="alphabetic">Remote Fish Farm Locations</text></g><g transform="translate(92.39210227704297 159.5270016682233) rotate(0 103.1421421456244 12.64612157978587)"><text x="102.2899169921875" y="17.52" font-family="Virgil, Segoe UI Emoji" font-size="20px" fill="#f08c00" text-anchor="middle" style="white-space: pre;" direction="ltr" dominant-baseline="alphabetic">Process data locally</text></g><g transform="translate(373.03277399964054 148.37137433870657) rotate(0 109.59565324112772 25.165001042345523)"><text x="109.74990844726562" y="17.52" font-family="Virgil, Segoe UI Emoji" font-size="20px" fill="#f08c00" text-anchor="middle" style="white-space: pre;" direction="ltr" dominant-baseline="alphabetic">Independently scalable</text><text x="109.74990844726562" y="42.519999999999996" font-family="Virgil, Segoe UI Emoji" font-size="20px" fill="#f08c00" text-anchor="middle" style="white-space: pre;" direction="ltr" dominant-baseline="alphabetic">components</text></g><g transform="translate(1039.1825794534184 149.14399068193273) rotate(0 101.9387198619545 24.97106730416418)"><text x="102.1799087524414" y="17.52" font-family="Virgil, Segoe UI Emoji" font-size="20px" fill="#f08c00" text-anchor="middle" style="white-space: pre;" direction="ltr" dominant-baseline="alphabetic">Analyze factors </text><text x="102.1799087524414" y="42.519999999999996" font-family="Virgil, Segoe UI Emoji" font-size="20px" fill="#f08c00" text-anchor="middle" style="white-space: pre;" direction="ltr" dominant-baseline="alphabetic">contributing growth  </text></g><g transform="translate(1346.1468312798852 132.88241304007352) rotate(0 98.08760375245936 38.55914845154622)"><text x="98.50991821289062" y="17.52" font-family="Virgil, Segoe UI Emoji" font-size="20px" fill="#f08c00" text-anchor="middle" style="white-space: pre;" direction="ltr" dominant-baseline="alphabetic">Customizable </text><text x="98.50991821289062" y="42.519999999999996" font-family="Virgil, Segoe UI Emoji" font-size="20px" fill="#f08c00" text-anchor="middle" style="white-space: pre;" direction="ltr" dominant-baseline="alphabetic">dashboards &amp; user </text><text x="98.50991821289062" y="67.52" font-family="Virgil, Segoe UI Emoji" font-size="20px" fill="#f08c00" text-anchor="middle" style="white-space: pre;" direction="ltr" dominant-baseline="alphabetic">centric design</text></g><g transform="translate(1723.994618903873 149.71574700918973) rotate(0 83.94574013665692 24.86361639537381)"><text x="84.13993072509766" y="17.52" font-family="Virgil, Segoe UI Emoji" font-size="20px" fill="#f08c00" text-anchor="middle" style="white-space: pre;" direction="ltr" dominant-baseline="alphabetic">Integration with </text><text x="84.13993072509766" y="42.519999999999996" font-family="Virgil, Segoe UI Emoji" font-size="20px" fill="#f08c00" text-anchor="middle" style="white-space: pre;" direction="ltr" dominant-baseline="alphabetic">existing systems</text></g><g transform="translate(2067.480836940131 159.5270016682233) rotate(0 86.32140975996379 12.803524924595862)"><text x="86.08993530273438" y="17.52" font-family="Virgil, Segoe UI Emoji" font-size="20px" fill="#f08c00" text-anchor="middle" style="white-space: pre;" direction="ltr" dominant-baseline="alphabetic">Ensure data flow</text></g><g transform="translate(33.332800967128605 340.368729644621) rotate(0 104.29600827171936 12.789574019690065)"><text x="104.40991973876953" y="17.52" font-family="Virgil, Segoe UI Emoji" font-size="20px" fill="#f08c00" text-anchor="middle" style="white-space: pre;" direction="ltr" dominant-baseline="alphabetic">Reduce load on cloud</text></g><g stroke-linecap="round" transform="translate(737.8044203375551 421.0871999408072) rotate(0 167.06615674338838 22.666667302449582)"><path d="M0 0 C71.65 -0.21, 142.06 -0.78, 334.13 0 M0 0 C91.13 0.07, 182.7 -0.05, 334.13 0 M334.13 0 C334.48 12.43, 333.93 21.74, 334.13 45.33 M334.13 0 C334.47 13.34, 333.85 25.36, 334.13 45.33 M334.13 45.33 C208.36 44.28, 79.62 45.02, 0 45.33 M334.13 45.33 C233.61 47.9, 133.44 47.32, 0 45.33 M0 45.33 C-1.16 29.86, 0.81 14.54, 0 0 M0 45.33 C0.46 32.96, -1.24 20.06, 0 0" stroke="#f08c00" stroke-width="2" fill="none"></path></g><g transform="translate(747.1407186825061 431.25386724325676) rotate(0 157.7298583984375 12.5)"><text x="157.7298583984375" y="17.52" font-family="Virgil, Segoe UI Emoji" font-size="20px" fill="#f08c00" text-anchor="middle" style="white-space: pre;" direction="ltr" dominant-baseline="alphabetic">Optimize Operations &amp; Harvests</text></g><g stroke-linecap="round"><g transform="translate(1144.8196539339447 284.198710611829) rotate(0 -86.15822900909899 62.9596716271291)"><path d="M0.03 0.72 C-28.42 21.69, -143 104.51, -171.56 125.18 M-1.42 0.05 C-29.87 21.22, -143.74 105.43, -172.12 126.32" stroke="#f08c00" stroke-width="2" fill="none"></path></g><g transform="translate(1144.8196539339447 284.198710611829) rotate(0 -86.15822900909899 62.9596716271291)"><path d="M-158.29 105.49 C-160.32 111.45, -165.88 116.46, -172.12 126.32 M-158.29 105.49 C-161.34 110.37, -164.95 113.45, -172.12 126.32" stroke="#f08c00" stroke-width="2" fill="none"></path></g><g transform="translate(1144.8196539339447 284.198710611829) rotate(0 -86.15822900909899 62.9596716271291)"><path d="M-148.14 119.25 C-152.38 122.11, -160.23 124.01, -172.12 126.32 M-148.14 119.25 C-153.14 121.37, -158.8 121.68, -172.12 126.32" stroke="#f08c00" stroke-width="2" fill="none"></path></g></g><mask></mask><g stroke-linecap="round" transform="translate(668.6636569184711 60.063631573742896) rotate(0 156.59097156754763 17.5)"><path d="M0 0 C79.53 -2.18, 161.76 -0.9, 313.18 0 M0 0 C93.59 -0.13, 188.45 -0.97, 313.18 0 M313.18 0 C314.77 10.87, 311.29 24.22, 313.18 35 M313.18 0 C313.83 14.27, 313.38 26.14, 313.18 35 M313.18 35 C218.63 33.21, 122.76 34.71, 0 35 M313.18 35 C226.03 33.72, 137.49 33.4, 0 35 M0 35 C1.9 24.46, -0.92 13.4, 0 0 M0 35 C0.06 22.04, 0.79 11.08, 0 0" stroke="#f08c00" stroke-width="2" fill="none"></path></g><g stroke-linecap="round" transform="translate(642.6479239679752 249.92900885223872) rotate(0 172.87380945787226 17.5)"><path d="M0 0 C121.28 1.89, 242.5 2.02, 345.75 0 M0 0 C113.65 -1.87, 226.38 -1.99, 345.75 0 M345.75 0 C344.42 15.83, 347.81 27.97, 345.75 35 M345.75 0 C346.16 11.72, 346.03 26.25, 345.75 35 M345.75 35 C250.99 33.13, 153.52 32.37, 0 35 M345.75 35 C264 35.4, 183.49 35.47, 0 35 M0 35 C-1.28 27.04, 0.73 16.17, 0 0 M0 35 C0.88 22.25, -0.95 7.32, 0 0" stroke="#f08c00" stroke-width="2" fill="none"></path></g><g mask="url(#mask-8b2rVLsVwKrn1k3Lftuwm)" stroke-linecap="round"><g transform="translate(797.0633722905003 102.24241418697824) rotate(0 1.5404773645881846 71.61531572963946)"><path d="M0.2 0 C0.91 23.92, 3.02 119.55, 3.4 143.56 M-1.16 -1.05 C-0.5 22.5, 2.19 117.74, 2.62 141.61" stroke="#f08c00" stroke-width="2" fill="none"></path></g><g transform="translate(797.0633722905003 102.24241418697824) rotate(0 1.5404773645881846 71.61531572963946)"><path d="M-6.49 118.32 C-4.42 124.11, -1.82 127.85, 2.62 141.61 M-6.49 118.32 C-2.76 126.23, 1.38 136.4, 2.62 141.61" stroke="#f08c00" stroke-width="2" fill="none"></path></g><g transform="translate(797.0633722905003 102.24241418697824) rotate(0 1.5404773645881846 71.61531572963946)"><path d="M10.61 117.92 C8.8 123.82, 7.54 127.65, 2.62 141.61 M10.61 117.92 C8.05 125.89, 5.91 136.2, 2.62 141.61" stroke="#f08c00" stroke-width="2" fill="none"></path></g></g><mask id="mask-8b2rVLsVwKrn1k3Lftuwm"><rect x="0" y="0" fill="#fff" width="900.1443270196767" height="345.47304564625716"></rect><rect x="710.1139051970807" y="148.8577299166177" fill="#000" width="176.97988891601562" height="50" opacity="1"></rect></mask><g stroke-linecap="round"><g transform="translate(810.5594743416339 285.9290088522388) rotate(0 -113.30788120042251 63.27787139891723)"><path d="M0.32 0.33 C-37.58 21.55, -189.55 106.43, -227.21 127.37 M-0.97 -0.55 C-38.49 20.34, -187.32 104.42, -224.82 125.67" stroke="#f08c00" stroke-width="2" fill="none"></path></g><g transform="translate(810.5594743416339 285.9290088522388) rotate(0 -113.30788120042251 63.27787139891723)"><path d="M-208.58 106.66 C-213.17 111.72, -217.5 120.32, -224.82 125.67 M-208.58 106.66 C-211.59 112.19, -216.77 115.18, -224.82 125.67" stroke="#f08c00" stroke-width="2" fill="none"></path></g><g transform="translate(810.5594743416339 285.9290088522388) rotate(0 -113.30788120042251 63.27787139891723)"><path d="M-200.16 121.55 C-207.42 121.92, -214.41 125.81, -224.82 125.67 M-200.16 121.55 C-205.3 123.32, -212.57 122.6, -224.82 125.67" stroke="#f08c00" stroke-width="2" fill="none"></path></g></g><mask></mask><g transform="translate(724.1847127145344 65.0636315737429) rotate(0 101.06991577148438 12.5)"><text x="101.06991577148438" y="17.52" font-family="Virgil, Segoe UI Emoji" font-size="20px" fill="#f08c00" text-anchor="middle" style="white-space: pre;" direction="ltr" dominant-baseline="alphabetic">Event Driven System</text></g><g transform="translate(679.2018481719413 254.92900885223872) rotate(0 136.31988525390628 12.5)"><text x="136.31988525390625" y="17.52" font-family="Virgil, Segoe UI Emoji" font-size="20px" fill="#f08c00" text-anchor="middle" style="white-space: pre;" direction="ltr" dominant-baseline="alphabetic">Monitoring and Observability</text></g><g transform="translate(710.1139051970806 148.8577299166177) rotate(0 88.068895380334 24.63997160726693)"><text x="88.48994445800781" y="17.52" font-family="Virgil, Segoe UI Emoji" font-size="20px" fill="#f08c00" text-anchor="middle" style="white-space: pre;" direction="ltr" dominant-baseline="alphabetic">Manage alerts &amp; </text><text x="88.48994445800781" y="42.519999999999996" font-family="Virgil, Segoe UI Emoji" font-size="20px" fill="#f08c00" text-anchor="middle" style="white-space: pre;" direction="ltr" dominant-baseline="alphabetic">notifications</text></g><g stroke-linecap="round" transform="translate(372.75130356764316 415.288581666802) rotate(0 174.2181821283554 23.54967701717436)"><path d="M0 0 C134.52 -0.35, 270.57 1.57, 348.44 0 M0 0 C72.13 0.17, 145.09 0.1, 348.44 0 M348.44 0 C346.45 19.15, 346.84 33.01, 348.44 47.1 M348.44 0 C347.84 13.64, 348.7 27.18, 348.44 47.1 M348.44 47.1 C258.31 49.37, 169.43 48.1, 0 47.1 M348.44 47.1 C232.12 49.03, 115.52 49.11, 0 47.1 M0 47.1 C-2.1 34.86, 1.26 19.38, 0 0 M0 47.1 C0.47 29.24, -0.27 9.87, 0 0" stroke="#f08c00" stroke-width="2" fill="none"></path></g><g transform="translate(381.31962912861576 426.3382586839764) rotate(0 165.6498565673828 12.5)"><text x="165.6498565673828" y="17.52" font-family="Virgil, Segoe UI Emoji" font-size="20px" fill="#f08c00" text-anchor="middle" style="white-space: pre;" direction="ltr" dominant-baseline="alphabetic">Ensure farming ecosystem health </text></g></svg>