<svg version="1.1" xmlns="http://www.w3.org/2000/svg" viewBox="0 0 2091.614501953125 1539.6298236181538" width="4183.22900390625" height="3079.2596472363075">
  <!-- svg-source:excalidraw -->
  
  <defs>
    <style class="style-fonts">
      @font-face {
        font-family: "Virgil";
        src: url("https://excalidraw.com/Virgil.woff2");
      }
      @font-face {
        font-family: "Cascadia";
        src: url("https://excalidraw.com/Cascadia.woff2");
      }
      @font-face {
        font-family: "Assistant";
        src: url("https://excalidraw.com/Assistant-Regular.woff2");
      }
    </style>
    
  </defs>
  <g stroke-linecap="round" transform="translate(547.113340951088 1287.1298388769428) rotate(0 579.3912353515625 121.24999237060547)"><path d="M0 0 C385.33 -4.62, 770 -4.22, 1158.78 0 M0 0 C239.84 -2.89, 480.05 -3.04, 1158.78 0 M1158.78 0 C1159.06 87.18, 1158.97 170.58, 1158.78 242.5 M1158.78 0 C1156.73 74.18, 1156.09 148.69, 1158.78 242.5 M1158.78 242.5 C874.69 240.66, 592.43 240.7, 0 242.5 M1158.78 242.5 C884.98 246.77, 611.46 247.01, 0 242.5 M0 242.5 C2.78 171.86, 0.73 102.29, 0 0 M0 242.5 C-1.95 192.66, -1.7 143.02, 0 0" stroke="#f08c00" stroke-width="2" fill="none"></path></g><g stroke-linecap="round" transform="translate(669.1935010220423 880.1534606441508) rotate(0 385.2864685058594 121.24999237060547)"><path d="M0 0 C302.9 1.2, 605.82 1.78, 770.57 0 M0 0 C284.73 -2.49, 570.31 -2.37, 770.57 0 M770.57 0 C767.52 66.73, 769.07 132.91, 770.57 242.5 M770.57 0 C769.68 53.61, 769.94 108.92, 770.57 242.5 M770.57 242.5 C559.66 239.32, 346.7 239.86, 0 242.5 M770.57 242.5 C462.77 239.71, 154.58 239.54, 0 242.5 M0 242.5 C-2.34 182.72, -3.22 125.58, 0 0 M0 242.5 C0.94 151.35, 0.75 58.36, 0 0" stroke="#f08c00" stroke-width="2" fill="none"></path></g><g stroke-linecap="round" transform="translate(577.0692858616212 419.92087634301504) rotate(0 468.4667663574219 121.24999237060547)"><path d="M0 0 C247.38 0.14, 496.81 -1.26, 936.93 0 M0 0 C363.21 -1.56, 725.9 -2.21, 936.93 0 M936.93 0 C935.33 94.81, 933.93 192.74, 936.93 242.5 M936.93 0 C934.73 62.18, 934.98 122.16, 936.93 242.5 M936.93 242.5 C733.19 239.51, 531.27 239.46, 0 242.5 M936.93 242.5 C737.22 241.19, 537.38 241.8, 0 242.5 M0 242.5 C-0.73 183.92, 2.12 121.95, 0 0 M0 242.5 C0.14 163.4, 0.91 85.84, 0 0" stroke="#f08c00" stroke-width="2" fill="none"></path></g><g stroke-linecap="round" transform="translate(10 10) rotate(0 1035.8072509765625 121.24999237060547)"><path d="M0 0 C652.96 -7.93, 1305.49 -7.87, 2071.61 0 M0 0 C725.43 -6.98, 1451.44 -7, 2071.61 0 M2071.61 0 C2070.49 64.66, 2070.99 128.17, 2071.61 242.5 M2071.61 0 C2070.29 59.42, 2069.81 120.72, 2071.61 242.5 M2071.61 242.5 C1612.28 241.61, 1150.65 242.07, 0 242.5 M2071.61 242.5 C1507.01 237.05, 942.64 236.55, 0 242.5 M0 242.5 C3.18 179.17, 2.27 117.31, 0 0 M0 242.5 C1.39 152.61, 1.23 62.18, 0 0" stroke="#f08c00" stroke-width="2" fill="none"></path></g><g stroke-linecap="round" transform="translate(377.0768127441406 35) rotate(0 157.24609375 26.25)"><path d="M0 0 C123.02 0.82, 244.28 2.71, 314.49 0 M0 0 C120.31 1.2, 239 1.86, 314.49 0 M314.49 0 C313.15 8.85, 313.03 20.07, 314.49 52.5 M314.49 0 C313.53 21.92, 313.58 41.28, 314.49 52.5 M314.49 52.5 C221.83 52.78, 131.24 52, 0 52.5 M314.49 52.5 C241.72 54.06, 169.41 53.69, 0 52.5 M0 52.5 C0.06 32.35, 1.02 12.29, 0 0 M0 52.5 C0.01 40.8, 0.53 28.69, 0 0" stroke="#f08c00" stroke-width="2" fill="none"></path></g><g stroke-linecap="round" transform="translate(125.93749809265137 175) rotate(0 22.64322853088379 26.25)"><path d="M0 0 C10.62 1.42, 20.83 -0.09, 45.29 0 M0 0 C9.59 0.46, 18.85 -0.38, 45.29 0 M45.29 0 C43.99 14.18, 47.02 30.07, 45.29 52.5 M45.29 0 C44.07 11.65, 44.76 25.57, 45.29 52.5 M45.29 52.5 C31.82 52.45, 18.05 51.57, 0 52.5 M45.29 52.5 C27.51 51.38, 11.33 53.1, 0 52.5 M0 52.5 C1.31 38.79, -1.68 27.97, 0 0 M0 52.5 C0.63 34.68, -0.08 17.29, 0 0" stroke="#f08c00" stroke-width="2" fill="none"></path></g><g stroke-linecap="round" transform="translate(326.6731719970703 175) rotate(0 79.06900787353516 26.25)"><path d="M0 0 C36.4 -1.29, 67.97 1.12, 158.14 0 M0 0 C32.87 -0.89, 67.62 -0.59, 158.14 0 M158.14 0 C159.85 10.69, 156.54 20.73, 158.14 52.5 M158.14 0 C157.64 21.79, 157.58 40.72, 158.14 52.5 M158.14 52.5 C102.53 51.18, 51.38 51.24, 0 52.5 M158.14 52.5 C117.87 51.8, 75.56 51.25, 0 52.5 M0 52.5 C-1.94 39.06, 0.22 24.4, 0 0 M0 52.5 C-0.35 36.43, 0.18 20.83, 0 0" stroke="#f08c00" stroke-width="2" fill="none"></path></g><g stroke-linecap="round" transform="translate(614.0559730529785 175) rotate(0 48.847660064697266 26.25)"><path d="M0 0 C32.85 2.17, 67.22 -0.43, 97.7 0 M0 0 C29.95 0.28, 59.21 0.23, 97.7 0 M97.7 0 C96.9 11.19, 100.14 24.14, 97.7 52.5 M97.7 0 C97.5 11.53, 98.07 24.53, 97.7 52.5 M97.7 52.5 C71.26 50.88, 40.68 51.09, 0 52.5 M97.7 52.5 C76.95 53.5, 57.1 53.98, 0 52.5 M0 52.5 C1.01 39.92, 0.32 27.92, 0 0 M0 52.5 C0.54 38.73, -0.76 26.01, 0 0" stroke="#f08c00" stroke-width="2" fill="none"></path></g><g stroke-linecap="round" transform="translate(830.4036331176758 175) rotate(0 89.66145324707031 26.25)"><path d="M0 0 C48.03 -2.41, 99.64 -3.72, 179.32 0 M0 0 C39.1 0.32, 79.38 1.84, 179.32 0 M179.32 0 C180.9 12.86, 177.7 28.66, 179.32 52.5 M179.32 0 C179.67 20.71, 179.12 41.27, 179.32 52.5 M179.32 52.5 C134.83 50.69, 90.1 53, 0 52.5 M179.32 52.5 C111.2 53.64, 43.12 52.14, 0 52.5 M0 52.5 C-0.25 36.05, -1.16 16.71, 0 0 M0 52.5 C-1.04 39.44, -0.62 26.85, 0 0" stroke="#f08c00" stroke-width="2" fill="none"></path></g><g stroke-linecap="round" transform="translate(1259.296875 35) rotate(0 125.07160949707031 26.25)"><path d="M0 0 C99.6 -0.94, 197.7 0.53, 250.14 0 M0 0 C62.84 1.89, 126.37 0.54, 250.14 0 M250.14 0 C249.37 11.2, 252.64 22.48, 250.14 52.5 M250.14 0 C250.24 10.49, 249.8 23.21, 250.14 52.5 M250.14 52.5 C186.94 52.82, 128.07 50.67, 0 52.5 M250.14 52.5 C168.8 53.33, 88.63 54.21, 0 52.5 M0 52.5 C-0.98 35.64, -1.1 19.73, 0 0 M0 52.5 C0.07 40.13, 0.53 27.87, 0 0" stroke="#f08c00" stroke-width="2" fill="none"></path></g><g stroke-linecap="round" transform="translate(1087.5260314941406 175) rotate(0 70.31900787353516 26.25)"><path d="M0 0 C36.04 1.21, 74.23 -0.35, 140.64 0 M0 0 C34.52 -2.06, 68.72 -0.43, 140.64 0 M140.64 0 C142.3 11.37, 138.57 24.18, 140.64 52.5 M140.64 0 C140.01 15.13, 140.04 28.2, 140.64 52.5 M140.64 52.5 C106.04 52.36, 68.77 52.97, 0 52.5 M140.64 52.5 C88.78 51.7, 36.31 51.36, 0 52.5 M0 52.5 C-0.86 33.97, -1.05 11.68, 0 0 M0 52.5 C0.31 38.13, -0.02 24.26, 0 0" stroke="#f08c00" stroke-width="2" fill="none"></path></g><g stroke-linecap="round" transform="translate(1305.4036407470703 175) rotate(0 78.96484375 26.25)"><path d="M0 0 C30.91 -1.6, 62.64 -0.97, 157.93 0 M0 0 C62.22 2, 125.32 0.4, 157.93 0 M157.93 0 C156.72 16.12, 157.9 30.28, 157.93 52.5 M157.93 0 C157.1 11.68, 157.21 23.23, 157.93 52.5 M157.93 52.5 C99.48 51.02, 41.53 50.54, 0 52.5 M157.93 52.5 C123.1 52.93, 88.56 52.47, 0 52.5 M0 52.5 C-1.02 35.03, -0.25 19.89, 0 0 M0 52.5 C-0.26 37.55, 0.82 22.09, 0 0" stroke="#f08c00" stroke-width="2" fill="none"></path></g><g stroke-linecap="round" transform="translate(1513.3333206176758 175) rotate(0 118.39842987060547 26.25)"><path d="M0 0 C68.07 0.8, 139.58 1.3, 236.8 0 M0 0 C54.77 -2.44, 110.77 -1.07, 236.8 0 M236.8 0 C235.79 14.73, 234.94 28.82, 236.8 52.5 M236.8 0 C236.09 19.17, 237.25 41, 236.8 52.5 M236.8 52.5 C180.81 51.08, 121.1 52.64, 0 52.5 M236.8 52.5 C159.3 51.99, 80.59 51.93, 0 52.5 M0 52.5 C-0.2 33.13, 0.2 15.31, 0 0 M0 52.5 C0.98 37.29, 0.75 22.48, 0 0" stroke="#f08c00" stroke-width="2" fill="none"></path></g><g stroke-linecap="round" transform="translate(1744.1145706176758 35) rotate(0 151.25 26.25)"><path d="M0 0 C65.95 0.85, 128.04 0.01, 302.5 0 M0 0 C119.74 2.13, 239.51 0.77, 302.5 0 M302.5 0 C300.96 16.87, 304.02 34.93, 302.5 52.5 M302.5 0 C303.01 14.39, 301.69 27.46, 302.5 52.5 M302.5 52.5 C219.1 51.97, 138.42 51.69, 0 52.5 M302.5 52.5 C213.19 50.98, 124.22 50.91, 0 52.5 M0 52.5 C-0.01 40.92, 0.05 28.41, 0 0 M0 52.5 C0.19 35.63, -0.82 16.79, 0 0" stroke="#f08c00" stroke-width="2" fill="none"></path></g><g stroke-linecap="round" transform="translate(1800.1301879882812 175) rotate(0 95.23438262939453 26.25)"><path d="M0 0 C45.29 -1.18, 95.14 -1.08, 190.47 0 M0 0 C44.85 -2.77, 90.42 -2.17, 190.47 0 M190.47 0 C191.76 14.03, 189.29 29.34, 190.47 52.5 M190.47 0 C190.27 11.07, 190.57 22.38, 190.47 52.5 M190.47 52.5 C143.78 53.75, 95.79 54.79, 0 52.5 M190.47 52.5 C143.47 50.77, 94.6 51.15, 0 52.5 M0 52.5 C-0.05 38.07, 0.84 26.14, 0 0 M0 52.5 C-0.69 35.19, -0.55 18.83, 0 0" stroke="#f08c00" stroke-width="2" fill="none"></path></g><g stroke-linecap="round" transform="translate(612.0692858616212 444.92087634301504) rotate(0 152.2395782470703 26.25)"><path d="M0 0 C85.04 0.71, 166.36 1.7, 304.48 0 M0 0 C122 1.72, 243.29 1.41, 304.48 0 M304.48 0 C304.1 11.93, 303.04 27.04, 304.48 52.5 M304.48 0 C303.89 20.58, 303.66 38.95, 304.48 52.5 M304.48 52.5 C200.37 54.09, 95.67 53.07, 0 52.5 M304.48 52.5 C229.78 50.85, 155.92 50.99, 0 52.5 M0 52.5 C0.83 37.8, 0.62 20.84, 0 0 M0 52.5 C-0.02 32.52, 0.68 10, 0 0" stroke="#f08c00" stroke-width="2" fill="none"></path></g><g stroke-linecap="round" transform="translate(622.5836138645509 584.920876343015) rotate(0 141.72525024414062 26.25)"><path d="M0 0 C60.51 1.54, 124.48 1.46, 283.45 0 M0 0 C60.31 0.06, 120.38 1.23, 283.45 0 M283.45 0 C281.36 14.41, 284.8 24.72, 283.45 52.5 M283.45 0 C282.79 16.2, 283.72 34.27, 283.45 52.5 M283.45 52.5 C191.17 54.18, 99.56 54.97, 0 52.5 M283.45 52.5 C216.84 51.86, 150.82 51.88, 0 52.5 M0 52.5 C0.39 39.02, 1.77 22.22, 0 0 M0 52.5 C0.61 36.08, 0.9 21.53, 0 0" stroke="#f08c00" stroke-width="2" fill="none"></path></g><g stroke-linecap="round" transform="translate(1082.7756495395997 444.92087634301504) rotate(0 140.859375 26.25)"><path d="M0 0 C64.1 -0.03, 123.82 0.85, 281.72 0 M0 0 C76.32 2.14, 153.09 1.19, 281.72 0 M281.72 0 C282.79 12.33, 281.7 26.44, 281.72 52.5 M281.72 0 C281.86 19.81, 281.68 38.98, 281.72 52.5 M281.72 52.5 C175.31 53.46, 69.63 51.46, 0 52.5 M281.72 52.5 C204.98 52.3, 127.89 52.65, 0 52.5 M0 52.5 C1.83 31.38, -0.13 11.26, 0 0 M0 52.5 C0.53 32.33, -0.8 10.64, 0 0" stroke="#f08c00" stroke-width="2" fill="none"></path></g><g stroke-linecap="round" transform="translate(972.6291651645997 584.920876343015) rotate(0 118.18358612060547 26.25)"><path d="M0 0 C67.26 1.01, 136.97 0.09, 236.37 0 M0 0 C53.96 -1.99, 108.46 -2.43, 236.37 0 M236.37 0 C237.25 19.02, 238.21 38.14, 236.37 52.5 M236.37 0 C236.81 11.61, 237.33 22.8, 236.37 52.5 M236.37 52.5 C163.3 52.38, 91.99 53.09, 0 52.5 M236.37 52.5 C167.08 52.75, 98.85 52.66, 0 52.5 M0 52.5 C-0.49 32.92, 1.43 15.16, 0 0 M0 52.5 C-0.96 39.7, -1.28 26.72, 0 0" stroke="#f08c00" stroke-width="2" fill="none"></path></g><g stroke-linecap="round" transform="translate(1258.9963450352052 584.920876343015) rotate(0 97.46094512939453 26.25)"><path d="M0 0 C55.05 -1.08, 109.8 -1.96, 194.92 0 M0 0 C74.23 -0.14, 150.05 1.58, 194.92 0 M194.92 0 C196.48 11.65, 193.48 26.19, 194.92 52.5 M194.92 0 C195.79 16.82, 195.09 34.08, 194.92 52.5 M194.92 52.5 C124.83 50.41, 55.67 51.33, 0 52.5 M194.92 52.5 C138.24 53.58, 80.43 54.28, 0 52.5 M0 52.5 C1.94 39.59, -1.18 26.27, 0 0 M0 52.5 C-0.58 32.67, 0.76 13.55, 0 0" stroke="#f08c00" stroke-width="2" fill="none"></path></g><g stroke-linecap="round" transform="translate(761.1791730191126 905.1534606441508) rotate(0 86.2890625 26.25)"><path d="M0 0 C57.76 -0.92, 119.98 -0.86, 172.58 0 M0 0 C45.47 2.4, 88.9 1.85, 172.58 0 M172.58 0 C171.39 15.11, 173.55 29.01, 172.58 52.5 M172.58 0 C173.01 14.94, 173.54 30.35, 172.58 52.5 M172.58 52.5 C133.44 52.23, 94.52 51.58, 0 52.5 M172.58 52.5 C114.51 54.01, 54.8 53.03, 0 52.5 M0 52.5 C-1.69 39.41, 0.87 22.06, 0 0 M0 52.5 C0.93 37.27, 0.7 22.45, 0 0" stroke="#f08c00" stroke-width="2" fill="none"></path></g><g stroke-linecap="round" transform="translate(704.1935010220423 1045.1534606441508) rotate(0 143.2747344970703 26.25)"><path d="M0 0 C83.68 0.41, 164.23 0.57, 286.55 0 M0 0 C58.68 -1.52, 118.04 -1.15, 286.55 0 M286.55 0 C286.74 13.49, 286.05 27.56, 286.55 52.5 M286.55 0 C287.14 12.45, 285.83 25.95, 286.55 52.5 M286.55 52.5 C209.69 52.52, 133.59 54.14, 0 52.5 M286.55 52.5 C191.73 54.66, 97.28 55.38, 0 52.5 M0 52.5 C1.69 33.04, 0.04 14.02, 0 0 M0 52.5 C-0.01 39.13, -0.8 26.48, 0 0" stroke="#f08c00" stroke-width="2" fill="none"></path></g><g stroke-linecap="round" transform="translate(1102.559391524972 905.1534606441508) rotate(0 120.19530487060547 26.25)"><path d="M0 0 C57.87 0.36, 115.54 2.29, 240.39 0 M0 0 C90.72 0.13, 181.47 -1.12, 240.39 0 M240.39 0 C240.45 19.43, 239.54 35.97, 240.39 52.5 M240.39 0 C239.95 12.52, 240.37 25.5, 240.39 52.5 M240.39 52.5 C165.6 53.61, 89.97 53.22, 0 52.5 M240.39 52.5 C144.26 53.34, 48.88 52.04, 0 52.5 M0 52.5 C-0.64 30.85, -1.27 13.6, 0 0 M0 52.5 C-0.68 38.51, -0.65 22.65, 0 0" stroke="#f08c00" stroke-width="2" fill="none"></path></g><g stroke-linecap="round" transform="translate(1040.7429700161829 1045.1534606441508) rotate(0 182.01173400878906 26.25)"><path d="M0 0 C88.58 1.89, 180.49 0.24, 364.02 0 M0 0 C117.44 -2.12, 235.79 -1.45, 364.02 0 M364.02 0 C362.99 17.04, 362.87 35.04, 364.02 52.5 M364.02 0 C363.31 12.22, 363.77 24.54, 364.02 52.5 M364.02 52.5 C261.86 55.34, 160.2 54.09, 0 52.5 M364.02 52.5 C254.57 54.35, 144.98 55.15, 0 52.5 M0 52.5 C-0.83 40.55, -0.32 27.17, 0 0 M0 52.5 C-0.23 36.29, 0.49 20.08, 0 0" stroke="#f08c00" stroke-width="2" fill="none"></path></g><g stroke-linecap="round" transform="translate(699.7207551966935 1312.1298388769428) rotate(0 130.78775024414062 26.25)"><path d="M0 0 C68.52 -2.46, 134.91 -1.97, 261.58 0 M0 0 C97.57 1.87, 194.65 1.59, 261.58 0 M261.58 0 C260.18 20.8, 259.99 37.86, 261.58 52.5 M261.58 0 C261.55 14.27, 261.22 29.04, 261.58 52.5 M261.58 52.5 C161.44 53.3, 58.16 53.53, 0 52.5 M261.58 52.5 C158.26 51.82, 53.25 51.16, 0 52.5 M0 52.5 C-0.15 41.76, 0.27 28.95, 0 0 M0 52.5 C0.48 32.09, 0.41 14.18, 0 0" stroke="#f08c00" stroke-width="2" fill="none"></path></g><g stroke-linecap="round" transform="translate(615.8503175746232 1452.1298388769428) rotate(0 81.39322662353516 26.25)"><path d="M0 0 C61.2 0.39, 122.89 -0.08, 162.79 0 M0 0 C36.36 -0.53, 73.01 -0.99, 162.79 0 M162.79 0 C161.17 14.5, 161.95 31.33, 162.79 52.5 M162.79 0 C162.68 15.76, 163.75 31.01, 162.79 52.5 M162.79 52.5 C103.37 51.52, 45.84 52.93, 0 52.5 M162.79 52.5 C122.98 53.49, 83.4 53.17, 0 52.5 M0 52.5 C0.13 33.14, 1.58 14.93, 0 0 M0 52.5 C0.02 39.71, 0.4 25.89, 0 0" stroke="#f08c00" stroke-width="2" fill="none"></path></g><g stroke-linecap="round" transform="translate(863.4414430629045 1452.1298388769428) rotate(0 100.33203887939453 26.25)"><path d="M0 0 C49.75 -0.42, 95.53 1.26, 200.66 0 M0 0 C66.87 -0.37, 132.45 -0.42, 200.66 0 M200.66 0 C199.77 18.09, 200.17 37.74, 200.66 52.5 M200.66 0 C201.46 15.81, 201.22 32, 200.66 52.5 M200.66 52.5 C149.25 53.03, 93.27 53.56, 0 52.5 M200.66 52.5 C125.82 51.85, 52.96 52.08, 0 52.5 M0 52.5 C1.47 34.42, -0.77 18.84, 0 0 M0 52.5 C0.44 41.7, -0.63 28.81, 0 0" stroke="#f08c00" stroke-width="2" fill="none"></path></g><g stroke-linecap="round" transform="translate(1305.0462556849748 1312.1298388769428) rotate(0 107.92317199707031 26.25)"><path d="M0 0 C57.33 1.7, 117.91 1.37, 215.85 0 M0 0 C63.79 0.46, 128 0.37, 215.85 0 M215.85 0 C215.55 12.14, 215.61 23.35, 215.85 52.5 M215.85 0 C216.96 18.85, 215.96 35.74, 215.85 52.5 M215.85 52.5 C154.47 54.84, 96.36 52.5, 0 52.5 M215.85 52.5 C154.46 51.48, 92.44 51.66, 0 52.5 M0 52.5 C-1.15 40.04, -1.94 27.04, 0 0 M0 52.5 C-0.82 31.42, -0.21 11.4, 0 0" stroke="#f08c00" stroke-width="2" fill="none"></path></g><g stroke-linecap="round" transform="translate(1133.7409196864396 1452.1298388769428) rotate(0 131.7122344970703 26.25)"><path d="M0 0 C65.88 -0.51, 130.74 0.31, 263.42 0 M0 0 C66.23 0.66, 130.97 0.96, 263.42 0 M263.42 0 C263.29 13.7, 264.19 29.91, 263.42 52.5 M263.42 0 C263.42 17.34, 263.56 35.62, 263.42 52.5 M263.42 52.5 C172.3 53.31, 78.77 52.8, 0 52.5 M263.42 52.5 C196.48 52.11, 128.72 52.68, 0 52.5 M0 52.5 C-1.35 39.76, 2.11 27.51, 0 0 M0 52.5 C0.35 32.5, 0.88 12.19, 0 0" stroke="#f08c00" stroke-width="2" fill="none"></path></g><g stroke-linecap="round" transform="translate(1453.545599557045 1452.1298388769428) rotate(0 106.94010162353516 26.25)"><path d="M0 0 C73 0.88, 145.28 -0.35, 213.88 0 M0 0 C51.45 1, 103.91 1.17, 213.88 0 M213.88 0 C214.66 18.26, 214.46 34.26, 213.88 52.5 M213.88 0 C213.49 21.93, 214.2 41.33, 213.88 52.5 M213.88 52.5 C132.45 49.97, 50.71 52.32, 0 52.5 M213.88 52.5 C153.37 53.18, 93.37 52.19, 0 52.5 M0 52.5 C2.31 36.69, 2.18 17.75, 0 0 M0 52.5 C0.56 38.96, 0.48 23.95, 0 0" stroke="#f08c00" stroke-width="2" fill="none"></path></g><g mask="url(#mask-R7Ije-ELOPNiY-xYbmc5v)" stroke-linecap="round"><g transform="translate(389.6700000000001 88) rotate(0 -120.54450000000003 40.599999999999994)"><path d="M0.9 -0.6 C-39.32 6.5, -200.82 29.07, -241.04 42.57 C-281.25 56.08, -240.25 74.03, -240.41 80.41 M-0.09 1.69 C-40.49 8.95, -201.84 30.49, -241.96 43.75 C-282.08 57.02, -240.77 74.97, -240.82 81.31" stroke="#f08c00" stroke-width="2" fill="none"></path></g><g transform="translate(389.6700000000001 88) rotate(0 -120.54450000000003 40.599999999999994)"><path d="M-257.71 72.67 C-253.21 75.42, -247.87 79.2, -240.82 81.31 M-257.71 72.67 C-254.12 74.67, -249.73 76.72, -240.82 81.31" stroke="#f08c00" stroke-width="2" fill="none"></path></g><g transform="translate(389.6700000000001 88) rotate(0 -120.54450000000003 40.599999999999994)"><path d="M-248.2 63.83 C-246.78 69.51, -244.51 76.14, -240.82 81.31 M-248.2 63.83 C-246.91 67.88, -244.74 72, -240.82 81.31" stroke="#f08c00" stroke-width="2" fill="none"></path></g></g><mask id="mask-R7Ije-ELOPNiY-xYbmc5v"><rect x="0" y="0" fill="#fff" width="730.7590000000001" height="270.2"></rect><rect x="52.191092163085955" y="118.75" fill="#000" width="192.77981567382812" height="25" opacity="1"></rect></mask><g mask="url(#mask-jIi27d8sz-A66_vZPK5FR)" stroke-linecap="round"><g transform="translate(486.105 88) rotate(0 -40.1815 40.599999999999994)"><path d="M0.05 -0.68 C-13.38 6.5, -66.13 28.87, -79.68 42.46 C-93.23 56.05, -81.07 74.43, -81.25 80.87 M-1.38 1.58 C-14.98 8.95, -67.36 30.18, -80.27 43.58 C-93.18 56.99, -78.75 75.59, -78.82 82.02" stroke="#f08c00" stroke-width="2" fill="none"></path></g><g transform="translate(486.105 88) rotate(0 -40.1815 40.599999999999994)"><path d="M-90.39 66.97 C-87.2 73.68, -83.05 76.84, -78.82 82.02 M-90.39 66.97 C-87.15 71.04, -84.3 75.57, -78.82 82.02" stroke="#f08c00" stroke-width="2" fill="none"></path></g><g transform="translate(486.105 88) rotate(0 -40.1815 40.599999999999994)"><path d="M-78.01 63.06 C-79.48 71.24, -79.97 75.86, -78.82 82.02 M-78.01 63.06 C-78.16 68.19, -78.69 73.78, -78.82 82.02" stroke="#f08c00" stroke-width="2" fill="none"></path></g></g><mask id="mask-jIi27d8sz-A66_vZPK5FR"><rect x="0" y="0" fill="#fff" width="666.4680000000001" height="270.2"></rect><rect x="309.35209216308596" y="118.75" fill="#000" width="192.77981567382812" height="25" opacity="1"></rect></mask><g mask="url(#mask-nGqBojavs2YrlKuwAkwvH)" stroke-linecap="round"><g transform="translate(582.5410000000002 88) rotate(0 40.18149999999997 40.599999999999994)"><path d="M0.68 -0.79 C13.92 6.48, 66.26 29.27, 79.47 42.92 C92.69 56.57, 79.8 74.74, 79.98 81.11 M-0.42 1.41 C13.19 8.91, 68.48 30.79, 81.72 44.29 C94.96 57.78, 79.15 76.06, 79.01 82.38" stroke="#f08c00" stroke-width="2" fill="none"></path></g><g transform="translate(582.5410000000002 88) rotate(0 40.18149999999997 40.599999999999994)"><path d="M79.15 63.41 C77.75 67.78, 78.44 74.35, 79.01 82.38 M79.15 63.41 C78.96 69.34, 79.94 74.79, 79.01 82.38" stroke="#f08c00" stroke-width="2" fill="none"></path></g><g transform="translate(582.5410000000002 88) rotate(0 40.18149999999997 40.599999999999994)"><path d="M91.31 67.93 C86.24 70.99, 83.22 76.19, 79.01 82.38 M91.31 67.93 C87.56 72.53, 84.98 76.66, 79.01 82.38" stroke="#f08c00" stroke-width="2" fill="none"></path></g></g><mask id="mask-nGqBojavs2YrlKuwAkwvH"><rect x="0" y="0" fill="#fff" width="762.9040000000001" height="270.2"></rect><rect x="566.514092163086" y="118.75" fill="#000" width="192.77981567382812" height="25" opacity="1"></rect></mask><g mask="url(#mask-2foo6ip4wFZEpIzHYE9Jn)" stroke-linecap="round"><g transform="translate(678.9760000000001 88) rotate(0 120.54450000000003 40.599999999999994)"><path d="M-0.89 -0.33 C39.11 7, 200.35 29.58, 240.7 43.16 C281.06 56.74, 241.23 74.72, 241.26 81.14 M0.84 -1.54 C40.6 6.05, 199.6 30.65, 239.55 44.65 C279.51 58.65, 240.34 76.64, 240.58 82.43" stroke="#f08c00" stroke-width="2" fill="none"></path></g><g transform="translate(678.9760000000001 88) rotate(0 120.54450000000003 40.599999999999994)"><path d="M247.64 64.82 C244.49 70.44, 242.34 77.6, 240.58 82.43 M247.64 64.82 C246.36 70.33, 244.05 76.19, 240.58 82.43" stroke="#f08c00" stroke-width="2" fill="none"></path></g><g transform="translate(678.9760000000001 88) rotate(0 120.54450000000003 40.599999999999994)"><path d="M257.31 73.48 C250.76 75.94, 245.17 80.01, 240.58 82.43 M257.31 73.48 C253.19 76.47, 248.03 79.78, 240.58 82.43" stroke="#f08c00" stroke-width="2" fill="none"></path></g></g><mask id="mask-2foo6ip4wFZEpIzHYE9Jn"><rect x="0" y="0" fill="#fff" width="1020.0650000000002" height="270.2"></rect><rect x="823.6750921630861" y="118.75" fill="#000" width="192.77981567382812" height="25" opacity="1"></rect></mask><g mask="url(#mask-OeYRt5OdreD9NoM3Rah9E)" stroke-linecap="round"><g transform="translate(1299.422 88) rotate(0 -70.7885 40.599999999999994)"><path d="M-0.38 -0.09 C-23.8 7.16, -117.84 29.57, -141.41 43.19 C-164.98 56.82, -141.95 75.29, -141.8 81.68 M1.61 -1.18 C-21.87 6.3, -118.22 31.24, -142.27 44.7 C-166.32 58.17, -142.5 73.24, -142.68 79.59" stroke="#f08c00" stroke-width="2" fill="none"></path></g><g transform="translate(1299.422 88) rotate(0 -70.7885 40.599999999999994)"><path d="M-157.07 67.22 C-153.99 70.33, -150.69 72.51, -142.68 79.59 M-157.07 67.22 C-151.44 72.33, -147.5 75.61, -142.68 79.59" stroke="#f08c00" stroke-width="2" fill="none"></path></g><g transform="translate(1299.422 88) rotate(0 -70.7885 40.599999999999994)"><path d="M-145.75 60.87 C-145.25 65.37, -144.5 68.99, -142.68 79.59 M-145.75 60.87 C-143.92 68.17, -143.83 73.62, -142.68 79.59" stroke="#f08c00" stroke-width="2" fill="none"></path></g></g><mask id="mask-OeYRt5OdreD9NoM3Rah9E"><rect x="0" y="0" fill="#fff" width="1540.999" height="270.2"></rect><rect x="1069.0950839233399" y="118.75" fill="#000" width="177.4998321533203" height="25" opacity="1"></rect></mask><g mask="url(#mask-VATIMTfw7eJX4LFJmB8Jg)" stroke-linecap="round"><g transform="translate(1384.368 88) rotate(0 0 40.599999999999994)"><path d="M0.17 -0.06 C0.19 13.57, -0.37 68.08, -0.22 81.68 M-1.2 -1.13 C-1.32 12.14, -1.63 66.39, -1.28 79.81" stroke="#f08c00" stroke-width="2" fill="none"></path></g><g transform="translate(1384.368 88) rotate(0 0 40.599999999999994)"><path d="M-10.01 56.39 C-7.78 62.29, -4.55 70.71, -1.28 79.81 M-10.01 56.39 C-7.33 64.05, -4.3 72.73, -1.28 79.81" stroke="#f08c00" stroke-width="2" fill="none"></path></g><g transform="translate(1384.368 88) rotate(0 0 40.599999999999994)"><path d="M7.09 56.26 C4.74 62.21, 3.39 70.67, -1.28 79.81 M7.09 56.26 C4.13 64.13, 1.51 72.86, -1.28 79.81" stroke="#f08c00" stroke-width="2" fill="none"></path></g></g><mask id="mask-VATIMTfw7eJX4LFJmB8Jg"><rect x="0" y="0" fill="#fff" width="1484.368" height="270.2"></rect><rect x="1296.0980872802734" y="116.1" fill="#000" width="176.53982543945312" height="25" opacity="1"></rect></mask><g stroke-linecap="round"><g transform="translate(1477.13 88) rotate(0 77.30099999999993 40.599999999999994)"><path d="M-0.22 0.48 C25.7 7.76, 129.73 29.96, 155.67 43.61 C181.6 57.26, 155.63 76.12, 155.38 82.39 M-1.79 -0.31 C24.04 6.6, 129.14 28.18, 155.28 41.68 C181.42 55.17, 155.21 73.9, 155.03 80.67" stroke="#f08c00" stroke-width="2" fill="none"></path></g><g transform="translate(1477.13 88) rotate(0 77.30099999999993 40.599999999999994)"><path d="M158.26 61.97 C158 69.52, 156.79 74.94, 155.03 80.67 M158.26 61.97 C156.71 70.36, 156.09 76.35, 155.03 80.67" stroke="#f08c00" stroke-width="2" fill="none"></path></g><g transform="translate(1477.13 88) rotate(0 77.30099999999993 40.599999999999994)"><path d="M169.52 68.42 C165.73 73.93, 160.99 77.32, 155.03 80.67 M169.52 68.42 C163.5 74.24, 158.38 77.65, 155.03 80.67" stroke="#f08c00" stroke-width="2" fill="none"></path></g></g><mask></mask><g mask="url(#mask-VIQQDcidF0TdCKDo8TYi5)" stroke-linecap="round"><g transform="translate(1895.365 88) rotate(0 0 40.599999999999994)"><path d="M1.07 0.36 C1.23 14.01, 1.03 68.91, 0.78 82.39 M0.17 -0.5 C0.26 12.81, 0.51 67.05, 0.25 80.89" stroke="#f08c00" stroke-width="2" fill="none"></path></g><g transform="translate(1895.365 88) rotate(0 0 40.599999999999994)"><path d="M-8.18 57.35 C-5.11 65.21, -1.35 69.84, 0.25 80.89 M-8.18 57.35 C-5.18 63.78, -2.35 72.16, 0.25 80.89" stroke="#f08c00" stroke-width="2" fill="none"></path></g><g transform="translate(1895.365 88) rotate(0 0 40.599999999999994)"><path d="M8.93 57.45 C7.17 65.43, 6.11 70.03, 0.25 80.89 M8.93 57.45 C6.76 64.01, 4.44 72.36, 0.25 80.89" stroke="#f08c00" stroke-width="2" fill="none"></path></g></g><mask id="mask-VIQQDcidF0TdCKDo8TYi5"><rect x="0" y="0" fill="#fff" width="1995.365" height="270.2"></rect><rect x="1804.325075378418" y="103.6" fill="#000" width="182.07984924316406" height="50" opacity="1"></rect></mask><g mask="url(#mask-IZxAv7Y1TrRLAnBh2QCSQ)" stroke-linecap="round"><g transform="translate(764.309285861621 497.92087634301504) rotate(0 0 40.599999999999994)"><path d="M0.78 1.19 C0.53 14.67, -0.25 67.69, -0.42 81.22 M-0.27 0.77 C-0.8 14.42, -1.44 69.45, -1.59 82.77" stroke="#f08c00" stroke-width="2" fill="none"></path></g><g transform="translate(764.309285861621 497.92087634301504) rotate(0 0 40.599999999999994)"><path d="M-9.86 59.17 C-4.59 67.59, -3.33 77.06, -1.59 82.77 M-9.86 59.17 C-5.66 69.29, -3.71 77.84, -1.59 82.77" stroke="#f08c00" stroke-width="2" fill="none"></path></g><g transform="translate(764.309285861621 497.92087634301504) rotate(0 0 40.599999999999994)"><path d="M7.24 59.38 C5.86 67.83, 0.47 77.22, -1.59 82.77 M7.24 59.38 C4.64 69.31, -0.2 77.78, -1.59 82.77" stroke="#f08c00" stroke-width="2" fill="none"></path></g></g><mask id="mask-IZxAv7Y1TrRLAnBh2QCSQ"><rect x="0" y="0" fill="#fff" width="864.309285861621" height="680.120876343015"></rect><rect x="687.0793511692382" y="526.0208763430151" fill="#000" width="154.45986938476562" height="25" opacity="1"></rect></mask><g mask="url(#mask-i2rzmiEqwaf9veoNrMULd)" stroke-linecap="round"><g transform="translate(1173.8262858616213 497.92087634301504) rotate(0 -41.50700000000006 40.599999999999994)"><path d="M-0.42 0.02 C-14.43 7.22, -69.59 31.01, -83.26 44.42 C-96.92 57.83, -82.61 74.23, -82.41 80.49 M1.56 -1.02 C-12.7 6.39, -70.27 29.17, -84.34 42.91 C-98.41 56.65, -83.37 75.27, -82.86 81.44" stroke="#f08c00" stroke-width="2" fill="none"></path></g><g transform="translate(1173.8262858616213 497.92087634301504) rotate(0 -41.50700000000006 40.599999999999994)"><path d="M-95.25 67.07 C-90.55 71.97, -84.21 78.56, -82.86 81.44 M-95.25 67.07 C-92.66 70.32, -89.98 73.49, -82.86 81.44" stroke="#f08c00" stroke-width="2" fill="none"></path></g><g transform="translate(1173.8262858616213 497.92087634301504) rotate(0 -41.50700000000006 40.599999999999994)"><path d="M-83.11 62.47 C-82.8 69.01, -80.89 77.28, -82.86 81.44 M-83.11 62.47 C-83.41 66.91, -83.66 71.19, -82.86 81.44" stroke="#f08c00" stroke-width="2" fill="none"></path></g></g><mask id="mask-i2rzmiEqwaf9veoNrMULd"><rect x="0" y="0" fill="#fff" width="1356.8402858616214" height="680.120876343015"></rect><rect x="983.31238504375" y="528.670876343015" fill="#000" width="214.9998016357422" height="25" opacity="1"></rect></mask><g mask="url(#mask-0iFXnrkINCgdEmDoJzxeG)" stroke-linecap="round"><g transform="translate(1273.443285861621 497.92087634301504) rotate(0 41.50700000000006 40.599999999999994)"><path d="M-0.25 1.17 C13.76 8.26, 69.58 29.07, 83.61 42.54 C97.65 56.02, 84.18 75.61, 83.97 82.03 M1.83 0.74 C15.76 7.97, 69.34 30.48, 82.98 43.71 C96.63 56.94, 83.82 73.73, 83.71 80.12" stroke="#f08c00" stroke-width="2" fill="none"></path></g><g transform="translate(1273.443285861621 497.92087634301504) rotate(0 41.50700000000006 40.599999999999994)"><path d="M82.66 61.18 C84.79 67.15, 82.1 72.73, 83.71 80.12 M82.66 61.18 C82.12 67.74, 83.78 74.98, 83.71 80.12" stroke="#f08c00" stroke-width="2" fill="none"></path></g><g transform="translate(1273.443285861621 497.92087634301504) rotate(0 41.50700000000006 40.599999999999994)"><path d="M95.08 64.93 C93.92 69.89, 87.94 74.47, 83.71 80.12 M95.08 64.93 C89.98 70.1, 87.05 75.95, 83.71 80.12" stroke="#f08c00" stroke-width="2" fill="none"></path></g></g><mask id="mask-0iFXnrkINCgdEmDoJzxeG"><rect x="0" y="0" fill="#fff" width="1456.4572858616211" height="680.120876343015"></rect><rect x="1248.95738504375" y="528.670876343015" fill="#000" width="214.9998016357422" height="25" opacity="1"></rect></mask><g mask="url(#mask-6QkyRfqgoqfnvAqqem_j6)" stroke-linecap="round"><g transform="translate(847.4685010220422 958.1534606441508) rotate(0 0 40.60000000000002)"><path d="M0.6 -0.71 C0.8 12.77, 1.16 68.41, 0.96 82.03 M-0.54 1.54 C-0.4 15.19, 0.71 66.89, 0.51 80.34" stroke="#f08c00" stroke-width="2" fill="none"></path></g><g transform="translate(847.4685010220422 958.1534606441508) rotate(0 0 40.60000000000002)"><path d="M-8.17 56.9 C-6.69 65, -1.71 68.88, 0.51 80.34 M-8.17 56.9 C-5.41 63.46, -3.16 70.38, 0.51 80.34" stroke="#f08c00" stroke-width="2" fill="none"></path></g><g transform="translate(847.4685010220422 958.1534606441508) rotate(0 0 40.60000000000002)"><path d="M8.93 56.8 C5.63 65.02, 5.83 68.93, 0.51 80.34 M8.93 56.8 C6.8 63.31, 4.15 70.26, 0.51 80.34" stroke="#f08c00" stroke-width="2" fill="none"></path></g></g><mask id="mask-6QkyRfqgoqfnvAqqem_j6"><rect x="0" y="0" fill="#fff" width="947.4685010220422" height="1140.3534606441508"></rect><rect x="763.3685635830774" y="973.7534606441507" fill="#000" width="168.1998748779297" height="50" opacity="1"></rect></mask><g mask="url(#mask-AADCmB4qz7KT7c30QXhbX)" stroke-linecap="round"><g transform="translate(1222.7545010220424 958.1534606441508) rotate(0 0 40.60000000000002)"><path d="M0.96 0.83 C0.75 14.45, -0.32 67.73, -0.65 81.04 M0 0.22 C0.13 14.09, 1.5 68.91, 1.72 82.49" stroke="#f08c00" stroke-width="2" fill="none"></path></g><g transform="translate(1222.7545010220424 958.1534606441508) rotate(0 0 40.60000000000002)"><path d="M-7.32 59.18 C-2.91 66.19, -1.4 73.7, 1.72 82.49 M-7.32 59.18 C-4.66 65.15, -3.15 71.82, 1.72 82.49" stroke="#f08c00" stroke-width="2" fill="none"></path></g><g transform="translate(1222.7545010220424 958.1534606441508) rotate(0 0 40.60000000000002)"><path d="M9.78 58.82 C8.2 66.09, 3.72 73.73, 1.72 82.49 M9.78 58.82 C8.08 64.85, 5.23 71.61, 1.72 82.49" stroke="#f08c00" stroke-width="2" fill="none"></path></g></g><mask id="mask-AADCmB4qz7KT7c30QXhbX"><rect x="0" y="0" fill="#fff" width="1322.7545010220424" height="1140.3534606441508"></rect><rect x="1127.6246029507533" y="986.2534606441507" fill="#000" width="190.25979614257812" height="25" opacity="1"></rect></mask><g mask="url(#mask--SX2zg2LWTgnAkyMGRqRw)" stroke-linecap="round"><g transform="translate(780.5343409510883 1365.1298388769428) rotate(0 -41.645500000000084 40.60000000000002)"><path d="M-0.65 -0.16 C-14.86 6.82, -70.65 29.19, -84.33 42.71 C-98 56.23, -82.94 74.55, -82.72 80.97 M1.21 -1.3 C-12.72 5.77, -68.09 30.05, -82.16 43.96 C-96.22 57.87, -83.11 75.77, -83.18 82.16" stroke="#f08c00" stroke-width="2" fill="none"></path></g><g transform="translate(780.5343409510883 1365.1298388769428) rotate(0 -41.645500000000084 40.60000000000002)"><path d="M-94.31 66.79 C-90.24 71.05, -86.61 79.43, -83.18 82.16 M-94.31 66.79 C-91.67 71.81, -88.52 75.06, -83.18 82.16" stroke="#f08c00" stroke-width="2" fill="none"></path></g><g transform="translate(780.5343409510883 1365.1298388769428) rotate(0 -41.645500000000084 40.60000000000002)"><path d="M-81.82 63.24 C-82.47 68.78, -83.58 78.51, -83.18 82.16 M-81.82 63.24 C-82.68 69.25, -83.04 73.5, -83.18 82.16" stroke="#f08c00" stroke-width="2" fill="none"></path></g></g><mask id="mask--SX2zg2LWTgnAkyMGRqRw"><rect x="0" y="0" fill="#fff" width="963.8253409510885" height="1547.3298388769429"></rect><rect x="600.8334212123186" y="1395.8798388769428" fill="#000" width="192.81983947753906" height="25" opacity="1"></rect></mask><g mask="url(#mask-y2zsE-eO9DX3QYnl2RY-S)" stroke-linecap="round"><g transform="translate(880.4833409510879 1365.1298388769428) rotate(0 41.64499999999998 40.60000000000002)"><path d="M-1.03 -0.54 C13.05 6.66, 69.76 29.39, 83.86 43.02 C97.97 56.64, 83.79 74.71, 83.58 81.22 M0.62 1.79 C14.66 9.18, 69.49 30.97, 83.22 44.43 C96.94 57.89, 83.09 76.62, 82.97 82.54" stroke="#f08c00" stroke-width="2" fill="none"></path></g><g transform="translate(880.4833409510879 1365.1298388769428) rotate(0 41.64499999999998 40.60000000000002)"><path d="M82.31 63.58 C81.59 69.16, 82.24 73.38, 82.97 82.54 M82.31 63.58 C81.91 68.93, 82.8 74.27, 82.97 82.54" stroke="#f08c00" stroke-width="2" fill="none"></path></g><g transform="translate(880.4833409510879 1365.1298388769428) rotate(0 41.64499999999998 40.60000000000002)"><path d="M94.65 67.59 C90.9 72.07, 88.52 75.31, 82.97 82.54 M94.65 67.59 C90.55 71.82, 87.72 75.96, 82.97 82.54" stroke="#f08c00" stroke-width="2" fill="none"></path></g></g><mask id="mask-y2zsE-eO9DX3QYnl2RY-S"><rect x="0" y="0" fill="#fff" width="1063.773340951088" height="1547.3298388769429"></rect><rect x="854.3934428797988" y="1395.8798388769428" fill="#000" width="218.75979614257812" height="25" opacity="1"></rect></mask><g mask="url(#mask-QmGuCu9H1Rzi8V-5K49Di)" stroke-linecap="round"><g transform="translate(1357.6503409510883 1365.1298388769428) rotate(0 -46.09850000000006 40.60000000000002)"><path d="M0.57 -0.23 C-14.57 7.07, -76.33 29.55, -91.9 43.27 C-107.48 56.99, -92.7 75.84, -92.86 82.09 M-0.58 -1.4 C-15.77 6.15, -77.13 31.21, -92.7 44.81 C-108.26 58.42, -93.93 74.08, -93.97 80.21" stroke="#f08c00" stroke-width="2" fill="none"></path></g><g transform="translate(1357.6503409510883 1365.1298388769428) rotate(0 -46.09850000000006 40.60000000000002)"><path d="M-105.86 65.43 C-103.75 69, -100.82 70.65, -93.97 80.21 M-105.86 65.43 C-101.3 70.27, -96.92 77.44, -93.97 80.21" stroke="#f08c00" stroke-width="2" fill="none"></path></g><g transform="translate(1357.6503409510883 1365.1298388769428) rotate(0 -46.09850000000006 40.60000000000002)"><path d="M-93.58 61.24 C-94.11 65.76, -93.8 68.31, -93.97 80.21 M-93.58 61.24 C-93.63 67.6, -93.85 76.33, -93.97 80.21" stroke="#f08c00" stroke-width="2" fill="none"></path></g></g><mask id="mask-QmGuCu9H1Rzi8V-5K49Di"><rect x="0" y="0" fill="#fff" width="1549.8473409510884" height="1547.3298388769429"></rect><rect x="1200.9933952723773" y="1383.3798388769428" fill="#000" width="128.91989135742188" height="50" opacity="1"></rect></mask><g mask="url(#mask-RI-wOUePz1VVGcWUgjLE4)" stroke-linecap="round"><g transform="translate(1468.2883409510882 1365.1298388769428) rotate(0 46.09850000000006 40.60000000000002)"><path d="M0.29 0.02 C15.45 7.41, 76.32 30.68, 91.54 44.14 C106.75 57.59, 91.42 74.72, 91.57 80.74 M-1.01 -1.02 C14.49 6.07, 78.65 28.68, 93.9 42.48 C109.15 56.29, 90.65 75.42, 90.47 81.82" stroke="#f08c00" stroke-width="2" fill="none"></path></g><g transform="translate(1468.2883409510882 1365.1298388769428) rotate(0 46.09850000000006 40.60000000000002)"><path d="M91.48 62.87 C91.12 68.42, 92.15 75.06, 90.47 81.82 M91.48 62.87 C91.38 68.73, 91.47 73.63, 90.47 81.82" stroke="#f08c00" stroke-width="2" fill="none"></path></g><g transform="translate(1468.2883409510882 1365.1298388769428) rotate(0 46.09850000000006 40.60000000000002)"><path d="M103.42 67.95 C98.92 71.76, 95.79 76.64, 90.47 81.82 M103.42 67.95 C100.18 72.38, 97.15 75.95, 90.47 81.82" stroke="#f08c00" stroke-width="2" fill="none"></path></g></g><mask id="mask-RI-wOUePz1VVGcWUgjLE4"><rect x="0" y="0" fill="#fff" width="1660.4853409510883" height="1547.3298388769429"></rect><rect x="1453.8854416590962" y="1395.8798388769428" fill="#000" width="213.19979858398438" height="25" opacity="1"></rect></mask><g mask="url(#mask-P_Q2_d5zOq7jnCLevIRIR)" stroke-linecap="round"><g transform="translate(1045.2697955588892 253.4999847412114) rotate(0 0.07409277012624216 80.06069482433935)"><path d="M-0.66 0.89 C-0.79 27.5, -0.66 133.28, -0.48 159.66 M1.19 0.31 C1.44 27.08, 2.14 134.34, 1.9 160.96" stroke="#f08c00" stroke-width="2" fill="none"></path></g><g transform="translate(1045.2697955588892 253.4999847412114) rotate(0 0.07409277012624216 80.06069482433935)"><path d="M-6.65 137.47 C-2.39 144.09, -1.86 153.17, 1.9 160.96 M-6.65 137.47 C-4.21 143.5, -3.37 147.52, 1.9 160.96" stroke="#f08c00" stroke-width="2" fill="none"></path></g><g transform="translate(1045.2697955588892 253.4999847412114) rotate(0 0.07409277012624216 80.06069482433935)"><path d="M10.45 137.47 C9.16 144, 4.14 153.07, 1.9 160.96 M10.45 137.47 C9.09 143.66, 6.12 147.68, 1.9 160.96" stroke="#f08c00" stroke-width="2" fill="none"></path></g></g><mask id="mask-P_Q2_d5zOq7jnCLevIRIR"><rect x="0" y="0" fill="#fff" width="1145.4179810991418" height="513.6213743898901"></rect><rect x="939.683968590246" y="308.56067956555074" fill="#000" width="211.31983947753906" height="50" opacity="1"></rect></mask><g transform="translate(939.6839685902459 308.56067956555074) rotate(0 106.2056058881868 25.573720664707935)"><text x="105.65991973876953" y="17.52" font-family="Virgil, Segoe UI Emoji" font-size="20px" fill="#f08c00" text-anchor="middle" style="white-space: pre;" direction="ltr" dominant-baseline="alphabetic">Data Ingested from </text><text x="105.65991973876953" y="42.519999999999996" font-family="Virgil, Segoe UI Emoji" font-size="20px" fill="#f08c00" text-anchor="middle" style="white-space: pre;" direction="ltr" dominant-baseline="alphabetic">various sources</text></g><g mask="url(#mask-eJh2qxhjgiQ8rScyOiRfb)" stroke-linecap="round"><g transform="translate(997.0747283563674 664.5364715167292) rotate(0 -0.01338687543042738 101.11348886266501)"><path d="M-0.63 -0.46 C-0.48 32.94, 0.09 167.33, 0.22 201.3 M1.24 -1.74 C1.31 31.7, -0.3 168.45, -0.6 202.35" stroke="#f08c00" stroke-width="2" fill="none"></path></g><g transform="translate(997.0747283563674 664.5364715167292) rotate(0 -0.01338687543042738 101.11348886266501)"><path d="M-8.91 178.77 C-7.46 184.99, -6.21 190.63, -0.6 202.35 M-8.91 178.77 C-6.06 187.69, -2.16 197.75, -0.6 202.35" stroke="#f08c00" stroke-width="2" fill="none"></path></g><g transform="translate(997.0747283563674 664.5364715167292) rotate(0 -0.01338687543042738 101.11348886266501)"><path d="M8.19 178.94 C5.45 185.04, 2.51 190.63, -0.6 202.35 M8.19 178.94 C4.28 187.95, 1.42 197.94, -0.6 202.35" stroke="#f08c00" stroke-width="2" fill="none"></path></g></g><mask id="mask-eJh2qxhjgiQ8rScyOiRfb"><rect x="0" y="0" fill="#fff" width="1097.1015021072283" height="966.7634492420592"></rect><rect x="891.0614406630657" y="728.1499603793942" fill="#000" width="211.9998016357422" height="75" opacity="1"></rect></mask><g transform="translate(891.0614406630659 728.1499603793941) rotate(0 106.32156095984274 36.687935801474396)"><text x="105.9999008178711" y="17.52" font-family="Virgil, Segoe UI Emoji" font-size="20px" fill="#f08c00" text-anchor="middle" style="white-space: pre;" direction="ltr" dominant-baseline="alphabetic">Industrial Data </text><text x="105.9999008178711" y="42.519999999999996" font-family="Virgil, Segoe UI Emoji" font-size="20px" fill="#f08c00" text-anchor="middle" style="white-space: pre;" direction="ltr" dominant-baseline="alphabetic">overtime, Key metrics,</text><text x="105.9999008178711" y="67.52" font-family="Virgil, Segoe UI Emoji" font-size="20px" fill="#f08c00" text-anchor="middle" style="white-space: pre;" direction="ltr" dominant-baseline="alphabetic">threshholds</text></g><g mask="url(#mask-cgWHJLYOOeZL0q2GY6XPt)" stroke-linecap="round"><g transform="translate(1079.992824260849 1123.6534453853617) rotate(0 0.09570543261278885 80.71520392618288)"><path d="M0.24 -0.93 C0.41 26.24, 0.26 135.34, 0.35 162.57 M-1.09 1.2 C-1.01 28.1, -0.76 134.47, -0.52 161.05" stroke="#f08c00" stroke-width="2" fill="none"></path></g><g transform="translate(1079.992824260849 1123.6534453853617) rotate(0 0.09570543261278885 80.71520392618288)"><path d="M-9.19 137.61 C-8.68 143.66, -3.08 150.21, -0.52 161.05 M-9.19 137.61 C-5.89 147.16, -1.99 156.36, -0.52 161.05" stroke="#f08c00" stroke-width="2" fill="none"></path></g><g transform="translate(1079.992824260849 1123.6534453853617) rotate(0 0.09570543261278885 80.71520392618288)"><path d="M7.91 137.52 C4.18 143.62, 5.55 150.2, -0.52 161.05 M7.91 137.52 C4.56 147.05, 1.82 156.29, -0.52 161.05" stroke="#f08c00" stroke-width="2" fill="none"></path></g></g><mask id="mask-cgWHJLYOOeZL0q2GY6XPt"><rect x="0" y="0" fill="#fff" width="1180.1842351260746" height="1385.0838532377275"></rect><rect x="1036.2185727232468" y="1191.868649311545" fill="#000" width="87.73991394042969" height="25" opacity="1"></rect></mask><g transform="translate(1036.2185727232468 1191.8686493115447) rotate(0 43.405084078745006 12.60745130032285)"><text x="43.869956970214844" y="17.52" font-family="Virgil, Segoe UI Emoji" font-size="20px" fill="#f08c00" text-anchor="middle" style="white-space: pre;" direction="ltr" dominant-baseline="alphabetic">Evolution</text></g><g transform="translate(991.7746873866349 1292.1298388769428) rotate(0 134.72988891601562 12.5)"><text x="134.72988891601562" y="17.52" font-family="Virgil, Segoe UI Emoji" font-size="20px" fill="#f08c00" text-anchor="middle" style="white-space: pre;" direction="ltr" dominant-baseline="alphabetic">Scalability and Extensibility</text></g><g transform="translate(918.6200757290735 885.1534606441508) rotate(0 135.85989379882812 12.5)"><text x="135.85989379882812" y="17.52" font-family="Virgil, Segoe UI Emoji" font-size="20px" fill="#f08c00" text-anchor="middle" style="white-space: pre;" direction="ltr" dominant-baseline="alphabetic">Data Analysis and Insights</text></g><g transform="translate(896.2761645237306 424.92087634301504) rotate(0 149.2598876953125 12.5)"><text x="149.2598876953125" y="17.52" font-family="Virgil, Segoe UI Emoji" font-size="20px" fill="#f08c00" text-anchor="middle" style="white-space: pre;" direction="ltr" dominant-baseline="alphabetic">Data Visualization and Alerts</text></g><g transform="translate(893.7873687744141 15) rotate(0 152.01988220214844 12.5)"><text x="152.01988220214844" y="17.52" font-family="Virgil, Segoe UI Emoji" font-size="20px" fill="#f08c00" text-anchor="middle" style="white-space: pre;" direction="ltr" dominant-baseline="alphabetic">Monitoring and Data Collection</text></g><g transform="translate(396.79302978515625 48.75) rotate(0 137.52987670898438 12.5)"><text x="137.52987670898438" y="17.52" font-family="Virgil, Segoe UI Emoji" font-size="20px" fill="#f08c00" text-anchor="middle" style="white-space: pre;" direction="ltr" dominant-baseline="alphabetic">Water_Quality_Parameters</text></g><g transform="translate(138.14073944091797 188.75) rotate(0 10.439987182617188 12.5)"><text x="10.439987182617188" y="17.52" font-family="Virgil, Segoe UI Emoji" font-size="20px" fill="#f08c00" text-anchor="middle" style="white-space: pre;" direction="ltr" dominant-baseline="alphabetic">pH</text></g><g transform="translate(343.43224334716797 188.75) rotate(0 62.3099365234375 12.5)"><text x="62.3099365234375" y="17.52" font-family="Virgil, Segoe UI Emoji" font-size="20px" fill="#f08c00" text-anchor="middle" style="white-space: pre;" direction="ltr" dominant-baseline="alphabetic">Temperature</text></g><g transform="translate(628.1336669921875 188.75) rotate(0 34.76996612548828 12.5)"><text x="34.76996612548828" y="17.52" font-family="Virgil, Segoe UI Emoji" font-size="20px" fill="#f08c00" text-anchor="middle" style="white-space: pre;" direction="ltr" dominant-baseline="alphabetic">Salinity</text></g><g transform="translate(848.8651504516602 188.75) rotate(0 71.19993591308594 12.5)"><text x="71.19993591308594" y="17.52" font-family="Virgil, Segoe UI Emoji" font-size="20px" fill="#f08c00" text-anchor="middle" style="white-space: pre;" direction="ltr" dominant-baseline="alphabetic">Oxygen_Levels</text></g><g transform="translate(1282.6085586547852 48.75) rotate(0 101.75992584228516 12.5)"><text x="101.75992584228516" y="17.52" font-family="Virgil, Segoe UI Emoji" font-size="20px" fill="#f08c00" text-anchor="middle" style="white-space: pre;" direction="ltr" dominant-baseline="alphabetic">Underwater Cameras</text></g><g transform="translate(1103.6750869750977 188.75) rotate(0 54.169952392578125 12.5)"><text x="54.169952392578125" y="17.52" font-family="Virgil, Segoe UI Emoji" font-size="20px" fill="#f08c00" text-anchor="middle" style="white-space: pre;" direction="ltr" dominant-baseline="alphabetic">Fish Health</text></g><g transform="translate(1320.628547668457 188.75) rotate(0 63.73993682861328 12.5)"><text x="63.73993682861328" y="17.52" font-family="Virgil, Segoe UI Emoji" font-size="20px" fill="#f08c00" text-anchor="middle" style="white-space: pre;" direction="ltr" dominant-baseline="alphabetic">Fish_Activity</text></g><g transform="translate(1527.5918502807617 188.75) rotate(0 104.13990020751953 12.5)"><text x="104.13990020751953" y="17.52" font-family="Virgil, Segoe UI Emoji" font-size="20px" fill="#f08c00" text-anchor="middle" style="white-space: pre;" direction="ltr" dominant-baseline="alphabetic">Parasites_Detection</text></g><g transform="translate(1768.8346862792969 48.75) rotate(0 126.5298843383789 12.5)"><text x="126.5298843383789" y="17.52" font-family="Virgil, Segoe UI Emoji" font-size="20px" fill="#f08c00" text-anchor="middle" style="white-space: pre;" direction="ltr" dominant-baseline="alphabetic">Fish_Recognition_Feature</text></g><g transform="translate(1821.3846435546875 188.75) rotate(0 73.97992706298828 12.5)"><text x="73.97992706298828" y="17.52" font-family="Virgil, Segoe UI Emoji" font-size="20px" fill="#f08c00" text-anchor="middle" style="white-space: pre;" direction="ltr" dominant-baseline="alphabetic">Fish_Monitoring</text></g><g transform="translate(635.6689867893556 458.67087634301504) rotate(0 128.63987731933594 12.5)"><text x="128.63987731933594" y="17.52" font-family="Virgil, Segoe UI Emoji" font-size="20px" fill="#f08c00" text-anchor="middle" style="white-space: pre;" direction="ltr" dominant-baseline="alphabetic">Customizable_Dashboards</text></g><g transform="translate(637.6889758030275 598.670876343015) rotate(0 126.61988830566406 12.5)"><text x="126.61988830566406" y="17.52" font-family="Virgil, Segoe UI Emoji" font-size="20px" fill="#f08c00" text-anchor="middle" style="white-space: pre;" direction="ltr" dominant-baseline="alphabetic">Collected_Data_Insights</text></g><g transform="translate(1099.5651392856935 458.67087634301504) rotate(0 124.06988525390625 12.5)"><text x="124.06988525390625" y="17.52" font-family="Virgil, Segoe UI Emoji" font-size="20px" fill="#f08c00" text-anchor="middle" style="white-space: pre;" direction="ltr" dominant-baseline="alphabetic">Threshold_Based_Alerts</text></g><g transform="translate(990.5628428379396 598.670876343015) rotate(0 100.24990844726562 12.5)"><text x="100.24990844726562" y="17.52" font-family="Virgil, Segoe UI Emoji" font-size="20px" fill="#f08c00" text-anchor="middle" style="white-space: pre;" direction="ltr" dominant-baseline="alphabetic">Critical_Parameters</text></g><g transform="translate(1275.0473551670411 598.670876343015) rotate(0 81.4099349975586 12.5)"><text x="81.4099349975586" y="17.52" font-family="Virgil, Segoe UI Emoji" font-size="20px" fill="#f08c00" text-anchor="middle" style="white-space: pre;" direction="ltr" dominant-baseline="alphabetic">Weather_Events</text></g><g transform="translate(771.6482892300501 918.9034606441508) rotate(0 75.8199462890625 12.5)"><text x="75.8199462890625" y="17.52" font-family="Virgil, Segoe UI Emoji" font-size="20px" fill="#f08c00" text-anchor="middle" style="white-space: pre;" direction="ltr" dominant-baseline="alphabetic">Data_Tracking</text></g><g transform="translate(724.9583478238001 1058.9034606441508) rotate(0 122.5098876953125 12.5)"><text x="122.5098876953125" y="17.52" font-family="Virgil, Segoe UI Emoji" font-size="20px" fill="#f08c00" text-anchor="middle" style="white-space: pre;" direction="ltr" dominant-baseline="alphabetic">Harvested_Fish_Analysis</text></g><g transform="translate(1117.2847943570032 918.9034606441508) rotate(0 105.46990203857422 12.5)"><text x="105.46990203857422" y="17.52" font-family="Virgil, Segoe UI Emoji" font-size="20px" fill="#f08c00" text-anchor="middle" style="white-space: pre;" direction="ltr" dominant-baseline="alphabetic">Cross_Farm_Insights</text></g><g transform="translate(1069.5348553921594 1058.9034606441508) rotate(0 153.2198486328125 12.5)"><text x="153.2198486328125" y="17.52" font-family="Virgil, Segoe UI Emoji" font-size="20px" fill="#f08c00" text-anchor="middle" style="white-space: pre;" direction="ltr" dominant-baseline="alphabetic">Large_Customers_Optimization</text></g><g transform="translate(721.7486024867326 1325.8798388769428) rotate(0 108.75990295410156 12.5)"><text x="108.75990295410156" y="17.52" font-family="Virgil, Segoe UI Emoji" font-size="20px" fill="#f08c00" text-anchor="middle" style="white-space: pre;" direction="ltr" dominant-baseline="alphabetic">Scalable_Architecture</text></g><g transform="translate(629.1136156092912 1465.8798388769428) rotate(0 68.12992858886719 12.5)"><text x="68.12992858886719" y="17.52" font-family="Virgil, Segoe UI Emoji" font-size="20px" fill="#f08c00" text-anchor="middle" style="white-space: pre;" direction="ltr" dominant-baseline="alphabetic">Various_Sizes</text></g><g transform="translate(881.6735673915177 1465.8798388769428) rotate(0 82.09991455078125 12.5)"><text x="82.09991455078125" y="17.52" font-family="Virgil, Segoe UI Emoji" font-size="20px" fill="#f08c00" text-anchor="middle" style="white-space: pre;" direction="ltr" dominant-baseline="alphabetic">Fish_Populations</text></g><g transform="translate(1325.189512826088 1325.8798388769428) rotate(0 87.77991485595703 12.5)"><text x="87.77991485595703" y="17.52" font-family="Virgil, Segoe UI Emoji" font-size="20px" fill="#f08c00" text-anchor="middle" style="white-space: pre;" direction="ltr" dominant-baseline="alphabetic">Extensible_Design</text></g><g transform="translate(1158.9432436000138 1465.8798388769428) rotate(0 106.5099105834961 12.5)"><text x="106.5099105834961" y="17.52" font-family="Virgil, Segoe UI Emoji" font-size="20px" fill="#f08c00" text-anchor="middle" style="white-space: pre;" direction="ltr" dominant-baseline="alphabetic">Future_Enhancements</text></g><g transform="translate(1471.4157777797013 1465.8798388769428) rotate(0 89.0699234008789 12.5)"><text x="89.0699234008789" y="17.52" font-family="Virgil, Segoe UI Emoji" font-size="20px" fill="#f08c00" text-anchor="middle" style="white-space: pre;" direction="ltr" dominant-baseline="alphabetic">Cattle_Aquariums</text></g><g transform="translate(52.191092163085955 118.75) rotate(0 208.18304859137274 9.604438523887648)"><text x="96.38990783691406" y="17.52" font-family="Virgil, Segoe UI Emoji" font-size="20px" fill="#f08c00" text-anchor="middle" style="white-space: pre;" direction="ltr" dominant-baseline="alphabetic">Real-time monitoring</text></g><g transform="translate(309.35209216308596 118.75) rotate(0 133.73158127216414 9.921067953347222)"><text x="96.38990783691406" y="17.52" font-family="Virgil, Segoe UI Emoji" font-size="20px" fill="#f08c00" text-anchor="middle" style="white-space: pre;" direction="ltr" dominant-baseline="alphabetic">Real-time monitoring</text></g><g transform="translate(566.514092163086 118.75) rotate(0 59.31723076113821 10.044670630334874)"><text x="96.38990783691406" y="17.52" font-family="Virgil, Segoe UI Emoji" font-size="20px" fill="#f08c00" text-anchor="middle" style="white-space: pre;" direction="ltr" dominant-baseline="alphabetic">Real-time monitoring</text></g><g transform="translate(823.6750921630861 118.75) rotate(0 -15.754163229448778 9.694358696220434)"><text x="96.38990783691406" y="17.52" font-family="Virgil, Segoe UI Emoji" font-size="20px" fill="#f08c00" text-anchor="middle" style="white-space: pre;" direction="ltr" dominant-baseline="alphabetic">Real-time monitoring</text></g><g transform="translate(1069.0950839233399 118.75) rotate(0 154.62194261966738 9.499627030431288)"><text x="88.74991607666016" y="17.52" font-family="Virgil, Segoe UI Emoji" font-size="20px" fill="#f08c00" text-anchor="middle" style="white-space: pre;" direction="ltr" dominant-baseline="alphabetic">Visual assessment</text></g><g transform="translate(1296.0980872802734 116.1) rotate(0 87.63284665389392 12.176082771955986)"><text x="88.26991271972656" y="17.52" font-family="Virgil, Segoe UI Emoji" font-size="20px" fill="#f08c00" text-anchor="middle" style="white-space: pre;" direction="ltr" dominant-baseline="alphabetic">Activity monitoring</text></g><g transform="translate(1804.325075378418 103.6) rotate(0 91.68720633811427 25.346669683395884)"><text x="91.03992462158203" y="17.52" font-family="Virgil, Segoe UI Emoji" font-size="20px" fill="#f08c00" text-anchor="middle" style="white-space: pre;" direction="ltr" dominant-baseline="alphabetic">Health &amp; lifecycle </text><text x="91.03992462158203" y="42.519999999999996" font-family="Virgil, Segoe UI Emoji" font-size="20px" fill="#f08c00" text-anchor="middle" style="white-space: pre;" direction="ltr" dominant-baseline="alphabetic">monitoring</text></g><g transform="translate(687.0793511692382 526.0208763430151) rotate(0 76.8264781239489 13.667629335848574)"><text x="77.22993469238281" y="17.52" font-family="Virgil, Segoe UI Emoji" font-size="20px" fill="#f08c00" text-anchor="middle" style="white-space: pre;" direction="ltr" dominant-baseline="alphabetic">Visualizing data</text></g><g transform="translate(983.31238504375 528.670876343015) rotate(0 146.12794537330538 9.462061092136423)"><text x="107.4999008178711" y="17.52" font-family="Virgil, Segoe UI Emoji" font-size="20px" fill="#f08c00" text-anchor="middle" style="white-space: pre;" direction="ltr" dominant-baseline="alphabetic">Alerts &amp; notifications</text></g><g transform="translate(1248.95738504375 528.670876343015) rotate(0 69.3604010210629 10.63290712052489)"><text x="107.4999008178711" y="17.52" font-family="Virgil, Segoe UI Emoji" font-size="20px" fill="#f08c00" text-anchor="middle" style="white-space: pre;" direction="ltr" dominant-baseline="alphabetic">Alerts &amp; notifications</text></g><g transform="translate(763.3685635830774 973.7534606441508) rotate(0 84.3375261730578 25.06180425137279)"><text x="84.09993743896484" y="17.52" font-family="Virgil, Segoe UI Emoji" font-size="20px" fill="#f08c00" text-anchor="middle" style="white-space: pre;" direction="ltr" dominant-baseline="alphabetic">Analyze harvest </text><text x="84.09993743896484" y="42.519999999999996" font-family="Virgil, Segoe UI Emoji" font-size="20px" fill="#f08c00" text-anchor="middle" style="white-space: pre;" direction="ltr" dominant-baseline="alphabetic">factors</text></g><g transform="translate(1127.6246029507533 986.2534606441508) rotate(0 95.66621246127875 13.253284362284433)"><text x="95.12989807128906" y="17.52" font-family="Virgil, Segoe UI Emoji" font-size="20px" fill="#f08c00" text-anchor="middle" style="white-space: pre;" direction="ltr" dominant-baseline="alphabetic">Optimize operations</text></g><g transform="translate(600.8334212123186 1395.8798388769428) rotate(0 135.2773708176327 9.683968941448256)"><text x="96.40991973876953" y="17.52" font-family="Virgil, Segoe UI Emoji" font-size="20px" fill="#f08c00" text-anchor="middle" style="white-space: pre;" direction="ltr" dominant-baseline="alphabetic">Accommodate farms</text></g><g transform="translate(854.3934428797988 1395.8798388769428) rotate(0 70.62527408332943 10.250846823095344)"><text x="109.37989807128906" y="17.52" font-family="Virgil, Segoe UI Emoji" font-size="20px" fill="#f08c00" text-anchor="middle" style="white-space: pre;" direction="ltr" dominant-baseline="alphabetic">Accommodate fish pop.</text></g><g transform="translate(1200.9933952723773 1383.3798388769428) rotate(0 106.96781846376484 22.094082488953177)"><text x="64.45994567871094" y="17.52" font-family="Virgil, Segoe UI Emoji" font-size="20px" fill="#f08c00" text-anchor="middle" style="white-space: pre;" direction="ltr" dominant-baseline="alphabetic">Incorporate </text><text x="64.45994567871094" y="42.519999999999996" font-family="Virgil, Segoe UI Emoji" font-size="20px" fill="#f08c00" text-anchor="middle" style="white-space: pre;" direction="ltr" dominant-baseline="alphabetic">enhancements</text></g><g transform="translate(1453.8854416590962 1395.8798388769428) rotate(0 63.85928383628516 9.64970255899243)"><text x="106.59989929199219" y="17.52" font-family="Virgil, Segoe UI Emoji" font-size="20px" fill="#f08c00" text-anchor="middle" style="white-space: pre;" direction="ltr" dominant-baseline="alphabetic">Additional capabilities</text></g></svg>