<svg version="1.1" xmlns="http://www.w3.org/2000/svg" viewBox="0 0 1949.57535634963 827.0122496011143" width="3899.15071269926" height="1654.0244992022285">
  <!-- svg-source:excalidraw -->
  
  <defs>
    <style class="style-fonts">
      @font-face {
        font-family: "Virgil";
        src: url("https://excalidraw.com/Virgil.woff2");
      }
      @font-face {
        font-family: "Cascadia";
        src: url("https://excalidraw.com/Cascadia.woff2");
      }
      @font-face {
        font-family: "Assistant";
        src: url("https://app.excalidraw.com//dist/excalidraw-assets/Assistant-Regular.woff2");
      }
    </style>
    
  </defs>
  <g stroke-opacity="0.3" fill-opacity="0.3" stroke-linecap="round" transform="translate(10 10) rotate(0 964.787678174815 403.50612480055713)"><path d="M7.86 8.16 C7.86 8.16, 7.86 8.16, 7.86 8.16 M7.86 8.16 C7.86 8.16, 7.86 8.16, 7.86 8.16 M6.68 21.71 C9.84 17.85, 16.2 11.81, 21.12 5.11 M6.68 21.71 C12.7 15.38, 17.51 10.83, 21.12 5.11 M4.85 36.01 C15.95 22.53, 23.18 14.2, 34.37 2.05 M4.85 36.01 C13.18 28.74, 18.06 19.72, 34.37 2.05 M4.98 48.06 C16.58 32.96, 26.21 20.65, 45 2.02 M4.98 48.06 C17.83 38.23, 27.6 25.73, 45 2.02 M4.46 60.85 C17.82 42.37, 31.29 28.38, 55.63 1.98 M4.46 60.85 C17.23 49.39, 31 34.41, 55.63 1.98 M4.59 72.89 C22.91 52.4, 46.76 22.29, 66.26 1.95 M4.59 72.89 C22.36 52.6, 42.97 29.23, 66.26 1.95 M4.72 84.93 C31 49.91, 59.7 22.08, 76.89 1.91 M4.72 84.93 C23.65 62.43, 46.84 34.82, 76.89 1.91 M4.86 96.97 C34.45 56.72, 72.95 20.17, 87.52 1.88 M4.86 96.97 C35.57 61.75, 67.14 28.29, 87.52 1.88 M4.99 109.01 C35.15 71.57, 59.69 41.19, 98.15 1.85 M4.99 109.01 C34.25 74.08, 64.63 36.6, 98.15 1.85 M4.47 121.81 C42.39 75.66, 81.84 31.16, 108.78 1.81 M4.47 121.81 C28.06 96.77, 49.12 69.12, 108.78 1.81 M4.6 133.85 C33.3 105, 61.87 66.08, 119.41 1.78 M4.6 133.85 C42.14 90.34, 81.43 44.12, 119.41 1.78 M4.73 145.89 C45.14 95.69, 89.75 43.51, 130.04 1.74 M4.73 145.89 C40.24 100.89, 76.38 59.69, 130.04 1.74 M4.87 157.93 C45.54 106.57, 93.73 54.96, 140.67 1.71 M4.87 157.93 C58.31 100.63, 107.52 40.51, 140.67 1.71 M5 169.97 C40.24 130.09, 80.19 81.91, 150.65 2.43 M5 169.97 C52.7 116.42, 98.45 59.8, 150.65 2.43 M4.48 182.77 C60.15 120.05, 117.02 54.44, 161.28 2.39 M4.48 182.77 C45.45 137.35, 86.76 90.5, 161.28 2.39 M4.61 194.81 C44.6 154.33, 74.64 118.54, 171.91 2.36 M4.61 194.81 C59.4 130.46, 115.02 66.78, 171.91 2.36 M4.74 206.85 C49.75 153.21, 97.02 100.07, 182.54 2.32 M4.74 206.85 C38.36 160.42, 77.32 116.45, 182.54 2.32 M4.88 218.89 C77.65 138.61, 143.15 63.89, 193.17 2.29 M4.88 218.89 C47.14 174.59, 87.74 128.29, 193.17 2.29 M5.01 230.93 C62.25 163.55, 117.49 97.5, 203.8 2.26 M5.01 230.93 C51.61 177.51, 94.75 127.71, 203.8 2.26 M4.49 243.73 C55.41 184.88, 110.72 121.57, 214.43 2.22 M4.49 243.73 C76.84 158.7, 154.43 70.92, 214.43 2.22 M4.62 255.77 C52.53 199.75, 95.34 149.13, 225.06 2.19 M4.62 255.77 C69.9 178.81, 138.71 102.19, 225.06 2.19 M4.75 267.81 C63.11 198.62, 128.96 127.41, 235.69 2.15 M4.75 267.81 C64.5 195.49, 126.91 122.88, 235.69 2.15 M4.89 279.85 C74.18 195.65, 147.23 113.47, 246.32 2.12 M4.89 279.85 C100.56 167.84, 195.78 59.26, 246.32 2.12 M5.02 291.89 C90.95 193.7, 180.23 86.57, 256.95 2.08 M5.02 291.89 C78.3 205.71, 154.75 118.56, 256.95 2.08 M4.5 304.69 C94.25 202.29, 183.69 102.41, 267.58 2.05 M4.5 304.69 C85.77 216.27, 163.41 126.93, 267.58 2.05 M4.63 316.73 C98.44 207.82, 190.59 98.75, 278.21 2.01 M4.63 316.73 C89.67 218.92, 174.17 121.19, 278.21 2.01 M4.76 328.77 C59.81 259.88, 119.73 191.47, 288.84 1.98 M4.76 328.77 C94.69 226.14, 182.42 123.57, 288.84 1.98 M4.9 340.81 C63.32 270.89, 121.41 204.79, 299.47 1.94 M4.9 340.81 C77.03 259.4, 146.56 178.47, 299.47 1.94 M5.03 352.85 C106.29 237.46, 210.6 118.94, 310.1 1.91 M5.03 352.85 C73.12 270.8, 142.14 192.4, 310.1 1.91 M4.51 365.65 C127.04 226.87, 244.5 88.21, 320.73 1.88 M4.51 365.65 C110.1 243.92, 212.71 126.43, 320.73 1.88 M4.64 377.69 C85.39 285.17, 164.65 193.53, 331.36 1.84 M4.64 377.69 C107.19 255.15, 211.3 134.53, 331.36 1.84 M4.77 389.73 C90.52 288.95, 175.51 185.72, 341.99 1.81 M4.77 389.73 C102.25 279.68, 195.77 169.37, 341.99 1.81 M4.91 401.77 C129.52 259.47, 254.24 113.24, 352.62 1.77 M4.91 401.77 C129.6 258.66, 253.24 117.54, 352.62 1.77 M5.04 413.81 C123.26 275.45, 244.27 135.65, 363.25 1.74 M5.04 413.81 C114.51 286.59, 226.82 157.92, 363.25 1.74 M4.52 426.6 C93.3 323.78, 180.56 225.83, 373.88 1.7 M4.52 426.6 C140.92 270.83, 279.35 112.12, 373.88 1.7 M4.65 438.65 C85.88 349.2, 163.87 261.35, 383.85 2.42 M4.65 438.65 C126.62 302.05, 247.7 162.24, 383.85 2.42 M4.78 450.69 C133.2 309.03, 260.31 163.02, 394.48 2.39 M4.78 450.69 C125.81 309.65, 250.75 167.71, 394.48 2.39 M4.92 462.73 C160.1 284.57, 316.23 103.07, 405.11 2.35 M4.92 462.73 C112.3 333.23, 223.47 205.17, 405.11 2.35 M5.05 474.77 C89.51 384.26, 169.04 287.71, 415.74 2.32 M5.05 474.77 C92.57 375.27, 182.77 272.48, 415.74 2.32 M4.53 487.56 C144.46 333.11, 279.16 177.48, 426.37 2.29 M4.53 487.56 C111.16 360.91, 218.96 237.57, 426.37 2.29 M4.66 499.6 C153.15 322.66, 306.51 145.98, 437 2.25 M4.66 499.6 C171.85 308.94, 335.3 122.64, 437 2.25 M4.79 511.65 C149.97 343.02, 297.8 173.72, 447.63 2.22 M4.79 511.65 C94.31 401.28, 187.54 293.76, 447.63 2.22 M4.93 523.69 C178.32 326.67, 348.6 132.3, 458.26 2.18 M4.93 523.69 C91.37 421.91, 182.68 317.26, 458.26 2.18 M5.06 535.73 C134.85 386.2, 264.71 233.92, 468.89 2.15 M5.06 535.73 C188.84 332.65, 367.16 126.77, 468.89 2.15 M4.54 548.52 C180.31 341.64, 361.29 136.28, 479.52 2.11 M4.54 548.52 C178.69 343.23, 356.78 137.62, 479.52 2.11 M4.67 560.56 C166.2 376.8, 323.69 195.26, 490.15 2.08 M4.67 560.56 C155.15 388.35, 307.3 212.13, 490.15 2.08 M4.8 572.6 C194.2 352.37, 382.52 136.89, 500.78 2.04 M4.8 572.6 C138.3 419.89, 273.04 263.84, 500.78 2.04 M4.93 584.65 C189.96 378.38, 371.61 170.69, 511.41 2.01 M4.93 584.65 C115.45 463.06, 222.14 340.75, 511.41 2.01 M5.07 596.69 C166.73 405.52, 332.07 214.36, 522.04 1.98 M5.07 596.69 C194.1 386.33, 377.95 173.69, 522.04 1.98 M4.54 609.48 C193.25 391.72, 383.64 175.41, 532.67 1.94 M4.54 609.48 C211.02 378.78, 413.77 145.75, 532.67 1.94 M4.68 621.52 C133.07 473.89, 263.53 324.67, 543.3 1.91 M4.68 621.52 C213.4 387.09, 418.59 151.12, 543.3 1.91 M4.81 633.56 C139 488.78, 267.39 340.22, 553.93 1.87 M4.81 633.56 C132.53 490.61, 257.79 345.59, 553.93 1.87 M4.94 645.6 C179.28 446.25, 354.11 247.4, 564.56 1.84 M4.94 645.6 C216.75 400.1, 427.85 156.86, 564.56 1.84 M4.42 658.4 C237.34 399.21, 462.75 138.49, 575.19 1.8 M4.42 658.4 C133.57 510.23, 260.68 363.3, 575.19 1.8 M4.55 670.44 C232.19 406.37, 459.55 145.56, 585.82 1.77 M4.55 670.44 C165.35 488.47, 324.42 305.7, 585.82 1.77 M4.69 682.48 C229.85 422.51, 456.72 161.93, 596.45 1.73 M4.69 682.48 C200.53 458.92, 400.27 229.34, 596.45 1.73 M4.82 694.52 C171.49 500.67, 336.83 309.31, 607.08 1.7 M4.82 694.52 C175.25 495.69, 344.53 300.34, 607.08 1.7 M4.95 706.56 C142.16 547.23, 279.02 388.18, 617.06 2.42 M4.95 706.56 C138.62 548.64, 276.09 389.48, 617.06 2.42 M4.43 719.36 C157.69 540.39, 316.09 359.09, 627.69 2.38 M4.43 719.36 C193.46 506.34, 380.74 290.5, 627.69 2.38 M4.56 731.4 C181.31 522.98, 358.69 320.46, 638.32 2.35 M4.56 731.4 C157.68 556.52, 304.34 386.23, 638.32 2.35 M4.7 743.44 C225.31 495.16, 444.23 245.52, 648.95 2.32 M4.7 743.44 C207.05 510.16, 411.81 276.16, 648.95 2.32 M4.83 755.48 C142.13 598.39, 281.61 436.07, 659.58 2.28 M4.83 755.48 C257.04 460.07, 514.11 165.63, 659.58 2.28 M4.96 767.52 C170.06 571.05, 338.86 377.93, 670.21 2.25 M4.96 767.52 C146.58 611.81, 285.67 451.54, 670.21 2.25 M5.1 779.56 C141.48 619.22, 277.71 461.92, 680.84 2.21 M5.1 779.56 C150.04 605.99, 297.34 436.05, 680.84 2.21 M7.2 789.34 C161.04 608.13, 318.9 425.66, 691.47 2.18 M7.2 789.34 C230.02 529.62, 459.43 266.96, 691.47 2.18 M9.3 799.12 C249.83 528.7, 486.29 254.57, 702.1 2.14 M9.3 799.12 C224.38 548.83, 444.2 294.97, 702.1 2.14 M15.99 803.61 C164.16 623.57, 316 450.15, 712.73 2.11 M15.99 803.61 C258.92 530.29, 500.91 252.49, 712.73 2.11 M22.03 808.86 C180.35 618.56, 342.25 433.4, 723.36 2.07 M22.03 808.86 C290.79 492.84, 564.14 179.64, 723.36 2.07 M33.32 808.07 C230.65 584.5, 423.41 365.36, 733.99 2.04 M33.32 808.07 C296.83 506.1, 564.02 198.75, 733.99 2.04 M43.95 808.04 C316.02 502.9, 586.65 189.39, 744.62 2.01 M43.95 808.04 C191.04 639.84, 335.38 473.29, 744.62 2.01 M54.58 808 C321.25 501.83, 583.63 201.64, 755.25 1.97 M54.58 808 C235.9 590.91, 420.29 377.65, 755.25 1.97 M65.21 807.97 C227.89 614.8, 393.21 423.9, 765.88 1.94 M65.21 807.97 C231.25 616.21, 402.79 420.9, 765.88 1.94 M75.84 807.93 C360.45 485.72, 638 162.68, 776.51 1.9 M75.84 807.93 C286.56 562.36, 501.09 315.2, 776.51 1.9 M86.47 807.9 C317.95 543.49, 546.02 285.54, 787.14 1.87 M86.47 807.9 C262.49 608.76, 439 404.66, 787.14 1.87 M97.1 807.86 C334.31 529.97, 577.06 249.36, 797.77 1.83 M97.1 807.86 C312.47 557.57, 527.37 309.9, 797.77 1.83 M107.73 807.83 C322.78 572.04, 532.44 328.68, 808.4 1.8 M107.73 807.83 C309.63 580.03, 506.55 352.07, 808.4 1.8 M118.36 807.79 C355.08 547.65, 586.7 281.53, 819.03 1.76 M118.36 807.79 C367.57 525.72, 616.58 239.05, 819.03 1.76 M128.99 807.76 C356.53 537.09, 589.32 270.61, 829.66 1.73 M128.99 807.76 C304.28 598.29, 483.08 390.2, 829.66 1.73 M138.96 808.48 C401.34 515.11, 658.12 218.97, 840.29 1.69 M138.96 808.48 C294.48 627.47, 452.86 443.08, 840.29 1.69 M149.59 808.44 C352.68 573.7, 558.57 336.39, 850.26 2.42 M149.59 808.44 C293.59 649.78, 432.71 487.19, 850.26 2.42 M160.22 808.41 C435.51 492.76, 710.49 177.17, 860.89 2.38 M160.22 808.41 C422.26 505.15, 689.5 197.05, 860.89 2.38 M170.85 808.38 C438.92 499.07, 708.09 190.89, 871.52 2.35 M170.85 808.38 C317.18 629.35, 468.52 454.07, 871.52 2.35 M181.48 808.34 C357.17 599.68, 537.03 392.72, 882.15 2.31 M181.48 808.34 C436.35 516.03, 696.08 217.45, 882.15 2.31 M192.11 808.31 C404.85 569.1, 613.29 327.45, 892.78 2.28 M192.11 808.31 C401.7 565.43, 611.77 324.5, 892.78 2.28 M202.74 808.27 C420.4 550.48, 640.44 295.41, 903.41 2.24 M202.74 808.27 C367.19 626.58, 528.2 440.89, 903.41 2.24 M213.37 808.24 C389.05 597.34, 570.49 387.18, 914.04 2.21 M213.37 808.24 C442.48 536.95, 673.61 271.73, 914.04 2.21 M224 808.2 C393.7 615.56, 565.94 418.25, 924.67 2.17 M224 808.2 C424.36 578.35, 623.76 347.18, 924.67 2.17 M234.63 808.17 C509.77 492.21, 781.54 179.73, 935.3 2.14 M234.63 808.17 C433.4 584.92, 626.63 362.18, 935.3 2.14 M245.26 808.13 C400.3 623.7, 556.58 442.74, 945.93 2.1 M245.26 808.13 C492.28 521.78, 736.41 239.69, 945.93 2.1 M255.89 808.1 C484.64 536.1, 715.71 268.94, 956.56 2.07 M255.89 808.1 C527.92 485.59, 804.48 165.76, 956.56 2.07 M266.52 808.07 C514.08 516.13, 760.76 230.19, 967.19 2.04 M266.52 808.07 C495.82 543.81, 721.58 284.58, 967.19 2.04 M277.15 808.03 C440.93 616.28, 607.78 423.17, 977.82 2 M277.15 808.03 C436.82 620.55, 597.24 435.21, 977.82 2 M287.78 808 C459.9 609.72, 633.08 410.46, 988.45 1.97 M287.78 808 C554.94 492.23, 828.02 178.69, 988.45 1.97 M298.41 807.96 C561.2 507.18, 829.87 197.71, 999.08 1.93 M298.41 807.96 C446.08 642.21, 593.68 470.76, 999.08 1.93 M309.04 807.93 C464.02 631.34, 619.15 455.51, 1009.71 1.9 M309.04 807.93 C462.85 626.89, 621.82 444.07, 1009.71 1.9 M319.67 807.89 C548.44 544.11, 780.03 275.65, 1020.34 1.86 M319.67 807.89 C502.01 595.87, 683.8 386.58, 1020.34 1.86 M330.3 807.86 C543.79 557.49, 757.47 312.29, 1030.97 1.83 M330.3 807.86 C610.55 483.32, 888.74 163.04, 1030.97 1.83 M340.93 807.82 C603.95 505.99, 873 196.6, 1041.6 1.79 M340.93 807.82 C604.3 500.11, 869.06 194.86, 1041.6 1.79 M351.56 807.79 C539.98 603.11, 721.26 394.7, 1052.23 1.76 M351.56 807.79 C591.89 524.77, 837.86 242.4, 1052.23 1.76 M362.19 807.76 C599.28 534.55, 836.24 262.32, 1062.86 1.73 M362.19 807.76 C540.19 595.61, 724.37 384.9, 1062.86 1.73 M372.17 808.48 C602.58 540.44, 836.33 270.21, 1073.49 1.69 M372.17 808.48 C528.76 634.31, 684.97 452.81, 1073.49 1.69 M382.8 808.44 C603.96 557.52, 823.74 305.48, 1083.47 2.41 M382.8 808.44 C582.95 576.63, 787.5 340.68, 1083.47 2.41 M393.43 808.41 C611.06 567.31, 821.86 322.63, 1094.1 2.38 M393.43 808.41 C567.18 613.88, 735.53 420.36, 1094.1 2.38 M404.06 808.37 C636.83 535.98, 871.06 265.84, 1104.73 2.34 M404.06 808.37 C640.74 532.86, 876.9 261.09, 1104.73 2.34 M414.69 808.34 C591.22 606.73, 770.09 401.14, 1115.36 2.31 M414.69 808.34 C628.4 552.78, 848.91 299.81, 1115.36 2.31 M425.32 808.3 C668.61 523.29, 913.97 242.76, 1125.99 2.27 M425.32 808.3 C676.33 523.15, 923.67 240.46, 1125.99 2.27 M435.95 808.27 C698.05 505.98, 964.36 202.32, 1136.62 2.24 M435.95 808.27 C603.3 610.72, 773.15 414.02, 1136.62 2.24 M446.58 808.23 C588.92 644.51, 729.82 484.23, 1147.25 2.2 M446.58 808.23 C717.79 502.05, 983.96 195.07, 1147.25 2.2 M457.21 808.2 C737.73 489.3, 1010.64 176.42, 1157.88 2.17 M457.21 808.2 C682.77 551.66, 905.98 295.44, 1157.88 2.17 M467.84 808.16 C655.24 600.7, 838.89 388.34, 1168.51 2.14 M467.84 808.16 C719.31 524.98, 969.19 237.58, 1168.51 2.14 M478.47 808.13 C695.76 554.99, 913.22 305.45, 1179.14 2.1 M478.47 808.13 C700.23 559.69, 918.99 308.12, 1179.14 2.1 M489.1 808.1 C642.28 639.34, 790.61 466.55, 1189.77 2.07 M489.1 808.1 C691.61 566.25, 897.45 327.36, 1189.77 2.07 M499.73 808.06 C683.71 583.73, 878.05 363.11, 1200.4 2.03 M499.73 808.06 C705.21 576.53, 904.5 346.81, 1200.4 2.03 M510.36 808.03 C676.41 612.74, 845.16 422.09, 1211.03 2 M510.36 808.03 C722.99 567.06, 936.89 321.81, 1211.03 2 M520.99 807.99 C750.9 546.27, 977.93 283.72, 1221.66 1.96 M520.99 807.99 C797.37 499.62, 1071.09 185.06, 1221.66 1.96 M531.62 807.96 C697.61 614.87, 868.47 415.53, 1232.29 1.93 M531.62 807.96 C793.95 508.63, 1056.25 207.38, 1232.29 1.93 M542.25 807.92 C699.08 624.55, 859.04 441.32, 1242.92 1.89 M542.25 807.92 C731.82 593.63, 914.1 381.52, 1242.92 1.89 M552.88 807.89 C733.45 612.48, 908.89 411.97, 1253.55 1.86 M552.88 807.89 C830.54 485.89, 1105.37 170.13, 1253.55 1.86 M563.51 807.85 C736.43 605.35, 913.91 401.67, 1264.18 1.82 M563.51 807.85 C727.83 624.15, 887.53 440.04, 1264.18 1.82 M574.14 807.82 C840.86 499.54, 1103.78 193.86, 1274.81 1.79 M574.14 807.82 C794.32 544.68, 1019.75 286.09, 1274.81 1.79 M584.77 807.79 C858.95 501.08, 1124.61 194.33, 1285.44 1.76 M584.77 807.79 C788.98 567.6, 997.92 327.17, 1285.44 1.76 M595.4 807.75 C789.08 592.11, 980.4 374.67, 1296.07 1.72 M595.4 807.75 C748.62 627.26, 902.74 449.19, 1296.07 1.72 M605.37 808.47 C827.62 550.27, 1049.78 296.87, 1306.7 1.69 M605.37 808.47 C862.3 501.77, 1124.7 199.62, 1306.7 1.69 M616 808.44 C819.06 583.35, 1017.75 357.87, 1316.67 2.41 M616 808.44 C783.68 619.53, 945.9 432.87, 1316.67 2.41 M626.63 808.4 C814.08 599.81, 994.58 389.46, 1327.3 2.37 M626.63 808.4 C800.98 607.41, 970.44 412.09, 1327.3 2.37 M637.26 808.37 C837.59 583.03, 1035.12 356.47, 1337.94 2.34 M637.26 808.37 C908.12 494.81, 1180.37 182.28, 1337.94 2.34 M647.89 808.33 C891.61 537.78, 1131.35 262.59, 1348.57 2.3 M647.89 808.33 C907.24 509.08, 1171.54 204.03, 1348.57 2.3 M658.52 808.3 C820.9 612.8, 990.44 417.51, 1359.2 2.27 M658.52 808.3 C800.22 643.98, 944.64 477.99, 1359.2 2.27 M669.15 808.26 C940.44 490.94, 1214.68 174.88, 1369.83 2.23 M669.15 808.26 C909.86 537.41, 1148.99 262.38, 1369.83 2.23 M679.78 808.23 C862.32 601.57, 1040.78 395, 1380.46 2.2 M679.78 808.23 C880.06 568.39, 1084.2 332.92, 1380.46 2.2 M690.41 808.2 C944.66 521.02, 1194.9 232.24, 1391.09 2.17 M690.41 808.2 C964.84 501.21, 1234.57 189.87, 1391.09 2.17 M701.04 808.16 C928.46 541.07, 1155.18 279.48, 1401.72 2.13 M701.04 808.16 C946.2 531.12, 1185.23 257.18, 1401.72 2.13 M711.67 808.13 C927.48 564.18, 1137.03 321.1, 1412.35 2.1 M711.67 808.13 C885.29 614.98, 1058.09 415.99, 1412.35 2.1 M722.3 808.09 C978.36 511.5, 1237 214.1, 1422.98 2.06 M722.3 808.09 C955.19 538.48, 1186.96 270.84, 1422.98 2.06 M732.93 808.06 C1006.05 493.38, 1278.91 180.45, 1433.61 2.03 M732.93 808.06 C972.62 522.06, 1216.15 241.72, 1433.61 2.03 M743.56 808.02 C889.42 633.41, 1040.24 459.32, 1444.24 1.99 M743.56 808.02 C979.82 538.1, 1214.16 269.47, 1444.24 1.99 M754.19 807.99 C967.84 560.45, 1187.08 308.23, 1454.87 1.96 M754.19 807.99 C893.79 645.14, 1036.34 481.29, 1454.87 1.96 M764.83 807.95 C903.58 648.25, 1045.75 486.54, 1465.5 1.92 M764.83 807.95 C981.91 560.83, 1195.4 314.64, 1465.5 1.92 M775.46 807.92 C968.03 597.99, 1151.72 382.92, 1476.13 1.89 M775.46 807.92 C918.36 636.09, 1065.91 465.99, 1476.13 1.89 M786.09 807.88 C1057.1 497.43, 1327.24 189.31, 1486.76 1.85 M786.09 807.88 C991.12 578.84, 1191.63 346.64, 1486.76 1.85 M796.72 807.85 C1047.99 515.85, 1297.46 227.56, 1497.39 1.82 M796.72 807.85 C985.94 594.13, 1169.46 382.69, 1497.39 1.82 M807.35 807.82 C1040.41 538.04, 1271.04 272.97, 1508.02 1.79 M807.35 807.82 C948.75 637.95, 1096.58 468.52, 1508.02 1.79 M817.98 807.78 C961.23 637.95, 1109.9 465.77, 1518.65 1.75 M817.98 807.78 C1042.7 550.12, 1271.45 287.44, 1518.65 1.75 M828.61 807.75 C1042.24 559.57, 1260.97 307.39, 1529.28 1.72 M828.61 807.75 C1031.45 573.68, 1237.58 334.88, 1529.28 1.72 M838.58 808.47 C1092.77 516.64, 1345.78 226.66, 1539.91 1.68 M838.58 808.47 C1021.72 589.95, 1211.01 373.74, 1539.91 1.68 M849.21 808.43 C1080.36 542.67, 1308.48 278.92, 1549.88 2.4 M849.21 808.43 C1020.8 605.54, 1192.61 407.01, 1549.88 2.4 M859.84 808.4 C1030.26 607.17, 1207.88 400.67, 1560.51 2.37 M859.84 808.4 C1029.87 618.14, 1197 424.45, 1560.51 2.37 M870.47 808.36 C1063.86 581.39, 1258.22 361.03, 1571.14 2.33 M870.47 808.36 C1048.46 598.5, 1229.69 390.73, 1571.14 2.33 M881.1 808.33 C1057.07 609.42, 1232.36 408.15, 1581.77 2.3 M881.1 808.33 C1067.01 588.33, 1259.88 367.34, 1581.77 2.3 M891.73 808.29 C1153.3 506.04, 1412.46 205.17, 1592.4 2.26 M891.73 808.29 C1046.19 633.83, 1193.2 463.22, 1592.4 2.26 M902.36 808.26 C1059 632.86, 1212.01 457.04, 1603.03 2.23 M902.36 808.26 C1107.35 567.88, 1318.56 325.88, 1603.03 2.23 M912.99 808.23 C1157.63 523.43, 1399.51 245.03, 1613.66 2.2 M912.99 808.23 C1109.31 586.54, 1300.5 366.89, 1613.66 2.2 M923.62 808.19 C1165.78 523.86, 1409.21 243.26, 1624.29 2.16 M923.62 808.19 C1148.05 544.44, 1377.98 281.01, 1624.29 2.16 M934.25 808.16 C1106.96 614.36, 1274.97 417.22, 1634.92 2.13 M934.25 808.16 C1151.31 560.1, 1363.38 316.47, 1634.92 2.13 M944.88 808.12 C1174.22 536.49, 1408.61 269.73, 1645.55 2.09 M944.88 808.12 C1125.29 604.93, 1304.85 398.89, 1645.55 2.09 M955.51 808.09 C1096.37 645.28, 1241.43 478.9, 1656.18 2.06 M955.51 808.09 C1122.95 613.68, 1292.2 418.3, 1656.18 2.06 M966.14 808.05 C1232.79 499.18, 1502.41 191.07, 1666.81 2.02 M966.14 808.05 C1160.63 587.52, 1352.73 365.16, 1666.81 2.02 M976.77 808.02 C1190.76 558.23, 1406.84 307.76, 1677.44 1.99 M976.77 808.02 C1197.47 544.89, 1422.83 286.98, 1677.44 1.99 M987.4 807.98 C1144.13 630.42, 1298.62 454.5, 1688.07 1.95 M987.4 807.98 C1171.31 598.9, 1351.88 390.66, 1688.07 1.95 M998.03 807.95 C1233.37 535.33, 1465.61 269.29, 1698.7 1.92 M998.03 807.95 C1181.04 600.26, 1361.8 391.15, 1698.7 1.92 M1008.66 807.92 C1202.68 579.49, 1399.47 350.91, 1709.33 1.89 M1008.66 807.92 C1259.97 509.81, 1516.22 213.77, 1709.33 1.89 M1019.29 807.88 C1269.17 519.89, 1523.22 231.91, 1719.96 1.85 M1019.29 807.88 C1198.99 598.75, 1382.77 386.94, 1719.96 1.85 M1029.92 807.85 C1255.59 551.74, 1474.99 300.62, 1730.59 1.82 M1029.92 807.85 C1208.99 611.07, 1385.09 407.62, 1730.59 1.82 M1040.55 807.81 C1319.54 489.25, 1597.1 171.78, 1741.22 1.78 M1040.55 807.81 C1204.49 623, 1361.87 441.25, 1741.22 1.78 M1051.18 807.78 C1306.77 505.72, 1567.74 206.07, 1751.85 1.75 M1051.18 807.78 C1227.69 611.15, 1403.34 410.46, 1751.85 1.75 M1061.81 807.74 C1314.53 515.57, 1564.81 224.01, 1762.48 1.71 M1061.81 807.74 C1294.23 546.98, 1523.4 282.13, 1762.48 1.71 M1071.79 808.46 C1240.76 621.57, 1405.83 432.61, 1772.46 2.43 M1071.79 808.46 C1338.16 502.19, 1607.94 191.27, 1772.46 2.43 M1082.42 808.43 C1271.02 586.2, 1463.17 364.23, 1783.09 2.4 M1082.42 808.43 C1245.58 614.21, 1413.26 421.93, 1783.09 2.4 M1093.05 808.39 C1361.76 498.35, 1629.91 193.44, 1793.72 2.36 M1093.05 808.39 C1360.1 505.71, 1620.99 205.14, 1793.72 2.36 M1103.68 808.36 C1301.82 575.05, 1506.97 341.53, 1804.35 2.33 M1103.68 808.36 C1318.04 549.28, 1537.95 296.69, 1804.35 2.33 M1114.31 808.32 C1263.78 639.9, 1411.62 470.25, 1814.98 2.29 M1114.31 808.32 C1256.35 633.6, 1402.74 465.74, 1814.98 2.29 M1124.94 808.29 C1295.9 604.71, 1472.9 401.43, 1825.61 2.26 M1124.94 808.29 C1410.18 487.9, 1688.8 168.28, 1825.61 2.26 M1135.57 808.26 C1297.43 622.42, 1461.91 433.25, 1836.24 2.23 M1135.57 808.26 C1401.41 501.43, 1671.49 191.12, 1836.24 2.23 M1146.2 808.22 C1370.61 548.65, 1597.78 288.46, 1846.87 2.19 M1146.2 808.22 C1297.35 627.5, 1451.86 449.34, 1846.87 2.19 M1156.83 808.19 C1343.47 594.22, 1530.59 378.82, 1857.5 2.16 M1156.83 808.19 C1345.26 588.49, 1535.09 369.34, 1857.5 2.16 M1167.46 808.15 C1440.78 488.35, 1717.71 167.66, 1868.13 2.12 M1167.46 808.15 C1310.87 650.38, 1452.45 489.67, 1868.13 2.12 M1178.09 808.12 C1363.75 597.18, 1540.14 390.32, 1878.76 2.09 M1178.09 808.12 C1416.07 542.9, 1649.6 274.36, 1878.76 2.09 M1188.72 808.08 C1368.62 603.34, 1542.01 404.68, 1889.39 2.05 M1188.72 808.08 C1361.78 615.71, 1531.76 419.4, 1889.39 2.05 M1199.35 808.05 C1368.9 616.46, 1534.27 426.04, 1900.02 2.02 M1199.35 808.05 C1425.15 546.08, 1650.16 287.69, 1900.02 2.02 M1209.98 808.01 C1478.62 493.35, 1750.64 182.83, 1909.34 3.49 M1209.98 808.01 C1449.55 530.87, 1691.44 253.28, 1909.34 3.49 M1220.61 807.98 C1484.52 502.1, 1745.84 204.22, 1917.34 6.48 M1220.61 807.98 C1403.64 587.98, 1590.56 373.68, 1917.34 6.48 M1231.24 807.95 C1390.3 631.56, 1547.08 451.35, 1923.38 11.73 M1231.24 807.95 C1491.85 497.84, 1758.22 193.04, 1923.38 11.73 M1241.87 807.91 C1469.73 543.35, 1704.47 273.3, 1930.07 16.22 M1241.87 807.91 C1444.6 564.06, 1653.03 323.15, 1930.07 16.22 M1252.5 807.88 C1455.17 572.81, 1657.51 339.83, 1932.17 26 M1252.5 807.88 C1474.28 554, 1698 296.46, 1932.17 26 M1263.13 807.84 C1472.38 562.56, 1683.13 316.02, 1934.28 35.77 M1263.13 807.84 C1422.07 620.27, 1582.03 436.86, 1934.28 35.77 M1273.76 807.81 C1436.22 617.64, 1597.16 432.26, 1934.41 47.81 M1273.76 807.81 C1435.93 627.21, 1593.3 444.15, 1934.41 47.81 M1284.39 807.77 C1413.19 658.95, 1546.56 505.48, 1933.89 60.61 M1284.39 807.77 C1522.23 530.24, 1761.55 253.05, 1933.89 60.61 M1294.36 808.49 C1436.9 650.9, 1573.14 495.36, 1934.02 72.65 M1294.36 808.49 C1452.73 619.42, 1615.47 430.61, 1934.02 72.65 M1304.99 808.46 C1441.58 656.89, 1573.97 504.1, 1934.15 84.69 M1304.99 808.46 C1484.92 595.43, 1666.71 387.32, 1934.15 84.69 M1315.62 808.42 C1491.52 607.63, 1659.6 413.56, 1934.29 96.73 M1315.62 808.42 C1448.2 664.65, 1578.19 515.5, 1934.29 96.73 M1326.25 808.39 C1480.28 629.83, 1636.11 450.44, 1934.42 108.77 M1326.25 808.39 C1487.03 624.19, 1650.25 436.37, 1934.42 108.77 M1336.88 808.36 C1457.43 663.88, 1578.83 523.58, 1933.9 121.57 M1336.88 808.36 C1466.08 662.37, 1595.81 512.47, 1933.9 121.57 M1347.51 808.32 C1566.78 552.34, 1791.37 293.92, 1934.03 133.61 M1347.51 808.32 C1511.69 628.53, 1670.15 446.83, 1934.03 133.61 M1358.14 808.29 C1525.91 618.31, 1695.16 422.94, 1934.16 145.65 M1358.14 808.29 C1523.83 621.9, 1689.93 430.65, 1934.16 145.65 M1368.77 808.25 C1549.06 597.37, 1733.98 384.98, 1934.29 157.69 M1368.77 808.25 C1568.4 585.18, 1765.28 359.58, 1934.29 157.69 M1379.4 808.22 C1571.31 591.05, 1763.61 367.44, 1934.43 169.73 M1379.4 808.22 C1549.27 610.43, 1724.4 408.33, 1934.43 169.73 M1390.03 808.18 C1585.1 583.56, 1777.34 365.61, 1933.91 182.53 M1390.03 808.18 C1519.43 664.92, 1645.92 520.47, 1933.91 182.53 M1400.66 808.15 C1548.88 633.39, 1699.91 462.36, 1934.04 194.57 M1400.66 808.15 C1552.09 637.38, 1700.53 465.19, 1934.04 194.57 M1411.29 808.11 C1537.32 665.26, 1663.22 524.63, 1934.17 206.61 M1411.29 808.11 C1600.63 598.29, 1786.42 385.44, 1934.17 206.61 M1421.92 808.08 C1588.36 622.11, 1752.57 435.68, 1934.3 218.65 M1421.92 808.08 C1547.51 661.66, 1675.46 516.31, 1934.3 218.65 M1432.55 808.04 C1558.53 663.15, 1686.69 516.02, 1934.44 230.69 M1432.55 808.04 C1541.12 678.79, 1652.06 551.71, 1934.44 230.69 M1443.18 808.01 C1541.75 687.45, 1645.62 570.66, 1933.91 243.49 M1443.18 808.01 C1630.23 592.11, 1815.71 378.48, 1933.91 243.49 M1453.81 807.98 C1558.45 687.83, 1660.69 571.2, 1934.05 255.53 M1453.81 807.98 C1567.95 675.23, 1681.86 544.04, 1934.05 255.53 M1464.44 807.94 C1655.93 596.56, 1842.55 379.49, 1934.18 267.57 M1464.44 807.94 C1608.69 635.98, 1756.39 466.14, 1934.18 267.57 M1475.07 807.91 C1577.04 696.75, 1676.8 582.96, 1934.31 279.61 M1475.07 807.91 C1606.79 654.54, 1739.82 502.56, 1934.31 279.61 M1485.7 807.87 C1596.86 672.82, 1712.04 542.91, 1934.45 291.65 M1485.7 807.87 C1658.49 613.06, 1831.34 414.31, 1934.45 291.65 M1496.33 807.84 C1617.26 664.2, 1744.53 522.87, 1933.92 304.45 M1496.33 807.84 C1645.27 631.35, 1797.52 456.01, 1933.92 304.45 M1506.96 807.8 C1613.77 684.33, 1725.57 555.29, 1934.06 316.49 M1506.96 807.8 C1593.44 702.9, 1683.24 598.67, 1934.06 316.49 M1517.59 807.77 C1666.65 637.61, 1813.87 466.2, 1934.19 328.53 M1517.59 807.77 C1637.33 676.81, 1753.72 543.36, 1934.19 328.53 M1527.57 808.49 C1687.88 622.1, 1852.09 436.2, 1934.32 340.57 M1527.57 808.49 C1646.13 669.48, 1767.16 529.81, 1934.32 340.57 M1538.2 808.45 C1650.62 680.29, 1759.18 554.09, 1933.8 353.36 M1538.2 808.45 C1632.09 702.14, 1723.87 597.03, 1933.8 353.36 M1548.83 808.42 C1697.08 642.09, 1842.54 472.72, 1933.93 365.41 M1548.83 808.42 C1640.48 704.1, 1732.39 598.97, 1933.93 365.41 M1559.46 808.39 C1635.63 718.27, 1713.06 627.95, 1934.07 377.45 M1559.46 808.39 C1648.68 703.49, 1738.84 600.29, 1934.07 377.45 M1570.09 808.35 C1646.07 716.27, 1724.77 625.61, 1934.2 389.49 M1570.09 808.35 C1680.43 676.76, 1795.71 545.65, 1934.2 389.49 M1580.72 808.32 C1655.16 718.86, 1734.04 631.13, 1934.33 401.53 M1580.72 808.32 C1664.67 713.14, 1749.89 617.12, 1934.33 401.53 M1591.35 808.28 C1674.04 712.28, 1756.19 621.25, 1933.81 414.32 M1591.35 808.28 C1689.52 693.94, 1789.94 579.56, 1933.81 414.32 M1601.98 808.25 C1701.53 692.16, 1797.73 580.82, 1933.94 426.36 M1601.98 808.25 C1676.36 723.42, 1752.63 637.36, 1933.94 426.36 M1612.61 808.21 C1704.78 707.11, 1794.88 603.72, 1934.08 438.41 M1612.61 808.21 C1684.26 723.78, 1758.43 637.45, 1934.08 438.41 M1623.24 808.18 C1724.94 688.73, 1831.59 566.9, 1934.21 450.45 M1623.24 808.18 C1719.34 696.33, 1816.61 583.44, 1934.21 450.45 M1633.87 808.14 C1726.99 699.04, 1816.94 594.07, 1934.34 462.49 M1633.87 808.14 C1719.01 715.68, 1800 621.4, 1934.34 462.49 M1644.5 808.11 C1743.83 695.23, 1845.81 578.81, 1933.82 475.28 M1644.5 808.11 C1723.28 715.77, 1804.05 620.8, 1933.82 475.28 M1655.13 808.07 C1756.66 691.39, 1862.24 575.44, 1933.95 487.32 M1655.13 808.07 C1725.39 728.64, 1795.29 649.23, 1933.95 487.32 M1665.76 808.04 C1731.66 730.58, 1802.1 651.89, 1934.09 499.36 M1665.76 808.04 C1721.21 744.21, 1777.12 680.42, 1934.09 499.36 M1676.39 808.01 C1746.98 729.18, 1812.26 650.67, 1934.22 511.41 M1676.39 808.01 C1751.2 723.82, 1824.46 641.56, 1934.22 511.41 M1687.02 807.97 C1755.47 728.75, 1823.01 647.98, 1934.35 523.45 M1687.02 807.97 C1749.98 731.32, 1812 658.77, 1934.35 523.45 M1697.65 807.94 C1760.21 734.5, 1821.98 665.5, 1933.83 536.24 M1697.65 807.94 C1782.25 709.93, 1869.46 609.63, 1933.83 536.24 M1708.28 807.9 C1799.34 704.01, 1886.3 602.3, 1933.96 548.28 M1708.28 807.9 C1768.33 736.61, 1829.07 665.37, 1933.96 548.28 M1718.91 807.87 C1797.7 717.51, 1882.91 620.05, 1934.1 560.32 M1718.91 807.87 C1762.57 753.92, 1808.54 702.71, 1934.1 560.32 M1729.54 807.83 C1780.74 754.95, 1831.81 695.29, 1934.23 572.36 M1729.54 807.83 C1813.83 714.99, 1895.18 623.12, 1934.23 572.36 M1740.17 807.8 C1807.65 735.42, 1875.14 661.93, 1934.36 584.4 M1740.17 807.8 C1814.14 719.76, 1890.8 634.83, 1934.36 584.4 M1750.8 807.76 C1827.16 722.74, 1896.96 642.71, 1933.84 597.2 M1750.8 807.76 C1796.45 753.05, 1842.75 700.63, 1933.84 597.2 M1760.77 808.48 C1821.24 739.65, 1879.29 671.02, 1933.97 609.24 M1760.77 808.48 C1820.73 734.73, 1885.31 660.1, 1933.97 609.24 M1771.4 808.45 C1830.44 745.84, 1882.64 679.85, 1934.11 621.28 M1771.4 808.45 C1829.7 739.94, 1887.33 673.91, 1934.11 621.28 M1782.03 808.42 C1833.82 746.3, 1890.79 680.29, 1934.24 633.32 M1782.03 808.42 C1826.17 752.96, 1873.45 700.48, 1934.24 633.32 M1792.66 808.38 C1831.38 767.08, 1870.9 725.11, 1934.37 645.36 M1792.66 808.38 C1837.87 760.49, 1878.77 711.46, 1934.37 645.36 M1803.29 808.35 C1832.22 769.13, 1856.84 736.16, 1933.85 658.16 M1803.29 808.35 C1832.68 773.28, 1863.78 739.6, 1933.85 658.16 M1813.92 808.31 C1850.6 769.78, 1890.17 721.16, 1933.98 670.2 M1813.92 808.31 C1858.95 756.43, 1904.74 707.97, 1933.98 670.2 M1824.55 808.28 C1864.76 773.63, 1898.02 728.41, 1934.12 682.24 M1824.55 808.28 C1858.2 769.51, 1890.18 734.16, 1934.12 682.24 M1835.18 808.24 C1865.32 779.91, 1885.36 747.17, 1934.25 694.28 M1835.18 808.24 C1869.66 766.04, 1906.16 724.91, 1934.25 694.28 M1845.81 808.21 C1877.07 778.25, 1902.01 743.73, 1934.38 706.32 M1845.81 808.21 C1876.12 775.21, 1903.58 742.13, 1934.38 706.32 M1856.44 808.17 C1875.71 788.23, 1896.17 764.55, 1933.86 719.12 M1856.44 808.17 C1881.64 778.52, 1902.75 751.56, 1933.86 719.12 M1867.07 808.14 C1896.16 779.71, 1923.04 752.72, 1933.99 731.16 M1867.07 808.14 C1880.76 791.02, 1892.77 776.22, 1933.99 731.16 M1877.7 808.11 C1896.09 782.73, 1920.66 757.64, 1934.13 743.2 M1877.7 808.11 C1900.1 785.01, 1920.5 758.68, 1934.13 743.2 M1888.33 808.07 C1903.52 795.86, 1908.01 782.71, 1934.26 755.24 M1888.33 808.07 C1904.1 788.56, 1919.09 772.55, 1934.26 755.24 M1898.96 808.04 C1911.59 796.29, 1921.07 780.49, 1934.39 767.28 M1898.96 808.04 C1913.32 791.28, 1928.11 775.61, 1934.39 767.28 M1912.22 804.98 C1920.15 799.97, 1924.45 785.04, 1934.52 779.32 M1912.22 804.98 C1923.12 793.75, 1928.39 785.93, 1934.52 779.32" stroke="#ffec99" stroke-width="1" fill="none"></path><path d="M32 0 C769.65 -5.23, 1506.14 -3.19, 1897.58 0 M32 0 C473.18 -2.08, 916.17 -1.05, 1897.58 0 M1897.58 0 C1921.22 -2.29, 1929.31 14.28, 1929.58 32 M1897.58 0 C1917.76 -4.4, 1930.34 14.82, 1929.58 32 M1929.58 32 C1929.75 290.95, 1931.45 549.83, 1929.58 775.01 M1929.58 32 C1933.41 236.51, 1932.59 441.76, 1929.58 775.01 M1929.58 775.01 C1929.66 798.06, 1915.09 805.15, 1897.58 807.01 M1929.58 775.01 C1930.25 795.96, 1919.8 809.45, 1897.58 807.01 M1897.58 807.01 C1342.44 812.32, 789.7 813.57, 32 807.01 M1897.58 807.01 C1481.31 816.91, 1066.02 816, 32 807.01 M32 807.01 C11.38 810.18, 1.51 800.06, 0 775.01 M32 807.01 C8.44 809.72, -2.6 798.06, 0 775.01 M0 775.01 C0.25 503.68, 1.02 233.66, 0 32 M0 775.01 C-4.23 596.37, -3.08 416.01, 0 32 M0 32 C-3.17 12.63, 8.68 -2.91, 32 0 M0 32 C-1.87 13.91, 13.16 3.63, 32 0" stroke="#dfce87" stroke-width="2" fill="none"></path></g><g stroke-linecap="round" transform="translate(68.24483735501121 64.24863657887482) rotate(0 319.606750023299 340.1579124932799)"><path d="M32 0 C243.1 0.23, 453.09 -1.99, 607.21 0 M32 0 C212.72 -2.23, 394.76 -2.84, 607.21 0 M607.21 0 C626.78 -0.8, 636.62 10.66, 639.21 32 M607.21 0 C629.35 2.72, 640.96 12.28, 639.21 32 M639.21 32 C642.93 185.97, 643.58 343.41, 639.21 648.32 M639.21 32 C639.78 228.41, 640.32 423.23, 639.21 648.32 M639.21 648.32 C635.83 672.73, 630.26 678.14, 607.21 680.32 M639.21 648.32 C635.12 666.75, 632.92 676.87, 607.21 680.32 M607.21 680.32 C426.94 676.36, 246.28 675.01, 32 680.32 M607.21 680.32 C468.18 680.16, 330.63 679.45, 32 680.32 M32 680.32 C6.99 681.68, -3.36 666.03, 0 648.32 M32 680.32 C6.79 684.44, -0.12 672.94, 0 648.32 M0 648.32 C1.34 451.22, 0.13 252.49, 0 32 M0 648.32 C-2.08 471.44, -3.15 295.13, 0 32 M0 32 C-0.18 9.45, 10.17 3.04, 32 0 M0 32 C-1.81 12.67, 15.03 0.77, 32 0" stroke="#f08c00" stroke-width="2" fill="none"></path></g><g stroke-linecap="round" transform="translate(747.0120271557341 56.465617548236025) rotate(0 146.42578125 121.24999237060547)"><path d="M32 0 C104.32 -5.15, 180.84 -3.27, 260.85 0 M32 0 C114.21 -2.77, 196.06 -2.95, 260.85 0 M260.85 0 C279.59 -0.01, 293.55 13.04, 292.85 32 M260.85 0 C283.93 1.62, 290.63 15.14, 292.85 32 M292.85 32 C289.41 89.71, 291.16 142.71, 292.85 210.5 M292.85 32 C291.69 95.54, 289.54 160.64, 292.85 210.5 M292.85 210.5 C294.56 229.66, 278.62 239.98, 260.85 242.5 M292.85 210.5 C297.23 228.39, 282.87 240.33, 260.85 242.5 M260.85 242.5 C215.8 240.55, 162.89 243.11, 32 242.5 M260.85 242.5 C195.81 245.09, 129.33 245.94, 32 242.5 M32 242.5 C7.3 238.88, -3.37 235.42, 0 210.5 M32 242.5 C10.55 245.79, 0.94 231.61, 0 210.5 M0 210.5 C-2.73 156.97, -2.97 109.35, 0 32 M0 210.5 C-3.6 156.11, -2.18 98.22, 0 32 M0 32 C-0.5 13.71, 9.09 1.74, 32 0 M0 32 C4.37 11.43, 13.64 2.68, 32 0" stroke="#f08c00" stroke-width="2" fill="none"></path></g><g stroke-linecap="round" transform="translate(741.6695403896357 317.6111544978101) rotate(0 130.33853149414062 121.24999237060547)"><path d="M32 0 C108.11 2.17, 185.39 -1.34, 228.68 0 M32 0 C103.29 -0.05, 175.06 0.35, 228.68 0 M228.68 0 C250.71 2.37, 262.2 12.07, 260.68 32 M228.68 0 C247.79 4.47, 261.05 7.59, 260.68 32 M260.68 32 C260.43 73.04, 261.98 110.76, 260.68 210.5 M260.68 32 C259.8 104.78, 262.35 173.4, 260.68 210.5 M260.68 210.5 C257.12 229.31, 253.82 239.51, 228.68 242.5 M260.68 210.5 C261.36 229.66, 245.85 245.03, 228.68 242.5 M228.68 242.5 C164.75 239.8, 104.95 235.88, 32 242.5 M228.68 242.5 C153.39 242.55, 80.11 240.06, 32 242.5 M32 242.5 C7.29 246.09, -0.1 234.69, 0 210.5 M32 242.5 C11.61 242.28, -0.5 234.99, 0 210.5 M0 210.5 C-0.27 154.23, 0.77 96.17, 0 32 M0 210.5 C2.6 156.29, 2.44 104.83, 0 32 M0 32 C-1.57 12.41, 14.46 0.67, 32 0 M0 32 C2.98 13.35, 11.3 -1.2, 32 0" stroke="#f08c00" stroke-width="2" fill="none"></path></g><g stroke-linecap="round" transform="translate(749.4903209433413 585.7999810260319) rotate(0 115.52733612060547 79.75)"><path d="M32 0 C75.3 -3.51, 116.47 -0.46, 199.05 0 M32 0 C79.31 0.66, 129.57 1.85, 199.05 0 M199.05 0 C221.91 1.4, 229.12 14.55, 231.05 32 M199.05 0 C220.76 -3.08, 227.64 9.45, 231.05 32 M231.05 32 C233.63 65.36, 235.35 103.26, 231.05 127.5 M231.05 32 C230.29 59.49, 227.66 87.9, 231.05 127.5 M231.05 127.5 C234.86 145.84, 220.99 157.61, 199.05 159.5 M231.05 127.5 C226.9 151.37, 220.98 163.44, 199.05 159.5 M199.05 159.5 C160.3 155.82, 125.76 159.46, 32 159.5 M199.05 159.5 C149.92 158.83, 102.46 162.43, 32 159.5 M32 159.5 C10.56 162.36, 0.82 148.64, 0 127.5 M32 159.5 C10.17 162.66, 1.23 148.51, 0 127.5 M0 127.5 C0.76 105.8, 0.26 76.39, 0 32 M0 127.5 C-0.17 93.47, -0.7 57.27, 0 32 M0 32 C3.8 11.33, 13.25 2.33, 32 0 M0 32 C0.64 9.47, 7.49 -2.88, 32 0" stroke="#f08c00" stroke-width="2" fill="none"></path></g><g stroke-linecap="round" transform="translate(1077.6962706893366 68.14805655253696) rotate(0 155.3059844970703 100.5)"><path d="M32 0 C108.19 3.18, 179.68 2.11, 278.61 0 M32 0 C101.33 0.98, 170.71 0.59, 278.61 0 M278.61 0 C298.02 3.89, 310.93 7.99, 310.61 32 M278.61 0 C296.53 -1.21, 313.75 11.47, 310.61 32 M310.61 32 C316.11 76.59, 312.12 115.96, 310.61 169 M310.61 32 C310 82.38, 313.69 133.78, 310.61 169 M310.61 169 C311.21 188.44, 296.33 203.2, 278.61 201 M310.61 169 C311.21 194.27, 296.64 198.26, 278.61 201 M278.61 201 C206.27 197.04, 128.57 194.13, 32 201 M278.61 201 C194.85 198.81, 113.81 198.51, 32 201 M32 201 C11.49 200.81, -0.44 193.08, 0 169 M32 201 C11.9 200.67, -2.22 189.74, 0 169 M0 169 C-0.34 117.8, 2.54 72.46, 0 32 M0 169 C-0.44 132.94, 2.24 95.48, 0 32 M0 32 C2.59 13, 11.22 -1.04, 32 0 M0 32 C-3.18 7.79, 11.76 -3.9, 32 0" stroke="#f08c00" stroke-width="2" fill="none"></path></g><g stroke-linecap="round" transform="translate(1033.8953595462897 331.10710417537183) rotate(0 216.2239532470703 100.5)"><path d="M32 0 C109.96 -0.57, 187.86 -1.08, 400.45 0 M32 0 C142.92 -2.27, 252.31 -1.5, 400.45 0 M400.45 0 C422.1 -2.68, 429.48 9.61, 432.45 32 M400.45 0 C424.92 0.8, 433.31 13.24, 432.45 32 M432.45 32 C435.13 63.5, 438.24 103.48, 432.45 169 M432.45 32 C431.91 64.16, 430.31 98.37, 432.45 169 M432.45 169 C428.83 192.54, 422.3 204.42, 400.45 201 M432.45 169 C429.14 187.59, 421.93 200.26, 400.45 201 M400.45 201 C324.42 198.56, 250.03 198.75, 32 201 M400.45 201 C323.21 205.98, 246.29 205.03, 32 201 M32 201 C10.23 203.75, 1.07 190.05, 0 169 M32 201 C8.45 200.4, 2.38 190.92, 0 169 M0 169 C2.88 119.68, -1.23 70.21, 0 32 M0 169 C2.98 117.81, 2.37 67.13, 0 32 M0 32 C0.55 9.62, 7.9 -2.5, 32 0 M0 32 C1.09 6.77, 15.04 4.24, 32 0" stroke="#f08c00" stroke-width="2" fill="none"></path></g><g stroke-linecap="round" transform="translate(1465.564967189124 85.27103520601509) rotate(0 173.8606719970703 79.75)"><path d="M32 0 C113.25 -0.06, 195.71 2.44, 315.72 0 M32 0 C133.19 -0.04, 235.97 -2.53, 315.72 0 M315.72 0 C334.08 -1.05, 350.45 11.36, 347.72 32 M315.72 0 C337.92 2.58, 345.64 15.23, 347.72 32 M347.72 32 C350.78 64.55, 345.53 90.12, 347.72 127.5 M347.72 32 C349.84 53.68, 347.73 78.35, 347.72 127.5 M347.72 127.5 C348.24 152.26, 334.18 157.12, 315.72 159.5 M347.72 127.5 C347.87 148.09, 332.7 162.88, 315.72 159.5 M315.72 159.5 C232.66 152.97, 144.78 152.96, 32 159.5 M315.72 159.5 C205.48 162.51, 94.44 163.63, 32 159.5 M32 159.5 C11.74 159.22, -1.93 148.31, 0 127.5 M32 159.5 C13.05 160.09, 2.7 148.85, 0 127.5 M0 127.5 C-2.6 105.55, 1.66 83.03, 0 32 M0 127.5 C-0.52 95.86, -1.54 61.37, 0 32 M0 32 C-2.76 8.16, 11.62 -3.39, 32 0 M0 32 C4.37 14.91, 6.83 4.4, 32 0" stroke="#f08c00" stroke-width="2" fill="none"></path></g><g stroke-linecap="round" transform="translate(1039.9524655228022 599.2959383329883) rotate(0 216.67970275878906 59)"><path d="M29.5 0 C125.23 3.39, 222.42 3.89, 403.86 0 M29.5 0 C155.05 -5.25, 279.5 -4.75, 403.86 0 M403.86 0 C426.26 0.7, 434.11 12.07, 433.36 29.5 M403.86 0 C421.44 4.56, 434.42 9.8, 433.36 29.5 M433.36 29.5 C432.09 38.64, 431.74 58.71, 433.36 88.5 M433.36 29.5 C431.73 43.89, 433.79 57.78, 433.36 88.5 M433.36 88.5 C430.49 105.78, 423.65 117.36, 403.86 118 M433.36 88.5 C429 111.54, 423.36 117.27, 403.86 118 M403.86 118 C323.8 112.11, 250.34 114.1, 29.5 118 M403.86 118 C264.65 118.62, 126.02 117.69, 29.5 118 M29.5 118 C7.91 117.48, 2.07 108.68, 0 88.5 M29.5 118 C12.53 118.01, -3.47 111.49, 0 88.5 M0 88.5 C3.4 69.49, 2.1 57.42, 0 29.5 M0 88.5 C-0.49 69.3, -2.15 49.88, 0 29.5 M0 29.5 C0.95 6.44, 13.63 3.69, 29.5 0 M0 29.5 C-3.83 14.23, 10.08 0.97, 29.5 0" stroke="#f08c00" stroke-width="2" fill="none"></path></g><g stroke-linecap="round" transform="translate(1487.041657575162 606.5499810260319) rotate(0 207.9427032470703 59)"><path d="M29.5 0 C114.92 0.18, 198.21 -2.03, 386.39 0 M29.5 0 C170.29 2.71, 313.85 3.27, 386.39 0 M386.39 0 C406.8 2.24, 414.07 13.8, 415.89 29.5 M386.39 0 C407.11 -0.03, 411.99 13.37, 415.89 29.5 M415.89 29.5 C412.72 53.53, 412.25 70.54, 415.89 88.5 M415.89 29.5 C415.08 46.12, 413.38 58.13, 415.89 88.5 M415.89 88.5 C416.01 107.52, 402.26 120.94, 386.39 118 M415.89 88.5 C415.72 107.43, 401.82 119.57, 386.39 118 M386.39 118 C311.62 114.09, 234.11 114.68, 29.5 118 M386.39 118 C281.39 121.04, 175.09 120.96, 29.5 118 M29.5 118 C11.9 118.51, 2.35 108.18, 0 88.5 M29.5 118 C6.36 121.32, -0.2 106.77, 0 88.5 M0 88.5 C0.84 75.33, -0.23 57.16, 0 29.5 M0 88.5 C-1.55 66.11, 0.31 44.53, 0 29.5 M0 29.5 C3.8 13.52, 6.5 3.82, 29.5 0 M0 29.5 C0.24 10.8, 9.7 2.63, 29.5 0" stroke="#f08c00" stroke-width="2" fill="none"></path></g><g stroke-linecap="round" transform="translate(1512.2439704668964 342.7895508090673) rotate(0 184.75259399414062 79.75)"><path d="M32 0 C129.99 -3.08, 228.76 -1.45, 337.51 0 M32 0 C104.2 1.42, 174.7 1.98, 337.51 0 M337.51 0 C357.02 3.97, 370.42 10.64, 369.51 32 M337.51 0 C354.94 3.54, 371.47 8.17, 369.51 32 M369.51 32 C365.31 52.74, 366.41 68.68, 369.51 127.5 M369.51 32 C368.31 64.72, 369.81 99.5, 369.51 127.5 M369.51 127.5 C365.72 151.77, 358.69 158.86, 337.51 159.5 M369.51 127.5 C365.27 150.4, 354.97 155.34, 337.51 159.5 M337.51 159.5 C273.68 159.98, 205.57 159.07, 32 159.5 M337.51 159.5 C224.19 159, 113.02 159.37, 32 159.5 M32 159.5 C13.02 159.51, -3.02 151.72, 0 127.5 M32 159.5 C10.46 158.1, -0.57 152.33, 0 127.5 M0 127.5 C-0.16 105.19, 1.5 78.27, 0 32 M0 127.5 C1.8 99.64, 3.22 77.02, 0 32 M0 32 C-3.33 14.49, 10.88 0.84, 32 0 M0 32 C-0.14 13.3, 11.7 -4.13, 32 0" stroke="#f08c00" stroke-width="2" fill="none"></path></g><g stroke-linecap="round"><g transform="translate(68.24483735501121 139.08335933401605) rotate(0 319.04329005175185 0.42371344864368155)"><path d="M-1.35 2.72 C105.04 2.24, 533.02 -1.3, 639.44 -1.87 M3.11 1.73 C109.06 1.48, 530.7 0.7, 637.32 0.74" stroke="#f08c00" stroke-width="1" fill="none"></path></g></g><mask></mask><g stroke-linecap="round"><g transform="translate(68.24483735501121 727.9345411175204) rotate(0 319.65352606006815 0.785573681041285)"><path d="M0.22 -1.87 C106.64 -2.45, 530.32 -1.13, 637.13 -0.74 M-3.1 3.28 C104.32 4.31, 535.16 2.39, 642.41 2.49" stroke="#f08c00" stroke-width="1" fill="none"></path></g></g><mask></mask><g stroke-linecap="round"><g transform="translate(747.0120271557341 105.9656099188415) rotate(0 146.34178619086742 -1.8915450493842485)"><path d="M-2.08 -0.74 C47.01 -0.34, 245.52 0.1, 294.76 0.49 M1.99 -3.61 C50.86 -3.96, 245.25 -4.34, 293.56 -4.26" stroke="#f08c00" stroke-width="1" fill="none"></path></g></g><mask></mask><g stroke-linecap="round"><g transform="translate(747.0120271557341 287.9656099188415) rotate(0 146.44159874387086 -0.5139640913165096)"><path d="M1.91 0.49 C51.16 0.87, 245.1 1.19, 293.38 1.57 M-0.49 -1.72 C48.61 -2.08, 243.16 -2.67, 291.42 -2.59" stroke="#f08c00" stroke-width="1" fill="none"></path></g></g><mask></mask><g stroke-linecap="round"><g transform="translate(741.6695327602412 367.1111468684156) rotate(0 128.3868415016681 0.9609169732338962)"><path d="M0.53 1.57 C43.44 1.95, 215.94 3.04, 259.41 2.78 M-2.63 -0.05 C39.62 -0.42, 212.73 -1.25, 256.48 -0.73" stroke="#f08c00" stroke-width="1" fill="none"></path></g></g><mask></mask><g stroke-linecap="round"><g transform="translate(741.6695327602412 549.1111468684155) rotate(0 130.0249880760908 1.847470611213268)"><path d="M-1.27 2.78 C42.2 2.51, 218.06 0.08, 261.32 -0.02 M3.24 1.81 C46.34 1.89, 216 4.27, 259.43 3.6" stroke="#f08c00" stroke-width="1" fill="none"></path></g></g><mask></mask><g stroke-linecap="round"><g transform="translate(749.4903133139468 635.2999810260319) rotate(0 115.67219233468177 -0.16459103539801845)"><path d="M0.64 -0.02 C38.97 -0.12, 190.08 2.4, 228.68 2.15 M-2.45 -2.5 C36.84 -2.18, 194.87 -2.23, 233.8 -1.69" stroke="#f08c00" stroke-width="1" fill="none"></path></g></g><mask></mask><g stroke-linecap="round"><g transform="translate(749.4903133139468 734.2999810260319) rotate(0 114.93980912864208 0.3162924319505578)"><path d="M-2.37 2.15 C36.23 1.9, 193.76 -0.87, 232.25 -1.52 M1.54 0.86 C39.81 0.95, 191.91 1.36, 230.66 1.28" stroke="#f08c00" stroke-width="1" fill="none"></path></g></g><mask></mask><g stroke-linecap="round"><g transform="translate(1077.6962706893366 117.64805655253696) rotate(0 155.78491976693272 0.9809931836105932)"><path d="M1.2 -1.52 C52.95 -2.17, 256.11 -1.67, 308.12 -1.77 M-1.6 3.82 C51.21 3.3, 260.75 1.56, 313.17 0.9" stroke="#f08c00" stroke-width="1" fill="none"></path></g></g><mask></mask><g stroke-linecap="round"><g transform="translate(1077.6962706893366 258.14805655253696) rotate(0 155.3913290947676 0.6829302887623427)"><path d="M-2.49 -1.77 C49.52 -1.86, 261.02 -2.17, 313.28 -2.1 M1.35 3.45 C53.12 3.78, 261.13 0.79, 312.48 0.4" stroke="#f08c00" stroke-width="1" fill="none"></path></g></g><mask></mask><g stroke-linecap="round"><g transform="translate(1033.8953595462897 380.60710417537183) rotate(0 216.76543794102966 0.5148289814976863)"><path d="M2.66 -2.1 C75.22 -2.02, 361.66 -1.93, 432.87 -1.32 M0.67 2.94 C73.12 3.53, 358.4 2.6, 430.85 1.59" stroke="#f08c00" stroke-width="1" fill="none"></path></g></g><mask></mask><g stroke-linecap="round"><g transform="translate(1033.8953595462897 521.1071041753719) rotate(0 216.07245421364905 0.7501577214896571)"><path d="M0.42 -1.32 C71.63 -0.72, 357.85 0.92, 429.92 1.54 M-2.8 4.13 C69.01 4.11, 362.61 -1.64, 434.94 -2.63" stroke="#f08c00" stroke-width="1" fill="none"></path></g></g><mask></mask><g stroke-linecap="round"><g transform="translate(1465.564967189124 134.77103520601509) rotate(0 172.77577151954176 0.6273192872737354)"><path d="M-2.53 1.54 C55.41 2.16, 290.04 2.93, 348.08 2.4 M1.29 -0.09 C58.86 -0.09, 287.68 -1.42, 346.04 -1.32" stroke="#f08c00" stroke-width="1" fill="none"></path></g></g><mask></mask><g stroke-linecap="round"><g transform="translate(1465.564967189124 233.77103520601514) rotate(0 174.06626501992346 0.36315465271472647)"><path d="M0.36 2.4 C58.4 1.86, 287.8 -1.19, 345.71 -1.67 M-2.89 1.23 C56.27 0.88, 292.86 0.86, 351.02 1.05" stroke="#f08c00" stroke-width="1" fill="none"></path></g></g><mask></mask><g stroke-linecap="round"><g transform="translate(1039.9524655228022 648.7959383329883) rotate(0 215.71794395148757 1.194650141708081)"><path d="M-2.01 -1.67 C70.17 -2.14, 361.33 -1.07, 433.45 -0.45 M2.09 3.6 C73.87 4.79, 358.92 3.93, 431.26 2.94" stroke="#f08c00" stroke-width="1" fill="none"></path></g></g><mask></mask><g stroke-linecap="round"><g transform="translate(1039.9524655228022 706.2959383329883) rotate(0 216.1804493613541 -0.553364451602107)"><path d="M0.09 -0.45 C72.21 0.17, 358.51 2.06, 430.71 2.06 M-3.31 -3.16 C69.82 -3.16, 363.22 -2.77, 435.67 -1.84" stroke="#f08c00" stroke-width="1" fill="none"></path></g></g><mask></mask><g stroke-linecap="round"><g transform="translate(1487.041657575162 656.0499810260319) rotate(0 206.5661832779646 1.3230637653306871)"><path d="M-2.65 2.06 C66.63 2.06, 346.46 -0.26, 415.78 -0.45 M1.1 0.7 C70 1.19, 343.89 3.73, 413.49 2.94" stroke="#f08c00" stroke-width="1" fill="none"></path></g></g><mask></mask><g stroke-linecap="round"><g transform="translate(1487.041657575162 713.5499810260319) rotate(0 207.35572745278478 -1.4832858167167444)"><path d="M-0.1 -0.45 C69.23 -0.63, 344.37 1.3, 413.31 0.95 M-3.6 -3.16 C66.8 -4.4, 347.86 -3.93, 418.31 -3.54" stroke="#f08c00" stroke-width="1" fill="none"></path></g></g><mask></mask><g stroke-linecap="round"><g transform="translate(1512.2439704668964 392.2895508090673) rotate(0 184.84854264445605 -0.7969217578370866)"><path d="M-2.58 0.95 C58.63 0.61, 305.53 -2.79, 367.15 -2.53 M1.22 -1 C63.29 -1.05, 310.36 -0.17, 372.27 -0.28" stroke="#f08c00" stroke-width="1" fill="none"></path></g></g><mask></mask><g stroke-linecap="round"><g transform="translate(1512.2439704668964 491.2895508090673) rotate(0 184.9554885882884 -0.011162325739860535)"><path d="M-2.35 -2.53 C59.27 -2.27, 305.18 1.75, 367.14 2.51 M1.56 2.26 C64.27 1.71, 311.26 -0.35, 372.27 -1.14" stroke="#f08c00" stroke-width="1" fill="none"></path></g></g><mask></mask><g transform="translate(164.39909225579765 87.76881402832879) rotate(0 207.46593649349126 18.89766308676201)"><text x="0" y="26.48696458240564" font-family="Virgil, Segoe UI Emoji" font-size="30.23626093881923px" fill="#f08c00" text-anchor="start" style="white-space: pre;" direction="ltr" dominant-baseline="alphabetic">FishWatch Key Requirements</text></g><g transform="translate(79.58343520706853 152.6896767564847) rotate(0 262.7377716618302 18.89766308676201)"><text x="0" y="26.48696458240564" font-family="Virgil, Segoe UI Emoji" font-size="30.23626093881923px" fill="#f08c00" text-anchor="start" style="white-space: pre;" direction="ltr" dominant-baseline="alphabetic">+Real-time water quality monitoring</text></g><g transform="translate(79.58343520706853 215.42991820453457) rotate(0 235.10185407766076 18.897663086762016)"><text x="0" y="26.48696458240564" font-family="Virgil, Segoe UI Emoji" font-size="30.23626093881923px" fill="#f08c00" text-anchor="start" style="white-space: pre;" direction="ltr" dominant-baseline="alphabetic">+Underwater visual assessment</text></g><g transform="translate(79.58343520706853 278.1701596525845) rotate(0 254.347227706057 18.897663086762016)"><text x="0" y="26.48696458240564" font-family="Virgil, Segoe UI Emoji" font-size="30.23626093881923px" fill="#f08c00" text-anchor="start" style="white-space: pre;" direction="ltr" dominant-baseline="alphabetic">+Fish health and lifecycle tracking</text></g><g transform="translate(79.58343520706853 340.91040110063443) rotate(0 195.80984775146442 18.897663086762016)"><text x="0" y="26.48696458240564" font-family="Virgil, Segoe UI Emoji" font-size="30.23626093881923px" fill="#f08c00" text-anchor="start" style="white-space: pre;" direction="ltr" dominant-baseline="alphabetic">+Customizable dashboards</text></g><g transform="translate(79.58343520706853 403.6506425486843) rotate(0 229.41742225736343 18.897663086762016)"><text x="0" y="26.48696458240564" font-family="Virgil, Segoe UI Emoji" font-size="30.23626093881923px" fill="#f08c00" text-anchor="start" style="white-space: pre;" direction="ltr" dominant-baseline="alphabetic">+Alerts &amp; notifications system</text></g><g transform="translate(79.58343520706853 466.3908839967342) rotate(0 177.70697021484375 18.89766308676201)"><text x="0" y="26.48696458240564" font-family="Virgil, Segoe UI Emoji" font-size="30.23626093881923px" fill="#f08c00" text-anchor="start" style="white-space: pre;" direction="ltr" dominant-baseline="alphabetic">+Harvest data analysis</text></g><g transform="translate(79.58343520706853 529.1311254447842) rotate(0 151.43816019902727 18.89766308676201)"><text x="0" y="26.48696458240564" font-family="Virgil, Segoe UI Emoji" font-size="30.23626093881923px" fill="#f08c00" text-anchor="start" style="white-space: pre;" direction="ltr" dominant-baseline="alphabetic">+Cross-farm insights</text></g><g transform="translate(79.58343520706853 591.871366892834) rotate(0 163.1814422607422 18.89766308676201)"><text x="0" y="26.48696458240564" font-family="Virgil, Segoe UI Emoji" font-size="30.23626093881923px" fill="#f08c00" text-anchor="start" style="white-space: pre;" direction="ltr" dominant-baseline="alphabetic">+Hardware integration</text></g><g transform="translate(79.58343520706853 654.611608340884) rotate(0 244.33900964877108 18.89766308676201)"><text x="0" y="26.48696458240564" font-family="Virgil, Segoe UI Emoji" font-size="30.23626093881923px" fill="#f08c00" text-anchor="start" style="white-space: pre;" direction="ltr" dominant-baseline="alphabetic">+Connectivity in remote locations</text></g><g transform="translate(754.5120271557341 61.465609918841494) rotate(0 111.52989959716797 12.5)"><text x="0" y="17.52" font-family="Virgil, Segoe UI Emoji" font-size="20px" fill="#f08c00" text-anchor="start" style="white-space: pre;" direction="ltr" dominant-baseline="alphabetic">WaterQualityMonitoring</text></g><g transform="translate(754.5120271557341 114.9656099188415) rotate(0 16.689987182617188 12.5)"><text x="0" y="17.52" font-family="Virgil, Segoe UI Emoji" font-size="20px" fill="#f08c00" text-anchor="start" style="white-space: pre;" direction="ltr" dominant-baseline="alphabetic">+pH</text></g><g transform="translate(754.5120271557341 156.4656099188415) rotate(0 68.5599365234375 12.5)"><text x="0" y="17.52" font-family="Virgil, Segoe UI Emoji" font-size="20px" fill="#f08c00" text-anchor="start" style="white-space: pre;" direction="ltr" dominant-baseline="alphabetic">+Temperature</text></g><g transform="translate(754.5120271557341 197.9656099188415) rotate(0 41.01996612548828 12.5)"><text x="0" y="17.52" font-family="Virgil, Segoe UI Emoji" font-size="20px" fill="#f08c00" text-anchor="start" style="white-space: pre;" direction="ltr" dominant-baseline="alphabetic">+Salinity</text></g><g transform="translate(754.5120271557341 239.4656099188415) rotate(0 70.82994079589844 12.5)"><text x="0" y="17.52" font-family="Virgil, Segoe UI Emoji" font-size="20px" fill="#f08c00" text-anchor="start" style="white-space: pre;" direction="ltr" dominant-baseline="alphabetic">+Oxygen levels</text></g><g transform="translate(770.725524886706 322.6111468684156) rotate(0 83.6399154663086 12.5)"><text x="0" y="17.52" font-family="Virgil, Segoe UI Emoji" font-size="20px" fill="#f08c00" text-anchor="start" style="white-space: pre;" direction="ltr" dominant-baseline="alphabetic">VisualAssessment</text></g><g transform="translate(749.1695327602412 376.1111468684156) rotate(0 106.58992767333984 12.5)"><text x="0" y="17.52" font-family="Virgil, Segoe UI Emoji" font-size="20px" fill="#f08c00" text-anchor="start" style="white-space: pre;" direction="ltr" dominant-baseline="alphabetic">+Underwater cameras</text></g><g transform="translate(749.1695327602412 417.6111468684156) rotate(0 59.849952697753906 12.5)"><text x="0" y="17.52" font-family="Virgil, Segoe UI Emoji" font-size="20px" fill="#f08c00" text-anchor="start" style="white-space: pre;" direction="ltr" dominant-baseline="alphabetic">+Fish health</text></g><g transform="translate(749.1695327602412 459.1111468684156) rotate(0 94.51991271972656 12.5)"><text x="0" y="17.52" font-family="Virgil, Segoe UI Emoji" font-size="20px" fill="#f08c00" text-anchor="start" style="white-space: pre;" direction="ltr" dominant-baseline="alphabetic">+Activity monitoring</text></g><g transform="translate(749.1695327602412 500.6111468684156) rotate(0 99.58991241455078 12.5)"><text x="0" y="17.52" font-family="Virgil, Segoe UI Emoji" font-size="20px" fill="#f08c00" text-anchor="start" style="white-space: pre;" direction="ltr" dominant-baseline="alphabetic">+Parasite detection</text></g><g transform="translate(772.3874538168765 590.7999810260319) rotate(0 71.0299301147461 12.5)"><text x="0" y="17.52" font-family="Virgil, Segoe UI Emoji" font-size="20px" fill="#f08c00" text-anchor="start" style="white-space: pre;" direction="ltr" dominant-baseline="alphabetic">FishRecognition</text></g><g transform="translate(756.9903133139468 644.2999810260319) rotate(0 88.20992279052734 12.5)"><text x="0" y="17.52" font-family="Virgil, Segoe UI Emoji" font-size="20px" fill="#f08c00" text-anchor="start" style="white-space: pre;" direction="ltr" dominant-baseline="alphabetic">+Health monitoring</text></g><g transform="translate(756.9903133139468 685.7999810260319) rotate(0 90.96992492675781 12.5)"><text x="0" y="17.52" font-family="Virgil, Segoe UI Emoji" font-size="20px" fill="#f08c00" text-anchor="start" style="white-space: pre;" direction="ltr" dominant-baseline="alphabetic">+Lifecycle tracking</text></g><g transform="translate(1132.1754348128718 73.14805655253696) rotate(0 87.18992614746094 12.5)"><text x="0" y="17.52" font-family="Virgil, Segoe UI Emoji" font-size="20px" fill="#f08c00" text-anchor="start" style="white-space: pre;" direction="ltr" dominant-baseline="alphabetic">DataVisualization</text></g><g transform="translate(1085.1962706893366 126.64805655253696) rotate(0 129.51988220214844 12.5)"><text x="0" y="17.52" font-family="Virgil, Segoe UI Emoji" font-size="20px" fill="#f08c00" text-anchor="start" style="white-space: pre;" direction="ltr" dominant-baseline="alphabetic">+Customizable dashboards</text></g><g transform="translate(1085.1962706893366 168.14805655253696) rotate(0 82.57994079589844 12.5)"><text x="0" y="17.52" font-family="Virgil, Segoe UI Emoji" font-size="20px" fill="#f08c00" text-anchor="start" style="white-space: pre;" direction="ltr" dominant-baseline="alphabetic">+Collected Data</text></g><g transform="translate(1085.1962706893366 209.64805655253696) rotate(0 45.01995849609375 12.5)"><text x="0" y="17.52" font-family="Virgil, Segoe UI Emoji" font-size="20px" fill="#f08c00" text-anchor="start" style="white-space: pre;" direction="ltr" dominant-baseline="alphabetic">+Insights</text></g><g transform="translate(1215.64665654336 336.10710417537183) rotate(0 30.03997039794922 12.5)"><text x="0" y="17.52" font-family="Virgil, Segoe UI Emoji" font-size="20px" fill="#f08c00" text-anchor="start" style="white-space: pre;" direction="ltr" dominant-baseline="alphabetic">Alerts</text></g><g transform="translate(1041.3953595462897 389.60710417537183) rotate(0 120.82988739013672 12.5)"><text x="0" y="17.52" font-family="Virgil, Segoe UI Emoji" font-size="20px" fill="#f08c00" text-anchor="start" style="white-space: pre;" direction="ltr" dominant-baseline="alphabetic">+Threshold-based alerts</text></g><g transform="translate(1041.3953595462897 431.10710417537183) rotate(0 186.87982177734375 12.5)"><text x="0" y="17.52" font-family="Virgil, Segoe UI Emoji" font-size="20px" fill="#f08c00" text-anchor="start" style="white-space: pre;" direction="ltr" dominant-baseline="alphabetic">+Notifications for critical parameters</text></g><g transform="translate(1041.3953595462897 472.60710417537183) rotate(0 112.84991455078125 12.5)"><text x="0" y="17.52" font-family="Virgil, Segoe UI Emoji" font-size="20px" fill="#f08c00" text-anchor="start" style="white-space: pre;" direction="ltr" dominant-baseline="alphabetic">+Weather event alerts</text></g><g transform="translate(1566.307154689124 90.27103520601509) rotate(0 65.05995178222656 12.5)"><text x="0" y="17.52" font-family="Virgil, Segoe UI Emoji" font-size="20px" fill="#f08c00" text-anchor="start" style="white-space: pre;" direction="ltr" dominant-baseline="alphabetic">DataAnalysis</text></g><g transform="translate(1473.064967189124 143.77103520601509) rotate(0 123.2898941040039 12.5)"><text x="0" y="17.52" font-family="Virgil, Segoe UI Emoji" font-size="20px" fill="#f08c00" text-anchor="start" style="white-space: pre;" direction="ltr" dominant-baseline="alphabetic">+Tracking harvested fish</text></g><g transform="translate(1473.064967189124 185.27103520601509) rotate(0 149.16986083984375 12.5)"><text x="0" y="17.52" font-family="Virgil, Segoe UI Emoji" font-size="20px" fill="#f08c00" text-anchor="start" style="white-space: pre;" direction="ltr" dominant-baseline="alphabetic">+Contributing factors analysis</text></g><g transform="translate(1212.6347737198237 604.2959383329883) rotate(0 38.76995849609375 12.5)"><text x="0" y="17.52" font-family="Virgil, Segoe UI Emoji" font-size="20px" fill="#f08c00" text-anchor="start" style="white-space: pre;" direction="ltr" dominant-baseline="alphabetic">Insights</text></g><g transform="translate(1047.4524655228022 657.7959383329883) rotate(0 181.1898193359375 12.5)"><text x="0" y="17.52" font-family="Virgil, Segoe UI Emoji" font-size="20px" fill="#f08c00" text-anchor="start" style="white-space: pre;" direction="ltr" dominant-baseline="alphabetic">+Cross-farm operational optimization</text></g><g transform="translate(1614.997384198697 611.5499810260319) rotate(0 66.5799331665039 12.5)"><text x="0" y="17.52" font-family="Virgil, Segoe UI Emoji" font-size="20px" fill="#f08c00" text-anchor="start" style="white-space: pre;" direction="ltr" dominant-baseline="alphabetic">SystemAccess</text></g><g transform="translate(1494.541657575162 665.0499810260319) rotate(0 175.74984741210938 12.5)"><text x="0" y="17.52" font-family="Virgil, Segoe UI Emoji" font-size="20px" fill="#f08c00" text-anchor="start" style="white-space: pre;" direction="ltr" dominant-baseline="alphabetic">+Integration with existing hardware</text></g><g transform="translate(1622.9080253375018 347.7895508090673) rotate(0 57.409942626953125 12.5)"><text x="0" y="17.52" font-family="Virgil, Segoe UI Emoji" font-size="20px" fill="#f08c00" text-anchor="start" style="white-space: pre;" direction="ltr" dominant-baseline="alphabetic">Connectivity</text></g><g transform="translate(1519.7439704668964 401.2895508090673) rotate(0 151.91986083984375 12.5)"><text x="0" y="17.52" font-family="Virgil, Segoe UI Emoji" font-size="20px" fill="#f08c00" text-anchor="start" style="white-space: pre;" direction="ltr" dominant-baseline="alphabetic">+Reliable connectivity solutions</text></g><g transform="translate(1519.7439704668964 442.7895508090673) rotate(0 137.3398895263672 12.5)"><text x="0" y="17.52" font-family="Virgil, Segoe UI Emoji" font-size="20px" fill="#f08c00" text-anchor="start" style="white-space: pre;" direction="ltr" dominant-baseline="alphabetic">+Remote location challenges</text></g></svg>