<svg version="1.1" xmlns="http://www.w3.org/2000/svg" viewBox="0 0 2178.0777011805067 1527.0273694798339" width="4356.155402361013" height="3054.0547389596677">
  <!-- svg-source:excalidraw -->
  
  <defs>
    <style class="style-fonts">
      @font-face {
        font-family: "Virgil";
        src: url("https://excalidraw.com/Virgil.woff2");
      }
      @font-face {
        font-family: "Cascadia";
        src: url("https://excalidraw.com/Cascadia.woff2");
      }
      @font-face {
        font-family: "Assistant";
        src: url("https://app.excalidraw.com//dist/excalidraw-assets/Assistant-Regular.woff2");
      }
    </style>
    
  </defs>
  <g stroke-opacity="0.1" fill-opacity="0.1" stroke-linecap="round" transform="translate(10 10) rotate(0 1079.0388505902533 753.5136847399169)"><path d="M7.86 8.16 C7.86 8.16, 7.86 8.16, 7.86 8.16 M7.86 8.16 C7.86 8.16, 7.86 8.16, 7.86 8.16 M6.68 21.71 C10.66 22.02, 9.98 15.87, 21.12 5.11 M6.68 21.71 C10.46 16.58, 16.93 11, 21.12 5.11 M4.85 36.01 C10.6 28.32, 15.36 20.11, 34.37 2.05 M4.85 36.01 C13.39 28.34, 18.17 20.51, 34.37 2.05 M4.98 48.06 C20.55 31.93, 40.84 11.01, 45 2.02 M4.98 48.06 C17.07 34.89, 28.25 21.88, 45 2.02 M4.46 60.85 C21.45 40.5, 37.37 16.25, 55.63 1.98 M4.46 60.85 C19.07 41.06, 36.44 22.86, 55.63 1.98 M4.59 72.89 C22.99 46.21, 46.45 15.17, 66.26 1.95 M4.59 72.89 C24.06 50.14, 43.74 24.27, 66.26 1.95 M4.72 84.93 C32.03 56.02, 58.98 28.17, 76.89 1.91 M4.72 84.93 C19.55 67.17, 35.67 51.83, 76.89 1.91 M4.86 96.97 C33.7 63.95, 65.54 23.45, 87.52 1.88 M4.86 96.97 C34.52 59.42, 66.01 25.46, 87.52 1.88 M4.99 109.01 C35.6 66.44, 77.47 22.9, 98.15 1.85 M4.99 109.01 C27.8 82.57, 49.11 57.67, 98.15 1.85 M4.47 121.81 C38.63 81.99, 81.12 32.09, 108.78 1.81 M4.47 121.81 C35.47 90.09, 66.04 52.98, 108.78 1.81 M4.6 133.85 C28.24 107.08, 59.69 72.18, 119.41 1.78 M4.6 133.85 C43.78 86.09, 84.66 45.53, 119.41 1.78 M4.73 145.89 C50.95 85.47, 104.05 31.73, 130.04 1.74 M4.73 145.89 C29.76 119.37, 57.03 86.36, 130.04 1.74 M4.87 157.93 C32.79 124.58, 59.83 90.96, 140.67 1.71 M4.87 157.93 C37.69 120.04, 71.75 80.57, 140.67 1.71 M5 169.97 C39.34 133.25, 72.25 96.49, 150.65 2.43 M5 169.97 C57.22 108.85, 110.01 48.91, 150.65 2.43 M4.48 182.77 C58.31 115.81, 115.13 56.07, 161.28 2.39 M4.48 182.77 C44.86 131.31, 90.73 81.29, 161.28 2.39 M4.61 194.81 C64.92 124.56, 124.19 57.98, 171.91 2.36 M4.61 194.81 C45.89 143.56, 88.83 94.15, 171.91 2.36 M4.74 206.85 C71.05 128.55, 141.61 47.07, 182.54 2.32 M4.74 206.85 C69.55 130.28, 132.3 55.93, 182.54 2.32 M4.88 218.89 C72.6 139.18, 139.93 64.98, 193.17 2.29 M4.88 218.89 C63.25 156.57, 120.69 91.88, 193.17 2.29 M5.01 230.93 C81.71 143.23, 161.17 55.46, 203.8 2.26 M5.01 230.93 C75.2 152.42, 146.7 71.73, 203.8 2.26 M4.49 243.73 C77.33 156.75, 157.03 68.94, 214.43 2.22 M4.49 243.73 C84.55 156.07, 162.18 66.48, 214.43 2.22 M4.62 255.77 C72.75 175.75, 140.39 99.15, 225.06 2.19 M4.62 255.77 C85.81 161.58, 166.96 69.12, 225.06 2.19 M4.75 267.81 C97.18 161.83, 187.03 57.97, 235.69 2.15 M4.75 267.81 C62.41 201.56, 122.47 132.9, 235.69 2.15 M4.89 279.85 C60.58 222.72, 114.92 157.26, 246.32 2.12 M4.89 279.85 C59.09 210.16, 118.49 143.6, 246.32 2.12 M5.02 291.89 C98.65 180.7, 192.8 72.32, 256.95 2.08 M5.02 291.89 C56.23 231.31, 108.09 172.6, 256.95 2.08 M4.5 304.69 C92.14 208.06, 177.18 108.03, 267.58 2.05 M4.5 304.69 C72.37 224.79, 143.31 145, 267.58 2.05 M4.63 316.73 C104.47 198.35, 206.54 82.81, 278.21 2.01 M4.63 316.73 C108.87 201.97, 209.02 84.95, 278.21 2.01 M4.76 328.77 C98.53 226.93, 190.59 117.79, 288.84 1.98 M4.76 328.77 C72.33 248.23, 142.83 167.78, 288.84 1.98 M4.9 340.81 C96.75 231.96, 189.48 123.21, 299.47 1.94 M4.9 340.81 C122.03 205.84, 238.81 72.13, 299.47 1.94 M5.03 352.85 C76.94 274.64, 146.35 194.23, 310.1 1.91 M5.03 352.85 C81.32 262.38, 159.97 173.14, 310.1 1.91 M4.51 365.65 C99.99 253.89, 195.5 143.61, 320.73 1.88 M4.51 365.65 C127.35 218.9, 252.47 74.73, 320.73 1.88 M4.64 377.69 C123.06 237.15, 245.62 96.43, 331.36 1.84 M4.64 377.69 C91.78 276.07, 179.96 175.37, 331.36 1.84 M4.77 389.73 C105.22 271.27, 208.19 152.9, 341.99 1.81 M4.77 389.73 C134.56 237.93, 265.31 86.68, 341.99 1.81 M4.91 401.77 C143.02 241.77, 280.91 84.01, 352.62 1.77 M4.91 401.77 C120.08 268.03, 235.93 134.65, 352.62 1.77 M5.04 413.81 C81.88 322.12, 161.83 231.46, 363.25 1.74 M5.04 413.81 C102.61 295.93, 203.97 181.03, 363.25 1.74 M4.52 426.6 C96.55 321.53, 187.57 216.54, 373.88 1.7 M4.52 426.6 C79.9 339.76, 154.78 253.55, 373.88 1.7 M4.65 438.65 C107.59 321.86, 208.28 204.57, 383.85 2.42 M4.65 438.65 C99.88 329.59, 193.83 222.2, 383.85 2.42 M4.78 450.69 C161.8 272.34, 317.46 95.39, 394.48 2.39 M4.78 450.69 C124 316.48, 240.21 180.66, 394.48 2.39 M4.92 462.73 C145.55 302.77, 284.35 139.19, 405.11 2.35 M4.92 462.73 C156.15 291.44, 303.58 120.95, 405.11 2.35 M5.05 474.77 C100.39 370.02, 193.01 263.1, 415.74 2.32 M5.05 474.77 C147.85 310.51, 291.03 144.08, 415.74 2.32 M4.53 487.56 C140.01 326.61, 277.5 168.67, 426.37 2.29 M4.53 487.56 C95.86 389.26, 183.94 287.44, 426.37 2.29 M4.66 499.6 C95.42 390.12, 188.81 282.9, 437 2.25 M4.66 499.6 C156.66 322.64, 311.14 146.79, 437 2.25 M4.79 511.65 C144.84 346.67, 292.45 182.03, 447.63 2.22 M4.79 511.65 C97.59 398.64, 191.83 289.29, 447.63 2.22 M4.93 523.69 C178.79 324.01, 351.89 127.69, 458.26 2.18 M4.93 523.69 C103.78 414.88, 198.31 305.29, 458.26 2.18 M5.06 535.73 C101.41 417.88, 201.22 301.89, 468.89 2.15 M5.06 535.73 C154.81 365.39, 304.73 190.3, 468.89 2.15 M4.54 548.52 C110.5 423.07, 220.45 298.72, 479.52 2.11 M4.54 548.52 C144.14 391.93, 284.72 230.04, 479.52 2.11 M4.67 560.56 C188.48 356.78, 365.84 152.94, 490.15 2.08 M4.67 560.56 C183.6 354.52, 359.73 151.81, 490.15 2.08 M4.8 572.6 C195.33 354.27, 387.41 132.65, 500.78 2.04 M4.8 572.6 C140.86 413.35, 277.78 254.89, 500.78 2.04 M4.93 584.65 C139.14 433.87, 271.48 282.49, 511.41 2.01 M4.93 584.65 C125.3 442, 247.92 300.25, 511.41 2.01 M5.07 596.69 C108.23 480.28, 213.44 359.44, 522.04 1.98 M5.07 596.69 C167.07 411.04, 332.22 222.91, 522.04 1.98 M4.54 609.48 C167.56 431.56, 322.91 248.36, 532.67 1.94 M4.54 609.48 C198.4 390.1, 391.47 167.96, 532.67 1.94 M4.68 621.52 C184.28 418.21, 360.44 214.96, 543.3 1.91 M4.68 621.52 C144.9 460.61, 282.41 304.01, 543.3 1.91 M4.81 633.56 C219.3 390.42, 431.25 146.18, 553.93 1.87 M4.81 633.56 C124.36 499.03, 242.79 363.47, 553.93 1.87 M4.94 645.6 C187.68 435.48, 369.01 225.5, 564.56 1.84 M4.94 645.6 C133.99 504.78, 256.84 362.83, 564.56 1.84 M4.42 658.4 C209.95 431.58, 407.98 201.45, 575.19 1.8 M4.42 658.4 C213.32 420.3, 422.16 180.59, 575.19 1.8 M4.55 670.44 C164.8 489.57, 323.42 306.53, 585.82 1.77 M4.55 670.44 C140.7 511.81, 278.84 352.72, 585.82 1.77 M4.69 682.48 C196.95 463.21, 384.99 242.01, 596.45 1.73 M4.69 682.48 C171.89 488.36, 340.87 293.3, 596.45 1.73 M4.82 694.52 C222.04 437.16, 444.89 184.77, 607.08 1.7 M4.82 694.52 C126.83 551.15, 252.35 408.3, 607.08 1.7 M4.95 706.56 C222.47 461.52, 437.12 214.95, 617.06 2.42 M4.95 706.56 C197.16 482.12, 391.43 257.49, 617.06 2.42 M4.43 719.36 C197.91 502.47, 386.71 284.84, 627.69 2.38 M4.43 719.36 C204.87 484.1, 408.5 252.05, 627.69 2.38 M4.56 731.4 C256.1 448.87, 503.04 162.43, 638.32 2.35 M4.56 731.4 C197.29 512.13, 389.15 290.08, 638.32 2.35 M4.7 743.44 C203.18 520.34, 401.92 294.3, 648.95 2.32 M4.7 743.44 C181.33 547.97, 355.2 347.04, 648.95 2.32 M4.83 755.48 C219.45 512.33, 427.36 272.24, 659.58 2.28 M4.83 755.48 C238.35 478.31, 477.32 202.81, 659.58 2.28 M4.96 767.52 C201.65 538.9, 401.03 309.92, 670.21 2.25 M4.96 767.52 C149.17 607.93, 292.3 443.45, 670.21 2.25 M4.44 780.32 C217.33 537.16, 433.04 285.74, 680.84 2.21 M4.44 780.32 C222.66 534.76, 437.48 288.06, 680.84 2.21 M4.57 792.36 C227.82 538.36, 449.46 288.06, 691.47 2.18 M4.57 792.36 C145.66 627.8, 291.47 459.34, 691.47 2.18 M4.71 804.4 C213.88 573.84, 416.67 339.14, 702.1 2.14 M4.71 804.4 C184.64 599.17, 365.32 392.11, 702.1 2.14 M4.84 816.44 C233.15 545.62, 464.11 280.5, 712.73 2.11 M4.84 816.44 C152.67 650.81, 298.51 481.97, 712.73 2.11 M4.97 828.48 C177.57 636.51, 348.75 438.97, 723.36 2.07 M4.97 828.48 C271.4 521.53, 542.83 210.68, 723.36 2.07 M4.45 841.28 C285.69 521.99, 563.78 198.68, 733.99 2.04 M4.45 841.28 C176.04 650.63, 342.75 457.29, 733.99 2.04 M4.58 853.32 C209.49 612.98, 422.75 368.88, 744.62 2.01 M4.58 853.32 C260.17 560.39, 515.7 265.93, 744.62 2.01 M4.72 865.36 C201.98 631.63, 404.66 399.71, 755.25 1.97 M4.72 865.36 C309.26 513.58, 610.5 169.16, 755.25 1.97 M4.85 877.4 C207.79 637.39, 413.87 402.38, 765.88 1.94 M4.85 877.4 C251.05 584.86, 503.17 294.73, 765.88 1.94 M4.98 889.44 C215.87 646.46, 428.09 401.45, 776.51 1.9 M4.98 889.44 C255.27 604.26, 504.51 317.92, 776.51 1.9 M4.46 902.24 C261.04 601.57, 525.26 298.35, 787.14 1.87 M4.46 902.24 C304.19 557.7, 600.06 218.32, 787.14 1.87 M4.59 914.28 C168.48 731.85, 327.09 547.68, 797.77 1.83 M4.59 914.28 C230.83 653.43, 461.12 389.22, 797.77 1.83 M4.73 926.32 C276.61 610.22, 553.17 293.7, 808.4 1.8 M4.73 926.32 C180.09 721.44, 361.66 513.23, 808.4 1.8 M4.86 938.36 C300.48 594.27, 600.73 250.19, 819.03 1.76 M4.86 938.36 C245.5 663.5, 479.41 395.54, 819.03 1.76 M4.99 950.4 C220.78 695.88, 437.46 446.57, 829.66 1.73 M4.99 950.4 C250.9 660.61, 498.9 376.81, 829.66 1.73 M4.47 963.19 C178.65 775.39, 347.38 580.54, 840.29 1.69 M4.47 963.19 C314.92 600.57, 630.37 237.86, 840.29 1.69 M4.6 975.24 C322.56 601.2, 645.62 230.54, 850.26 2.42 M4.6 975.24 C267.44 670.02, 531.05 367.45, 850.26 2.42 M4.74 987.28 C216.47 745.47, 425.47 505.63, 860.89 2.38 M4.74 987.28 C287.24 675.3, 562.57 357.86, 860.89 2.38 M4.87 999.32 C266.55 709.31, 522.47 414.37, 871.52 2.35 M4.87 999.32 C227.74 739.66, 454.44 479.87, 871.52 2.35 M5 1011.36 C315.21 655.29, 617.99 307.04, 882.15 2.31 M5 1011.36 C317.48 647.57, 635.2 282.76, 882.15 2.31 M4.48 1024.15 C287.26 701.11, 567.91 378.96, 892.78 2.28 M4.48 1024.15 C214.88 778.72, 423.4 538.5, 892.78 2.28 M4.61 1036.19 C257.46 756, 504.4 471.68, 903.41 2.24 M4.61 1036.19 C209.1 807.01, 413.66 571.74, 903.41 2.24 M4.75 1048.24 C236.03 777.16, 474.66 502.05, 914.04 2.21 M4.75 1048.24 C191.63 827.48, 381.44 608.55, 914.04 2.21 M4.88 1060.28 C285.61 739.5, 571.78 411.61, 924.67 2.17 M4.88 1060.28 C312.91 708.41, 624.66 349.88, 924.67 2.17 M5.01 1072.32 C263.83 778.42, 514.58 490.37, 935.3 2.14 M5.01 1072.32 C239.68 814.33, 467.52 551.58, 935.3 2.14 M4.49 1085.11 C222.65 829.97, 447.02 570.84, 945.93 2.1 M4.49 1085.11 C198.98 873.61, 388.55 655.47, 945.93 2.1 M4.62 1097.15 C373.03 675.52, 742.25 253.37, 956.56 2.07 M4.62 1097.15 C278.1 779.87, 559.42 456.86, 956.56 2.07 M4.76 1109.19 C353.86 699.56, 710.03 288.82, 967.19 2.04 M4.76 1109.19 C208.82 870.29, 410.15 639.12, 967.19 2.04 M4.89 1121.24 C370.54 705.56, 730.85 291.32, 977.82 2 M4.89 1121.24 C386.96 673.62, 768.27 233.33, 977.82 2 M5.02 1133.28 C309.38 775.95, 619.63 417.87, 988.45 1.97 M5.02 1133.28 C251.4 861.51, 488.37 589.39, 988.45 1.97 M4.5 1146.07 C293.31 815.84, 587.51 476.51, 999.08 1.93 M4.5 1146.07 C271.45 847.01, 534.73 543.17, 999.08 1.93 M4.63 1158.11 C213.14 922, 417.21 687.32, 1009.71 1.9 M4.63 1158.11 C268.7 855.26, 539.33 543.74, 1009.71 1.9 M4.77 1170.15 C356.37 768.48, 707.38 365.01, 1020.34 1.86 M4.77 1170.15 C340.84 785.44, 671.13 405.55, 1020.34 1.86 M4.9 1182.19 C285.05 862.46, 569.16 537.29, 1030.97 1.83 M4.9 1182.19 C356.31 776.58, 711.41 368.33, 1030.97 1.83 M5.03 1194.24 C235.48 940.48, 460.41 680.83, 1041.6 1.79 M5.03 1194.24 C291.39 870.96, 568.93 549.94, 1041.6 1.79 M4.51 1207.03 C301.9 864.18, 602.85 519.47, 1052.23 1.76 M4.51 1207.03 C231.84 938.34, 461.12 676.16, 1052.23 1.76 M4.64 1219.07 C351.27 828.89, 689.49 440.11, 1062.86 1.73 M4.64 1219.07 C310.55 869.05, 615.41 520.43, 1062.86 1.73 M4.77 1231.11 C333.86 867.15, 654.59 499.41, 1073.49 1.69 M4.77 1231.11 C342.66 836.9, 678.99 449.19, 1073.49 1.69 M4.91 1243.15 C414.53 767.58, 819.66 300.6, 1083.47 2.41 M4.91 1243.15 C280.12 925.78, 555.78 608.98, 1083.47 2.41 M5.04 1255.19 C322.58 878.46, 645.89 506.24, 1094.1 2.38 M5.04 1255.19 C402.2 814.4, 788.25 370.95, 1094.1 2.38 M4.52 1267.99 C241.16 990.53, 486.1 709.5, 1104.73 2.34 M4.52 1267.99 C376.57 855.13, 741.65 435.18, 1104.73 2.34 M4.65 1280.03 C411.76 817.5, 817.66 351.85, 1115.36 2.31 M4.65 1280.03 C381.63 834.74, 764.72 394.52, 1115.36 2.31 M4.78 1292.07 C231.82 1025.29, 455.01 767.62, 1125.99 2.27 M4.78 1292.07 C422.29 823.38, 837.43 345.22, 1125.99 2.27 M4.92 1304.11 C357.93 905.16, 704.74 506.91, 1136.62 2.24 M4.92 1304.11 C432.25 804.24, 859.22 312.13, 1136.62 2.24 M5.05 1316.15 C443.44 824.67, 873.02 331.32, 1147.25 2.2 M5.05 1316.15 C363.87 918.93, 713.32 517.42, 1147.25 2.2 M4.53 1328.95 C285.69 1004.79, 567.47 681.66, 1157.88 2.17 M4.53 1328.95 C270.43 1012.59, 541.22 700.27, 1157.88 2.17 M4.66 1340.99 C374.78 907.99, 744.11 482.89, 1168.51 2.14 M4.66 1340.99 C439.46 846.03, 863.51 359.18, 1168.51 2.14 M4.79 1353.03 C483.68 805.03, 952.24 265.23, 1179.14 2.1 M4.79 1353.03 C457.62 830.99, 909.98 310.54, 1179.14 2.1 M4.93 1365.07 C379.8 936.94, 747.4 512.03, 1189.77 2.07 M4.93 1365.07 C308.03 1014.07, 614.22 663.63, 1189.77 2.07 M5.06 1377.11 C375.87 946.18, 754.69 511.44, 1200.4 2.03 M5.06 1377.11 C469.13 852.51, 927.98 323.42, 1200.4 2.03 M4.54 1389.91 C434.62 907.89, 859.3 419.61, 1211.03 2 M4.54 1389.91 C467.18 861.07, 932.75 327.26, 1211.03 2 M4.67 1401.95 C299.21 1053, 598.7 709.24, 1221.66 1.96 M4.67 1401.95 C344.07 1023.45, 678.7 638.26, 1221.66 1.96 M4.8 1413.99 C425.34 922.8, 857.67 427.32, 1232.29 1.93 M4.8 1413.99 C294.34 1085.94, 584.05 753.11, 1232.29 1.93 M4.94 1426.03 C444.41 922.47, 887.3 413.95, 1242.92 1.89 M4.94 1426.03 C494.67 866.68, 977.71 311.69, 1242.92 1.89 M5.07 1438.07 C406.35 964.66, 818.9 490.78, 1253.55 1.86 M5.07 1438.07 C488.75 881.95, 966.83 333.7, 1253.55 1.86 M4.55 1450.87 C423.67 972.84, 833.15 500.88, 1264.18 1.82 M4.55 1450.87 C445.85 955.08, 881.79 452.33, 1264.18 1.82 M4.68 1462.91 C286.05 1126.77, 573.73 798.4, 1274.81 1.79 M4.68 1462.91 C375.06 1048.81, 741.16 627.49, 1274.81 1.79 M2.85 1477.21 C453.74 961.56, 898.31 454.76, 1285.44 1.76 M2.85 1477.21 C327.02 1114.8, 650.06 743.31, 1285.44 1.76 M2.98 1489.25 C364.64 1075.94, 729.81 657.55, 1296.07 1.72 M2.98 1489.25 C383.69 1028.7, 774.68 577.83, 1296.07 1.72 M7.7 1496.01 C429.1 1029.3, 839.14 555.6, 1306.7 1.69 M7.7 1496.01 C384.7 1052.61, 771.67 606.1, 1306.7 1.69 M12.43 1502.77 C343.7 1123.32, 680.08 736.07, 1316.67 2.41 M12.43 1502.77 C350.25 1106.44, 693.53 709.83, 1316.67 2.41 M21.09 1505 C353.85 1117.49, 687.75 731.7, 1327.3 2.37 M21.09 1505 C492.79 950.19, 973.85 397.27, 1327.3 2.37 M30.41 1506.47 C320.24 1172.37, 617.85 828.71, 1337.94 2.34 M30.41 1506.47 C429.85 1060.84, 815.41 615.93, 1337.94 2.34 M37.1 1510.97 C428.37 1074.81, 808.65 637.18, 1348.57 2.3 M37.1 1510.97 C334.7 1163.92, 632.75 820.23, 1348.57 2.3 M47.73 1510.93 C533.37 940.75, 1026.68 373.56, 1359.2 2.27 M47.73 1510.93 C326.01 1183.11, 601.76 863.5, 1359.2 2.27 M58.36 1510.9 C412.19 1107.16, 759.05 706.85, 1369.83 2.23 M58.36 1510.9 C504.85 999.21, 944.36 493.19, 1369.83 2.23 M68.34 1511.62 C342.57 1209.95, 605.86 906.76, 1380.46 2.2 M68.34 1511.62 C475.2 1044.95, 881.62 578.38, 1380.46 2.2 M78.97 1511.58 C519.63 1021.08, 949.58 528.48, 1391.09 2.17 M78.97 1511.58 C385.45 1155.56, 691.92 801.93, 1391.09 2.17 M89.6 1511.55 C497.22 1048.47, 901.81 584.29, 1401.72 2.13 M89.6 1511.55 C597.59 931.23, 1094.57 360.67, 1401.72 2.13 M100.23 1511.52 C564.8 987.5, 1021.27 458.2, 1412.35 2.1 M100.23 1511.52 C561.6 974.67, 1027.95 439.74, 1412.35 2.1 M110.86 1511.48 C412.33 1178.27, 705.99 841.1, 1422.98 2.06 M110.86 1511.48 C494.07 1064.1, 878.09 622.97, 1422.98 2.06 M121.49 1511.45 C514.82 1042.99, 913.08 585.79, 1433.61 2.03 M121.49 1511.45 C410.37 1194.26, 692.37 867.65, 1433.61 2.03 M132.12 1511.41 C622.23 930.29, 1119.82 356.89, 1444.24 1.99 M132.12 1511.41 C423.95 1180.68, 705.23 857.47, 1444.24 1.99 M142.75 1511.38 C508.04 1080.71, 882.61 649.65, 1454.87 1.96 M142.75 1511.38 C427.31 1176.1, 720.7 840.96, 1454.87 1.96 M153.38 1511.34 C568.17 1024.85, 993.57 533.93, 1465.5 1.92 M153.38 1511.34 C674.64 917.92, 1190.32 324.1, 1465.5 1.92 M164.01 1511.31 C544.29 1064.33, 930.94 616.32, 1476.13 1.89 M164.01 1511.31 C527.46 1095.43, 882.65 687.64, 1476.13 1.89 M174.64 1511.27 C581.61 1030.61, 996.18 553.78, 1486.76 1.85 M174.64 1511.27 C661.65 960.34, 1142.5 407.45, 1486.76 1.85 M185.27 1511.24 C513.95 1136.15, 841.33 756.67, 1497.39 1.82 M185.27 1511.24 C624.96 999.91, 1069.85 488.79, 1497.39 1.82 M195.9 1511.21 C625.37 1006.36, 1057.13 512.51, 1508.02 1.79 M195.9 1511.21 C660.9 965.66, 1133.42 422.75, 1508.02 1.79 M206.53 1511.17 C714.7 938.99, 1211.1 370.38, 1518.65 1.75 M206.53 1511.17 C596.03 1061.35, 986.79 613.08, 1518.65 1.75 M217.16 1511.14 C535.09 1129.77, 857.5 760.29, 1529.28 1.72 M217.16 1511.14 C598.07 1074.2, 971.24 644.34, 1529.28 1.72 M227.79 1511.1 C523.35 1167.55, 811.49 837.16, 1539.91 1.68 M227.79 1511.1 C631.52 1046.31, 1026.63 591.56, 1539.91 1.68 M238.42 1511.07 C595.42 1114.79, 940.43 718.53, 1549.88 2.4 M238.42 1511.07 C690.69 1005.08, 1137.78 490.06, 1549.88 2.4 M249.05 1511.03 C559.4 1161.77, 859.96 814.36, 1560.51 2.37 M249.05 1511.03 C760.12 905.55, 1277.32 311.22, 1560.51 2.37 M259.68 1511 C632.66 1074.54, 1017.22 631.57, 1571.14 2.33 M259.68 1511 C541.17 1178.69, 826.44 851.73, 1571.14 2.33 M270.31 1510.96 C760.18 945.01, 1249.28 384.59, 1581.77 2.3 M270.31 1510.96 C683.63 1052.1, 1087.49 587.2, 1581.77 2.3 M280.94 1510.93 C752.72 984.91, 1219.44 446.87, 1592.4 2.26 M280.94 1510.93 C645.15 1072.03, 1020.16 641.17, 1592.4 2.26 M291.57 1510.89 C710.17 1027.7, 1138.84 532.47, 1603.03 2.23 M291.57 1510.89 C638.14 1110.52, 978.79 717.83, 1603.03 2.23 M301.54 1511.61 C816.64 919.86, 1322.7 338.34, 1613.66 2.2 M301.54 1511.61 C566.96 1188.59, 842.89 871.21, 1613.66 2.2 M312.17 1511.58 C692 1089.11, 1061.79 663.46, 1624.29 2.16 M312.17 1511.58 C784.65 973.42, 1253.92 433.89, 1624.29 2.16 M322.8 1511.55 C631.89 1161.25, 936.57 811.12, 1634.92 2.13 M322.8 1511.55 C764.77 1005.24, 1212.11 491.27, 1634.92 2.13 M333.43 1511.51 C796.62 998.17, 1250.75 479.7, 1645.55 2.09 M333.43 1511.51 C850.01 909.36, 1366.07 314.36, 1645.55 2.09 M344.06 1511.48 C668 1139.39, 996.33 757.24, 1656.18 2.06 M344.06 1511.48 C768.72 1043.23, 1183 568.28, 1656.18 2.06 M354.69 1511.44 C778.67 1021.96, 1209.42 524.32, 1666.81 2.02 M354.69 1511.44 C673.05 1128.79, 1000.52 753.9, 1666.81 2.02 M365.32 1511.41 C791.19 1024.52, 1206.84 544.73, 1677.44 1.99 M365.32 1511.41 C691.31 1122.5, 1027.77 733.85, 1677.44 1.99 M375.95 1511.37 C856.99 959.9, 1328.31 414.16, 1688.07 1.95 M375.95 1511.37 C753.8 1061.73, 1136.85 619.85, 1688.07 1.95 M386.58 1511.34 C674.48 1184.73, 955.35 858.76, 1698.7 1.92 M386.58 1511.34 C887.28 938.64, 1383.68 367.97, 1698.7 1.92 M397.21 1511.3 C770.61 1083.8, 1144.09 653.19, 1709.33 1.89 M397.21 1511.3 C897.56 935.63, 1397.02 361.8, 1709.33 1.89 M407.84 1511.27 C717.02 1143.35, 1034.1 778.94, 1719.96 1.85 M407.84 1511.27 C903.86 937.73, 1403.21 363.5, 1719.96 1.85 M418.47 1511.24 C752.84 1135.35, 1084.92 753.18, 1730.59 1.82 M418.47 1511.24 C754.13 1123.11, 1090.3 737.9, 1730.59 1.82 M429.1 1511.2 C702.88 1201.12, 970.99 891.76, 1741.22 1.78 M429.1 1511.2 C754.22 1136.42, 1080.43 759.47, 1741.22 1.78 M439.73 1511.17 C867.88 1017.08, 1301.5 522.01, 1751.85 1.75 M439.73 1511.17 C909.39 990.96, 1368.92 462.74, 1751.85 1.75 M450.36 1511.13 C759.11 1173.86, 1056.55 830.29, 1762.48 1.71 M450.36 1511.13 C782.35 1113.69, 1125.46 718.55, 1762.48 1.71 M460.99 1511.1 C859.43 1062.13, 1243.35 616.35, 1772.46 2.43 M460.99 1511.1 C949.92 931.23, 1450.67 355.14, 1772.46 2.43 M471.62 1511.06 C936.86 993.35, 1387.15 472.68, 1783.09 2.4 M471.62 1511.06 C965.56 949.23, 1460.25 380.84, 1783.09 2.4 M482.25 1511.03 C797.02 1150.37, 1109.28 789.6, 1793.72 2.36 M482.25 1511.03 C948.35 973.43, 1415.79 434.92, 1793.72 2.36 M492.88 1510.99 C898.39 1059.68, 1296.97 601.74, 1804.35 2.33 M492.88 1510.99 C806.18 1144.58, 1128.95 772.66, 1804.35 2.33 M503.51 1510.96 C990.83 968.19, 1469.6 416.75, 1814.98 2.29 M503.51 1510.96 C983.66 944.48, 1466.46 389.76, 1814.98 2.29 M514.15 1510.92 C998.98 966.06, 1475.26 417.57, 1825.61 2.26 M514.15 1510.92 C786.73 1198.18, 1060.24 883.82, 1825.61 2.26 M524.78 1510.89 C1023.93 917.57, 1534.81 333.22, 1836.24 2.23 M524.78 1510.89 C1040.84 919.39, 1562.01 318.52, 1836.24 2.23 M534.75 1511.61 C935.54 1067.14, 1323.48 619.94, 1846.87 2.19 M534.75 1511.61 C900.91 1089.58, 1276.47 656.28, 1846.87 2.19 M545.38 1511.58 C997.13 992.11, 1443.18 478.31, 1857.5 2.16 M545.38 1511.58 C947.45 1044.63, 1360.12 568.99, 1857.5 2.16 M556.01 1511.54 C1072.53 935.9, 1579.09 351.19, 1868.13 2.12 M556.01 1511.54 C1073.85 915.89, 1588.21 323.05, 1868.13 2.12 M566.64 1511.51 C1033.44 970.37, 1502.05 429.75, 1878.76 2.09 M566.64 1511.51 C922.45 1108.45, 1279.97 696.13, 1878.76 2.09 M577.27 1511.47 C879.73 1153.42, 1186.71 801.84, 1889.39 2.05 M577.27 1511.47 C997.94 1022.92, 1427.66 528.83, 1889.39 2.05 M587.9 1511.44 C982.58 1059.43, 1369.05 614.02, 1900.02 2.02 M587.9 1511.44 C1015.36 1040.79, 1432.4 560.69, 1900.02 2.02 M598.53 1511.4 C1046.04 990.56, 1494.34 471.87, 1910.65 1.98 M598.53 1511.4 C1089.68 945.41, 1585.85 374.72, 1910.65 1.98 M609.16 1511.37 C1026.32 1022.99, 1446.82 542.83, 1921.28 1.95 M609.16 1511.37 C1118.98 932.43, 1618.92 357.57, 1921.28 1.95 M619.79 1511.33 C1052.91 1005.75, 1497.26 494.87, 1931.91 1.92 M619.79 1511.33 C1027.31 1025.15, 1446.29 544.09, 1931.91 1.92 M630.42 1511.3 C1029.28 1051.91, 1434.02 585.79, 1942.54 1.88 M630.42 1511.3 C991.57 1095.3, 1357.27 674.23, 1942.54 1.88 M641.05 1511.27 C1099.81 967.46, 1565.2 431.3, 1953.17 1.85 M641.05 1511.27 C929.29 1182.5, 1209.93 860.1, 1953.17 1.85 M651.68 1511.23 C991.3 1123.41, 1324.95 741.9, 1963.8 1.81 M651.68 1511.23 C1060.28 1035.6, 1480.09 554.94, 1963.8 1.81 M662.31 1511.2 C966.04 1143.89, 1280.12 778.48, 1974.43 1.78 M662.31 1511.2 C942.12 1195.64, 1217.4 878.08, 1974.43 1.78 M672.94 1511.16 C1005.61 1128.5, 1342.09 744.5, 1985.06 1.74 M672.94 1511.16 C1047.73 1065, 1433.51 621.46, 1985.06 1.74 M683.57 1511.13 C1148.91 976.24, 1611.21 442.78, 1995.69 1.71 M683.57 1511.13 C1143.85 981.51, 1598.03 458.69, 1995.69 1.71 M694.2 1511.09 C1131.41 1011.11, 1568.51 508.99, 2005.66 2.43 M694.2 1511.09 C1057.09 1072.36, 1432.39 640.54, 2005.66 2.43 M704.83 1511.06 C1179.55 967.52, 1655.97 417.55, 2016.29 2.39 M704.83 1511.06 C1168.59 986.68, 1625.36 461, 2016.29 2.39 M715.46 1511.02 C997.14 1198.04, 1273.57 876.37, 2026.92 2.36 M715.46 1511.02 C1062.31 1107.18, 1407.38 711.97, 2026.92 2.36 M726.09 1510.99 C1059.97 1113.94, 1403.23 719.97, 2037.55 2.33 M726.09 1510.99 C1015.8 1166.02, 1313.09 823.95, 2037.55 2.33 M736.72 1510.96 C1170.57 1010.77, 1612.7 501.56, 2048.18 2.29 M736.72 1510.96 C1109.95 1080.72, 1477.5 657.9, 2048.18 2.29 M747.35 1510.92 C1198.49 1005.47, 1644.36 496.8, 2058.81 2.26 M747.35 1510.92 C1116.13 1079.84, 1485.58 654.25, 2058.81 2.26 M757.98 1510.89 C1104.39 1117.32, 1443.27 727.95, 2069.44 2.22 M757.98 1510.89 C1134.82 1079.87, 1504.28 653.63, 2069.44 2.22 M767.96 1511.61 C1037.68 1206.26, 1310.15 892.97, 2080.07 2.19 M767.96 1511.61 C1168.54 1048.63, 1563.79 593.1, 2080.07 2.19 M778.59 1511.57 C1094.05 1143.29, 1412.83 778.24, 2090.7 2.15 M778.59 1511.57 C1170.12 1057.92, 1564.21 603.82, 2090.7 2.15 M789.22 1511.54 C1302.67 917.83, 1813.54 330.44, 2101.33 2.12 M789.22 1511.54 C1260.29 970.03, 1731.88 427.34, 2101.33 2.12 M799.85 1511.5 C1153.27 1112.12, 1503.25 710.44, 2111.96 2.08 M799.85 1511.5 C1143.3 1121.49, 1475.04 738.5, 2111.96 2.08 M810.48 1511.47 C1236.2 1029.44, 1652.48 549.97, 2122.59 2.05 M810.48 1511.47 C1101.24 1188.65, 1388.76 857.01, 2122.59 2.05 M821.11 1511.43 C1108.76 1171.57, 1401 832.48, 2131.26 4.28 M821.11 1511.43 C1263.81 1001.69, 1716.84 481.6, 2131.26 4.28 M831.74 1511.4 C1285.94 1010.18, 1732 496.64, 2139.92 6.51 M831.74 1511.4 C1265.67 1018.46, 1698.35 521.88, 2139.92 6.51 M842.37 1511.37 C1243.38 1043.52, 1658.7 570.87, 2149.24 7.98 M842.37 1511.37 C1207.34 1108.8, 1562.98 700.47, 2149.24 7.98 M853 1511.33 C1276.92 1035, 1693.66 558.06, 2154.62 13.99 M853 1511.33 C1144.88 1164.93, 1445.49 819.36, 2154.62 13.99 M863.63 1511.3 C1193.58 1120.24, 1529.32 736.78, 2157.37 23.01 M863.63 1511.3 C1126.58 1192.16, 1401.18 876.34, 2157.37 23.01 M874.26 1511.26 C1154.56 1183.57, 1439.94 854.34, 2159.48 32.79 M874.26 1511.26 C1320.96 1008.27, 1761.31 501.66, 2159.48 32.79 M884.89 1511.23 C1243.11 1108.1, 1604.89 694.59, 2158.95 45.58 M884.89 1511.23 C1181.31 1164.54, 1484.25 818, 2158.95 45.58 M895.52 1511.19 C1316.95 1031.16, 1741.74 544.09, 2159.09 57.62 M895.52 1511.19 C1386.48 967.5, 1866.5 413.57, 2159.09 57.62 M906.15 1511.16 C1307.37 1043.73, 1714.05 574.51, 2159.22 69.66 M906.15 1511.16 C1276.83 1076.42, 1653.15 641.86, 2159.22 69.66 M916.78 1511.12 C1226.97 1143.7, 1549.77 774.42, 2159.35 81.7 M916.78 1511.12 C1351.63 1015.22, 1779.61 524.05, 2159.35 81.7 M927.41 1511.09 C1219.33 1169.06, 1514.62 825.75, 2159.49 93.74 M927.41 1511.09 C1235.84 1166.02, 1541.17 813.65, 2159.49 93.74 M938.04 1511.05 C1297.16 1091.11, 1663.4 671.37, 2158.96 106.54 M938.04 1511.05 C1319.53 1055.6, 1710.63 606.49, 2158.96 106.54 M948.67 1511.02 C1437.87 958.72, 1919.51 405.93, 2159.1 118.58 M948.67 1511.02 C1208.28 1228.21, 1461.76 935.81, 2159.1 118.58 M959.3 1510.99 C1285.36 1132.08, 1619.96 748.95, 2159.23 130.62 M959.3 1510.99 C1303.96 1123.38, 1645.09 732.48, 2159.23 130.62 M969.93 1510.95 C1289.53 1144.08, 1613.65 772.35, 2159.36 142.66 M969.93 1510.95 C1211.22 1236.4, 1452.62 958.7, 2159.36 142.66 M980.56 1510.92 C1372.03 1059.82, 1762.3 611.94, 2159.49 154.7 M980.56 1510.92 C1322.13 1109.63, 1671.77 708.01, 2159.49 154.7 M991.19 1510.88 C1278.64 1171.33, 1575.56 830.51, 2158.97 167.5 M991.19 1510.88 C1392.35 1061.95, 1783.65 610.77, 2158.97 167.5 M1001.16 1511.6 C1359.27 1109.33, 1710.88 702.74, 2159.11 179.54 M1001.16 1511.6 C1354.7 1106.98, 1712.43 694.61, 2159.11 179.54 M1011.79 1511.57 C1289.25 1178.13, 1575.34 851.29, 2159.24 191.58 M1011.79 1511.57 C1244.55 1248.18, 1474.05 984.38, 2159.24 191.58 M1022.42 1511.53 C1430.29 1040.12, 1841.79 567.92, 2159.37 203.62 M1022.42 1511.53 C1427.58 1042.81, 1836.17 574.1, 2159.37 203.62 M1033.05 1511.5 C1336.62 1170.39, 1641.71 823.01, 2159.5 215.66 M1033.05 1511.5 C1350.39 1144.36, 1663.62 783.64, 2159.5 215.66 M1043.68 1511.46 C1454.54 1045.74, 1863.71 572.91, 2158.98 228.46 M1043.68 1511.46 C1453.1 1043.16, 1864.78 568.84, 2158.98 228.46 M1054.31 1511.43 C1319.84 1202.13, 1592.9 887.96, 2159.11 240.5 M1054.31 1511.43 C1428.99 1082.72, 1802.93 653.83, 2159.11 240.5 M1064.94 1511.4 C1409.48 1116.21, 1753.58 721.42, 2159.25 252.54 M1064.94 1511.4 C1447.59 1068, 1836.55 621.59, 2159.25 252.54 M1075.57 1511.36 C1323.92 1229.12, 1564.58 952.09, 2159.38 264.58 M1075.57 1511.36 C1325.39 1216.37, 1581.73 922.57, 2159.38 264.58 M1086.2 1511.33 C1402.57 1144.32, 1717.26 780.45, 2159.51 276.62 M1086.2 1511.33 C1320.5 1248.83, 1550.72 984.42, 2159.51 276.62 M1096.83 1511.29 C1461 1090.58, 1828.55 665.72, 2158.99 289.42 M1096.83 1511.29 C1441.58 1118.4, 1776.11 733.28, 2158.99 289.42 M1107.46 1511.26 C1441.18 1132.29, 1773.13 748.03, 2159.12 301.46 M1107.46 1511.26 C1448.18 1108.41, 1799.71 703.99, 2159.12 301.46 M1118.09 1511.22 C1409.91 1167.03, 1709.83 821.67, 2159.26 313.5 M1118.09 1511.22 C1336.58 1257.78, 1552.13 1009.72, 2159.26 313.5 M1128.72 1511.19 C1438.33 1152.08, 1754.78 789.6, 2159.39 325.54 M1128.72 1511.19 C1529.97 1043.38, 1930.57 581.24, 2159.39 325.54 M1139.35 1511.15 C1355.78 1246.56, 1583.79 987.09, 2159.52 337.58 M1139.35 1511.15 C1373.42 1235.98, 1607 967.76, 2159.52 337.58 M1149.98 1511.12 C1454.08 1174.42, 1752.63 832.03, 2159 350.38 M1149.98 1511.12 C1489.63 1113.74, 1835.04 714.16, 2159 350.38 M1160.61 1511.08 C1409 1230.22, 1651.9 953.51, 2159.13 362.42 M1160.61 1511.08 C1541.52 1056.67, 1931.62 609.18, 2159.13 362.42 M1171.24 1511.05 C1393.59 1251.61, 1626.4 985.64, 2159.27 374.46 M1171.24 1511.05 C1409.7 1232.69, 1652.56 953.03, 2159.27 374.46 M1181.87 1511.02 C1525.07 1121.56, 1864.67 728.12, 2159.4 386.5 M1181.87 1511.02 C1555.32 1081.27, 1926.92 652.79, 2159.4 386.5 M1192.5 1510.98 C1560.4 1095.88, 1927.43 671.86, 2159.53 398.54 M1192.5 1510.98 C1423.28 1248.46, 1648 989.88, 2159.53 398.54 M1203.13 1510.95 C1462.63 1228.23, 1712.73 939.56, 2159.01 411.34 M1203.13 1510.95 C1571.5 1097.71, 1936.95 677.17, 2159.01 411.34 M1213.76 1510.91 C1496.66 1182.54, 1786.31 851.66, 2159.14 423.38 M1213.76 1510.91 C1517.91 1153.76, 1830.71 795.31, 2159.14 423.38 M1224.39 1510.88 C1409.16 1296.45, 1603.59 1071.99, 2159.28 435.42 M1224.39 1510.88 C1464.82 1227.32, 1712.51 942.12, 2159.28 435.42 M1234.37 1511.6 C1508.11 1192.71, 1780.17 881.75, 2159.41 447.46 M1234.37 1511.6 C1467.7 1239.48, 1698.36 975.24, 2159.41 447.46 M1245 1511.56 C1536.67 1174.46, 1832.77 832.68, 2159.54 459.5 M1245 1511.56 C1593.8 1107.55, 1945.79 703.75, 2159.54 459.5 M1255.63 1511.53 C1572.47 1162.18, 1882.57 808.06, 2159.02 472.29 M1255.63 1511.53 C1613.71 1106.03, 1966.05 699.31, 2159.02 472.29 M1266.26 1511.49 C1513.13 1238.01, 1756.84 958.68, 2159.15 484.33 M1266.26 1511.49 C1607.03 1117.66, 1949.04 723.9, 2159.15 484.33 M1276.89 1511.46 C1598.69 1138.46, 1916.29 771.93, 2159.29 496.38 M1276.89 1511.46 C1497.56 1267.55, 1711.88 1020.86, 2159.29 496.38 M1287.52 1511.43 C1476.32 1300.09, 1657.01 1091.26, 2159.42 508.42 M1287.52 1511.43 C1630.19 1119.75, 1972.86 725.28, 2159.42 508.42 M1298.15 1511.39 C1614.16 1136.16, 1935.89 762.49, 2159.55 520.46 M1298.15 1511.39 C1617.54 1135.23, 1943.34 760.69, 2159.55 520.46 M1308.78 1511.36 C1487.58 1303.92, 1674.29 1091.96, 2159.03 533.25 M1308.78 1511.36 C1503.17 1277.32, 1700.8 1050.33, 2159.03 533.25 M1319.41 1511.32 C1589.68 1211.11, 1851.15 906.44, 2159.16 545.29 M1319.41 1511.32 C1544.31 1257.87, 1763.49 1006.68, 2159.16 545.29 M1330.04 1511.29 C1564.52 1243.01, 1804.95 969.39, 2159.3 557.33 M1330.04 1511.29 C1495.99 1319.62, 1667.09 1121.82, 2159.3 557.33 M1340.67 1511.25 C1526.15 1290.72, 1713.09 1076.09, 2159.43 569.38 M1340.67 1511.25 C1529.87 1292.43, 1726.43 1067.33, 2159.43 569.38 M1351.3 1511.22 C1610.73 1210.86, 1870.49 909.87, 2159.56 581.42 M1351.3 1511.22 C1600.35 1222.4, 1853.4 931.67, 2159.56 581.42 M1361.93 1511.18 C1585.05 1255.96, 1805.39 1002.9, 2159.04 594.21 M1361.93 1511.18 C1635.26 1193.31, 1915.55 871.99, 2159.04 594.21 M1372.56 1511.15 C1630.9 1209.72, 1899.77 903.75, 2159.17 606.25 M1372.56 1511.15 C1546.32 1304.28, 1724.73 1100.13, 2159.17 606.25 M1383.19 1511.12 C1634.82 1214.06, 1892.31 919.23, 2159.31 618.29 M1383.19 1511.12 C1634.05 1223.24, 1883.47 935.29, 2159.31 618.29 M1393.82 1511.08 C1595.56 1284.93, 1797.39 1052.7, 2159.44 630.33 M1393.82 1511.08 C1634.17 1227.58, 1878.34 947.46, 2159.44 630.33 M1404.45 1511.05 C1681.78 1186.1, 1961.7 864.87, 2159.57 642.38 M1404.45 1511.05 C1682.44 1196.02, 1957.81 879.77, 2159.57 642.38 M1415.08 1511.01 C1672.75 1219.95, 1922.5 929.28, 2159.05 655.17 M1415.08 1511.01 C1592.69 1298.42, 1777.62 1086.22, 2159.05 655.17 M1425.71 1510.98 C1650.34 1251.46, 1875.72 994.37, 2159.18 667.21 M1425.71 1510.98 C1698.95 1195.77, 1974.78 878.05, 2159.18 667.21 M1436.34 1510.94 C1659.53 1247.59, 1887.96 986.71, 2159.32 679.25 M1436.34 1510.94 C1689.3 1219.52, 1945.21 925.74, 2159.32 679.25 M1446.97 1510.91 C1678.31 1235.64, 1916.38 960.6, 2159.45 691.29 M1446.97 1510.91 C1690.8 1232.12, 1937.26 949.1, 2159.45 691.29 M1457.6 1510.87 C1644.06 1302.06, 1827.76 1091.13, 2159.58 703.33 M1457.6 1510.87 C1650.01 1298.4, 1837.44 1081.47, 2159.58 703.33 M1467.57 1511.59 C1728.87 1211.09, 1993.12 910.01, 2159.06 716.13 M1467.57 1511.59 C1706.3 1238.09, 1946.84 960.51, 2159.06 716.13 M1478.2 1511.56 C1721.19 1226.69, 1963.45 945.44, 2159.19 728.17 M1478.2 1511.56 C1692.1 1268.24, 1904.47 1024.89, 2159.19 728.17 M1488.83 1511.52 C1677.56 1296.73, 1869.44 1079.23, 2159.33 740.21 M1488.83 1511.52 C1716.53 1245.42, 1949.61 977.12, 2159.33 740.21 M1499.46 1511.49 C1695.5 1286.65, 1886.35 1064.91, 2159.46 752.25 M1499.46 1511.49 C1689.38 1294.69, 1879.99 1075.03, 2159.46 752.25 M1510.09 1511.46 C1760.06 1225.29, 2009.13 939.26, 2158.94 765.05 M1510.09 1511.46 C1759.72 1224.16, 2013.77 933.34, 2158.94 765.05 M1520.72 1511.42 C1687.54 1315.76, 1857.06 1120.71, 2159.07 777.09 M1520.72 1511.42 C1706.73 1297.36, 1895 1081.41, 2159.07 777.09 M1531.35 1511.39 C1750.84 1263.11, 1970.25 1011.61, 2159.2 789.13 M1531.35 1511.39 C1667.25 1351.74, 1800.94 1195.94, 2159.2 789.13 M1541.98 1511.35 C1783.68 1235.22, 2031.26 952.68, 2159.34 801.17 M1541.98 1511.35 C1727.22 1293.59, 1917.04 1074.84, 2159.34 801.17 M1552.61 1511.32 C1754.54 1266.35, 1964.19 1027.12, 2159.47 813.21 M1552.61 1511.32 C1699.18 1342, 1849.62 1168.3, 2159.47 813.21 M1563.24 1511.28 C1749.68 1293.27, 1936.45 1077.4, 2158.95 826.01 M1563.24 1511.28 C1799.47 1234.65, 2038.55 960.78, 2158.95 826.01 M1573.87 1511.25 C1720.4 1337.34, 1870.45 1163.55, 2159.08 838.05 M1573.87 1511.25 C1811.13 1244.33, 2045.1 975.87, 2159.08 838.05 M1584.5 1511.21 C1783.98 1271.74, 1990.76 1033.47, 2159.21 850.09 M1584.5 1511.21 C1775.17 1296.46, 1960.96 1081.57, 2159.21 850.09 M1595.13 1511.18 C1748.43 1323.99, 1909.19 1142.28, 2159.34 862.13 M1595.13 1511.18 C1750.07 1338.13, 1902.14 1162.89, 2159.34 862.13 M1605.76 1511.15 C1820.6 1269.61, 2032.45 1024.26, 2159.48 874.17 M1605.76 1511.15 C1783.9 1309.52, 1962.94 1102.39, 2159.48 874.17 M1616.39 1511.11 C1796.24 1302.12, 1974.99 1096.31, 2158.95 886.97 M1616.39 1511.11 C1806.11 1292.45, 1992.03 1075.64, 2158.95 886.97 M1627.02 1511.08 C1814.41 1297.24, 2002.55 1081.36, 2159.09 899.01 M1627.02 1511.08 C1799.69 1306.58, 1975.9 1104.09, 2159.09 899.01 M1637.65 1511.04 C1758.1 1377.67, 1874.69 1241.11, 2159.22 911.05 M1637.65 1511.04 C1741.06 1386.51, 1847.61 1264.74, 2159.22 911.05 M1648.28 1511.01 C1829.76 1306.77, 2006.24 1104.65, 2159.35 923.09 M1648.28 1511.01 C1838.11 1296.81, 2025.55 1080.26, 2159.35 923.09 M1658.91 1510.97 C1806.95 1341.45, 1958.36 1165.37, 2159.49 935.13 M1658.91 1510.97 C1807.53 1337.22, 1960.88 1162.08, 2159.49 935.13 M1669.54 1510.94 C1844.6 1310.23, 2015.12 1111.92, 2158.96 947.93 M1669.54 1510.94 C1833.85 1326.62, 1997.63 1137.55, 2158.96 947.93 M1680.17 1510.9 C1779.93 1396.7, 1879.28 1281.75, 2159.1 959.97 M1680.17 1510.9 C1867.97 1292.32, 2059.47 1073.04, 2159.1 959.97 M1690.15 1511.62 C1822.9 1358.98, 1954.03 1208.47, 2159.23 972.01 M1690.15 1511.62 C1794.16 1387.05, 1902 1263.25, 2159.23 972.01 M1700.78 1511.59 C1839.57 1354.22, 1976.25 1196.69, 2159.36 984.05 M1700.78 1511.59 C1851.14 1337.86, 1999.44 1166.54, 2159.36 984.05 M1711.41 1511.56 C1860.09 1334.24, 2013.3 1157.44, 2159.5 996.09 M1711.41 1511.56 C1859.84 1341.53, 2006.97 1171.38, 2159.5 996.09 M1722.04 1511.52 C1834.03 1389.25, 1941.69 1266.2, 2158.97 1008.88 M1722.04 1511.52 C1811.7 1406.27, 1900.61 1304.23, 2158.97 1008.88 M1732.67 1511.49 C1849.08 1381.75, 1958.34 1255.58, 2159.11 1020.93 M1732.67 1511.49 C1818.53 1410.87, 1906.9 1309.68, 2159.11 1020.93 M1743.3 1511.45 C1844.45 1400.22, 1943.09 1284.62, 2159.24 1032.97 M1743.3 1511.45 C1849.68 1393.24, 1955.49 1271.5, 2159.24 1032.97 M1753.93 1511.42 C1873.03 1377.38, 1988.78 1244.6, 2159.37 1045.01 M1753.93 1511.42 C1879.94 1367.56, 2006.98 1221.14, 2159.37 1045.01 M1764.56 1511.38 C1913.72 1342.01, 2062.02 1170.79, 2159.51 1057.05 M1764.56 1511.38 C1907.23 1344.13, 2051.84 1176.47, 2159.51 1057.05 M1775.19 1511.35 C1915.91 1347.49, 2057.42 1184.21, 2158.98 1069.84 M1775.19 1511.35 C1929.65 1333.92, 2081.5 1158.88, 2158.98 1069.84 M1785.82 1511.31 C1879.17 1399.3, 1974.48 1289.25, 2159.12 1081.88 M1785.82 1511.31 C1913.1 1364.31, 2039.96 1219.61, 2159.12 1081.88 M1796.45 1511.28 C1929.75 1359.93, 2067.74 1203.38, 2159.25 1093.92 M1796.45 1511.28 C1902.38 1394.47, 2005.05 1274.04, 2159.25 1093.92 M1807.08 1511.24 C1880.71 1423.91, 1956.67 1337.62, 2159.38 1105.97 M1807.08 1511.24 C1892.28 1416.25, 1976.83 1318.76, 2159.38 1105.97 M1817.71 1511.21 C1913 1400.27, 2005.98 1292.3, 2159.52 1118.01 M1817.71 1511.21 C1918.38 1393.66, 2021.13 1275.25, 2159.52 1118.01 M1828.34 1511.18 C1918.82 1407.32, 2009.23 1301.45, 2158.99 1130.8 M1828.34 1511.18 C1905.07 1421.2, 1981.32 1333.51, 2158.99 1130.8 M1838.97 1511.14 C1958.85 1376.14, 2077.54 1239.47, 2159.13 1142.84 M1838.97 1511.14 C1914.56 1418.21, 1992.32 1328.52, 2159.13 1142.84 M1849.6 1511.11 C1970.25 1371.63, 2092.6 1230.52, 2159.26 1154.88 M1849.6 1511.11 C1962.49 1377.67, 2075 1247.91, 2159.26 1154.88 M1860.23 1511.07 C1939.18 1420.4, 2017.61 1332.84, 2159.39 1166.92 M1860.23 1511.07 C1923.12 1435.53, 1985.78 1360.11, 2159.39 1166.92 M1870.86 1511.04 C1934.51 1437.99, 1997.75 1361.22, 2159.53 1178.97 M1870.86 1511.04 C1977.74 1386.48, 2087.17 1262.24, 2159.53 1178.97 M1881.49 1511 C1951.09 1428.31, 2027.93 1342.35, 2159 1191.76 M1881.49 1511 C1987.65 1387.16, 2096.66 1261.19, 2159 1191.76 M1892.12 1510.97 C1982.42 1411.09, 2074.23 1303.3, 2159.14 1203.8 M1892.12 1510.97 C1973.69 1417.66, 2051.78 1328.52, 2159.14 1203.8 M1902.75 1510.93 C1954.06 1453.01, 2009.14 1393.3, 2159.27 1215.84 M1902.75 1510.93 C1964.13 1442.84, 2024.76 1371.49, 2159.27 1215.84 M1913.38 1510.9 C1968.28 1449.26, 2023.53 1384, 2159.4 1227.88 M1913.38 1510.9 C1970.79 1447.2, 2026.5 1383.14, 2159.4 1227.88 M1923.35 1511.62 C1972.27 1447.86, 2026.15 1390.85, 2159.54 1239.92 M1923.35 1511.62 C1999.8 1425.92, 2073.91 1340.23, 2159.54 1239.92 M1933.98 1511.59 C1995.69 1436.47, 2057.26 1366.01, 2159.01 1252.72 M1933.98 1511.59 C2015.73 1413.92, 2100.64 1314.47, 2159.01 1252.72 M1944.61 1511.55 C2021.61 1418.33, 2106.37 1325.35, 2159.15 1264.76 M1944.61 1511.55 C2000.04 1443, 2059.58 1376.94, 2159.15 1264.76 M1955.24 1511.52 C1997.32 1459.73, 2044.36 1413.75, 2159.28 1276.8 M1955.24 1511.52 C2000.34 1457.41, 2046.36 1403.59, 2159.28 1276.8 M1965.87 1511.48 C2014.22 1463.06, 2053.51 1408.14, 2159.41 1288.84 M1965.87 1511.48 C2007.7 1459.62, 2054.65 1410.7, 2159.41 1288.84 M1976.51 1511.45 C2020 1460.95, 2063.32 1415.79, 2159.55 1300.88 M1976.51 1511.45 C2040.07 1435.77, 2104.12 1358.01, 2159.55 1300.88 M1987.14 1511.41 C2033.51 1461.61, 2075.15 1411.82, 2159.02 1313.68 M1987.14 1511.41 C2022.73 1472.75, 2059.63 1429.54, 2159.02 1313.68 M1997.77 1511.38 C2047.68 1457.63, 2092.11 1399.22, 2159.16 1325.72 M1997.77 1511.38 C2036.38 1468.5, 2072.12 1426.83, 2159.16 1325.72 M2008.4 1511.34 C2042.97 1466.79, 2081.44 1422.89, 2159.29 1337.76 M2008.4 1511.34 C2055.83 1457.84, 2104.36 1401.14, 2159.29 1337.76 M2019.03 1511.31 C2057.03 1472.03, 2091.68 1435.47, 2159.42 1349.8 M2019.03 1511.31 C2071.7 1448.95, 2128.84 1385.85, 2159.42 1349.8 M2029.66 1511.28 C2070.17 1469.53, 2115.89 1416.23, 2159.56 1361.84 M2029.66 1511.28 C2071.79 1454.92, 2116.82 1403.44, 2159.56 1361.84 M2040.29 1511.24 C2067.52 1484.18, 2094.79 1450.43, 2159.03 1374.64 M2040.29 1511.24 C2072.71 1474.17, 2106.27 1433.74, 2159.03 1374.64 M2050.92 1511.21 C2086.11 1481.98, 2108.11 1444.56, 2159.17 1386.68 M2050.92 1511.21 C2095.22 1465.82, 2136.93 1415.18, 2159.17 1386.68 M2061.55 1511.17 C2093.55 1475.71, 2119.8 1438.22, 2159.3 1398.72 M2061.55 1511.17 C2079.22 1486.15, 2102.36 1459.87, 2159.3 1398.72 M2072.18 1511.14 C2089.25 1491.63, 2115.74 1461.45, 2159.43 1410.76 M2072.18 1511.14 C2106.26 1471.76, 2140.3 1432.35, 2159.43 1410.76 M2082.81 1511.1 C2105.32 1483.86, 2129.48 1451.56, 2159.56 1422.8 M2082.81 1511.1 C2098.18 1492.02, 2115.64 1470.47, 2159.56 1422.8 M2093.44 1511.07 C2110.41 1487.55, 2131.19 1474.14, 2159.04 1435.6 M2093.44 1511.07 C2108.07 1492.42, 2123.75 1476.17, 2159.04 1435.6 M2104.07 1511.03 C2116.28 1489.86, 2133.24 1469.95, 2159.18 1447.64 M2104.07 1511.03 C2127.21 1483.68, 2146.87 1460.15, 2159.18 1447.64 M2114.7 1511 C2131.09 1499.84, 2138.87 1482.62, 2159.31 1459.68 M2114.7 1511 C2126.05 1498.78, 2137.22 1487.1, 2159.31 1459.68 M2127.29 1508.7 C2134.71 1495.55, 2148.19 1490.33, 2159.44 1471.72 M2127.29 1508.7 C2139.62 1496.43, 2146.49 1484.81, 2159.44 1471.72 M2140.55 1505.65 C2148.18 1496.32, 2147.87 1495.14, 2163.51 1479.23 M2140.55 1505.65 C2145.62 1499.64, 2152.77 1491.6, 2163.51 1479.23" stroke="#ffec99" stroke-width="1" fill="none"></path><path d="M32 0 C612.02 -7.12, 1187.96 -7.25, 2126.08 0 M32 0 C600.58 -7.13, 1170.39 -6.45, 2126.08 0 M2126.08 0 C2149.46 -1.53, 2158.83 14.52, 2158.08 32 M2126.08 0 C2144.64 2.42, 2160.25 7.38, 2158.08 32 M2158.08 32 C2149.87 561.22, 2147.43 1091.31, 2158.08 1475.03 M2158.08 32 C2162.84 446.17, 2163.62 861, 2158.08 1475.03 M2158.08 1475.03 C2158.72 1493.59, 2150.55 1509.86, 2126.08 1507.03 M2158.08 1475.03 C2162.51 1495.95, 2152.01 1509.55, 2126.08 1507.03 M2126.08 1507.03 C1312.44 1515.83, 502.08 1515.64, 32 1507.03 M2126.08 1507.03 C1551.53 1509.24, 976.72 1510.34, 32 1507.03 M32 1507.03 C13.91 1508.9, -3.88 1493.62, 0 1475.03 M32 1507.03 C9.8 1504.44, -1.46 1500.34, 0 1475.03 M0 1475.03 C11.85 1096.63, 9.85 719.48, 0 32 M0 1475.03 C-2.77 1093.62, -2.72 713.88, 0 32 M0 32 C-2.64 13.63, 12.5 -2.44, 32 0 M0 32 C4.07 10.29, 8.98 2.33, 32 0" stroke="#dfce87" stroke-width="2" fill="none"></path></g><g stroke-linecap="round" transform="translate(593.9354483284678 1230.2881736114055) rotate(0 579.3912353515625 121.24999237060547)"><path d="M0 0 C369.29 5.25, 738.12 4.82, 1158.78 0 M0 0 C381.37 -1.2, 762.21 -1.64, 1158.78 0 M1158.78 0 C1156 55.51, 1157.86 113.14, 1158.78 242.5 M1158.78 0 C1158.26 57.44, 1156.99 113.03, 1158.78 242.5 M1158.78 242.5 C738.97 243.9, 320.41 244.29, 0 242.5 M1158.78 242.5 C719.58 245.64, 280.18 245.68, 0 242.5 M0 242.5 C0.25 167.49, 0.54 90.79, 0 0 M0 242.5 C-0.93 183.72, -1.8 124.52, 0 0" stroke="#f08c00" stroke-width="2" fill="none"></path></g><g stroke-linecap="round" transform="translate(710.657435567617 871.5353508648591) rotate(0 385.2864685058594 121.24999237060547)"><path d="M0 0 C154.62 -2.36, 310.52 -2.22, 770.57 0 M0 0 C257.61 -3.09, 515.01 -3.4, 770.57 0 M770.57 0 C770.3 52.69, 768.31 106.39, 770.57 242.5 M770.57 0 C771.46 75.28, 772.61 151.48, 770.57 242.5 M770.57 242.5 C509.22 240.84, 248.34 241.61, 0 242.5 M770.57 242.5 C489.77 243.94, 209.24 243.45, 0 242.5 M0 242.5 C0.55 177.12, 0.55 113.23, 0 0 M0 242.5 C-1.17 174, -0.36 105.34, 0 0" stroke="#f08c00" stroke-width="2" fill="none"></path></g><g stroke-linecap="round" transform="translate(611.3889899647893 470.24266771357907) rotate(0 468.4667663574219 121.24999237060524)"><path d="M0 0 C360.47 -0.78, 720.75 -0.66, 936.93 0 M0 0 C373.13 0.11, 746.46 0.24, 936.93 0 M936.93 0 C936.92 49.18, 938.22 101.52, 936.93 242.5 M936.93 0 C935.9 94.03, 935.71 187.24, 936.93 242.5 M936.93 242.5 C706.11 243.09, 474.54 242.44, 0 242.5 M936.93 242.5 C618.25 244.05, 299.35 244.05, 0 242.5 M0 242.5 C0.2 160.29, 0.86 76.63, 0 0 M0 242.5 C1.74 160.82, 1.71 78.08, 0 0" stroke="#f08c00" stroke-width="2" fill="none"></path></g><g stroke-linecap="round" transform="translate(46.2704800897252 68.42848754379474) rotate(0 1035.8072509765625 121.24999237060547)"><path d="M0 0 C685.65 -3.45, 1371.55 -3.99, 2071.61 0 M0 0 C594.81 7.27, 1189.87 7.72, 2071.61 0 M2071.61 0 C2070.49 59.68, 2071.73 115.57, 2071.61 242.5 M2071.61 0 C2073.18 60.29, 2072.42 121.89, 2071.61 242.5 M2071.61 242.5 C1458.58 250.24, 844.84 249.92, 0 242.5 M2071.61 242.5 C1348.02 236.14, 624.84 236.21, 0 242.5 M0 242.5 C0.86 174.23, 1.76 103.79, 0 0 M0 242.5 C-0.27 163.02, -0.4 84.89, 0 0" stroke="#f08c00" stroke-width="2" fill="none"></path></g><g stroke-linecap="round" transform="translate(413.3472928338658 93.42848754379474) rotate(0 157.24609375 26.25)"><path d="M0 0 C110.72 -1.46, 218.46 -2.29, 314.49 0 M0 0 C65.2 1.68, 131.3 0.83, 314.49 0 M314.49 0 C316.3 11.21, 313.58 26.73, 314.49 52.5 M314.49 0 C314.17 16.54, 314.66 33.68, 314.49 52.5 M314.49 52.5 C191.68 52.32, 68.43 52.91, 0 52.5 M314.49 52.5 C243.48 50.45, 171.74 50.45, 0 52.5 M0 52.5 C0.85 32.19, 0.6 15.41, 0 0 M0 52.5 C-0.07 35.43, 0.25 18.33, 0 0" stroke="#f08c00" stroke-width="2" fill="none"></path></g><g stroke-linecap="round" transform="translate(162.20797818237656 233.42848754379474) rotate(0 22.64322853088379 26.25)"><path d="M0 0 C16.12 -1.27, 30.93 -1.55, 45.29 0 M0 0 C10.36 -0.91, 21.32 -0.12, 45.29 0 M45.29 0 C44.77 20.97, 46.01 40.25, 45.29 52.5 M45.29 0 C44.97 12.66, 45.93 24.37, 45.29 52.5 M45.29 52.5 C32.2 52.61, 15.68 51.74, 0 52.5 M45.29 52.5 C34.88 51.68, 25.37 52.08, 0 52.5 M0 52.5 C0.31 35.78, 0.45 18.59, 0 0 M0 52.5 C0.33 40.76, -0.83 28.07, 0 0" stroke="#f08c00" stroke-width="2" fill="none"></path></g><g stroke-linecap="round" transform="translate(362.9436520867955 233.42848754379474) rotate(0 79.06900787353516 26.25)"><path d="M0 0 C44.65 -0.55, 91.76 -0.84, 158.14 0 M0 0 C55.41 1.17, 112.72 1.92, 158.14 0 M158.14 0 C158.15 12.49, 156.4 22.35, 158.14 52.5 M158.14 0 C159.04 16.92, 158.22 32.97, 158.14 52.5 M158.14 52.5 C113.84 52.06, 70.99 53.55, 0 52.5 M158.14 52.5 C120.17 51.44, 81.32 51.99, 0 52.5 M0 52.5 C0.52 41.18, -1.38 29.23, 0 0 M0 52.5 C-1 35.27, -0.41 17.73, 0 0" stroke="#f08c00" stroke-width="2" fill="none"></path></g><g stroke-linecap="round" transform="translate(650.3264531427037 233.42848754379474) rotate(0 48.847660064697266 26.25)"><path d="M0 0 C21.82 -1.1, 47.06 -0.41, 97.7 0 M0 0 C23.61 0.75, 44.93 -0.61, 97.7 0 M97.7 0 C96.28 17.93, 97.97 37.91, 97.7 52.5 M97.7 0 C98.29 20.3, 97.89 40.29, 97.7 52.5 M97.7 52.5 C65.71 53.05, 35.56 51.86, 0 52.5 M97.7 52.5 C74.15 52.72, 49.3 52.59, 0 52.5 M0 52.5 C-1.41 35.71, 0.6 19.54, 0 0 M0 52.5 C0.2 33.6, 0.73 12.8, 0 0" stroke="#f08c00" stroke-width="2" fill="none"></path></g><g stroke-linecap="round" transform="translate(866.674113207401 233.42848754379474) rotate(0 89.66145324707031 26.25)"><path d="M0 0 C40.77 0.49, 78.06 0.53, 179.32 0 M0 0 C55.2 -2.05, 112.55 -1.43, 179.32 0 M179.32 0 C179.14 17.74, 180.52 37.47, 179.32 52.5 M179.32 0 C179.09 19.62, 179.5 37.52, 179.32 52.5 M179.32 52.5 C130.05 52.94, 81.91 54.41, 0 52.5 M179.32 52.5 C127.73 53.44, 77.9 53.51, 0 52.5 M0 52.5 C1.1 36.54, 1.83 17.59, 0 0 M0 52.5 C0.42 33.54, -0.24 16.04, 0 0" stroke="#f08c00" stroke-width="2" fill="none"></path></g><g stroke-linecap="round" transform="translate(1295.5673550897252 93.42848754379474) rotate(0 125.07160949707031 26.25)"><path d="M0 0 C50.63 0.27, 103.62 2.44, 250.14 0 M0 0 C97.39 1.11, 194.09 0.39, 250.14 0 M250.14 0 C251.78 14.82, 251.48 26.15, 250.14 52.5 M250.14 0 C250.11 17.13, 249.68 34.98, 250.14 52.5 M250.14 52.5 C163.45 53.09, 78.32 52.59, 0 52.5 M250.14 52.5 C165.77 53.29, 81.21 52.52, 0 52.5 M0 52.5 C1.3 35.03, 0.9 20.4, 0 0 M0 52.5 C-0.52 33.39, -1.04 12.16, 0 0" stroke="#f08c00" stroke-width="2" fill="none"></path></g><g stroke-linecap="round" transform="translate(1123.7965115838658 233.42848754379474) rotate(0 70.31900787353516 26.25)"><path d="M0 0 C34.12 2.32, 69.51 -0.74, 140.64 0 M0 0 C35.71 -0.93, 70.11 -0.08, 140.64 0 M140.64 0 C142.34 15.76, 141.86 30.52, 140.64 52.5 M140.64 0 C140.39 17.6, 141.13 36.11, 140.64 52.5 M140.64 52.5 C100.46 53.83, 61.7 51.74, 0 52.5 M140.64 52.5 C95.01 52.34, 49.06 53.35, 0 52.5 M0 52.5 C0.71 34.52, 1.19 18.06, 0 0 M0 52.5 C-0.7 37.96, 0.43 25.39, 0 0" stroke="#f08c00" stroke-width="2" fill="none"></path></g><g stroke-linecap="round" transform="translate(1341.6741208367955 233.42848754379474) rotate(0 78.96484375 26.25)"><path d="M0 0 C40.09 -2.74, 75.71 0.04, 157.93 0 M0 0 C48.93 1.27, 98.89 1.96, 157.93 0 M157.93 0 C159.07 20.01, 159.25 41.44, 157.93 52.5 M157.93 0 C158.19 11.34, 157.6 23.25, 157.93 52.5 M157.93 52.5 C102.29 51.35, 45.64 53.32, 0 52.5 M157.93 52.5 C105.42 51.91, 53.22 52.27, 0 52.5 M0 52.5 C1.3 41.67, -0.94 28.92, 0 0 M0 52.5 C0.71 33.47, 0.94 13.13, 0 0" stroke="#f08c00" stroke-width="2" fill="none"></path></g><g stroke-linecap="round" transform="translate(1549.603800707401 233.42848754379474) rotate(0 118.39842987060547 26.25)"><path d="M0 0 C88.17 2.57, 178.21 2.19, 236.8 0 M0 0 C53.48 0.46, 107.81 0.34, 236.8 0 M236.8 0 C237.99 16.55, 235.54 31.99, 236.8 52.5 M236.8 0 C236.86 11.31, 237.59 23.58, 236.8 52.5 M236.8 52.5 C159.99 51.29, 82.86 51.23, 0 52.5 M236.8 52.5 C180.75 53.9, 123.44 53.73, 0 52.5 M0 52.5 C-1.07 37.23, 1.2 21.63, 0 0 M0 52.5 C0.35 40.02, 0.86 26.59, 0 0" stroke="#f08c00" stroke-width="2" fill="none"></path></g><g stroke-linecap="round" transform="translate(1780.385050707401 93.42848754379474) rotate(0 151.25 26.25)"><path d="M0 0 C67.64 -0.79, 133.82 -2.14, 302.5 0 M0 0 C94.49 -1.28, 187.7 -1.45, 302.5 0 M302.5 0 C301.29 13.59, 301.28 29.3, 302.5 52.5 M302.5 0 C302.98 12.63, 302.67 25.97, 302.5 52.5 M302.5 52.5 C235.84 53.19, 167.32 52.97, 0 52.5 M302.5 52.5 C199.44 54.56, 97.42 54.73, 0 52.5 M0 52.5 C1.79 33.4, -0.83 18.33, 0 0 M0 52.5 C0.74 31.98, 0.13 11.38, 0 0" stroke="#f08c00" stroke-width="2" fill="none"></path></g><g stroke-linecap="round" transform="translate(1836.4006680780064 233.42848754379474) rotate(0 95.23438262939453 26.25)"><path d="M0 0 C67.43 -1.81, 138.02 -0.82, 190.47 0 M0 0 C72.3 -0.82, 144.11 -0.73, 190.47 0 M190.47 0 C188.61 17.25, 188.96 32.45, 190.47 52.5 M190.47 0 C191.03 13.17, 189.99 25.84, 190.47 52.5 M190.47 52.5 C128.22 52.85, 69.23 53.49, 0 52.5 M190.47 52.5 C118.81 54.34, 47.9 53.22, 0 52.5 M0 52.5 C-1.43 39.12, 1.52 25.73, 0 0 M0 52.5 C-0.14 33.99, -0.08 15.15, 0 0" stroke="#f08c00" stroke-width="2" fill="none"></path></g><g stroke-linecap="round" transform="translate(646.3889899647893 495.24266771357907) rotate(0 152.2395782470703 26.25)"><path d="M0 0 C103.45 1.11, 207.75 2.51, 304.48 0 M0 0 C110.7 -0.53, 221.91 -1.42, 304.48 0 M304.48 0 C302.97 13.76, 302.97 29.33, 304.48 52.5 M304.48 0 C303.84 15.13, 304.82 30.08, 304.48 52.5 M304.48 52.5 C208.59 53.02, 112.66 51.34, 0 52.5 M304.48 52.5 C196.62 54.02, 88.07 54.84, 0 52.5 M0 52.5 C2.2 42.35, 1.53 32.27, 0 0 M0 52.5 C0.24 35.84, -0.28 17.24, 0 0" stroke="#f08c00" stroke-width="2" fill="none"></path></g><g stroke-linecap="round" transform="translate(656.903317967719 635.2426677135791) rotate(0 141.72525024414062 26.249999999999773)"><path d="M0 0 C71.22 1.49, 141.02 0.24, 283.45 0 M0 0 C96.52 -1.62, 192.61 -1.62, 283.45 0 M283.45 0 C282.03 19.15, 282.82 36.53, 283.45 52.5 M283.45 0 C283.24 18.07, 283.21 34.86, 283.45 52.5 M283.45 52.5 C199.16 51.97, 113.42 52.88, 0 52.5 M283.45 52.5 C175.63 52.41, 67.68 51.42, 0 52.5 M0 52.5 C0.76 37.47, 0.14 19.22, 0 0 M0 52.5 C-0.32 33.44, 0.02 14.27, 0 0" stroke="#f08c00" stroke-width="2" fill="none"></path></g><g stroke-linecap="round" transform="translate(1117.0953536427678 495.24266771357907) rotate(0 140.859375 26.25)"><path d="M0 0 C84.42 -1.82, 167.49 -2.43, 281.72 0 M0 0 C98.14 1.01, 197.1 1.15, 281.72 0 M281.72 0 C281.09 15.4, 282.18 28.19, 281.72 52.5 M281.72 0 C281.99 16.48, 281.84 34.58, 281.72 52.5 M281.72 52.5 C188.55 50.38, 94.92 51.19, 0 52.5 M281.72 52.5 C205.7 53.86, 131.21 54.98, 0 52.5 M0 52.5 C0.32 34.98, 0.8 16.83, 0 0 M0 52.5 C0.29 31.75, -0.63 11.76, 0 0" stroke="#f08c00" stroke-width="2" fill="none"></path></g><g stroke-linecap="round" transform="translate(1006.9488692677678 635.2426677135791) rotate(0 118.18358612060547 26.249999999999773)"><path d="M0 0 C93.41 -0.7, 186.29 -0.01, 236.37 0 M0 0 C53.96 0.99, 107.06 0.99, 236.37 0 M236.37 0 C237.04 17.19, 236.79 37.91, 236.37 52.5 M236.37 0 C236.47 17.85, 236.79 35.67, 236.37 52.5 M236.37 52.5 C186.24 52.55, 132.89 51.44, 0 52.5 M236.37 52.5 C146.52 52.32, 56.67 52.04, 0 52.5 M0 52.5 C0.96 32.42, 1.42 10.42, 0 0 M0 52.5 C-0.81 37.71, -0.91 23.81, 0 0" stroke="#f08c00" stroke-width="2" fill="none"></path></g><g stroke-linecap="round" transform="translate(1293.3160491383733 635.2426677135791) rotate(0 97.46094512939453 26.249999999999773)"><path d="M0 0 C61.54 0.81, 119.64 -0.06, 194.92 0 M0 0 C43.92 0.53, 88.74 0.93, 194.92 0 M194.92 0 C195.63 17.53, 195.77 34.59, 194.92 52.5 M194.92 0 C195.27 13.24, 194.11 25.53, 194.92 52.5 M194.92 52.5 C140.25 52.37, 88.5 51.32, 0 52.5 M194.92 52.5 C146.7 55.02, 98.51 54.72, 0 52.5 M0 52.5 C1.3 34.6, -0.99 17.53, 0 0 M0 52.5 C-0.43 40.19, 0.32 28.66, 0 0" stroke="#f08c00" stroke-width="2" fill="none"></path></g><g stroke-linecap="round" transform="translate(802.6431075646873 896.5353508648591) rotate(0 86.2890625 26.25)"><path d="M0 0 C45.29 -0.84, 92.02 0.65, 172.58 0 M0 0 C42.63 0.81, 84.38 1.35, 172.58 0 M172.58 0 C173.36 11.99, 171.47 23.33, 172.58 52.5 M172.58 0 C171.93 18.33, 172.53 36.36, 172.58 52.5 M172.58 52.5 C117.24 50.11, 57.66 52.36, 0 52.5 M172.58 52.5 C105.05 53.92, 35.92 54.16, 0 52.5 M0 52.5 C-1.11 34.95, -2.05 15.06, 0 0 M0 52.5 C0.37 40.41, -0.32 29.36, 0 0" stroke="#f08c00" stroke-width="2" fill="none"></path></g><g stroke-linecap="round" transform="translate(745.657435567617 1036.535350864859) rotate(0 143.2747344970703 26.25)"><path d="M0 0 C88.36 1.33, 178.09 0.43, 286.55 0 M0 0 C70.03 0.65, 139.07 0.55, 286.55 0 M286.55 0 C285.48 16.84, 287.49 34.31, 286.55 52.5 M286.55 0 C285.89 20.48, 286.42 39.05, 286.55 52.5 M286.55 52.5 C210.11 50.95, 136.65 51.31, 0 52.5 M286.55 52.5 C182.73 53.63, 78.68 53.81, 0 52.5 M0 52.5 C-1.44 35.85, -1.55 20.34, 0 0 M0 52.5 C-0.71 40.41, 0.33 30.36, 0 0" stroke="#f08c00" stroke-width="2" fill="none"></path></g><g stroke-linecap="round" transform="translate(1144.0233260705468 896.5353508648591) rotate(0 120.19530487060547 26.25)"><path d="M0 0 C63.6 -1.14, 128.14 0.09, 240.39 0 M0 0 C67.47 -0.55, 136.41 -0.49, 240.39 0 M240.39 0 C240.84 17.31, 241.57 31.62, 240.39 52.5 M240.39 0 C240.57 18.31, 239.91 38.08, 240.39 52.5 M240.39 52.5 C191.15 53.78, 139.73 54.63, 0 52.5 M240.39 52.5 C160.83 54.29, 80.46 53.34, 0 52.5 M0 52.5 C-1.3 33.89, -1.24 18.32, 0 0 M0 52.5 C0.69 41.95, -0.17 31.16, 0 0" stroke="#f08c00" stroke-width="2" fill="none"></path></g><g stroke-linecap="round" transform="translate(1082.2069045617577 1036.535350864859) rotate(0 182.01173400878906 26.25)"><path d="M0 0 C124.12 1.1, 249.44 0.71, 364.02 0 M0 0 C123.15 -0.38, 246.15 -0.97, 364.02 0 M364.02 0 C365.73 14.18, 365.33 31.19, 364.02 52.5 M364.02 0 C363.82 20.73, 363.3 39.34, 364.02 52.5 M364.02 52.5 C246.83 54.84, 128.46 54.07, 0 52.5 M364.02 52.5 C234.24 54.1, 104.71 53.81, 0 52.5 M0 52.5 C-1.21 40.23, -1.3 26.66, 0 0 M0 52.5 C-0.72 41.47, -0.19 27.94, 0 0" stroke="#f08c00" stroke-width="2" fill="none"></path></g><g stroke-linecap="round" transform="translate(746.5428625740733 1255.2881736114055) rotate(0 130.78775024414062 26.25)"><path d="M0 0 C73.85 -0.77, 148.83 -2.44, 261.58 0 M0 0 C85.31 -1.17, 170.37 -0.37, 261.58 0 M261.58 0 C263.07 17.06, 263.56 35.64, 261.58 52.5 M261.58 0 C260.5 13.54, 261.63 29.05, 261.58 52.5 M261.58 52.5 C171.05 55.17, 80.4 55.26, 0 52.5 M261.58 52.5 C162.44 51.13, 62.37 51.09, 0 52.5 M0 52.5 C-1.31 39.39, -0.99 29.83, 0 0 M0 52.5 C0.27 33.01, 0.2 15.16, 0 0" stroke="#f08c00" stroke-width="2" fill="none"></path></g><g stroke-linecap="round" transform="translate(662.672424952003 1395.2881736114055) rotate(0 81.39322662353516 26.25)"><path d="M0 0 C58.9 -1.99, 116.79 -0.02, 162.79 0 M0 0 C54.15 1.4, 108.62 1.76, 162.79 0 M162.79 0 C164.66 12.03, 162.42 22.14, 162.79 52.5 M162.79 0 C162.56 20.97, 162.8 40.63, 162.79 52.5 M162.79 52.5 C98.94 53.99, 34.43 52.94, 0 52.5 M162.79 52.5 C118.93 50.31, 75.64 50.34, 0 52.5 M0 52.5 C-0.97 37.58, 1.67 20.31, 0 0 M0 52.5 C-0.08 32.18, -0.29 11.2, 0 0" stroke="#f08c00" stroke-width="2" fill="none"></path></g><g stroke-linecap="round" transform="translate(910.2635504402842 1395.2881736114055) rotate(0 100.33203887939453 26.25)"><path d="M0 0 C65.92 1.77, 131.5 1.71, 200.66 0 M0 0 C48.04 -0.02, 94.74 -0.2, 200.66 0 M200.66 0 C200.43 13.83, 202.7 27.33, 200.66 52.5 M200.66 0 C201.27 13.75, 201.78 26.56, 200.66 52.5 M200.66 52.5 C134.33 53.13, 64.5 53.73, 0 52.5 M200.66 52.5 C156.08 50.19, 112.87 50.15, 0 52.5 M0 52.5 C1.59 39.48, 2.31 28.64, 0 0 M0 52.5 C-0.26 40.06, 0.02 25.98, 0 0" stroke="#f08c00" stroke-width="2" fill="none"></path></g><g stroke-linecap="round" transform="translate(1351.8683630623545 1255.2881736114055) rotate(0 107.92317199707031 26.25)"><path d="M0 0 C48.47 -0.09, 94.72 -0.36, 215.85 0 M0 0 C72.39 -0.93, 146.01 -0.72, 215.85 0 M215.85 0 C217.29 15.56, 214.67 35.14, 215.85 52.5 M215.85 0 C217.09 21.17, 216.48 42.25, 215.85 52.5 M215.85 52.5 C141.06 52.77, 66.07 51.15, 0 52.5 M215.85 52.5 C169.71 50.16, 123 50.3, 0 52.5 M0 52.5 C1.62 35.08, -1.44 17.59, 0 0 M0 52.5 C0.13 33.15, -0.52 16.61, 0 0" stroke="#f08c00" stroke-width="2" fill="none"></path></g><g stroke-linecap="round" transform="translate(1180.5630270638194 1395.2881736114055) rotate(0 131.7122344970703 26.25)"><path d="M0 0 C83.39 -0.33, 169.37 0.18, 263.42 0 M0 0 C98.61 -0.52, 197.83 -1.41, 263.42 0 M263.42 0 C262.85 14.35, 265.79 28.69, 263.42 52.5 M263.42 0 C264.32 19.64, 264.38 38.94, 263.42 52.5 M263.42 52.5 C185.38 51.94, 108.55 51.77, 0 52.5 M263.42 52.5 C205.77 50.1, 149.53 51.15, 0 52.5 M0 52.5 C-1.63 39.5, 0.52 26.25, 0 0 M0 52.5 C-0.66 35.83, 0.06 17.95, 0 0" stroke="#f08c00" stroke-width="2" fill="none"></path></g><g stroke-linecap="round" transform="translate(1500.3677069344249 1395.2881736114055) rotate(0 106.94010162353516 26.25)"><path d="M0 0 C68.43 0.56, 136.82 -1.47, 213.88 0 M0 0 C76.18 -1.77, 151.52 -0.78, 213.88 0 M213.88 0 C215.56 12.07, 214.88 24.2, 213.88 52.5 M213.88 0 C214.51 18.25, 213.99 34.56, 213.88 52.5 M213.88 52.5 C142.92 49.86, 73.52 51.16, 0 52.5 M213.88 52.5 C168.71 51.69, 122.51 52.01, 0 52.5 M0 52.5 C1.32 36.27, 1.02 21.19, 0 0 M0 52.5 C0.39 42.27, 0.2 30.33, 0 0" stroke="#f08c00" stroke-width="2" fill="none"></path></g><g mask="url(#mask-_C4rlP__4AdXQMILmSKJM)" stroke-linecap="round"><g transform="translate(425.94048008972527 146.42848754379474) rotate(0 -129.723413960664 41.2403758665871)"><path d="M0.4 0.9 C-39.94 8.14, -201.78 30.37, -242.08 43.91 C-282.37 57.45, -241.59 76, -241.36 82.15 M-0.84 0.33 C-40.83 7.18, -199.64 28.8, -239.88 42.13 C-280.12 55.46, -242.2 73.72, -242.27 80.31" stroke="#f08c00" stroke-width="2" fill="none"></path></g><g transform="translate(425.94048008972527 146.42848754379474) rotate(0 -129.723413960664 41.2403758665871)"><path d="M-258.58 70.61 C-252.21 71.92, -247.67 75.97, -242.27 80.31 M-258.58 70.61 C-252.71 75.11, -247.02 77.55, -242.27 80.31" stroke="#f08c00" stroke-width="2" fill="none"></path></g><g transform="translate(425.94048008972527 146.42848754379474) rotate(0 -129.723413960664 41.2403758665871)"><path d="M-248.53 62.4 C-245.15 66.22, -243.65 72.74, -242.27 80.31 M-248.53 62.4 C-246.44 69.98, -244.57 75.54, -242.27 80.31" stroke="#f08c00" stroke-width="2" fill="none"></path></g></g><mask id="mask-_C4rlP__4AdXQMILmSKJM"><rect x="0" y="0" fill="#fff" width="767.0294800897253" height="327.62848754379473"></rect><rect x="88.46157225281127" y="177.17848754379474" fill="#000" width="192.77981567382812" height="25" opacity="1"></rect></mask><g mask="url(#mask-88CCUg9OmEFjjYwT3FwJ7)" stroke-linecap="round"><g transform="translate(522.3754800897252 146.42848754379474) rotate(0 -43.40135924998441 40.94095278411169)"><path d="M-0.99 0.66 C-14.49 7.88, -67.47 30.84, -80.64 44.2 C-93.81 57.56, -79.98 74.48, -80 80.81 M0.7 -0.04 C-13.03 6.78, -68.18 28.92, -81.73 42.58 C-95.28 56.24, -80.74 75.66, -80.58 81.92" stroke="#f08c00" stroke-width="2" fill="none"></path></g><g transform="translate(522.3754800897252 146.42848754379474) rotate(0 -43.40135924998441 40.94095278411169)"><path d="M-92.35 67.04 C-87.27 71.67, -82.88 77.64, -80.58 81.92 M-92.35 67.04 C-90.1 70.45, -85.88 75.83, -80.58 81.92" stroke="#f08c00" stroke-width="2" fill="none"></path></g><g transform="translate(522.3754800897252 146.42848754379474) rotate(0 -43.40135924998441 40.94095278411169)"><path d="M-80.04 62.95 C-79.03 68.85, -78.75 76.18, -80.58 81.92 M-80.04 62.95 C-81.09 67.56, -80.17 74.03, -80.58 81.92" stroke="#f08c00" stroke-width="2" fill="none"></path></g></g><mask id="mask-88CCUg9OmEFjjYwT3FwJ7"><rect x="0" y="0" fill="#fff" width="702.7384800897253" height="328.62848754379473"></rect><rect x="345.6225722528111" y="177.17848754379474" fill="#000" width="192.77981567382812" height="25" opacity="1"></rect></mask><g mask="url(#mask-BDWJW4PRY0auLElwD-v3g)" stroke-linecap="round"><g transform="translate(618.8114800897254 146.42848754379474) rotate(0 43.12095972312761 41.289790975744836)"><path d="M-0.27 0.95 C13.34 7.99, 67.36 29.32, 80.72 42.86 C94.09 56.4, 80.17 75.88, 79.93 82.17 M1.78 0.41 C15.36 7.55, 67.1 30.87, 79.96 44.19 C92.82 57.51, 79.1 74.14, 78.94 80.34" stroke="#f08c00" stroke-width="2" fill="none"></path></g><g transform="translate(618.8114800897254 146.42848754379474) rotate(0 43.12095972312761 41.289790975744836)"><path d="M78.53 61.37 C80.23 66.07, 78.19 68.95, 78.94 80.34 M78.53 61.37 C78.74 69.52, 79.13 76.43, 78.94 80.34" stroke="#f08c00" stroke-width="2" fill="none"></path></g><g transform="translate(618.8114800897254 146.42848754379474) rotate(0 43.12095972312761 41.289790975744836)"><path d="M90.82 65.54 C89.82 69.31, 85.11 71.28, 78.94 80.34 M90.82 65.54 C86.39 72.04, 82.09 77.36, 78.94 80.34" stroke="#f08c00" stroke-width="2" fill="none"></path></g></g><mask id="mask-BDWJW4PRY0auLElwD-v3g"><rect x="0" y="0" fill="#fff" width="799.1744800897253" height="328.62848754379473"></rect><rect x="602.7845722528112" y="177.17848754379474" fill="#000" width="192.77981567382812" height="25" opacity="1"></rect></mask><g mask="url(#mask-nL4l5Qqox5W3bruqwt3LS)" stroke-linecap="round"><g transform="translate(715.2464800897253 146.42848754379474) rotate(0 128.6568931369656 39.97942598490954)"><path d="M0.36 -0.39 C40.52 6.82, 200.71 30.72, 240.66 44.22 C280.6 57.72, 239.91 74.24, 240.03 80.6 M-0.91 -1.64 C39.07 5.17, 198.94 28.74, 239.48 42.61 C280.03 56.48, 241.98 75.3, 242.36 81.6" stroke="#f08c00" stroke-width="2" fill="none"></path></g><g transform="translate(715.2464800897253 146.42848754379474) rotate(0 128.6568931369656 39.97942598490954)"><path d="M248.45 63.63 C246.29 67.94, 246.76 71.93, 242.36 81.6 M248.45 63.63 C247.43 68.78, 246.39 72.98, 242.36 81.6" stroke="#f08c00" stroke-width="2" fill="none"></path></g><g transform="translate(715.2464800897253 146.42848754379474) rotate(0 128.6568931369656 39.97942598490954)"><path d="M258.58 71.74 C253.55 73.84, 251.21 75.58, 242.36 81.6 M258.58 71.74 C255.01 74.96, 251.44 77.13, 242.36 81.6" stroke="#f08c00" stroke-width="2" fill="none"></path></g></g><mask id="mask-nL4l5Qqox5W3bruqwt3LS"><rect x="0" y="0" fill="#fff" width="1056.3354800897255" height="328.62848754379473"></rect><rect x="859.9455722528113" y="177.17848754379474" fill="#000" width="192.77981567382812" height="25" opacity="1"></rect></mask><g mask="url(#mask-2SIJPlRhJGmNO26ntHtr-)" stroke-linecap="round"><g transform="translate(1335.6924800897252 146.42848754379474) rotate(0 -75.6232651297707 41.400181579287164)"><path d="M-0.43 0.97 C-24.26 8.14, -119.16 29.08, -142.64 42.65 C-166.11 56.21, -141.56 75.81, -141.29 82.36 M1.54 0.44 C-21.96 7.8, -116.58 30.5, -140.48 43.87 C-164.39 57.24, -141.91 74.64, -141.9 80.63" stroke="#f08c00" stroke-width="2" fill="none"></path></g><g transform="translate(1335.6924800897252 146.42848754379474) rotate(0 -75.6232651297707 41.400181579287164)"><path d="M-155.92 67.84 C-149.8 70.44, -147.66 76.79, -141.9 80.63 M-155.92 67.84 C-149.35 73.14, -144.37 78.45, -141.9 80.63" stroke="#f08c00" stroke-width="2" fill="none"></path></g><g transform="translate(1335.6924800897252 146.42848754379474) rotate(0 -75.6232651297707 41.400181579287164)"><path d="M-144.42 61.83 C-142.11 66.36, -143.77 74.71, -141.9 80.63 M-144.42 61.83 C-142.39 69.58, -141.97 77.28, -141.9 80.63" stroke="#f08c00" stroke-width="2" fill="none"></path></g></g><mask id="mask-2SIJPlRhJGmNO26ntHtr-"><rect x="0" y="0" fill="#fff" width="1577.2694800897252" height="328.62848754379473"></rect><rect x="1105.365564013065" y="177.17848754379474" fill="#000" width="177.4998321533203" height="25" opacity="1"></rect></mask><g mask="url(#mask-vBTlwNpHFpeH-wmYkOKbc)" stroke-linecap="round"><g transform="translate(1420.6384800897251 146.42848754379474) rotate(0 -0.2392013382919842 40.88132072985172)"><path d="M-1.06 -0.6 C-0.94 12.96, 0.02 68.6, 0.29 82.36 M0.58 1.7 C0.61 14.87, -0.43 67.8, -0.51 80.85" stroke="#f08c00" stroke-width="2" fill="none"></path></g><g transform="translate(1420.6384800897251 146.42848754379474) rotate(0 -0.2392013382919842 40.88132072985172)"><path d="M-8.74 57.25 C-7.38 64.04, -2.26 70.75, -0.51 80.85 M-8.74 57.25 C-5.14 66.36, -2.09 75.17, -0.51 80.85" stroke="#f08c00" stroke-width="2" fill="none"></path></g><g transform="translate(1420.6384800897251 146.42848754379474) rotate(0 -0.2392013382919842 40.88132072985172)"><path d="M8.36 57.48 C5.2 64.06, 5.81 70.71, -0.51 80.85 M8.36 57.48 C5.75 66.56, 2.59 75.29, -0.51 80.85" stroke="#f08c00" stroke-width="2" fill="none"></path></g></g><mask id="mask-vBTlwNpHFpeH-wmYkOKbc"><rect x="0" y="0" fill="#fff" width="1520.6384800897251" height="328.62848754379473"></rect><rect x="1332.3685673699986" y="174.52848754379465" fill="#000" width="176.53982543945312" height="25" opacity="1"></rect></mask><g stroke-linecap="round"><g transform="translate(1513.4004800897253 146.42848754379474) rotate(0 82.92260602777864 41.159897286589285)"><path d="M0.29 1.16 C26.33 8.6, 129.26 30.61, 155.18 44.01 C181.1 57.41, 155.81 75.28, 155.79 81.59 M-1.02 0.73 C25.01 7.88, 128.42 29.17, 154.53 42.29 C180.64 55.41, 155.48 73.22, 155.65 79.45" stroke="#f08c00" stroke-width="2" fill="none"></path></g><g transform="translate(1513.4004800897253 146.42848754379474) rotate(0 82.92260602777864 41.159897286589285)"><path d="M158.66 60.72 C159.77 65.6, 158.49 70.53, 155.65 79.45 M158.66 60.72 C158.14 67.72, 156.65 72.86, 155.65 79.45" stroke="#f08c00" stroke-width="2" fill="none"></path></g><g transform="translate(1513.4004800897253 146.42848754379474) rotate(0 82.92260602777864 41.159897286589285)"><path d="M170 67.03 C168.74 70.61, 165.06 74.2, 155.65 79.45 M170 67.03 C165.69 72, 160.42 75.04, 155.65 79.45" stroke="#f08c00" stroke-width="2" fill="none"></path></g></g><mask></mask><g mask="url(#mask-Jq0HK4IWJj2MBpz6ieNM2)" stroke-linecap="round"><g transform="translate(1931.6354800897252 146.42848754379474) rotate(0 0.30516126633921203 40.85127383797908)"><path d="M0.58 0.76 C0.73 14.16, 1.21 68.07, 1.19 81.59 M-0.58 0.11 C-0.51 13.65, 0.78 66.38, 0.87 79.67" stroke="#f08c00" stroke-width="2" fill="none"></path></g><g transform="translate(1931.6354800897252 146.42848754379474) rotate(0 0.30516126633921203 40.85127383797908)"><path d="M-8.07 56.32 C-3.68 65.83, -1.4 72.17, 0.87 79.67 M-8.07 56.32 C-4.87 64.23, -1.35 72.08, 0.87 79.67" stroke="#f08c00" stroke-width="2" fill="none"></path></g><g transform="translate(1931.6354800897252 146.42848754379474) rotate(0 0.30516126633921203 40.85127383797908)"><path d="M9.03 56.04 C7.88 65.72, 4.62 72.15, 0.87 79.67 M9.03 56.04 C6.14 64.18, 3.56 72.14, 0.87 79.67" stroke="#f08c00" stroke-width="2" fill="none"></path></g></g><mask id="mask-Jq0HK4IWJj2MBpz6ieNM2"><rect x="0" y="0" fill="#fff" width="2031.6354800897252" height="328.62848754379473"></rect><rect x="1840.595555468143" y="162.02848754379465" fill="#000" width="182.07984924316406" height="50" opacity="1"></rect></mask><g mask="url(#mask-9iojNfRFmDrFqN6cQRDKS)" stroke-linecap="round"><g transform="translate(798.6289899647891 548.2426677135791) rotate(0 0.4659880586759755 40.71278538196816)"><path d="M1.19 0.39 C1.17 13.91, 0.56 68.25, 0.45 81.88 M0.36 -0.45 C0.17 12.66, -0.2 66.65, -0.26 80.11" stroke="#f08c00" stroke-width="2" fill="none"></path></g><g transform="translate(798.6289899647891 548.2426677135791) rotate(0 0.4659880586759755 40.71278538196816)"><path d="M-8.67 56.57 C-4.95 65.43, -1.54 73.74, -0.26 80.11 M-8.67 56.57 C-5.25 64.72, -2.98 73.61, -0.26 80.11" stroke="#f08c00" stroke-width="2" fill="none"></path></g><g transform="translate(798.6289899647891 548.2426677135791) rotate(0 0.4659880586759755 40.71278538196816)"><path d="M8.43 56.67 C6.2 65.67, 3.66 73.94, -0.26 80.11 M8.43 56.67 C5.36 64.73, 1.13 73.58, -0.26 80.11" stroke="#f08c00" stroke-width="2" fill="none"></path></g></g><mask id="mask-9iojNfRFmDrFqN6cQRDKS"><rect x="0" y="0" fill="#fff" width="898.6289899647891" height="730.4426677135791"></rect><rect x="721.3990552724063" y="576.342667713579" fill="#000" width="154.45986938476562" height="25" opacity="1"></rect></mask><g mask="url(#mask-Cl_kixLdB094akAk46NJN)" stroke-linecap="round"><g transform="translate(1208.1459899647894 548.2426677135791) rotate(0 -44.555904790950464 40.93411499648346)"><path d="M0.45 0.68 C-13.49 7.98, -68.56 30.86, -82.49 44.21 C-96.42 57.56, -83.08 74.78, -83.12 80.78 M-0.77 -0.01 C-14.93 6.93, -69.3 28.94, -83.16 42.59 C-97.02 56.24, -84.08 75.51, -83.94 81.88" stroke="#f08c00" stroke-width="2" fill="none"></path></g><g transform="translate(1208.1459899647894 548.2426677135791) rotate(0 -44.555904790950464 40.93411499648346)"><path d="M-95.12 66.55 C-89.53 73.46, -84.63 78.58, -83.94 81.88 M-95.12 66.55 C-92.76 69.89, -89.89 73.98, -83.94 81.88" stroke="#f08c00" stroke-width="2" fill="none"></path></g><g transform="translate(1208.1459899647894 548.2426677135791) rotate(0 -44.555904790950464 40.93411499648346)"><path d="M-82.64 62.95 C-82.03 71.34, -82.1 77.9, -83.94 81.88 M-82.64 62.95 C-83.58 67.14, -84.03 72.19, -83.94 81.88" stroke="#f08c00" stroke-width="2" fill="none"></path></g></g><mask id="mask-Cl_kixLdB094akAk46NJN"><rect x="0" y="0" fill="#fff" width="1391.1599899647895" height="730.4426677135791"></rect><rect x="1017.6320891469181" y="578.9926677135786" fill="#000" width="214.9998016357422" height="25" opacity="1"></rect></mask><g mask="url(#mask-Ovj5Pj6wyZ0IaKfrZueQX)" stroke-linecap="round"><g transform="translate(1307.762989964789 548.2426677135791) rotate(0 44.25759998612889 40.72136913686063)"><path d="M0.52 0.96 C14.27 7.98, 69.11 29.62, 82.91 42.83 C96.71 56.04, 83.43 74, 83.31 80.22 M-0.66 0.41 C12.88 7.55, 68.01 30.72, 81.91 44.15 C95.8 57.59, 82.68 74.93, 82.7 81.03" stroke="#f08c00" stroke-width="2" fill="none"></path></g><g transform="translate(1307.762989964789 548.2426677135791) rotate(0 44.25759998612889 40.72136913686063)"><path d="M81.63 62.08 C83.61 68.31, 81.8 75.34, 82.7 81.03 M81.63 62.08 C81 65.45, 81.93 69.55, 82.7 81.03" stroke="#f08c00" stroke-width="2" fill="none"></path></g><g transform="translate(1307.762989964789 548.2426677135791) rotate(0 44.25759998612889 40.72136913686063)"><path d="M94.06 65.83 C91.82 70.85, 85.81 76.61, 82.7 81.03 M94.06 65.83 C90.73 68.27, 88.95 71.55, 82.7 81.03" stroke="#f08c00" stroke-width="2" fill="none"></path></g></g><mask id="mask-Ovj5Pj6wyZ0IaKfrZueQX"><rect x="0" y="0" fill="#fff" width="1490.7769899647892" height="730.4426677135791"></rect><rect x="1283.2770891469181" y="578.9926677135786" fill="#000" width="214.9998016357422" height="25" opacity="1"></rect></mask><g mask="url(#mask-kJeQo5YK8rg5qIjwruUhM)" stroke-linecap="round"><g transform="translate(888.9324355676171 949.5353508648591) rotate(0 -0.6704096738578471 39.783940636059015)"><path d="M-0.1 -0.42 C-0.14 12.79, 0.41 66.79, 0.3 80.22 M-1.62 -1.68 C-1.83 11.57, -1.04 67.48, -0.5 81.25" stroke="#f08c00" stroke-width="2" fill="none"></path></g><g transform="translate(888.9324355676171 949.5353508648591) rotate(0 -0.6704096738578471 39.783940636059015)"><path d="M-9.62 57.97 C-6.99 66.47, -4.79 72.62, -0.5 81.25 M-9.62 57.97 C-7.89 62.14, -6.64 67.28, -0.5 81.25" stroke="#f08c00" stroke-width="2" fill="none"></path></g><g transform="translate(888.9324355676171 949.5353508648591) rotate(0 -0.6704096738578471 39.783940636059015)"><path d="M7.48 57.56 C4.23 66.19, 0.56 72.48, -0.5 81.25 M7.48 57.56 C5.55 61.67, 3.15 66.9, -0.5 81.25" stroke="#f08c00" stroke-width="2" fill="none"></path></g></g><mask id="mask-kJeQo5YK8rg5qIjwruUhM"><rect x="0" y="0" fill="#fff" width="988.9324355676171" height="1131.7353508648591"></rect><rect x="804.8324981286522" y="965.1353508648581" fill="#000" width="168.1998748779297" height="50" opacity="1"></rect></mask><g mask="url(#mask-YufMG4iuFV1d-eMkPRn2p)" stroke-linecap="round"><g transform="translate(1264.2184355676172 949.5353508648591) rotate(0 0.23172300101257548 40.08998558029043)"><path d="M0.3 -0.98 C0.18 12.45, -0.61 66.63, -0.81 80.16 M-1.01 1.13 C-0.74 14.71, 1.06 67.84, 1.47 81.16" stroke="#f08c00" stroke-width="2" fill="none"></path></g><g transform="translate(1264.2184355676172 949.5353508648591) rotate(0 0.23172300101257548 40.08998558029043)"><path d="M-7.83 57.95 C-6.83 63.33, -4.22 69.88, 1.47 81.16 M-7.83 57.95 C-6.56 62.35, -3.5 68.69, 1.47 81.16" stroke="#f08c00" stroke-width="2" fill="none"></path></g><g transform="translate(1264.2184355676172 949.5353508648591) rotate(0 0.23172300101257548 40.08998558029043)"><path d="M9.26 57.4 C5.28 62.98, 2.91 69.7, 1.47 81.16 M9.26 57.4 C6.83 61.76, 6.18 68.23, 1.47 81.16" stroke="#f08c00" stroke-width="2" fill="none"></path></g></g><mask id="mask-YufMG4iuFV1d-eMkPRn2p"><rect x="0" y="0" fill="#fff" width="1364.2184355676172" height="1131.7353508648591"></rect><rect x="1169.0885374963282" y="977.6353508648581" fill="#000" width="190.25979614257812" height="25" opacity="1"></rect></mask><g mask="url(#mask-PGr3u0jIZC5ejF8Fg5xad)" stroke-linecap="round"><g transform="translate(827.3564483284681 1308.2881736114055) rotate(0 -44.58169857626257 39.93916354536532)"><path d="M-0.81 -1.04 C-14.9 6.17, -70.48 28.72, -84.23 42.25 C-97.98 55.78, -83.35 73.8, -83.34 80.15 M0.96 1.03 C-12.78 8.44, -67.83 29.95, -82.01 43.26 C-96.19 56.58, -83.74 74.63, -84.13 80.92" stroke="#f08c00" stroke-width="2" fill="none"></path></g><g transform="translate(827.3564483284681 1308.2881736114055) rotate(0 -44.58169857626257 39.93916354536532)"><path d="M-94.66 65.13 C-93.01 68.84, -89.53 75.38, -84.13 80.92 M-94.66 65.13 C-92.25 69.13, -90.83 72.83, -84.13 80.92" stroke="#f08c00" stroke-width="2" fill="none"></path></g><g transform="translate(827.3564483284681 1308.2881736114055) rotate(0 -44.58169857626257 39.93916354536532)"><path d="M-82.06 62.05 C-84.52 66.68, -85.14 74.21, -84.13 80.92 M-82.06 62.05 C-82.34 66.62, -83.6 70.97, -84.13 80.92" stroke="#f08c00" stroke-width="2" fill="none"></path></g></g><mask id="mask-PGr3u0jIZC5ejF8Fg5xad"><rect x="0" y="0" fill="#fff" width="1010.6474483284683" height="1490.4881736114055"></rect><rect x="647.6555285896984" y="1339.038173611406" fill="#000" width="192.81983947753906" height="25" opacity="1"></rect></mask><g mask="url(#mask-aYd8shHQwgH50bMLmIUbU)" stroke-linecap="round"><g transform="translate(927.3054483284677 1308.2881736114055) rotate(0 44.12650584747948 40.104961588378046)"><path d="M-0.94 -1 C13.07 6.21, 69.35 28.64, 83.24 42.2 C97.13 55.76, 82.34 73.72, 82.41 80.34 M0.77 1.09 C14.69 8.5, 68.25 29.83, 82.27 43.19 C96.28 56.54, 84.54 75.12, 84.84 81.21" stroke="#f08c00" stroke-width="2" fill="none"></path></g><g transform="translate(927.3054483284677 1308.2881736114055) rotate(0 44.12650584747948 40.104961588378046)"><path d="M82.58 62.37 C81.36 66.68, 81.81 69.75, 84.84 81.21 M82.58 62.37 C82.63 67.58, 83.65 70.44, 84.84 81.21" stroke="#f08c00" stroke-width="2" fill="none"></path></g><g transform="translate(927.3054483284677 1308.2881736114055) rotate(0 44.12650584747948 40.104961588378046)"><path d="M95.22 65.32 C91.09 68.85, 88.6 71.23, 84.84 81.21 M95.22 65.32 C92.37 69.94, 90.5 72.12, 84.84 81.21" stroke="#f08c00" stroke-width="2" fill="none"></path></g></g><mask id="mask-aYd8shHQwgH50bMLmIUbU"><rect x="0" y="0" fill="#fff" width="1110.5954483284677" height="1490.4881736114055"></rect><rect x="901.2155502571786" y="1339.038173611406" fill="#000" width="218.75979614257812" height="25" opacity="1"></rect></mask><g mask="url(#mask-cpst_ZXutqizA9a-Osi4c)" stroke-linecap="round"><g transform="translate(1404.472448328468 1308.2881736114055) rotate(0 -49.81073475065661 40.43777476847163)"><path d="M-0.05 -1.05 C-15.41 6.18, -77.78 28.56, -93.08 42.39 C-108.37 56.22, -91.86 75.26, -91.83 81.93 M-1.53 1.01 C-16.43 8.46, -75.68 30.32, -90.83 43.48 C-105.97 56.64, -92.04 73.81, -92.4 79.96" stroke="#f08c00" stroke-width="2" fill="none"></path></g><g transform="translate(1404.472448328468 1308.2881736114055) rotate(0 -49.81073475065661 40.43777476847163)"><path d="M-103.62 64.66 C-102.92 66.67, -100.13 72.04, -92.4 79.96 M-103.62 64.66 C-99.68 69.54, -95.7 76.07, -92.4 79.96" stroke="#f08c00" stroke-width="2" fill="none"></path></g><g transform="translate(1404.472448328468 1308.2881736114055) rotate(0 -49.81073475065661 40.43777476847163)"><path d="M-91.16 61.03 C-93.25 63.84, -93.22 70.01, -92.4 79.96 M-91.16 61.03 C-91.74 67.34, -92.24 75.18, -92.4 79.96" stroke="#f08c00" stroke-width="2" fill="none"></path></g></g><mask id="mask-cpst_ZXutqizA9a-Osi4c"><rect x="0" y="0" fill="#fff" width="1596.6694483284682" height="1490.4881736114055"></rect><rect x="1247.815502649757" y="1326.538173611406" fill="#000" width="128.91989135742188" height="50" opacity="1"></rect></mask><g mask="url(#mask-Ddjf342rxYRiuisSu-HBv)" stroke-linecap="round"><g transform="translate(1515.110448328468 1308.2881736114055) rotate(0 49.14354481522632 40.75216943323585)"><path d="M-0.88 -0.86 C14.56 6.65, 77.17 30.11, 92.57 43.98 C107.97 57.85, 91.59 76.27, 91.53 82.36 M0.86 1.31 C16.17 8.56, 76.89 29.01, 91.81 42.23 C106.74 55.46, 90.31 74.12, 90.41 80.63" stroke="#f08c00" stroke-width="2" fill="none"></path></g><g transform="translate(1515.110448328468 1308.2881736114055) rotate(0 49.14354481522632 40.75216943323585)"><path d="M90.27 61.65 C88.79 67.85, 91.34 71.83, 90.41 80.63 M90.27 61.65 C90.24 69.67, 90.09 77.06, 90.41 80.63" stroke="#f08c00" stroke-width="2" fill="none"></path></g><g transform="translate(1515.110448328468 1308.2881736114055) rotate(0 49.14354481522632 40.75216943323585)"><path d="M102.5 66 C97.44 70.83, 96.37 73.51, 90.41 80.63 M102.5 66 C97.62 72.22, 92.61 77.89, 90.41 80.63" stroke="#f08c00" stroke-width="2" fill="none"></path></g></g><mask id="mask-Ddjf342rxYRiuisSu-HBv"><rect x="0" y="0" fill="#fff" width="1707.3074483284681" height="1490.4881736114055"></rect><rect x="1500.707549036476" y="1339.038173611406" fill="#000" width="213.19979858398438" height="25" opacity="1"></rect></mask><g mask="url(#mask-wP4-OlN5nrpTVS9a4RaFk)" stroke-linecap="round"><g transform="translate(1037.9581448800004 313.7419829582668) rotate(0 -0.2700090125107977 76.61901940945427)"><path d="M0.37 0.73 C0.27 26.4, -1.26 128.07, -1.45 153.18 M-0.9 0.06 C-0.52 25.51, 1.02 126.29, 0.91 151.66" stroke="#f08c00" stroke-width="2" fill="none"></path></g><g transform="translate(1037.9581448800004 313.7419829582668) rotate(0 -0.2700090125107977 76.61901940945427)"><path d="M-7.8 128.23 C-4.79 132.4, -2.08 138.78, 0.91 151.66 M-7.8 128.23 C-6 134.26, -3.6 138.71, 0.91 151.66" stroke="#f08c00" stroke-width="2" fill="none"></path></g><g transform="translate(1037.9581448800004 313.7419829582668) rotate(0 -0.2700090125107977 76.61901940945427)"><path d="M9.3 128.11 C8.44 132.36, 7.26 138.77, 0.91 151.66 M9.3 128.11 C6.93 134.26, 5.16 138.74, 0.91 151.66" stroke="#f08c00" stroke-width="2" fill="none"></path></g></g><mask id="mask-wP4-OlN5nrpTVS9a4RaFk"><rect x="0" y="0" fill="#fff" width="1138.742388915019" height="565.7566764337143"></rect><rect x="934.0161037340731" y="364.7493296959906" fill="#000" width="207.09983825683594" height="50" opacity="1"></rect></mask><g transform="translate(934.0161037340731 364.74932969599104) rotate(0 103.67203213341656 25.611672671730503)"><text x="103.54991912841797" y="17.52" font-family="Virgil, Segoe UI Emoji" font-size="20px" fill="#f08c00" text-anchor="middle" style="white-space: pre;" direction="ltr" dominant-baseline="alphabetic">Ingested data from </text><text x="103.54991912841797" y="42.519999999999996" font-family="Virgil, Segoe UI Emoji" font-size="20px" fill="#f08c00" text-anchor="middle" style="white-space: pre;" direction="ltr" dominant-baseline="alphabetic">various sources</text></g><g mask="url(#mask-43En9fwsOW0VPD_2x1uES)" stroke-linecap="round"><g transform="translate(1033.333577330362 714.8582628872932) rotate(0 0.9008177026247779 72.26180828332781)"><path d="M-0.67 1.16 C-0.32 24.81, 1.96 118.82, 2.47 142.61 M1.18 0.73 C1.34 24.46, 1.44 120.27, 1.51 143.8" stroke="#f08c00" stroke-width="2" fill="none"></path></g><g transform="translate(1033.333577330362 714.8582628872932) rotate(0 0.9008177026247779 72.26180828332781)"><path d="M-7.09 120.32 C-2.17 128.09, -2.38 135.73, 1.51 143.8 M-7.09 120.32 C-4.17 127.63, -1.8 137.77, 1.51 143.8" stroke="#f08c00" stroke-width="2" fill="none"></path></g><g transform="translate(1033.333577330362 714.8582628872932) rotate(0 0.9008177026247779 72.26180828332781)"><path d="M10.01 120.29 C9.28 127.97, 3.41 135.62, 1.51 143.8 M10.01 120.29 C6.93 127.67, 3.29 137.82, 1.51 143.8" stroke="#f08c00" stroke-width="2" fill="none"></path></g></g><mask id="mask-43En9fwsOW0VPD_2x1uES"><rect x="0" y="0" fill="#fff" width="1135.8327643019738" height="958.1453394627674"></rect><rect x="932.1732510773984" y="761.5018011750308" fill="#000" width="204.81983947753906" height="50" opacity="1"></rect></mask><g transform="translate(932.1732510773984 761.5018011750299) rotate(0 102.06114395558834 25.61826999559071)"><text x="102.40991973876953" y="17.52" font-family="Virgil, Segoe UI Emoji" font-size="20px" fill="#f08c00" text-anchor="middle" style="white-space: pre;" direction="ltr" dominant-baseline="alphabetic">Historical data, key </text><text x="102.40991973876953" y="42.519999999999996" font-family="Virgil, Segoe UI Emoji" font-size="20px" fill="#f08c00" text-anchor="middle" style="white-space: pre;" direction="ltr" dominant-baseline="alphabetic">metrics, threshhold</text></g><g mask="url(#mask-2Zntb9ok8Dwu7oEE3JidF)" stroke-linecap="round"><g transform="translate(1057.3996595512385 1115.03533560607) rotate(0 -0.6797764787171161 52.04045940364858)"><path d="M-0.03 -0.67 C0.11 16.59, 0.16 87.21, 0.14 104.75 M-1.5 1.59 C-1.48 19.01, -0.93 86.14, -0.86 102.95" stroke="#f08c00" stroke-width="2" fill="none"></path></g><g transform="translate(1057.3996595512385 1115.03533560607) rotate(0 -0.6797764787171161 52.04045940364858)"><path d="M-9.56 79.52 C-8.33 85.07, -4.06 90.36, -0.86 102.95 M-9.56 79.52 C-7.32 88.46, -3.68 96.11, -0.86 102.95" stroke="#f08c00" stroke-width="2" fill="none"></path></g><g transform="translate(1057.3996595512385 1115.03533560607) rotate(0 -0.6797764787171161 52.04045940364858)"><path d="M7.54 79.41 C4.59 84.98, 4.69 90.3, -0.86 102.95 M7.54 79.41 C4.03 88.24, 1.92 95.92, -0.86 102.95" stroke="#f08c00" stroke-width="2" fill="none"></path></g></g><mask id="mask-2Zntb9ok8Dwu7oEE3JidF"><rect x="0" y="0" fill="#fff" width="1157.645490083847" height="1319.1746346058858"></rect><rect x="1013.652617847328" y="1154.604985105977" fill="#000" width="87.73991394042969" height="25" opacity="1"></rect></mask><g transform="translate(1013.652617847328 1154.604985105978) rotate(0 43.06726522519344 12.470809903741156)"><text x="43.869956970214844" y="17.52" font-family="Virgil, Segoe UI Emoji" font-size="20px" fill="#f08c00" text-anchor="middle" style="white-space: pre;" direction="ltr" dominant-baseline="alphabetic">Evolution</text></g><g transform="translate(1038.5967947640147 1235.2881736114055) rotate(0 134.72988891601562 12.5)"><text x="134.72988891601562" y="17.52" font-family="Virgil, Segoe UI Emoji" font-size="20px" fill="#f08c00" text-anchor="middle" style="white-space: pre;" direction="ltr" dominant-baseline="alphabetic">Scalability and Extensibility</text></g><g transform="translate(960.0840102746482 876.5353508648591) rotate(0 135.85989379882812 12.5)"><text x="135.85989379882812" y="17.52" font-family="Virgil, Segoe UI Emoji" font-size="20px" fill="#f08c00" text-anchor="middle" style="white-space: pre;" direction="ltr" dominant-baseline="alphabetic">Data Analysis and Insights</text></g><g transform="translate(930.5958686268987 475.24266771357907) rotate(0 149.2598876953125 12.5)"><text x="149.2598876953125" y="17.52" font-family="Virgil, Segoe UI Emoji" font-size="20px" fill="#f08c00" text-anchor="middle" style="white-space: pre;" direction="ltr" dominant-baseline="alphabetic">Data Visualization and Alerts</text></g><g transform="translate(930.0578488641393 73.42848754379474) rotate(0 152.01988220214844 12.5)"><text x="152.01988220214844" y="17.52" font-family="Virgil, Segoe UI Emoji" font-size="20px" fill="#f08c00" text-anchor="middle" style="white-space: pre;" direction="ltr" dominant-baseline="alphabetic">Monitoring and Data Collection</text></g><g transform="translate(433.06350987488145 107.17848754379474) rotate(0 137.52987670898438 12.5)"><text x="137.52987670898438" y="17.52" font-family="Virgil, Segoe UI Emoji" font-size="20px" fill="#f08c00" text-anchor="middle" style="white-space: pre;" direction="ltr" dominant-baseline="alphabetic">Water_Quality_Parameters</text></g><g transform="translate(174.41121953064317 247.17848754379474) rotate(0 10.439987182617188 12.5)"><text x="10.439987182617188" y="17.52" font-family="Virgil, Segoe UI Emoji" font-size="20px" fill="#f08c00" text-anchor="middle" style="white-space: pre;" direction="ltr" dominant-baseline="alphabetic">pH</text></g><g transform="translate(379.70272343689317 247.17848754379474) rotate(0 62.3099365234375 12.5)"><text x="62.3099365234375" y="17.52" font-family="Virgil, Segoe UI Emoji" font-size="20px" fill="#f08c00" text-anchor="middle" style="white-space: pre;" direction="ltr" dominant-baseline="alphabetic">Temperature</text></g><g transform="translate(664.4041470819127 247.17848754379474) rotate(0 34.76996612548828 12.5)"><text x="34.76996612548828" y="17.52" font-family="Virgil, Segoe UI Emoji" font-size="20px" fill="#f08c00" text-anchor="middle" style="white-space: pre;" direction="ltr" dominant-baseline="alphabetic">Salinity</text></g><g transform="translate(885.1356305413854 247.17848754379474) rotate(0 71.19993591308594 12.5)"><text x="71.19993591308594" y="17.52" font-family="Virgil, Segoe UI Emoji" font-size="20px" fill="#f08c00" text-anchor="middle" style="white-space: pre;" direction="ltr" dominant-baseline="alphabetic">Oxygen_Levels</text></g><g transform="translate(1318.8790387445104 107.17848754379474) rotate(0 101.75992584228516 12.5)"><text x="101.75992584228516" y="17.52" font-family="Virgil, Segoe UI Emoji" font-size="20px" fill="#f08c00" text-anchor="middle" style="white-space: pre;" direction="ltr" dominant-baseline="alphabetic">Underwater Cameras</text></g><g transform="translate(1139.9455670648229 247.17848754379474) rotate(0 54.169952392578125 12.5)"><text x="54.169952392578125" y="17.52" font-family="Virgil, Segoe UI Emoji" font-size="20px" fill="#f08c00" text-anchor="middle" style="white-space: pre;" direction="ltr" dominant-baseline="alphabetic">Fish Health</text></g><g transform="translate(1356.8990277581822 247.17848754379474) rotate(0 63.73993682861328 12.5)"><text x="63.73993682861328" y="17.52" font-family="Virgil, Segoe UI Emoji" font-size="20px" fill="#f08c00" text-anchor="middle" style="white-space: pre;" direction="ltr" dominant-baseline="alphabetic">Fish_Activity</text></g><g transform="translate(1563.862330370487 247.17848754379474) rotate(0 104.13990020751953 12.5)"><text x="104.13990020751953" y="17.52" font-family="Virgil, Segoe UI Emoji" font-size="20px" fill="#f08c00" text-anchor="middle" style="white-space: pre;" direction="ltr" dominant-baseline="alphabetic">Parasites_Detection</text></g><g transform="translate(1805.105166369022 107.17848754379474) rotate(0 126.5298843383789 12.5)"><text x="126.5298843383789" y="17.52" font-family="Virgil, Segoe UI Emoji" font-size="20px" fill="#f08c00" text-anchor="middle" style="white-space: pre;" direction="ltr" dominant-baseline="alphabetic">Fish_Recognition_Feature</text></g><g transform="translate(1857.6551236444127 247.17848754379474) rotate(0 73.97992706298828 12.5)"><text x="73.97992706298828" y="17.52" font-family="Virgil, Segoe UI Emoji" font-size="20px" fill="#f08c00" text-anchor="middle" style="white-space: pre;" direction="ltr" dominant-baseline="alphabetic">Fish_Monitoring</text></g><g transform="translate(669.9886908925237 508.99266771357907) rotate(0 128.63987731933594 12.5)"><text x="128.63987731933594" y="17.52" font-family="Virgil, Segoe UI Emoji" font-size="20px" fill="#f08c00" text-anchor="middle" style="white-space: pre;" direction="ltr" dominant-baseline="alphabetic">Customizable_Dashboards</text></g><g transform="translate(672.0086799061955 648.9926677135791) rotate(0 126.61988830566406 12.5)"><text x="126.61988830566406" y="17.52" font-family="Virgil, Segoe UI Emoji" font-size="20px" fill="#f08c00" text-anchor="middle" style="white-space: pre;" direction="ltr" dominant-baseline="alphabetic">Collected_Data_Insights</text></g><g transform="translate(1133.8848433888616 508.99266771357907) rotate(0 124.06988525390625 12.5)"><text x="124.06988525390625" y="17.52" font-family="Virgil, Segoe UI Emoji" font-size="20px" fill="#f08c00" text-anchor="middle" style="white-space: pre;" direction="ltr" dominant-baseline="alphabetic">Threshold_Based_Alerts</text></g><g transform="translate(1024.8825469411076 648.9926677135791) rotate(0 100.24990844726562 12.5)"><text x="100.24990844726562" y="17.52" font-family="Virgil, Segoe UI Emoji" font-size="20px" fill="#f08c00" text-anchor="middle" style="white-space: pre;" direction="ltr" dominant-baseline="alphabetic">Critical_Parameters</text></g><g transform="translate(1309.3670592702092 648.9926677135791) rotate(0 81.4099349975586 12.5)"><text x="81.4099349975586" y="17.52" font-family="Virgil, Segoe UI Emoji" font-size="20px" fill="#f08c00" text-anchor="middle" style="white-space: pre;" direction="ltr" dominant-baseline="alphabetic">Weather_Events</text></g><g transform="translate(813.1122237756248 910.2853508648591) rotate(0 75.8199462890625 12.5)"><text x="75.8199462890625" y="17.52" font-family="Virgil, Segoe UI Emoji" font-size="20px" fill="#f08c00" text-anchor="middle" style="white-space: pre;" direction="ltr" dominant-baseline="alphabetic">Data_Tracking</text></g><g transform="translate(766.4222823693748 1050.285350864859) rotate(0 122.5098876953125 12.5)"><text x="122.5098876953125" y="17.52" font-family="Virgil, Segoe UI Emoji" font-size="20px" fill="#f08c00" text-anchor="middle" style="white-space: pre;" direction="ltr" dominant-baseline="alphabetic">Harvested_Fish_Analysis</text></g><g transform="translate(1158.748728902578 910.2853508648591) rotate(0 105.46990203857422 12.5)"><text x="105.46990203857422" y="17.52" font-family="Virgil, Segoe UI Emoji" font-size="20px" fill="#f08c00" text-anchor="middle" style="white-space: pre;" direction="ltr" dominant-baseline="alphabetic">Cross_Farm_Insights</text></g><g transform="translate(1110.9987899377343 1050.285350864859) rotate(0 153.2198486328125 12.5)"><text x="153.2198486328125" y="17.52" font-family="Virgil, Segoe UI Emoji" font-size="20px" fill="#f08c00" text-anchor="middle" style="white-space: pre;" direction="ltr" dominant-baseline="alphabetic">Large_Customers_Optimization</text></g><g transform="translate(768.5707098641124 1269.0381736114055) rotate(0 108.75990295410156 12.5)"><text x="108.75990295410156" y="17.52" font-family="Virgil, Segoe UI Emoji" font-size="20px" fill="#f08c00" text-anchor="middle" style="white-space: pre;" direction="ltr" dominant-baseline="alphabetic">Scalable_Architecture</text></g><g transform="translate(675.935722986671 1409.0381736114055) rotate(0 68.12992858886719 12.5)"><text x="68.12992858886719" y="17.52" font-family="Virgil, Segoe UI Emoji" font-size="20px" fill="#f08c00" text-anchor="middle" style="white-space: pre;" direction="ltr" dominant-baseline="alphabetic">Various_Sizes</text></g><g transform="translate(928.4956747688975 1409.0381736114055) rotate(0 82.09991455078125 12.5)"><text x="82.09991455078125" y="17.52" font-family="Virgil, Segoe UI Emoji" font-size="20px" fill="#f08c00" text-anchor="middle" style="white-space: pre;" direction="ltr" dominant-baseline="alphabetic">Fish_Populations</text></g><g transform="translate(1372.0116202034678 1269.0381736114055) rotate(0 87.77991485595703 12.5)"><text x="87.77991485595703" y="17.52" font-family="Virgil, Segoe UI Emoji" font-size="20px" fill="#f08c00" text-anchor="middle" style="white-space: pre;" direction="ltr" dominant-baseline="alphabetic">Extensible_Design</text></g><g transform="translate(1205.7653509773936 1409.0381736114055) rotate(0 106.5099105834961 12.5)"><text x="106.5099105834961" y="17.52" font-family="Virgil, Segoe UI Emoji" font-size="20px" fill="#f08c00" text-anchor="middle" style="white-space: pre;" direction="ltr" dominant-baseline="alphabetic">Future_Enhancements</text></g><g transform="translate(1518.237885157081 1409.0381736114055) rotate(0 89.0699234008789 12.5)"><text x="89.0699234008789" y="17.52" font-family="Virgil, Segoe UI Emoji" font-size="20px" fill="#f08c00" text-anchor="middle" style="white-space: pre;" direction="ltr" dominant-baseline="alphabetic">Cattle_Aquariums</text></g><g transform="translate(88.46157225281127 177.17848754379474) rotate(0 207.75549387625 10.490375866587101)"><text x="96.38990783691406" y="17.52" font-family="Virgil, Segoe UI Emoji" font-size="20px" fill="#f08c00" text-anchor="middle" style="white-space: pre;" direction="ltr" dominant-baseline="alphabetic">Real-time monitoring</text></g><g transform="translate(345.6225722528111 177.17848754379474) rotate(0 133.3515485869297 10.190952784111687)"><text x="96.38990783691406" y="17.52" font-family="Virgil, Segoe UI Emoji" font-size="20px" fill="#f08c00" text-anchor="middle" style="white-space: pre;" direction="ltr" dominant-baseline="alphabetic">Real-time monitoring</text></g><g transform="translate(602.7845722528112 177.17848754379474) rotate(0 59.14786756004173 10.539790975744836)"><text x="96.38990783691406" y="17.52" font-family="Virgil, Segoe UI Emoji" font-size="20px" fill="#f08c00" text-anchor="middle" style="white-space: pre;" direction="ltr" dominant-baseline="alphabetic">Real-time monitoring</text></g><g transform="translate(859.9455722528113 177.17848754379474) rotate(0 -16.042199026120386 9.22942598490954)"><text x="96.38990783691406" y="17.52" font-family="Virgil, Segoe UI Emoji" font-size="20px" fill="#f08c00" text-anchor="middle" style="white-space: pre;" direction="ltr" dominant-baseline="alphabetic">Real-time monitoring</text></g><g transform="translate(1105.365564013065 177.17848754379474) rotate(0 154.70365094688947 10.650181579287164)"><text x="88.74991607666016" y="17.52" font-family="Virgil, Segoe UI Emoji" font-size="20px" fill="#f08c00" text-anchor="middle" style="white-space: pre;" direction="ltr" dominant-baseline="alphabetic">Visual assessment</text></g><g transform="translate(1332.3685673699986 174.52848754379465) rotate(0 88.03071138143457 12.781320729851814)"><text x="88.26991271972656" y="17.52" font-family="Virgil, Segoe UI Emoji" font-size="20px" fill="#f08c00" text-anchor="middle" style="white-space: pre;" direction="ltr" dominant-baseline="alphabetic">Activity monitoring</text></g><g transform="translate(1840.595555468143 162.02848754379465) rotate(0 91.34508588792124 25.25127383797917)"><text x="91.03992462158203" y="17.52" font-family="Virgil, Segoe UI Emoji" font-size="20px" fill="#f08c00" text-anchor="middle" style="white-space: pre;" direction="ltr" dominant-baseline="alphabetic">Health &amp; lifecycle </text><text x="91.03992462158203" y="42.519999999999996" font-family="Virgil, Segoe UI Emoji" font-size="20px" fill="#f08c00" text-anchor="middle" style="white-space: pre;" direction="ltr" dominant-baseline="alphabetic">monitoring</text></g><g transform="translate(721.3990552724063 576.3426677135785) rotate(0 77.69592275105879 12.612785381968251)"><text x="77.22993469238281" y="17.52" font-family="Virgil, Segoe UI Emoji" font-size="20px" fill="#f08c00" text-anchor="middle" style="white-space: pre;" direction="ltr" dominant-baseline="alphabetic">Visualizing data</text></g><g transform="translate(1017.6320891469181 578.9926677135795) rotate(0 145.95799602692074 10.184114996483459)"><text x="107.4999008178711" y="17.52" font-family="Virgil, Segoe UI Emoji" font-size="20px" fill="#f08c00" text-anchor="middle" style="white-space: pre;" direction="ltr" dominant-baseline="alphabetic">Alerts &amp; notifications</text></g><g transform="translate(1283.2770891469181 578.9926677135795) rotate(0 68.74350080399986 9.97136913686063)"><text x="107.4999008178711" y="17.52" font-family="Virgil, Segoe UI Emoji" font-size="20px" fill="#f08c00" text-anchor="middle" style="white-space: pre;" direction="ltr" dominant-baseline="alphabetic">Alerts &amp; notifications</text></g><g transform="translate(804.8324981286522 965.135350864859) rotate(0 83.429527765107 24.18394063605956)"><text x="84.09993743896484" y="17.52" font-family="Virgil, Segoe UI Emoji" font-size="20px" fill="#f08c00" text-anchor="middle" style="white-space: pre;" direction="ltr" dominant-baseline="alphabetic">Analyze harvest </text><text x="84.09993743896484" y="42.519999999999996" font-family="Virgil, Segoe UI Emoji" font-size="20px" fill="#f08c00" text-anchor="middle" style="white-space: pre;" direction="ltr" dominant-baseline="alphabetic">factors</text></g><g transform="translate(1169.088537496328 977.635350864859) rotate(0 95.36162107230163 11.989985580290977)"><text x="95.12989807128906" y="17.52" font-family="Virgil, Segoe UI Emoji" font-size="20px" fill="#f08c00" text-anchor="middle" style="white-space: pre;" direction="ltr" dominant-baseline="alphabetic">Optimize operations</text></g><g transform="translate(647.6555285896984 1339.038173611405) rotate(0 135.11922116250713 9.189163545365318)"><text x="96.40991973876953" y="17.52" font-family="Virgil, Segoe UI Emoji" font-size="20px" fill="#f08c00" text-anchor="middle" style="white-space: pre;" direction="ltr" dominant-baseline="alphabetic">Accommodate farms</text></g><g transform="translate(901.2155502571786 1339.038173611405) rotate(0 70.21640391876858 9.354961588378046)"><text x="109.37989807128906" y="17.52" font-family="Virgil, Segoe UI Emoji" font-size="20px" fill="#f08c00" text-anchor="middle" style="white-space: pre;" direction="ltr" dominant-baseline="alphabetic">Accommodate fish pop.</text></g><g transform="translate(1247.815502649757 1326.538173611405) rotate(0 106.84621092805445 22.187774768471627)"><text x="64.45994567871094" y="17.52" font-family="Virgil, Segoe UI Emoji" font-size="20px" fill="#f08c00" text-anchor="middle" style="white-space: pre;" direction="ltr" dominant-baseline="alphabetic">Incorporate </text><text x="64.45994567871094" y="42.519999999999996" font-family="Virgil, Segoe UI Emoji" font-size="20px" fill="#f08c00" text-anchor="middle" style="white-space: pre;" direction="ltr" dominant-baseline="alphabetic">enhancements</text></g><g transform="translate(1500.707549036476 1339.038173611405) rotate(0 63.54644410721839 10.00216943323585)"><text x="106.59989929199219" y="17.52" font-family="Virgil, Segoe UI Emoji" font-size="20px" fill="#f08c00" text-anchor="middle" style="white-space: pre;" direction="ltr" dominant-baseline="alphabetic">Additional capabilities</text></g><g transform="translate(776.0269083043465 18.601332130261653) rotate(0 191.89791870117188 17.5)"><text x="0" y="24.528" font-family="Virgil, Segoe UI Emoji" font-size="28px" fill="#f08c00" text-anchor="start" style="white-space: pre;" direction="ltr" dominant-baseline="alphabetic">FishWatch Functional Design</text></g></svg>