<svg version="1.1" xmlns="http://www.w3.org/2000/svg" viewBox="0 0 2328.442626953125 445.4999631245929" width="4656.88525390625" height="890.9999262491858">
  <!-- svg-source:excalidraw -->
  
  <defs>
    <style class="style-fonts">
      @font-face {
        font-family: "Virgil";
        src: url("https://excalidraw.com/Virgil.woff2");
      }
      @font-face {
        font-family: "Cascadia";
        src: url("https://excalidraw.com/Cascadia.woff2");
      }
      @font-face {
        font-family: "Assistant";
        src: url("https://excalidraw.com/Assistant-Regular.woff2");
      }
    </style>
    
  </defs>
  <g stroke-linecap="round" transform="translate(10 10) rotate(0 1154.2213134765625 146.33333333333331)"><path d="M0 0 C668.83 -5.9, 1338.85 -5.96, 2308.44 0 M0 0 C741.95 -5.77, 1484.47 -5.61, 2308.44 0 M2308.44 0 C2306.75 62.61, 2307.63 122.95, 2308.44 292.67 M2308.44 0 C2309.58 93.62, 2309.52 186.25, 2308.44 292.67 M2308.44 292.67 C1603.26 298.94, 897.64 299.41, 0 292.67 M2308.44 292.67 C1617.39 294.47, 925.61 293.74, 0 292.67 M0 292.67 C-2.04 194.81, -0.98 96.34, 0 0 M0 292.67 C0.07 195.52, -0.11 97.62, 0 0" stroke="#f08c00" stroke-width="2" fill="none"></path></g><g stroke-linecap="round" transform="translate(97.49479675292969 58.33333333333326) rotate(0 98 21.83333396911621)"><path d="M0 0 C72.5 -0.13, 144.43 -1.19, 196 0 M0 0 C70.49 1.33, 139.53 1.55, 196 0 M196 0 C195.69 11.21, 196.1 22.87, 196 43.67 M196 0 C194.78 13.14, 195.71 27.05, 196 43.67 M196 43.67 C122.05 44.93, 51.83 43.16, 0 43.67 M196 43.67 C133.34 44.42, 72.6 46.3, 0 43.67 M0 43.67 C1.38 32.27, 0.68 17.79, 0 0 M0 43.67 C-0.33 27.03, 0.99 10.35, 0 0" stroke="#f08c00" stroke-width="2" fill="none"></path></g><g stroke-linecap="round" transform="translate(43.33333333333337 224.0000025431316) rotate(0 150.4947967529297 21.83333396911621)"><path d="M0 0 C102.61 -1.02, 205.44 -1.57, 300.99 0 M0 0 C60.39 1.01, 121.7 0.82, 300.99 0 M300.99 0 C301.35 18.61, 301.04 32.48, 300.99 43.67 M300.99 0 C300.66 16.36, 301.29 31.36, 300.99 43.67 M300.99 43.67 C210.19 44.62, 119.64 45.78, 0 43.67 M300.99 43.67 C184.64 42.22, 67.7 41.53, 0 43.67 M0 43.67 C0.37 27.9, 1.39 12.14, 0 0 M0 43.67 C1.09 28.3, -0.58 11.88, 0 0" stroke="#f08c00" stroke-width="2" fill="none"></path></g><g stroke-linecap="round" transform="translate(370.98439025878906 58.33333333333326) rotate(0 155.4947967529297 21.83333396911621)"><path d="M0 0 C104.26 -0.37, 205.47 0.85, 310.99 0 M0 0 C74.97 0.35, 151.39 0.77, 310.99 0 M310.99 0 C311.13 12.76, 312.3 26.92, 310.99 43.67 M310.99 0 C311.69 12.49, 311.03 24.45, 310.99 43.67 M310.99 43.67 C198.81 43.8, 87.42 41.96, 0 43.67 M310.99 43.67 C247.61 45.68, 184.71 46.19, 0 43.67 M0 43.67 C1.54 27.05, 1.01 10.3, 0 0 M0 43.67 C-1.15 29.36, -1.36 16.15, 0 0" stroke="#f08c00" stroke-width="2" fill="none"></path></g><g stroke-linecap="round" transform="translate(459.3854344685873 224.0000025431316) rotate(0 65.42708587646484 21.83333396911621)"><path d="M0 0 C34.62 1.31, 71.98 -1.05, 130.85 0 M0 0 C35.51 0.78, 69.5 0.98, 130.85 0 M130.85 0 C132.1 14.8, 130.68 33.21, 130.85 43.67 M130.85 0 C131.17 14.69, 131.76 31.24, 130.85 43.67 M130.85 43.67 C96.89 42.79, 57.5 45.09, 0 43.67 M130.85 43.67 C80.2 44.32, 29.13 43.97, 0 43.67 M0 43.67 C0.79 30.15, -0.06 20.05, 0 0 M0 43.67 C-0.63 29.46, 1.2 14.93, 0 0" stroke="#f08c00" stroke-width="2" fill="none"></path></g><g stroke-linecap="round" transform="translate(785.9010772705078 58.33333333333326) rotate(0 107.91666412353516 17.5)"><path d="M0 0 C51.19 -2.1, 103.78 -1.5, 215.83 0 M0 0 C51.78 0.2, 103.75 0.07, 215.83 0 M215.83 0 C215.86 7.86, 217.2 16.87, 215.83 35 M215.83 0 C216.45 9.79, 215.57 19.75, 215.83 35 M215.83 35 C138.23 34.19, 65.59 33.44, 0 35 M215.83 35 C152.29 36.58, 87.39 37.03, 0 35 M0 35 C0.1 26.91, 0.31 13.66, 0 0 M0 35 C1.21 26.1, 1.01 17.4, 0 0" stroke="#f08c00" stroke-width="2" fill="none"></path></g><g stroke-linecap="round" transform="translate(771.5156606038412 224.0000025431316) rotate(0 120.63541412353516 17.5)"><path d="M0 0 C78.44 0.88, 157.04 3.31, 241.27 0 M0 0 C72.48 -0.34, 143 0.14, 241.27 0 M241.27 0 C242.39 8.8, 240.84 14.92, 241.27 35 M241.27 0 C241.22 7.38, 242 15.32, 241.27 35 M241.27 35 C189.1 35.65, 133.85 36.7, 0 35 M241.27 35 C152.32 36.37, 63.37 36.15, 0 35 M0 35 C0.46 24.39, -1.14 14.86, 0 0 M0 35 C0.37 24.04, 0.59 13.8, 0 0" stroke="#f08c00" stroke-width="2" fill="none"></path></g><g stroke-linecap="round" transform="translate(1084.1719207763672 58.33333333333326) rotate(0 117.60416412353516 21.83333396911621)"><path d="M0 0 C48.21 2.63, 98.44 1.59, 235.21 0 M0 0 C74.21 0.46, 149.01 -0.14, 235.21 0 M235.21 0 C235.06 13.37, 233.59 27.9, 235.21 43.67 M235.21 0 C235.61 13.95, 234.32 25.19, 235.21 43.67 M235.21 43.67 C155.83 44.52, 77.7 44.78, 0 43.67 M235.21 43.67 C156.65 45.82, 78.03 45.47, 0 43.67 M0 43.67 C-1.2 24.64, -0.07 11.21, 0 0 M0 43.67 C0.6 31.78, -0.6 19.88, 0 0" stroke="#f08c00" stroke-width="2" fill="none"></path></g><g stroke-linecap="round" transform="translate(1114.6198399861655 224.0000025431316) rotate(0 85.48958587646484 30)"><path d="M0 0 C41.63 -0.97, 83.72 0.04, 170.98 0 M0 0 C50.95 -1.14, 103.7 -0.47, 170.98 0 M170.98 0 C168.99 23.29, 170.85 43.59, 170.98 60 M170.98 0 C170.52 17.98, 171.66 38.8, 170.98 60 M170.98 60 C122.02 62.44, 70.99 60.81, 0 60 M170.98 60 C104.85 61.14, 40.44 61.24, 0 60 M0 60 C0.36 48.25, -0.26 34.36, 0 0 M0 60 C-0.84 44.22, -0.4 28.01, 0 0" stroke="#f08c00" stroke-width="2" fill="none"></path></g><g stroke-linecap="round" transform="translate(1577.2187957763672 58.33333333333326) rotate(0 125.35416412353516 21.83333396911621)"><path d="M0 0 C98.05 0.71, 195.56 -1.85, 250.71 0 M0 0 C90.66 0.66, 181.78 0.03, 250.71 0 M250.71 0 C250.29 12.63, 250.61 27.38, 250.71 43.67 M250.71 0 C250.74 17.83, 250.31 33.81, 250.71 43.67 M250.71 43.67 C161.7 45.02, 72.98 44.89, 0 43.67 M250.71 43.67 C161.77 44.19, 70.72 43.54, 0 43.67 M0 43.67 C-0.6 36.11, -0.8 27.65, 0 0 M0 43.67 C0.27 30.13, -0.48 18.73, 0 0" stroke="#f08c00" stroke-width="2" fill="none"></path></g><g stroke-linecap="round" transform="translate(1507.9583791097007 224.0000025431316) rotate(0 192.9479217529297 30)"><path d="M0 0 C126.68 -2.72, 254.01 -2.83, 385.9 0 M0 0 C112.58 -1.43, 224.38 -1.87, 385.9 0 M385.9 0 C386.21 22.72, 387.64 41.82, 385.9 60 M385.9 0 C386.06 12.19, 386.69 25.13, 385.9 60 M385.9 60 C242.97 59.61, 98.74 59.33, 0 60 M385.9 60 C263.8 60.26, 142.03 60.6, 0 60 M0 60 C-0.61 38.56, 0.04 12.94, 0 0 M0 60 C-0.7 43.58, -0.23 26.75, 0 0" stroke="#f08c00" stroke-width="2" fill="none"></path></g><g stroke-linecap="round" transform="translate(2019.8385848999023 58.33333333333326) rotate(0 131.8020782470703 21.83333396911621)"><path d="M0 0 C100.88 0.25, 199.67 1.73, 263.6 0 M0 0 C94.32 -0.32, 189.1 0.42, 263.6 0 M263.6 0 C265.42 10.37, 261.75 24.58, 263.6 43.67 M263.6 0 C264.15 17.78, 264.31 34.52, 263.6 43.67 M263.6 43.67 C187.72 42.69, 110.24 44.77, 0 43.67 M263.6 43.67 C176.99 42.55, 92.6 42.3, 0 43.67 M0 43.67 C0.04 27.02, -0.13 11.88, 0 0 M0 43.67 C0.12 34.7, 0.7 22.96, 0 0" stroke="#f08c00" stroke-width="2" fill="none"></path></g><g stroke-linecap="round" transform="translate(2040.6250406901045 224.0000025431316) rotate(0 115.18229675292969 31.666666666666686)"><path d="M0 0 C50.89 1.8, 103.08 2.86, 230.36 0 M0 0 C65 1.83, 128.73 1.97, 230.36 0 M230.36 0 C228.99 23.02, 232.75 44.44, 230.36 63.33 M230.36 0 C231.46 19.17, 230.64 38.51, 230.36 63.33 M230.36 63.33 C165.33 64.11, 100.22 61.28, 0 63.33 M230.36 63.33 C174.47 63.12, 117.67 63.03, 0 63.33 M0 63.33 C-0.26 38.97, -1.42 12.82, 0 0 M0 63.33 C0.53 39.15, -0.24 16.99, 0 0" stroke="#f08c00" stroke-width="2" fill="none"></path></g><g stroke-linecap="round" transform="translate(163.67448933919263 389.6666717529296) rotate(0 120.64583587646484 21.83333396911621)"><path d="M0 0 C52.29 1.02, 102.32 -0.08, 241.29 0 M0 0 C49.57 0.14, 100.02 0.74, 241.29 0 M241.29 0 C242.7 9.6, 240.82 20.58, 241.29 43.67 M241.29 0 C241.52 16.93, 241.44 32.75, 241.29 43.67 M241.29 43.67 C178.93 44.25, 114.81 43.9, 0 43.67 M241.29 43.67 C169 42.75, 96.34 43.02, 0 43.67 M0 43.67 C-1.39 30.68, 1.43 19.86, 0 0 M0 43.67 C-0.52 26.72, 0.75 8.51, 0 0" stroke="#f08c00" stroke-width="2" fill="none"></path></g><g stroke-linecap="round" transform="translate(933.8490041097004 389.6666717529296) rotate(0 216.2604217529297 21.83333396911621)"><path d="M0 0 C131.89 -1.48, 263.23 -0.87, 432.52 0 M0 0 C129.78 0.1, 258.64 -0.84, 432.52 0 M432.52 0 C432.87 15.87, 434.29 30.91, 432.52 43.67 M432.52 0 C432.32 15.14, 432.09 29.27, 432.52 43.67 M432.52 43.67 C262.6 41.02, 93.81 42.89, 0 43.67 M432.52 43.67 C315.94 42.76, 198.29 42.71, 0 43.67 M0 43.67 C1.68 29.66, 2.21 17.13, 0 0 M0 43.67 C1.08 33.7, -0.22 25.83, 0 0" stroke="#f08c00" stroke-width="2" fill="none"></path></g><g stroke-linecap="round" transform="translate(1414.7031656901038 388.00000508626283) rotate(0 234.5364532470703 21.83333396911621)"><path d="M0 0 C171.66 0.52, 345.01 -0.28, 469.07 0 M0 0 C147.76 -2.29, 296.38 -1.44, 469.07 0 M469.07 0 C470.43 14.31, 469.73 25.54, 469.07 43.67 M469.07 0 C468.6 16.94, 469.92 33.83, 469.07 43.67 M469.07 43.67 C363.61 42.41, 257.84 42.23, 0 43.67 M469.07 43.67 C346.74 43.46, 224.75 43.19, 0 43.67 M0 43.67 C1.59 34.13, -2.06 22.2, 0 0 M0 43.67 C-0.77 30.05, -0.01 15.48, 0 0" stroke="#f08c00" stroke-width="2" fill="none"></path></g><g stroke-linecap="round" transform="translate(1923.7760874430335 389.66667175292946) rotate(0 164.53125 21.83333396911621)"><path d="M0 0 C99.25 -1.76, 198.73 -0.68, 329.06 0 M0 0 C127.76 2.8, 254.97 2.15, 329.06 0 M329.06 0 C330.03 15.42, 331.05 30.86, 329.06 43.67 M329.06 0 C329.8 15.88, 328.14 30.7, 329.06 43.67 M329.06 43.67 C261.6 46.55, 194.4 46.85, 0 43.67 M329.06 43.67 C232.65 42.83, 135.62 43.79, 0 43.67 M0 43.67 C-2.17 30.56, 0.13 20.65, 0 0 M0 43.67 C0.55 34.08, 0.38 23.37, 0 0" stroke="#f08c00" stroke-width="2" fill="none"></path></g><g mask="url(#mask-QZPXP1fJIKNt3IflxNpVn)" stroke-linecap="round"><g transform="translate(195.49524349637318 103.00000127156568) rotate(0 -0.6722081125537187 57.59983269755054)"><path d="M-0.33 0.19 C-0.57 19.56, -0.4 97.27, -0.72 116.25 M1.71 -0.76 C1.29 18.31, -1.08 95.43, -1.35 114.68" stroke="#f08c00" stroke-width="2" fill="none"></path></g><g transform="translate(195.49524349637318 103.00000127156568) rotate(0 -0.6722081125537187 57.59983269755054)"><path d="M-9.34 90.99 C-6.14 100.61, -1.81 106.59, -1.35 114.68 M-9.34 90.99 C-7.68 95.72, -5.43 101.25, -1.35 114.68" stroke="#f08c00" stroke-width="2" fill="none"></path></g><g transform="translate(195.49524349637318 103.00000127156568) rotate(0 -0.6722081125537187 57.59983269755054)"><path d="M7.75 91.39 C4.78 100.82, 2.92 106.65, -1.35 114.68 M7.75 91.39 C5.93 96.19, 4.7 101.64, -1.35 114.68" stroke="#f08c00" stroke-width="2" fill="none"></path></g></g><mask id="mask-QZPXP1fJIKNt3IflxNpVn"><rect x="0" y="0" fill="#fff" width="296.83965972148064" height="318.19966666666676"></rect><rect x="92.53311839163194" y="148.09983396911622" fill="#000" width="204.579833984375" height="25" opacity="1"></rect></mask><g mask="url(#mask-upMmRrDbvEIhInPI0I2Bd)" stroke-linecap="round"><g transform="translate(526.4792434930039 103.00000127156568) rotate(0 -0.6722085436666845 57.59983269755054)"><path d="M0.62 1.05 C0.3 20.03, -2.02 94.84, -2.27 114.04 M-0.51 0.56 C-0.44 19.62, 0.1 95.98, -0.05 114.97" stroke="#f08c00" stroke-width="2" fill="none"></path></g><g transform="translate(526.4792434930039 103.00000127156568) rotate(0 -0.6722085436666845 57.59983269755054)"><path d="M-8.62 91.49 C-4.49 96.3, -5.83 105.01, -0.05 114.97 M-8.62 91.49 C-4.7 101.37, -1.19 110.21, -0.05 114.97" stroke="#f08c00" stroke-width="2" fill="none"></path></g><g transform="translate(526.4792434930039 103.00000127156568) rotate(0 -0.6722085436666845 57.59983269755054)"><path d="M8.49 91.48 C7.94 96.38, 1.94 105.09, -0.05 114.97 M8.49 91.48 C5.7 101.36, 2.52 110.21, -0.05 114.97" stroke="#f08c00" stroke-width="2" fill="none"></path></g></g><mask id="mask-upMmRrDbvEIhInPI0I2Bd"><rect x="0" y="0" fill="#fff" width="627.8236605803372" height="318.19966666666676"></rect><rect x="416.05712650207164" y="135.59983396911622" fill="#000" width="219.49981689453125" height="50" opacity="1"></rect></mask><g mask="url(#mask-jv-2mg_Dmdl0z-uXuU8EL)" stroke-linecap="round"><g transform="translate(893.8180814650723 94.33333333333326) rotate(0 -0.7014289585725919 61.93316666666675)"><path d="M-0.93 -1.16 C-1.19 19.5, -0.87 104.13, -0.96 124.96 M0.78 0.85 C0.35 21.71, -1.16 102.7, -1.67 123.42" stroke="#f08c00" stroke-width="2" fill="none"></path></g><g transform="translate(893.8180814650723 94.33333333333326) rotate(0 -0.7014289585725919 61.93316666666675)"><path d="M-9.72 99.75 C-8.61 108.88, -2.02 116.35, -1.67 123.42 M-9.72 99.75 C-6.46 107.07, -4.88 114.62, -1.67 123.42" stroke="#f08c00" stroke-width="2" fill="none"></path></g><g transform="translate(893.8180814650723 94.33333333333326) rotate(0 -0.7014289585725919 61.93316666666675)"><path d="M7.38 100.11 C2.47 108.99, 3.05 116.33, -1.67 123.42 M7.38 100.11 C5.55 107.44, 2.04 114.88, -1.67 123.42" stroke="#f08c00" stroke-width="2" fill="none"></path></g></g><mask id="mask-jv-2mg_Dmdl0z-uXuU8EL"><rect x="0" y="0" fill="#fff" width="995.2209393822175" height="318.19966666666676"></rect><rect x="790.9367437540582" y="131.2665" fill="#000" width="204.3598175048828" height="50" opacity="1"></rect></mask><g mask="url(#mask-0r9sFkEMUy_UVkoeXCKdq)" stroke-linecap="round"><g transform="translate(1201.6932040885629 103.00000127156568) rotate(0 -0.6041768832142225 57.59983269755054)"><path d="M0.45 1.1 C0.39 20.49, -1.11 96.01, -1.28 115.17 M-0.78 0.63 C-0.92 20.32, -2.23 97.78, -2.26 116.69" stroke="#f08c00" stroke-width="2" fill="none"></path></g><g transform="translate(1201.6932040885629 103.00000127156568) rotate(0 -0.6041768832142225 57.59983269755054)"><path d="M-10.57 93.11 C-7.12 98.21, -7.15 104.72, -2.26 116.69 M-10.57 93.11 C-7.42 102.61, -4.44 111.03, -2.26 116.69" stroke="#f08c00" stroke-width="2" fill="none"></path></g><g transform="translate(1201.6932040885629 103.00000127156568) rotate(0 -0.6041768832142225 57.59983269755054)"><path d="M6.53 93.29 C6.18 98.41, 2.34 104.88, -2.26 116.69 M6.53 93.29 C3.38 102.78, 0.06 111.14, -2.26 116.69" stroke="#f08c00" stroke-width="2" fill="none"></path></g></g><mask id="mask-0r9sFkEMUy_UVkoeXCKdq"><rect x="0" y="0" fill="#fff" width="1302.9015578549913" height="318.19966666666676"></rect><rect x="1133.2590940388448" y="135.59983396911622" fill="#000" width="135.6598663330078" height="50" opacity="1"></rect></mask><g mask="url(#mask-vpq9KjsMshHli6QwzgYzb)" stroke-linecap="round"><g transform="translate(1702.5733481259067 103.00000127156568) rotate(0 -0.6358925108449967 57.59983269755054)"><path d="M-0.07 -0.03 C-0.24 19.12, -0.53 96.75, -0.59 116.02 M-1.56 -1.09 C-1.87 18.24, -1.32 95.24, -1.17 114.33" stroke="#f08c00" stroke-width="2" fill="none"></path></g><g transform="translate(1702.5733481259067 103.00000127156568) rotate(0 -0.6358925108449967 57.59983269755054)"><path d="M-9.89 90.9 C-6.79 99.95, -2.43 108.17, -1.17 114.33 M-9.89 90.9 C-7.17 99.21, -4.49 106.6, -1.17 114.33" stroke="#f08c00" stroke-width="2" fill="none"></path></g><g transform="translate(1702.5733481259067 103.00000127156568) rotate(0 -0.6358925108449967 57.59983269755054)"><path d="M7.21 90.78 C4.55 99.86, 3.14 108.12, -1.17 114.33 M7.21 90.78 C4.23 99.28, 1.2 106.71, -1.17 114.33" stroke="#f08c00" stroke-width="2" fill="none"></path></g></g><mask id="mask-vpq9KjsMshHli6QwzgYzb"><rect x="0" y="0" fill="#fff" width="1803.8451331475967" height="318.19966666666676"></rect><rect x="1617.7975248899638" y="135.59983396911622" fill="#000" width="168.2798614501953" height="50" opacity="1"></rect></mask><g mask="url(#mask-qeN2GES6kkpsbLvLOqTJw)" stroke-linecap="round"><g transform="translate(2152.400630940333 103.00000127156568) rotate(0 1.2855066349858362 57.59983269755054)"><path d="M0.69 0.82 C1.27 20.09, 3.15 96.37, 3.45 115.6 M-0.41 0.21 C0.1 19.11, 2.61 94.66, 2.96 113.69" stroke="#f08c00" stroke-width="2" fill="none"></path></g><g transform="translate(2152.400630940333 103.00000127156568) rotate(0 1.2855066349858362 57.59983269755054)"><path d="M-6.22 90.43 C-2.15 98.69, -0.15 103.9, 2.96 113.69 M-6.22 90.43 C-3.13 99.47, 1.71 108.52, 2.96 113.69" stroke="#f08c00" stroke-width="2" fill="none"></path></g><g transform="translate(2152.400630940333 103.00000127156568) rotate(0 1.2855066349858362 57.59983269755054)"><path d="M10.88 89.98 C9.91 98.46, 6.88 103.81, 2.96 113.69 M10.88 89.98 C7.4 99.29, 5.67 108.51, 2.96 113.69" stroke="#f08c00" stroke-width="2" fill="none"></path></g></g><mask id="mask-qeN2GES6kkpsbLvLOqTJw"><rect x="0" y="0" fill="#fff" width="2254.9716442103045" height="318.19966666666676"></rect><rect x="2067.5962022725844" y="148.09983396911622" fill="#000" width="172.17987060546875" height="25" opacity="1"></rect></mask><g mask="url(#mask-ijihOeLi3kdr40_ZwBeON)" stroke-linecap="round"><g transform="translate(183.798414885672 268.666670481364) rotate(0 26.369679455210402 59.33116475931797)"><path d="M0.88 0.4 C9.53 20.21, 44.02 99.85, 52.64 119.68 M-0.12 -0.43 C8.31 18.99, 43 98.45, 51.63 118.08" stroke="#f08c00" stroke-width="4" fill="none"></path></g><g transform="translate(183.798414885672 268.666670481364) rotate(0 26.369679455210402 59.33116475931797)"><path d="M34.38 99.99 C41.33 106.16, 48.52 112.46, 51.63 118.08 M34.38 99.99 C41.39 106.7, 45.9 112.37, 51.63 118.08" stroke="#f08c00" stroke-width="4" fill="none"></path></g><g transform="translate(183.798414885672 268.666670481364) rotate(0 26.369679455210402 59.33116475931797)"><path d="M50.04 93.14 C51.45 101.86, 53.04 110.62, 51.63 118.08 M50.04 93.14 C51.43 102.32, 50.33 110.44, 51.63 118.08" stroke="#f08c00" stroke-width="4" fill="none"></path></g></g><mask id="mask-ijihOeLi3kdr40_ZwBeON"><rect x="0" y="0" fill="#fff" width="336.5377737960928" height="487.32899999999995"></rect><rect x="105.75817460211289" y="315.497835240682" fill="#000" width="208.81983947753906" height="25" opacity="1"></rect></mask><g stroke-linecap="round"><g transform="translate(517.924539718858 268.66667048136406) rotate(0 -79.34916945524326 59.33116475931794)"><path d="M-0.1 1.01 C-26.73 20.84, -132.39 99.72, -158.9 119.36 M-1.62 0.5 C-28.5 19.95, -133.52 97.64, -159.95 117.6" stroke="#f08c00" stroke-width="2" fill="none"></path></g><g transform="translate(517.924539718858 268.66667048136406) rotate(0 -79.34916945524326 59.33116475931794)"><path d="M-146.23 96.7 C-149.59 104.15, -155.24 111.48, -159.95 117.6 M-146.23 96.7 C-151.12 102.78, -155.65 109.93, -159.95 117.6" stroke="#f08c00" stroke-width="2" fill="none"></path></g><g transform="translate(517.924539718858 268.66667048136406) rotate(0 -79.34916945524326 59.33116475931794)"><path d="M-136.01 110.4 C-143.22 112.73, -152.69 114.95, -159.95 117.6 M-136.01 110.4 C-144.24 112.19, -152 115.02, -159.95 117.6" stroke="#f08c00" stroke-width="2" fill="none"></path></g></g><mask></mask><g stroke-linecap="round"><g transform="translate(1196.5051904868274 287.00000381469744) rotate(0 -18.92313077628239 48.433498092651206)"><path d="M-0.2 0.69 C-6.57 16.7, -32.23 80.97, -38.32 97.05 M-1.76 0.01 C-8.32 16.76, -33.66 82.24, -39.52 98.68" stroke="#f08c00" stroke-width="2" fill="none"></path></g><g transform="translate(1196.5051904868274 287.00000381469744) rotate(0 -18.92313077628239 48.433498092651206)"><path d="M-39.3 73.68 C-38 80.17, -38.91 90.08, -39.52 98.68 M-39.3 73.68 C-40.52 81.84, -38.76 89.67, -39.52 98.68" stroke="#f08c00" stroke-width="2" fill="none"></path></g><g transform="translate(1196.5051904868274 287.00000381469744) rotate(0 -18.92313077628239 48.433498092651206)"><path d="M-23.28 79.68 C-26.7 84.39, -32.28 92.56, -39.52 98.68 M-23.28 79.68 C-29.68 85.8, -33.13 91.67, -39.52 98.68" stroke="#f08c00" stroke-width="2" fill="none"></path></g></g><mask></mask><g stroke-linecap="round"><g transform="translate(1692.290048597288 287.00000381469744) rotate(0 -17.10582841875089 47.600164759317835)"><path d="M-0.48 0.18 C-5.96 15.99, -27.34 79.78, -33.11 95.51 M1.47 -0.77 C-4.06 14.6, -27.79 77.5, -33.48 93.55" stroke="#f08c00" stroke-width="2" fill="none"></path></g><g transform="translate(1692.290048597288 287.00000381469744) rotate(0 -17.10582841875089 47.600164759317835)"><path d="M-33.41 68.55 C-32.98 77.46, -32.79 81.22, -33.48 93.55 M-33.41 68.55 C-32.8 74.4, -33.02 80.44, -33.48 93.55" stroke="#f08c00" stroke-width="2" fill="none"></path></g><g transform="translate(1692.290048597288 287.00000381469744) rotate(0 -17.10582841875089 47.600164759317835)"><path d="M-17.36 74.44 C-21.51 81.63, -25.88 83.71, -33.48 93.55 M-17.36 74.44 C-20.64 78.85, -24.8 83.44, -33.48 93.55" stroke="#f08c00" stroke-width="2" fill="none"></path></g></g><mask></mask><g transform="translate(1042.855369567871 15) rotate(0 121.3659439086914 17.5)"><text x="121.3659439086914" y="24.528" font-family="Virgil, Segoe UI Emoji" font-size="28px" fill="#f08c00" text-anchor="middle" style="white-space: pre;" direction="ltr" dominant-baseline="alphabetic">FishWatch System</text></g><g stroke-linecap="round"><g transform="translate(2141.6000417033706 290.3333371480308) rotate(0 -20.842249149136478 46.76683142598446)"><path d="M1.1 0.31 C-5.92 15.76, -35.26 77.34, -42.59 92.88 M0.22 -0.58 C-6.39 15.01, -33.55 78.17, -40.35 94.08" stroke="#f08c00" stroke-width="2" fill="none"></path></g><g transform="translate(2141.6000417033706 290.3333371480308) rotate(0 -20.842249149136478 46.76683142598446)"><path d="M-38.95 69.12 C-38.76 74.12, -40.72 80.2, -40.35 94.08 M-38.95 69.12 C-38.48 76.26, -38.69 84.12, -40.35 94.08" stroke="#f08c00" stroke-width="2" fill="none"></path></g><g transform="translate(2141.6000417033706 290.3333371480308) rotate(0 -20.842249149136478 46.76683142598446)"><path d="M-23.23 75.86 C-27.14 79.25, -33.2 83.57, -40.35 94.08 M-23.23 75.86 C-27.57 80.91, -32.52 86.74, -40.35 94.08" stroke="#f08c00" stroke-width="2" fill="none"></path></g></g><mask></mask><g transform="translate(121.14486694335938 67.66666730244947) rotate(0 74.34992980957031 12.5)"><text x="74.34992980957031" y="17.52" font-family="Virgil, Segoe UI Emoji" font-size="20px" fill="#f08c00" text-anchor="middle" style="white-space: pre;" direction="ltr" dominant-baseline="alphabetic">Edge Computing</text></g><g transform="translate(67.82822163899743 233.3333365122478) rotate(0 125.99990844726562 12.5)"><text x="125.99990844726562" y="17.52" font-family="Virgil, Segoe UI Emoji" font-size="20px" fill="#f08c00" text-anchor="middle" style="white-space: pre;" direction="ltr" dominant-baseline="alphabetic">Data Volume and Velocity</text></g><g transform="translate(397.97930908203125 67.66666730244947) rotate(0 128.4998779296875 12.5)"><text x="128.4998779296875" y="17.52" font-family="Virgil, Segoe UI Emoji" font-size="20px" fill="#f08c00" text-anchor="middle" style="white-space: pre;" direction="ltr" dominant-baseline="alphabetic">Microservices Architecture</text></g><g transform="translate(475.3125661214193 233.3333365122478) rotate(0 49.49995422363281 12.5)"><text x="49.49995422363281" y="17.52" font-family="Virgil, Segoe UI Emoji" font-size="20px" fill="#f08c00" text-anchor="middle" style="white-space: pre;" direction="ltr" dominant-baseline="alphabetic">Scalability</text></g><g transform="translate(807.8178176879883 63.33333333333326) rotate(0 85.99992370605469 12.5)"><text x="85.99992370605469" y="17.52" font-family="Virgil, Segoe UI Emoji" font-size="20px" fill="#f08c00" text-anchor="middle" style="white-space: pre;" direction="ltr" dominant-baseline="alphabetic">Insights &amp; Alerts</text></g><g transform="translate(794.0811665852865 229.0000025431316) rotate(0 98.06990814208984 12.5)"><text x="98.06990814208984" y="17.52" font-family="Virgil, Segoe UI Emoji" font-size="20px" fill="#f08c00" text-anchor="middle" style="white-space: pre;" direction="ltr" dominant-baseline="alphabetic">Cross farm Insights</text></g><g transform="translate(1106.0161743164062 67.66666730244947) rotate(0 95.7599105834961 12.5)"><text x="95.7599105834961" y="17.52" font-family="Virgil, Segoe UI Emoji" font-size="20px" fill="#f08c00" text-anchor="middle" style="white-space: pre;" direction="ltr" dominant-baseline="alphabetic">User-Centric Design</text></g><g transform="translate(1144.7294591267905 229.0000025431316) rotate(0 55.379966735839844 25)"><text x="55.379966735839844" y="17.52" font-family="Virgil, Segoe UI Emoji" font-size="20px" fill="#f08c00" text-anchor="middle" style="white-space: pre;" direction="ltr" dominant-baseline="alphabetic">Farm User </text><text x="55.379966735839844" y="42.519999999999996" font-family="Virgil, Segoe UI Emoji" font-size="20px" fill="#f08c00" text-anchor="middle" style="white-space: pre;" direction="ltr" dominant-baseline="alphabetic">Adoption</text></g><g transform="translate(1595.993034362793 67.66666730244947) rotate(0 106.57992553710938 12.5)"><text x="106.57992553710938" y="17.52" font-family="Virgil, Segoe UI Emoji" font-size="20px" fill="#f08c00" text-anchor="middle" style="white-space: pre;" direction="ltr" dominant-baseline="alphabetic">Flexible API Gateway</text></g><g transform="translate(1538.2364247639975 229.0000025431316) rotate(0 162.6698760986328 25)"><text x="162.6698760986328" y="17.52" font-family="Virgil, Segoe UI Emoji" font-size="20px" fill="#f08c00" text-anchor="middle" style="white-space: pre;" direction="ltr" dominant-baseline="alphabetic">Existing hardware and software </text><text x="162.6698760986328" y="42.519999999999996" font-family="Virgil, Segoe UI Emoji" font-size="20px" fill="#f08c00" text-anchor="middle" style="white-space: pre;" direction="ltr" dominant-baseline="alphabetic">systems used by Fish Farms</text></g><g transform="translate(2045.8207702636719 67.66666730244947) rotate(0 105.81989288330078 12.5)"><text x="105.81989288330078" y="17.52" font-family="Virgil, Segoe UI Emoji" font-size="20px" fill="#f08c00" text-anchor="middle" style="white-space: pre;" direction="ltr" dominant-baseline="alphabetic">Connectivity Solutions</text></g><g transform="translate(2065.4174219767256 230.66666920979827) rotate(0 90.3899154663086 25)"><text x="90.3899154663086" y="17.52" font-family="Virgil, Segoe UI Emoji" font-size="20px" fill="#f08c00" text-anchor="middle" style="white-space: pre;" direction="ltr" dominant-baseline="alphabetic">Connectivity using </text><text x="90.3899154663086" y="42.519999999999996" font-family="Virgil, Segoe UI Emoji" font-size="20px" fill="#f08c00" text-anchor="middle" style="white-space: pre;" direction="ltr" dominant-baseline="alphabetic">SatCom, LoROWAN</text></g><g transform="translate(180.21042378743482 399.0000057220458) rotate(0 104.10990142822266 12.5)"><text x="104.10990142822266" y="17.52" font-family="Virgil, Segoe UI Emoji" font-size="20px" fill="#f08c00" text-anchor="middle" style="white-space: pre;" direction="ltr" dominant-baseline="alphabetic">Cloud Infrastructure</text></g><g transform="translate(964.279561360677 399.0000057220458) rotate(0 185.82986450195312 12.5)"><text x="185.82986450195312" y="17.52" font-family="Virgil, Segoe UI Emoji" font-size="20px" fill="#f08c00" text-anchor="middle" style="white-space: pre;" direction="ltr" dominant-baseline="alphabetic">User Engagement and Adoption Rates</text></g><g transform="translate(1446.2697855631507 397.33333905537904) rotate(0 202.96983337402344 12.5)"><text x="202.96983337402344" y="17.52" font-family="Virgil, Segoe UI Emoji" font-size="20px" fill="#f08c00" text-anchor="middle" style="white-space: pre;" direction="ltr" dominant-baseline="alphabetic">Existing Hardware and Software Systems</text></g><g transform="translate(1950.02744547526 399.00000572204567) rotate(0 138.27989196777344 12.5)"><text x="138.27989196777344" y="17.52" font-family="Virgil, Segoe UI Emoji" font-size="20px" fill="#f08c00" text-anchor="middle" style="white-space: pre;" direction="ltr" dominant-baseline="alphabetic">Remote Fish Farm Locations</text></g><g transform="translate(92.53311839163194 148.09983396911622) rotate(0 103.1421421456244 12.646121579785813)"><text x="102.2899169921875" y="17.52" font-family="Virgil, Segoe UI Emoji" font-size="20px" fill="#f08c00" text-anchor="middle" style="white-space: pre;" direction="ltr" dominant-baseline="alphabetic">Process data locally</text></g><g transform="translate(416.05712650207164 135.59983396911622) rotate(0 109.5956532411277 25.16500104234555)"><text x="109.74990844726562" y="17.52" font-family="Virgil, Segoe UI Emoji" font-size="20px" fill="#f08c00" text-anchor="middle" style="white-space: pre;" direction="ltr" dominant-baseline="alphabetic">Independently scalable</text><text x="109.74990844726562" y="42.519999999999996" font-family="Virgil, Segoe UI Emoji" font-size="20px" fill="#f08c00" text-anchor="middle" style="white-space: pre;" direction="ltr" dominant-baseline="alphabetic">components</text></g><g transform="translate(790.9367437540582 131.2665) rotate(0 102.43850359796545 24.97106730416418)"><text x="102.1799087524414" y="17.52" font-family="Virgil, Segoe UI Emoji" font-size="20px" fill="#f08c00" text-anchor="middle" style="white-space: pre;" direction="ltr" dominant-baseline="alphabetic">Analyze factors </text><text x="102.1799087524414" y="42.519999999999996" font-family="Virgil, Segoe UI Emoji" font-size="20px" fill="#f08c00" text-anchor="middle" style="white-space: pre;" direction="ltr" dominant-baseline="alphabetic">contributing growth  </text></g><g transform="translate(1133.2590940388448 135.59983396911622) rotate(0 67.52799978494181 26.059148451546193)"><text x="67.8299331665039" y="17.52" font-family="Virgil, Segoe UI Emoji" font-size="20px" fill="#f08c00" text-anchor="middle" style="white-space: pre;" direction="ltr" dominant-baseline="alphabetic">Customizable </text><text x="67.8299331665039" y="42.519999999999996" font-family="Virgil, Segoe UI Emoji" font-size="20px" fill="#f08c00" text-anchor="middle" style="white-space: pre;" direction="ltr" dominant-baseline="alphabetic">dashboards</text></g><g transform="translate(1617.797524889964 135.59983396911622) rotate(0 83.9147363417784 24.86361639537384)"><text x="84.13993072509766" y="17.52" font-family="Virgil, Segoe UI Emoji" font-size="20px" fill="#f08c00" text-anchor="middle" style="white-space: pre;" direction="ltr" dominant-baseline="alphabetic">Integration with </text><text x="84.13993072509766" y="42.519999999999996" font-family="Virgil, Segoe UI Emoji" font-size="20px" fill="#f08c00" text-anchor="middle" style="white-space: pre;" direction="ltr" dominant-baseline="alphabetic">existing systems</text></g><g transform="translate(2067.5962022725844 148.09983396911622) rotate(0 86.32140975996379 12.803524924595834)"><text x="86.08993530273438" y="17.52" font-family="Virgil, Segoe UI Emoji" font-size="20px" fill="#f08c00" text-anchor="middle" style="white-space: pre;" direction="ltr" dominant-baseline="alphabetic">Ensure data flow</text></g><g transform="translate(105.75817460211289 315.497835240682) rotate(0 104.2960082717193 12.789574019690065)"><text x="104.40991973876953" y="17.52" font-family="Virgil, Segoe UI Emoji" font-size="20px" fill="#f08c00" text-anchor="middle" style="white-space: pre;" direction="ltr" dominant-baseline="alphabetic">Reduce load on cloud</text></g><g stroke-linecap="round" transform="translate(513.294184366862 390.16662851969386) rotate(0 170.42708841959632 22.666667302449525)"><path d="M0 0 C73.09 -0.21, 144.96 -0.77, 340.85 0 M0 0 C92.98 0.07, 186.39 -0.05, 340.85 0 M340.85 0 C341.21 12.43, 340.65 21.74, 340.85 45.33 M340.85 0 C341.19 13.34, 340.57 25.36, 340.85 45.33 M340.85 45.33 C212.52 44.29, 81.25 45.02, 0 45.33 M340.85 45.33 C238.32 47.89, 136.15 47.33, 0 45.33 M0 45.33 C-1.16 29.86, 0.81 14.54, 0 0 M0 45.33 C0.46 32.96, -1.24 20.06, 0 0" stroke="#f08c00" stroke-width="2" fill="none"></path></g><g transform="translate(525.9914143880209 400.3332958221433) rotate(0 157.7298583984375 12.5)"><text x="157.7298583984375" y="17.52" font-family="Virgil, Segoe UI Emoji" font-size="20px" fill="#f08c00" text-anchor="middle" style="white-space: pre;" direction="ltr" dominant-baseline="alphabetic">Optimize Operations &amp; Harvests</text></g><g stroke-linecap="round"><g transform="translate(881.3910225949328 260.0000025431316) rotate(0 -75.74010643632965 58.926553615679495)"><path d="M0.03 0.72 C-24.94 20.34, -125.63 97.79, -150.73 117.11 M-1.42 0.05 C-26.4 19.87, -126.38 98.71, -151.28 118.26" stroke="#f08c00" stroke-width="4" fill="none"></path></g><g transform="translate(881.3910225949328 260.0000025431316) rotate(0 -75.74010643632965 58.926553615679495)"><path d="M-138.11 97.01 C-139.99 103.06, -145.4 108.16, -151.28 118.26 M-138.11 97.01 C-141.02 101.97, -144.5 105.14, -151.28 118.26" stroke="#f08c00" stroke-width="4" fill="none"></path></g><g transform="translate(881.3910225949328 260.0000025431316) rotate(0 -75.74010643632965 58.926553615679495)"><path d="M-127.53 110.45 C-131.73 113.47, -139.52 115.54, -151.28 118.26 M-127.53 110.45 C-132.5 112.72, -138.11 113.18, -151.28 118.26" stroke="#f08c00" stroke-width="4" fill="none"></path></g></g><mask></mask></svg>