<svg version="1.1" xmlns="http://www.w3.org/2000/svg" viewBox="0 0 2419.58587095505 590.2683800124983" width="4839.1717419101" height="1180.5367600249965">
  <!-- svg-source:excalidraw -->
  
  <defs>
    <style class="style-fonts">
      @font-face {
        font-family: "Virgil";
        src: url("https://excalidraw.com/Virgil.woff2");
      }
      @font-face {
        font-family: "Cascadia";
        src: url("https://excalidraw.com/Cascadia.woff2");
      }
      @font-face {
        font-family: "Assistant";
        src: url("https://excalidraw.com/Assistant-Regular.woff2");
      }
    </style>
    
  </defs>
  <g stroke-linecap="round" transform="translate(50.744290062739765 55.624972978684696) rotate(0 1153.549127141321 155.74394202671567)"><path d="M0 0 C668.44 -5.9, 1338.07 -5.95, 2307.1 0 M0 0 C741.52 -5.77, 1483.61 -5.61, 2307.1 0 M2307.1 0 C2305.43 66.49, 2306.28 130.82, 2307.1 311.49 M2307.1 0 C2308.3 99.59, 2308.23 198.24, 2307.1 311.49 M2307.1 311.49 C1602.32 317.75, 897.12 318.23, 0 311.49 M2307.1 311.49 C1616.45 313.29, 925.07 312.56, 0 311.49 M0 311.49 C-2.07 207.25, -1.06 102.42, 0 0 M0 311.49 C0.07 208.04, -0.09 103.88, 0 0" stroke="#f08c00" stroke-width="2" fill="none"></path></g><g stroke-linecap="round" transform="translate(138.23908681566945 103.95830631201795) rotate(0 98 21.83333396911621)"><path d="M0 0 C72.5 -0.13, 144.43 -1.19, 196 0 M0 0 C70.49 1.33, 139.53 1.55, 196 0 M196 0 C195.69 11.21, 196.1 22.87, 196 43.67 M196 0 C194.78 13.14, 195.71 27.05, 196 43.67 M196 43.67 C122.05 44.93, 51.83 43.16, 0 43.67 M196 43.67 C133.34 44.42, 72.6 46.3, 0 43.67 M0 43.67 C1.38 32.27, 0.68 17.79, 0 0 M0 43.67 C-0.33 27.03, 0.99 10.35, 0 0" stroke="#f08c00" stroke-width="2" fill="none"></path></g><g stroke-linecap="round" transform="translate(84.07762339607314 292.4793109200305) rotate(0 150.4947967529297 21.83333396911621)"><path d="M0 0 C102.61 -1.02, 205.44 -1.57, 300.99 0 M0 0 C60.39 1.01, 121.7 0.82, 300.99 0 M300.99 0 C301.35 18.61, 301.04 32.48, 300.99 43.67 M300.99 0 C300.66 16.36, 301.29 31.36, 300.99 43.67 M300.99 43.67 C210.19 44.62, 119.64 45.78, 0 43.67 M300.99 43.67 C184.64 42.22, 67.7 41.53, 0 43.67 M0 43.67 C0.37 27.9, 1.39 12.14, 0 0 M0 43.67 C1.09 28.3, -0.58 11.88, 0 0" stroke="#f08c00" stroke-width="2" fill="none"></path></g><g stroke-linecap="round" transform="translate(368.7087548660668 105.30267898250116) rotate(0 155.4947967529297 21.83333396911621)"><path d="M0 0 C104.26 -0.37, 205.47 0.85, 310.99 0 M0 0 C74.97 0.35, 151.39 0.77, 310.99 0 M310.99 0 C311.13 12.76, 312.3 26.92, 310.99 43.67 M310.99 0 C311.69 12.49, 311.03 24.45, 310.99 43.67 M310.99 43.67 C198.81 43.8, 87.42 41.96, 0 43.67 M310.99 43.67 C247.61 45.68, 184.71 46.19, 0 43.67 M0 43.67 C1.54 27.05, 1.01 10.3, 0 0 M0 43.67 C-1.15 29.36, -1.36 16.15, 0 0" stroke="#f08c00" stroke-width="2" fill="none"></path></g><g stroke-linecap="round" transform="translate(457.109799075865 293.8236835905137) rotate(0 65.42708587646484 21.83333396911621)"><path d="M0 0 C34.62 1.31, 71.98 -1.05, 130.85 0 M0 0 C35.51 0.78, 69.5 0.98, 130.85 0 M130.85 0 C132.1 14.8, 130.68 33.21, 130.85 43.67 M130.85 0 C131.17 14.69, 131.76 31.24, 130.85 43.67 M130.85 43.67 C96.89 42.79, 57.5 45.09, 0 43.67 M130.85 43.67 C80.2 44.32, 29.13 43.97, 0 43.67 M0 43.67 C0.79 30.15, -0.06 20.05, 0 0 M0 43.67 C-0.63 29.46, 1.2 14.93, 0 0" stroke="#f08c00" stroke-width="2" fill="none"></path></g><g stroke-linecap="round" transform="translate(1047.1224852924909 105.3026789825011) rotate(0 132.78755852747418 22.605950312342458)"><path d="M0 0 C63.32 -2.01, 127.89 -1.47, 265.58 0 M0 0 C63.63 0.19, 127.43 0.07, 265.58 0 M265.58 0 C265.67 10.13, 267.01 21.39, 265.58 45.21 M265.58 0 C266.2 12.65, 265.31 25.47, 265.58 45.21 M265.58 45.21 C170.63 44.17, 80.18 43.5, 0 45.21 M265.58 45.21 C187.17 46.91, 107.55 47.32, 0 45.21 M0 45.21 C0.04 34.23, 0.25 18.08, 0 0 M0 45.21 C1.31 33.8, 1.11 22.59, 0 0" stroke="#f08c00" stroke-width="2" fill="none"></path></g><g stroke-linecap="round" transform="translate(1063.6576400469376 293.82368359051367) rotate(0 120.63541412353516 17.5)"><path d="M0 0 C78.44 0.88, 157.04 3.31, 241.27 0 M0 0 C72.48 -0.34, 143 0.14, 241.27 0 M241.27 0 C242.39 8.8, 240.84 14.92, 241.27 35 M241.27 0 C241.22 7.38, 242 15.32, 241.27 35 M241.27 35 C189.1 35.65, 133.85 36.7, 0 35 M241.27 35 C152.32 36.37, 63.37 36.15, 0 35 M0 35 C0.46 24.39, -1.14 14.86, 0 0 M0 35 C0.37 24.04, 0.59 13.8, 0 0" stroke="#f08c00" stroke-width="2" fill="none"></path></g><g stroke-linecap="round" transform="translate(1366.9032915260816 109.33579699395074) rotate(0 117.60416412353516 17.5)"><path d="M0 0 C48.21 2.63, 98.44 1.59, 235.21 0 M0 0 C74.21 0.46, 149.01 -0.14, 235.21 0 M235.21 0 C235.01 10.72, 233.54 22.61, 235.21 35 M235.21 0 C235.63 11.36, 234.34 20, 235.21 35 M235.21 35 C155.83 35.85, 77.7 36.12, 0 35 M235.21 35 C156.65 37.16, 78.03 36.8, 0 35 M0 35 C-1.17 19.37, -0.05 9.33, 0 0 M0 35 C0.66 25.46, -0.54 15.91, 0 0" stroke="#f08c00" stroke-width="2" fill="none"></path></g><g stroke-linecap="round" transform="translate(1381.2187386900814 292.47931092003057) rotate(0 104.98298959847097 20.589391306617642)"><path d="M0 0 C51.14 -1.17, 102.69 -0.27, 209.97 0 M0 0 C62.87 -1.22, 127.33 -0.63, 209.97 0 M209.97 0 C208.01 16.37, 209.87 29.75, 209.97 41.18 M209.97 0 C209.4 12.04, 210.55 26.92, 209.97 41.18 M209.97 41.18 C149.37 43.53, 86.94 42.09, 0 41.18 M209.97 41.18 C128.9 42.38, 49.34 42.48, 0 41.18 M0 41.18 C0.26 33.66, -0.37 24, 0 0 M0 41.18 C-0.68 30.3, -0.23 18.99, 0 0" stroke="#f08c00" stroke-width="2" fill="none"></path></g><g stroke-linecap="round" transform="translate(1724.1685268072788 106.64705165298432) rotate(0 125.35416412353516 21.83333396911621)"><path d="M0 0 C98.05 0.71, 195.56 -1.85, 250.71 0 M0 0 C90.66 0.66, 181.78 0.03, 250.71 0 M250.71 0 C250.29 12.63, 250.61 27.38, 250.71 43.67 M250.71 0 C250.74 17.83, 250.31 33.81, 250.71 43.67 M250.71 43.67 C161.7 45.02, 72.98 44.89, 0 43.67 M250.71 43.67 C161.77 44.19, 70.72 43.54, 0 43.67 M0 43.67 C-0.6 36.11, -0.8 27.65, 0 0 M0 43.67 C0.27 30.13, -0.48 18.73, 0 0" stroke="#f08c00" stroke-width="2" fill="none"></path></g><g stroke-linecap="round" transform="translate(1654.9081101406123 295.1680562609969) rotate(0 192.9479217529297 30)"><path d="M0 0 C126.68 -2.72, 254.01 -2.83, 385.9 0 M0 0 C112.58 -1.43, 224.38 -1.87, 385.9 0 M385.9 0 C386.21 22.72, 387.64 41.82, 385.9 60 M385.9 0 C386.06 12.19, 386.69 25.13, 385.9 60 M385.9 60 C242.97 59.61, 98.74 59.33, 0 60 M385.9 60 C263.8 60.26, 142.03 60.6, 0 60 M0 60 C-0.61 38.56, 0.04 12.94, 0 0 M0 60 C-0.7 43.58, -0.23 26.75, 0 0" stroke="#f08c00" stroke-width="2" fill="none"></path></g><g stroke-linecap="round" transform="translate(2060.582874962642 103.95830631201795) rotate(0 131.8020782470703 21.83333396911621)"><path d="M0 0 C100.88 0.25, 199.67 1.73, 263.6 0 M0 0 C94.32 -0.32, 189.1 0.42, 263.6 0 M263.6 0 C265.42 10.37, 261.75 24.58, 263.6 43.67 M263.6 0 C264.15 17.78, 264.31 34.52, 263.6 43.67 M263.6 43.67 C187.72 42.69, 110.24 44.77, 0 43.67 M263.6 43.67 C176.99 42.55, 92.6 42.3, 0 43.67 M0 43.67 C0.04 27.02, -0.13 11.88, 0 0 M0 43.67 C0.12 34.7, 0.7 22.96, 0 0" stroke="#f08c00" stroke-width="2" fill="none"></path></g><g stroke-linecap="round" transform="translate(2081.3693307528442 292.4793109200305) rotate(0 115.18229675292969 31.666666666666686)"><path d="M0 0 C50.89 1.8, 103.08 2.86, 230.36 0 M0 0 C65 1.83, 128.73 1.97, 230.36 0 M230.36 0 C228.99 23.02, 232.75 44.44, 230.36 63.33 M230.36 0 C231.46 19.17, 230.64 38.51, 230.36 63.33 M230.36 63.33 C165.33 64.11, 100.22 61.28, 0 63.33 M230.36 63.33 C174.47 63.12, 117.67 63.03, 0 63.33 M0 63.33 C-0.26 38.97, -1.42 12.82, 0 0 M0 63.33 C0.53 39.15, -0.24 16.99, 0 0" stroke="#f08c00" stroke-width="2" fill="none"></path></g><g stroke-linecap="round" transform="translate(63.25964900119743 460.834725470795) rotate(0 167.69887934337652 22.505520304357788)"><path d="M0 0 C72.13 0.79, 142.42 -0.1, 335.4 0 M0 0 C69.04 0.12, 138.78 0.6, 335.4 0 M335.4 0 C336.79 9.9, 334.91 21.18, 335.4 45.01 M335.4 0 C335.64 17.43, 335.56 33.74, 335.4 45.01 M335.4 45.01 C248.47 46.07, 160.11 45.78, 0 45.01 M335.4 45.01 C234.6 44.08, 133.49 44.3, 0 45.01 M0 45.01 C-1.39 31.66, 1.43 20.48, 0 0 M0 45.01 C-0.53 27.53, 0.74 8.79, 0 0" stroke="#f08c00" stroke-width="2" fill="none"></path></g><g stroke-linecap="round" transform="translate(1129.1961512780067 464.86784348224455) rotate(0 198.7835770366484 22.87749068193284)"><path d="M0 0 C121.19 -1.52, 241.78 -0.84, 397.57 0 M0 0 C119.35 0.14, 237.66 -0.91, 397.57 0 M397.57 0 C397.93 16.58, 399.35 32.32, 397.57 45.75 M397.57 0 C397.36 15.83, 397.13 30.66, 397.57 45.75 M397.57 45.75 C241.27 42.95, 86.23 45.04, 0 45.75 M397.57 45.75 C290.5 44.82, 182.23 44.77, 0 45.75 M0 45.75 C1.69 31.1, 2.22 17.9, 0 0 M0 45.75 C1.09 35.34, -0.21 27.03, 0 0" stroke="#f08c00" stroke-width="2" fill="none"></path></g><g stroke-linecap="round" transform="translate(1549.5535426866672 465.8899221565441) rotate(0 234.5364532470703 21.83333396911621)"><path d="M0 0 C171.66 0.52, 345.01 -0.28, 469.07 0 M0 0 C147.76 -2.29, 296.38 -1.44, 469.07 0 M469.07 0 C470.43 14.31, 469.73 25.54, 469.07 43.67 M469.07 0 C468.6 16.94, 469.92 33.83, 469.07 43.67 M469.07 43.67 C363.61 42.41, 257.84 42.23, 0 43.67 M469.07 43.67 C346.74 43.46, 224.75 43.19, 0 43.67 M0 43.67 C1.59 34.13, -2.06 22.2, 0 0 M0 43.67 C-0.77 30.05, -0.01 15.48, 0 0" stroke="#f08c00" stroke-width="2" fill="none"></path></g><g stroke-linecap="round" transform="translate(2035.7721290413824 468.9009614936939) rotate(0 164.53125 21.83333396911621)"><path d="M0 0 C99.25 -1.76, 198.73 -0.68, 329.06 0 M0 0 C127.76 2.8, 254.97 2.15, 329.06 0 M329.06 0 C330.03 15.42, 331.05 30.86, 329.06 43.67 M329.06 0 C329.8 15.88, 328.14 30.7, 329.06 43.67 M329.06 43.67 C261.6 46.55, 194.4 46.85, 0 43.67 M329.06 43.67 C232.65 42.83, 135.62 43.79, 0 43.67 M0 43.67 C-2.17 30.56, 0.13 20.65, 0 0 M0 43.67 C0.55 34.08, 0.38 23.37, 0 0" stroke="#f08c00" stroke-width="2" fill="none"></path></g><g mask="url(#mask-QZPXP1fJIKNt3IflxNpVn)" stroke-linecap="round"><g transform="translate(236.03594054301232 148.62497425025038) rotate(0 -0.6096312110420712 69.02700039665766)"><path d="M-0.33 0.19 C-0.55 23.37, -0.29 116.32, -0.6 139.1 M1.71 -0.76 C1.31 22.11, -0.98 114.47, -1.22 137.53" stroke="#f08c00" stroke-width="2" fill="none"></path></g><g transform="translate(236.03594054301232 148.62497425025038) rotate(0 -0.6096312110420712 69.02700039665766)"><path d="M-9.33 113.88 C-6.09 123.49, -1.72 129.45, -1.22 137.53 M-9.33 113.88 C-7.65 118.6, -5.37 124.13, -1.22 137.53" stroke="#f08c00" stroke-width="2" fill="none"></path></g><g transform="translate(236.03594054301232 148.62497425025038) rotate(0 -0.6096312110420712 69.02700039665766)"><path d="M7.77 114.2 C4.83 123.65, 3.02 129.49, -1.22 137.53 M7.77 114.2 C5.97 119.01, 4.76 124.47, -1.22 137.53" stroke="#f08c00" stroke-width="2" fill="none"></path></g></g><mask id="mask-QZPXP1fJIKNt3IflxNpVn"><rect x="0" y="0" fill="#fff" width="337.2552029650965" height="386.6789750435657"></rect><rect x="133.13639233978273" y="205.151974646908" fill="#000" width="204.579833984375" height="25" opacity="1"></rect></mask><g mask="url(#mask-upMmRrDbvEIhInPI0I2Bd)" stroke-linecap="round"><g transform="translate(524.234144589361 149.96934692073359) rotate(0 -0.7071720797150078 69.02700039665766)"><path d="M0.62 1.05 C0.28 23.83, -2.08 113.88, -2.34 136.9 M-0.51 0.56 C-0.45 23.43, 0.04 115.02, -0.12 137.83" stroke="#f08c00" stroke-width="2" fill="none"></path></g><g transform="translate(524.234144589361 149.96934692073359) rotate(0 -0.7071720797150078 69.02700039665766)"><path d="M-8.67 114.34 C-4.55 119.15, -5.89 127.86, -0.12 137.83 M-8.67 114.34 C-4.76 124.22, -1.26 133.07, -0.12 137.83" stroke="#f08c00" stroke-width="2" fill="none"></path></g><g transform="translate(524.234144589361 149.96934692073359) rotate(0 -0.7071720797150078 69.02700039665766)"><path d="M8.43 114.34 C7.88 119.24, 1.87 127.95, -0.12 137.83 M8.43 114.34 C5.64 124.22, 2.45 133.06, -0.12 137.83" stroke="#f08c00" stroke-width="2" fill="none"></path></g></g><mask id="mask-upMmRrDbvEIhInPI0I2Bd"><rect x="0" y="0" fill="#fff" width="625.648488748791" height="388.0233477140489"></rect><rect x="413.77706406238036" y="193.99634731739127" fill="#000" width="219.49981689453125" height="50" opacity="1"></rect></mask><g mask="url(#mask-jv-2mg_Dmdl0z-uXuU8EL)" stroke-linecap="round"><g transform="translate(1180.4767079968603 151.51457960718602) rotate(0 1.6300702717393278 68.25438405343141)"><path d="M-0.93 -1.16 C-0.42 21.6, 3.02 114.67, 3.71 137.61 M0.78 0.85 C1.12 23.82, 2.73 113.24, 2.99 136.06" stroke="#f08c00" stroke-width="2" fill="none"></path></g><g transform="translate(1180.4767079968603 151.51457960718602) rotate(0 1.6300702717393278 68.25438405343141)"><path d="M-5.91 112.7 C-4.5 121.73, 2.39 129.09, 2.99 136.06 M-5.91 112.7 C-2.4 119.92, -0.57 127.38, 2.99 136.06" stroke="#f08c00" stroke-width="2" fill="none"></path></g><g transform="translate(1180.4767079968603 151.51457960718602) rotate(0 1.6300702717393278 68.25438405343141)"><path d="M11.19 112.44 C6.58 121.43, 7.46 128.88, 2.99 136.06 M11.19 112.44 C9.61 119.86, 6.36 127.39, 2.99 136.06" stroke="#f08c00" stroke-width="2" fill="none"></path></g></g><mask id="mask-jv-2mg_Dmdl0z-uXuU8EL"><rect x="0" y="0" fill="#fff" width="1283.736848540339" height="388.02334771404884"></rect><rect x="1079.9268695161584" y="194.76896366061743" fill="#000" width="204.3598175048828" height="50" opacity="1"></rect></mask><g mask="url(#mask-0r9sFkEMUy_UVkoeXCKdq)" stroke-linecap="round"><g transform="translate(1484.8181306888928 145.33579699395074) rotate(0 0.5829088666228017 70.6715890248075)"><path d="M0.45 1.1 C0.79 24.84, 0.86 117.8, 1.1 141.31 M-0.78 0.63 C-0.52 24.68, -0.26 119.56, 0.11 142.83" stroke="#f08c00" stroke-width="2" fill="none"></path></g><g transform="translate(1484.8181306888928 145.33579699395074) rotate(0 0.5829088666228017 70.6715890248075)"><path d="M-8.63 119.41 C-5.08 124.48, -5.02 130.95, 0.11 142.83 M-8.63 119.41 C-5.33 128.86, -2.18 137.22, 0.11 142.83" stroke="#f08c00" stroke-width="2" fill="none"></path></g><g transform="translate(1484.8181306888928 145.33579699395074) rotate(0 0.5829088666228017 70.6715890248075)"><path d="M8.47 119.27 C8.21 124.43, 4.47 130.93, 0.11 142.83 M8.47 119.27 C5.48 128.82, 2.32 137.24, 0.11 142.83" stroke="#f08c00" stroke-width="2" fill="none"></path></g></g><mask id="mask-0r9sFkEMUy_UVkoeXCKdq"><rect x="0" y="0" fill="#fff" width="1585.9839484221384" height="386.67897504356574"></rect><rect x="1386.891121342625" y="178.5073860187582" fill="#000" width="197.01983642578125" height="75" opacity="1"></rect></mask><g mask="url(#mask-vpq9KjsMshHli6QwzgYzb)" stroke-linecap="round"><g transform="translate(1849.5523196449785 151.31371959121674) rotate(0 -0.6734799532683837 69.02700039665766)"><path d="M-0.07 -0.03 C-0.25 22.93, -0.59 115.79, -0.66 138.87 M-1.56 -1.09 C-1.88 22.05, -1.38 114.28, -1.25 137.18" stroke="#f08c00" stroke-width="2" fill="none"></path></g><g transform="translate(1849.5523196449785 151.31371959121674) rotate(0 -0.6734799532683837 69.02700039665766)"><path d="M-9.92 113.74 C-6.83 122.79, -2.49 131.02, -1.25 137.18 M-9.92 113.74 C-7.22 122.06, -4.56 129.45, -1.25 137.18" stroke="#f08c00" stroke-width="2" fill="none"></path></g><g transform="translate(1849.5523196449785 151.31371959121674) rotate(0 -0.6734799532683837 69.02700039665766)"><path d="M7.18 113.65 C4.5 122.72, 3.08 130.98, -1.25 137.18 M7.18 113.65 C4.18 122.14, 1.14 129.57, -1.25 137.18" stroke="#f08c00" stroke-width="2" fill="none"></path></g></g><mask id="mask-vpq9KjsMshHli6QwzgYzb"><rect x="0" y="0" fill="#fff" width="1950.8992795515153" height="389.36772038453205"></rect><rect x="1764.7389089666126" y="195.34071998787442" fill="#000" width="168.2798614501953" height="50" opacity="1"></rect></mask><g mask="url(#mask-qeN2GES6kkpsbLvLOqTJw)" stroke-linecap="round"><g transform="translate(2192.865053169561 148.62497425025038) rotate(0 1.4500091360442866 69.02700039665766)"><path d="M0.69 0.82 C1.33 23.9, 3.42 115.41, 3.78 138.46 M-0.41 0.21 C0.15 22.92, 2.89 113.7, 3.29 136.54" stroke="#f08c00" stroke-width="2" fill="none"></path></g><g transform="translate(2192.865053169561 148.62497425025038) rotate(0 1.4500091360442866 69.02700039665766)"><path d="M-5.84 113.27 C-1.79 121.53, 0.2 126.75, 3.29 136.54 M-5.84 113.27 C-2.77 122.32, 2.05 131.37, 3.29 136.54" stroke="#f08c00" stroke-width="2" fill="none"></path></g><g transform="translate(2192.865053169561 148.62497425025038) rotate(0 1.4500091360442866 69.02700039665766)"><path d="M11.26 112.85 C10.27 121.33, 7.23 126.67, 3.29 136.54 M11.26 112.85 C7.76 122.16, 6.01 131.37, 3.29 136.54" stroke="#f08c00" stroke-width="2" fill="none"></path></g></g><mask id="mask-qeN2GES6kkpsbLvLOqTJw"><rect x="0" y="0" fill="#fff" width="2295.7650714416495" height="386.6789750435657"></rect><rect x="2108.225127002871" y="205.151974646908" fill="#000" width="172.17987060546875" height="25" opacity="1"></rect></mask><g mask="url(#mask-ijihOeLi3kdr40_ZwBeON)" stroke-linecap="round"><g transform="translate(175.31808574478498 338.49035152874615) rotate(0 3.1689250238529496 60.00335109455955)"><path d="M0.88 0.4 C1.8 20.43, 5.36 100.97, 6.23 121.02 M-0.12 -0.43 C0.57 19.21, 4.33 99.57, 5.23 119.43" stroke="#f08c00" stroke-width="2" fill="none"></path></g><g transform="translate(175.31808574478498 338.49035152874615) rotate(0 3.1689250238529496 60.00335109455955)"><path d="M-4.39 96.35 C-0.13 104.35, 4.33 112.44, 5.23 119.43 M-4.39 96.35 C-0.12 104.85, 1.65 112.31, 5.23 119.43" stroke="#f08c00" stroke-width="2" fill="none"></path></g><g transform="translate(175.31808574478498 338.49035152874615) rotate(0 3.1689250238529496 60.00335109455955)"><path d="M12.69 95.57 C10.86 103.97, 9.22 112.34, 5.23 119.43 M12.69 95.57 C10.85 104.37, 6.51 112.11, 5.23 119.43" stroke="#f08c00" stroke-width="2" fill="none"></path></g></g><mask id="mask-ijihOeLi3kdr40_ZwBeON"><rect x="0" y="0" fill="#fff" width="281.6559357924909" height="558.4970537178652"></rect><rect x="74.07709102986837" y="385.9937026233057" fill="#000" width="208.81983947753906" height="25" opacity="1"></rect></mask><g stroke-linecap="round"><g transform="translate(511.9242337014195 338.4903515287462) rotate(0 -92.56209340521688 60.00335109455952)"><path d="M-0.1 1.01 C-31.14 21.06, -154.41 100.84, -185.32 120.7 M-1.62 0.5 C-32.9 20.17, -155.54 98.76, -186.38 118.94" stroke="#f08c00" stroke-width="2" fill="none"></path></g><g transform="translate(511.9242337014195 338.4903515287462) rotate(0 -92.56209340521688 60.00335109455952)"><path d="M-171.29 99.01 C-175.16 106.1, -181.32 113.07, -186.38 118.94 M-171.29 99.01 C-176.61 104.79, -181.58 111.63, -186.38 118.94" stroke="#f08c00" stroke-width="2" fill="none"></path></g><g transform="translate(511.9242337014195 338.4903515287462) rotate(0 -92.56209340521688 60.00335109455952)"><path d="M-162 113.37 C-169.39 115.09, -179.01 116.71, -186.38 118.94 M-162 113.37 C-170.39 114.65, -178.28 116.96, -186.38 118.94" stroke="#f08c00" stroke-width="2" fill="none"></path></g></g><mask></mask><g stroke-linecap="round"><g transform="translate(1500.696807376182 336.65809480483176) rotate(0 -42.13879498677659 59.86066579175832)"><path d="M-0.2 0.69 C-14.31 20.51, -70.92 100.01, -84.75 119.9 M-1.76 0.01 C-16.06 20.57, -72.35 101.29, -85.95 121.54" stroke="#f08c00" stroke-width="2" fill="none"></path></g><g transform="translate(1500.696807376182 336.65809480483176) rotate(0 -42.13879498677659 59.86066579175832)"><path d="M-79.71 97.33 C-80.17 103.58, -82.84 113.26, -85.95 121.54 M-79.71 97.33 C-82.89 105.2, -83.09 112.77, -85.95 121.54" stroke="#f08c00" stroke-width="2" fill="none"></path></g><g transform="translate(1500.696807376182 336.65809480483176) rotate(0 -42.13879498677659 59.86066579175832)"><path d="M-65.61 107.01 C-70.26 110.41, -77.04 117.27, -85.95 121.54 M-65.61 107.01 C-73.31 111.65, -78.1 116.07, -85.95 121.54" stroke="#f08c00" stroke-width="2" fill="none"></path></g></g><mask></mask><g stroke-linecap="round"><g transform="translate(1858.8974483054685 358.16805753256267) rotate(0 -9.064562833402988 50.9610964355258)"><path d="M-0.48 0.18 C-3.28 17.11, -13.94 85.38, -17.03 102.23 M1.47 -0.77 C-1.38 15.72, -14.39 83.1, -17.4 100.27" stroke="#f08c00" stroke-width="2" fill="none"></path></g><g transform="translate(1858.8974483054685 358.16805753256267) rotate(0 -9.064562833402988 50.9610964355258)"><path d="M-21.53 75.61 C-19.91 84.45, -18.53 88.1, -17.4 100.27 M-21.53 75.61 C-19.88 81.38, -19.07 87.34, -17.4 100.27" stroke="#f08c00" stroke-width="2" fill="none"></path></g><g transform="translate(1858.8974483054685 358.16805753256267) rotate(0 -9.064562833402988 50.9610964355258)"><path d="M-4.72 78.73 C-7.88 86.61, -11.27 89.39, -17.4 100.27 M-4.72 78.73 C-7.17 83.73, -10.49 88.93, -17.4 100.27" stroke="#f08c00" stroke-width="2" fill="none"></path></g></g><mask></mask><g transform="translate(1082.9274732953693 60.624972978684696) rotate(0 121.3659439086914 17.5)"><text x="121.3659439086914" y="24.528" font-family="Virgil, Segoe UI Emoji" font-size="28px" fill="#f08c00" text-anchor="middle" style="white-space: pre;" direction="ltr" dominant-baseline="alphabetic">FishWatch System</text></g><g stroke-linecap="round"><g transform="translate(2198.002466990087 358.81264552492974) rotate(0 0.6452654233530666 52.14432210791722)"><path d="M1.1 0.31 C1.24 17.55, 0.55 86.3, 0.39 103.64 M0.22 -0.58 C0.78 16.8, 2.26 87.13, 2.63 104.83" stroke="#f08c00" stroke-width="2" fill="none"></path></g><g transform="translate(2198.002466990087 358.81264552492974) rotate(0 0.6452654233530666 52.14432210791722)"><path d="M-6.42 81.53 C-3.51 86.01, -2.76 91.65, 2.63 104.83 M-6.42 81.53 C-2.81 88.2, 0.14 95.56, 2.63 104.83" stroke="#f08c00" stroke-width="2" fill="none"></path></g><g transform="translate(2198.002466990087 358.81264552492974) rotate(0 0.6452654233530666 52.14432210791722)"><path d="M10.68 81.17 C9.13 85.9, 5.44 91.63, 2.63 104.83 M10.68 81.17 C9.13 87.89, 6.91 95.37, 2.63 104.83" stroke="#f08c00" stroke-width="2" fill="none"></path></g></g><mask></mask><g transform="translate(161.88915700609914 113.29164028113416) rotate(0 74.34992980957031 12.5)"><text x="74.34992980957031" y="17.52" font-family="Virgil, Segoe UI Emoji" font-size="20px" fill="#f08c00" text-anchor="middle" style="white-space: pre;" direction="ltr" dominant-baseline="alphabetic">Edge Computing</text></g><g transform="translate(108.5725117017372 301.8126448891467) rotate(0 125.99990844726562 12.5)"><text x="125.99990844726562" y="17.52" font-family="Virgil, Segoe UI Emoji" font-size="20px" fill="#f08c00" text-anchor="middle" style="white-space: pre;" direction="ltr" dominant-baseline="alphabetic">Data Volume and Velocity</text></g><g transform="translate(395.70367368930897 114.63601295161737) rotate(0 128.4998779296875 12.5)"><text x="128.4998779296875" y="17.52" font-family="Virgil, Segoe UI Emoji" font-size="20px" fill="#f08c00" text-anchor="middle" style="white-space: pre;" direction="ltr" dominant-baseline="alphabetic">Microservices Architecture</text></g><g transform="translate(473.03693072869703 303.15701755962994) rotate(0 49.49995422363281 12.5)"><text x="49.49995422363281" y="17.52" font-family="Virgil, Segoe UI Emoji" font-size="20px" fill="#f08c00" text-anchor="middle" style="white-space: pre;" direction="ltr" dominant-baseline="alphabetic">Scalability</text></g><g transform="translate(1054.0801335416447 115.40862929484356) rotate(0 125.82991027832031 12.5)"><text x="125.82991027832031" y="17.52" font-family="Virgil, Segoe UI Emoji" font-size="20px" fill="#f08c00" text-anchor="middle" style="white-space: pre;" direction="ltr" dominant-baseline="alphabetic">Data Insight &amp; Analytics</text></g><g transform="translate(1086.2231460283829 298.82368359051367) rotate(0 98.06990814208984 12.5)"><text x="98.06990814208984" y="17.52" font-family="Virgil, Segoe UI Emoji" font-size="20px" fill="#f08c00" text-anchor="middle" style="white-space: pre;" direction="ltr" dominant-baseline="alphabetic">Cross farm Insights</text></g><g transform="translate(1376.9475496437574 114.33579699395074) rotate(0 107.55990600585938 12.5)"><text x="107.55990600585938" y="17.52" font-family="Virgil, Segoe UI Emoji" font-size="20px" fill="#f08c00" text-anchor="middle" style="white-space: pre;" direction="ltr" dominant-baseline="alphabetic">Web/Mobile Application</text></g><g transform="translate(1390.051803056619 300.5687022266482) rotate(0 96.14992523193365 12.5)"><text x="96.1499252319336" y="17.52" font-family="Virgil, Segoe UI Emoji" font-size="20px" fill="#f08c00" text-anchor="middle" style="white-space: pre;" direction="ltr" dominant-baseline="alphabetic">Farm User Adoption</text></g><g transform="translate(1742.9427653937046 115.98038562210053) rotate(0 106.57992553710938 12.5)"><text x="106.57992553710938" y="17.52" font-family="Virgil, Segoe UI Emoji" font-size="20px" fill="#f08c00" text-anchor="middle" style="white-space: pre;" direction="ltr" dominant-baseline="alphabetic">Flexible API Gateway</text></g><g transform="translate(1707.446150301745 300.1680562609969) rotate(0 140.40988159179688 25)"><text x="140.40988159179688" y="17.52" font-family="Virgil, Segoe UI Emoji" font-size="20px" fill="#f08c00" text-anchor="middle" style="white-space: pre;" direction="ltr" dominant-baseline="alphabetic">Integration with Security &amp; </text><text x="140.40988159179688" y="42.519999999999996" font-family="Virgil, Segoe UI Emoji" font-size="20px" fill="#f08c00" text-anchor="middle" style="white-space: pre;" direction="ltr" dominant-baseline="alphabetic">Scalability</text></g><g transform="translate(2086.5650603264116 113.29164028113416) rotate(0 105.81989288330078 12.5)"><text x="105.81989288330078" y="17.52" font-family="Virgil, Segoe UI Emoji" font-size="20px" fill="#f08c00" text-anchor="middle" style="white-space: pre;" direction="ltr" dominant-baseline="alphabetic">Connectivity Solutions</text></g><g transform="translate(2089.861716617102 299.1459775866972) rotate(0 106.68991088867188 25)"><text x="106.68991088867188" y="17.52" font-family="Virgil, Segoe UI Emoji" font-size="20px" fill="#f08c00" text-anchor="middle" style="white-space: pre;" direction="ltr" dominant-baseline="alphabetic">Connectivity SatCom, </text><text x="106.68991088867188" y="42.519999999999996" font-family="Virgil, Segoe UI Emoji" font-size="20px" fill="#f08c00" text-anchor="middle" style="white-space: pre;" direction="ltr" dominant-baseline="alphabetic">LoROWAN</text></g><g transform="translate(126.8486269163513 470.84024577515277) rotate(0 104.10990142822266 12.5)"><text x="104.10990142822266" y="17.52" font-family="Virgil, Segoe UI Emoji" font-size="20px" fill="#f08c00" text-anchor="middle" style="white-space: pre;" direction="ltr" dominant-baseline="alphabetic">Cloud Infrastructure</text></g><g transform="translate(1142.1498638127023 475.2453341641774) rotate(0 185.82986450195318 12.5)"><text x="185.82986450195312" y="17.52" font-family="Virgil, Segoe UI Emoji" font-size="20px" fill="#f08c00" text-anchor="middle" style="white-space: pre;" direction="ltr" dominant-baseline="alphabetic">User Engagement and Adoption Rates</text></g><g transform="translate(1581.1201625597141 475.2232561256603) rotate(0 202.96983337402344 12.5)"><text x="202.96983337402344" y="17.52" font-family="Virgil, Segoe UI Emoji" font-size="20px" fill="#f08c00" text-anchor="middle" style="white-space: pre;" direction="ltr" dominant-baseline="alphabetic">Existing Hardware and Software Systems</text></g><g transform="translate(2062.023487073609 478.2342954628101) rotate(0 138.27989196777344 12.5)"><text x="138.27989196777344" y="17.52" font-family="Virgil, Segoe UI Emoji" font-size="20px" fill="#f08c00" text-anchor="middle" style="white-space: pre;" direction="ltr" dominant-baseline="alphabetic">Remote Fish Farm Locations</text></g><g transform="translate(133.13639233978273 205.151974646908) rotate(0 103.1421421456244 12.64612157978587)"><text x="102.2899169921875" y="17.52" font-family="Virgil, Segoe UI Emoji" font-size="20px" fill="#f08c00" text-anchor="middle" style="white-space: pre;" direction="ltr" dominant-baseline="alphabetic">Process data locally</text></g><g transform="translate(413.7770640623803 193.99634731739127) rotate(0 109.59565324112772 25.165001042345523)"><text x="109.74990844726562" y="17.52" font-family="Virgil, Segoe UI Emoji" font-size="20px" fill="#f08c00" text-anchor="middle" style="white-space: pre;" direction="ltr" dominant-baseline="alphabetic">Independently scalable</text><text x="109.74990844726562" y="42.519999999999996" font-family="Virgil, Segoe UI Emoji" font-size="20px" fill="#f08c00" text-anchor="middle" style="white-space: pre;" direction="ltr" dominant-baseline="alphabetic">components</text></g><g transform="translate(1079.9268695161581 194.76896366061743) rotate(0 101.9387198619545 24.97106730416418)"><text x="102.1799087524414" y="17.52" font-family="Virgil, Segoe UI Emoji" font-size="20px" fill="#f08c00" text-anchor="middle" style="white-space: pre;" direction="ltr" dominant-baseline="alphabetic">Analyze factors </text><text x="102.1799087524414" y="42.519999999999996" font-family="Virgil, Segoe UI Emoji" font-size="20px" fill="#f08c00" text-anchor="middle" style="white-space: pre;" direction="ltr" dominant-baseline="alphabetic">contributing growth  </text></g><g transform="translate(1386.891121342625 178.5073860187582) rotate(0 98.08760375245936 38.55914845154622)"><text x="98.50991821289062" y="17.52" font-family="Virgil, Segoe UI Emoji" font-size="20px" fill="#f08c00" text-anchor="middle" style="white-space: pre;" direction="ltr" dominant-baseline="alphabetic">Customizable </text><text x="98.50991821289062" y="42.519999999999996" font-family="Virgil, Segoe UI Emoji" font-size="20px" fill="#f08c00" text-anchor="middle" style="white-space: pre;" direction="ltr" dominant-baseline="alphabetic">dashboards &amp; user </text><text x="98.50991821289062" y="67.52" font-family="Virgil, Segoe UI Emoji" font-size="20px" fill="#f08c00" text-anchor="middle" style="white-space: pre;" direction="ltr" dominant-baseline="alphabetic">centric design</text></g><g transform="translate(1764.7389089666124 195.34071998787442) rotate(0 83.94574013665692 24.86361639537381)"><text x="84.13993072509766" y="17.52" font-family="Virgil, Segoe UI Emoji" font-size="20px" fill="#f08c00" text-anchor="middle" style="white-space: pre;" direction="ltr" dominant-baseline="alphabetic">Integration with </text><text x="84.13993072509766" y="42.519999999999996" font-family="Virgil, Segoe UI Emoji" font-size="20px" fill="#f08c00" text-anchor="middle" style="white-space: pre;" direction="ltr" dominant-baseline="alphabetic">existing systems</text></g><g transform="translate(2108.225127002871 205.151974646908) rotate(0 86.32140975996379 12.803524924595862)"><text x="86.08993530273438" y="17.52" font-family="Virgil, Segoe UI Emoji" font-size="20px" fill="#f08c00" text-anchor="middle" style="white-space: pre;" direction="ltr" dominant-baseline="alphabetic">Ensure data flow</text></g><g transform="translate(74.07709102986837 385.9937026233057) rotate(0 104.29600827171936 12.789574019690065)"><text x="104.40991973876953" y="17.52" font-family="Virgil, Segoe UI Emoji" font-size="20px" fill="#f08c00" text-anchor="middle" style="white-space: pre;" direction="ltr" dominant-baseline="alphabetic">Reduce load on cloud</text></g><g stroke-linecap="round" transform="translate(778.5487104002949 466.7121729194919) rotate(0 167.06615674338838 22.666667302449582)"><path d="M0 0 C71.65 -0.21, 142.06 -0.78, 334.13 0 M0 0 C91.13 0.07, 182.7 -0.05, 334.13 0 M334.13 0 C334.48 12.43, 333.93 21.74, 334.13 45.33 M334.13 0 C334.47 13.34, 333.85 25.36, 334.13 45.33 M334.13 45.33 C208.36 44.28, 79.62 45.02, 0 45.33 M334.13 45.33 C233.61 47.9, 133.44 47.32, 0 45.33 M0 45.33 C-1.16 29.86, 0.81 14.54, 0 0 M0 45.33 C0.46 32.96, -1.24 20.06, 0 0" stroke="#f08c00" stroke-width="2" fill="none"></path></g><g transform="translate(787.8850087452458 476.87884022194146) rotate(0 157.7298583984375 12.5)"><text x="157.7298583984375" y="17.52" font-family="Virgil, Segoe UI Emoji" font-size="20px" fill="#f08c00" text-anchor="middle" style="white-space: pre;" direction="ltr" dominant-baseline="alphabetic">Optimize Operations &amp; Harvests</text></g><g stroke-linecap="round"><g transform="translate(1185.5639439966844 329.82368359051367) rotate(0 -86.15822900909899 62.9596716271291)"><path d="M0.03 0.72 C-28.42 21.69, -143 104.51, -171.56 125.18 M-1.42 0.05 C-29.87 21.22, -143.74 105.43, -172.12 126.32" stroke="#f08c00" stroke-width="2" fill="none"></path></g><g transform="translate(1185.5639439966844 329.82368359051367) rotate(0 -86.15822900909899 62.9596716271291)"><path d="M-158.29 105.49 C-160.32 111.45, -165.88 116.46, -172.12 126.32 M-158.29 105.49 C-161.34 110.37, -164.95 113.45, -172.12 126.32" stroke="#f08c00" stroke-width="2" fill="none"></path></g><g transform="translate(1185.5639439966844 329.82368359051367) rotate(0 -86.15822900909899 62.9596716271291)"><path d="M-148.14 119.25 C-152.38 122.11, -160.23 124.01, -172.12 126.32 M-148.14 119.25 C-153.14 121.37, -158.8 121.68, -172.12 126.32" stroke="#f08c00" stroke-width="2" fill="none"></path></g></g><mask></mask><g stroke-linecap="round" transform="translate(709.4079469812109 105.68860455242759) rotate(0 156.59097156754763 17.5)"><path d="M0 0 C79.53 -2.18, 161.76 -0.9, 313.18 0 M0 0 C93.59 -0.13, 188.45 -0.97, 313.18 0 M313.18 0 C314.77 10.87, 311.29 24.22, 313.18 35 M313.18 0 C313.83 14.27, 313.38 26.14, 313.18 35 M313.18 35 C218.63 33.21, 122.76 34.71, 0 35 M313.18 35 C226.03 33.72, 137.49 33.4, 0 35 M0 35 C1.9 24.46, -0.92 13.4, 0 0 M0 35 C0.06 22.04, 0.79 11.08, 0 0" stroke="#f08c00" stroke-width="2" fill="none"></path></g><g stroke-linecap="round" transform="translate(683.392214030715 295.5539818309234) rotate(0 172.87380945787226 17.5)"><path d="M0 0 C121.28 1.89, 242.5 2.02, 345.75 0 M0 0 C113.65 -1.87, 226.38 -1.99, 345.75 0 M345.75 0 C344.42 15.83, 347.81 27.97, 345.75 35 M345.75 0 C346.16 11.72, 346.03 26.25, 345.75 35 M345.75 35 C250.99 33.13, 153.52 32.37, 0 35 M345.75 35 C264 35.4, 183.49 35.47, 0 35 M0 35 C-1.28 27.04, 0.73 16.17, 0 0 M0 35 C0.88 22.25, -0.95 7.32, 0 0" stroke="#f08c00" stroke-width="2" fill="none"></path></g><g mask="url(#mask-8b2rVLsVwKrn1k3Lftuwm)" stroke-linecap="round"><g transform="translate(837.8076623532401 147.86738716566293) rotate(0 1.5404773645881846 71.61531572963946)"><path d="M0.2 0 C0.91 23.92, 3.02 119.55, 3.4 143.56 M-1.16 -1.05 C-0.5 22.5, 2.19 117.74, 2.62 141.61" stroke="#f08c00" stroke-width="2" fill="none"></path></g><g transform="translate(837.8076623532401 147.86738716566293) rotate(0 1.5404773645881846 71.61531572963946)"><path d="M-6.49 118.32 C-4.42 124.11, -1.82 127.85, 2.62 141.61 M-6.49 118.32 C-2.76 126.23, 1.38 136.4, 2.62 141.61" stroke="#f08c00" stroke-width="2" fill="none"></path></g><g transform="translate(837.8076623532401 147.86738716566293) rotate(0 1.5404773645881846 71.61531572963946)"><path d="M10.61 117.92 C8.8 123.82, 7.54 127.65, 2.62 141.61 M10.61 117.92 C8.05 125.89, 5.91 136.2, 2.62 141.61" stroke="#f08c00" stroke-width="2" fill="none"></path></g></g><mask id="mask-8b2rVLsVwKrn1k3Lftuwm"><rect x="0" y="0" fill="#fff" width="940.8886170824164" height="391.09801862494186"></rect><rect x="750.8581952598205" y="194.4827028953024" fill="#000" width="176.97988891601562" height="50" opacity="1"></rect></mask><g stroke-linecap="round"><g transform="translate(851.3037644043736 331.5539818309235) rotate(0 -113.30788120042251 63.27787139891723)"><path d="M0.32 0.33 C-37.58 21.55, -189.55 106.43, -227.21 127.37 M-0.97 -0.55 C-38.49 20.34, -187.32 104.42, -224.82 125.67" stroke="#f08c00" stroke-width="2" fill="none"></path></g><g transform="translate(851.3037644043736 331.5539818309235) rotate(0 -113.30788120042251 63.27787139891723)"><path d="M-208.58 106.66 C-213.17 111.72, -217.5 120.32, -224.82 125.67 M-208.58 106.66 C-211.59 112.19, -216.77 115.18, -224.82 125.67" stroke="#f08c00" stroke-width="2" fill="none"></path></g><g transform="translate(851.3037644043736 331.5539818309235) rotate(0 -113.30788120042251 63.27787139891723)"><path d="M-200.16 121.55 C-207.42 121.92, -214.41 125.81, -224.82 125.67 M-200.16 121.55 C-205.3 123.32, -212.57 122.6, -224.82 125.67" stroke="#f08c00" stroke-width="2" fill="none"></path></g></g><mask></mask><g transform="translate(764.9290027772741 110.68860455242759) rotate(0 101.06991577148438 12.5)"><text x="101.06991577148438" y="17.52" font-family="Virgil, Segoe UI Emoji" font-size="20px" fill="#f08c00" text-anchor="middle" style="white-space: pre;" direction="ltr" dominant-baseline="alphabetic">Event Driven System</text></g><g transform="translate(719.946138234681 300.5539818309234) rotate(0 136.31988525390628 12.5)"><text x="136.31988525390625" y="17.52" font-family="Virgil, Segoe UI Emoji" font-size="20px" fill="#f08c00" text-anchor="middle" style="white-space: pre;" direction="ltr" dominant-baseline="alphabetic">Monitoring and Observability</text></g><g transform="translate(750.8581952598204 194.4827028953024) rotate(0 88.068895380334 24.63997160726693)"><text x="88.48994445800781" y="17.52" font-family="Virgil, Segoe UI Emoji" font-size="20px" fill="#f08c00" text-anchor="middle" style="white-space: pre;" direction="ltr" dominant-baseline="alphabetic">Manage alerts &amp; </text><text x="88.48994445800781" y="42.519999999999996" font-family="Virgil, Segoe UI Emoji" font-size="20px" fill="#f08c00" text-anchor="middle" style="white-space: pre;" direction="ltr" dominant-baseline="alphabetic">notifications</text></g><g stroke-linecap="round" transform="translate(413.4955936303829 460.91355464548667) rotate(0 174.2181821283554 23.54967701717436)"><path d="M0 0 C134.52 -0.35, 270.57 1.57, 348.44 0 M0 0 C72.13 0.17, 145.09 0.1, 348.44 0 M348.44 0 C346.45 19.15, 346.84 33.01, 348.44 47.1 M348.44 0 C347.84 13.64, 348.7 27.18, 348.44 47.1 M348.44 47.1 C258.31 49.37, 169.43 48.1, 0 47.1 M348.44 47.1 C232.12 49.03, 115.52 49.11, 0 47.1 M0 47.1 C-2.1 34.86, 1.26 19.38, 0 0 M0 47.1 C0.47 29.24, -0.27 9.87, 0 0" stroke="#f08c00" stroke-width="2" fill="none"></path></g><g transform="translate(422.0639191913555 471.9632316626611) rotate(0 165.6498565673828 12.5)"><text x="165.6498565673828" y="17.52" font-family="Virgil, Segoe UI Emoji" font-size="20px" fill="#f08c00" text-anchor="middle" style="white-space: pre;" direction="ltr" dominant-baseline="alphabetic">Ensure farming ecosystem health </text></g><g stroke-opacity="0.1" fill-opacity="0.1" stroke-linecap="round" transform="translate(10 10) rotate(0 1199.792935477525 285.1341900062491)"><path d="M7.86 8.16 C7.86 8.16, 7.86 8.16, 7.86 8.16 M7.86 8.16 C7.86 8.16, 7.86 8.16, 7.86 8.16 M1.43 27.75 C9.26 15.45, 15.42 10.98, 24.4 1.33 M1.43 27.75 C5.88 23.17, 13.01 15.55, 24.4 1.33 M0.26 41.3 C15.2 26.71, 27.1 9.1, 36.34 -0.21 M0.26 41.3 C9.36 29.9, 22.6 17.3, 36.34 -0.21 M0.39 53.34 C12.96 39, 30.41 16.08, 46.97 -0.25 M0.39 53.34 C18.47 34.12, 32.54 15.68, 46.97 -0.25 M0.52 65.38 C22.01 44.89, 38.04 22.23, 57.6 -0.28 M0.52 65.38 C21.67 42.61, 43.6 15.52, 57.6 -0.28 M0 78.17 C26.41 46.14, 45.88 23.24, 67.57 0.44 M0 78.17 C13.41 60.17, 30.23 44.32, 67.57 0.44 M0.13 90.22 C21.24 61.96, 48.17 32.04, 78.2 0.41 M0.13 90.22 C26.6 61.08, 48.08 31.82, 78.2 0.41 M0.26 102.26 C35.71 68.37, 67.82 25.8, 88.83 0.37 M0.26 102.26 C30.79 67.77, 59.82 31.48, 88.83 0.37 M0.4 114.3 C25.94 92.48, 43.86 69.63, 99.46 0.34 M0.4 114.3 C24.2 88.75, 43.2 64.19, 99.46 0.34 M0.53 126.34 C22.4 99.8, 51.71 75.19, 110.09 0.3 M0.53 126.34 C35.98 88.24, 74.14 46.69, 110.09 0.3 M0.01 139.13 C35.87 94.66, 76.48 50.25, 120.72 0.27 M0.01 139.13 C46.55 90.56, 87.6 39.64, 120.72 0.27 M0.14 151.17 C26.96 121.11, 60.45 82.23, 131.35 0.23 M0.14 151.17 C36.97 105.21, 75.36 59.67, 131.35 0.23 M0.27 163.22 C25.77 130.82, 60.89 91.91, 141.98 0.2 M0.27 163.22 C37.49 118.33, 77.61 74.41, 141.98 0.2 M0.41 175.26 C42.66 123.33, 89.96 71.98, 152.61 0.16 M0.41 175.26 C51.92 112.64, 102.54 54.96, 152.61 0.16 M0.54 187.3 C69.52 110.95, 133.46 37.06, 163.24 0.13 M0.54 187.3 C54.92 125.42, 106.94 62.36, 163.24 0.13 M0.02 200.09 C65.69 121.06, 130.36 48.43, 173.87 0.09 M0.02 200.09 C43.5 152.53, 86.08 101.92, 173.87 0.09 M0.15 212.13 C50.16 144.85, 111.09 84.69, 184.5 0.06 M0.15 212.13 C63.41 143.86, 122.4 76.14, 184.5 0.06 M0.28 224.17 C40.22 183.26, 80.47 137.85, 195.13 0.03 M0.28 224.17 C74.72 143.46, 145.73 58.61, 195.13 0.03 M0.42 236.22 C51.03 177.06, 100.64 121.34, 205.76 -0.01 M0.42 236.22 C60.44 168.76, 118.41 101.7, 205.76 -0.01 M-0.11 249.01 C74.11 161.37, 149.42 72.3, 216.39 -0.04 M-0.11 249.01 C79.85 159.07, 159.91 66.72, 216.39 -0.04 M0.03 261.05 C69.59 186.23, 134.36 106.05, 227.02 -0.08 M0.03 261.05 C60.63 190.1, 123.14 117.87, 227.02 -0.08 M0.16 273.09 C95.37 161.9, 189.13 55.08, 237.65 -0.11 M0.16 273.09 C60.69 200.57, 123.9 127.26, 237.65 -0.11 M0.29 285.13 C49.82 229.58, 101.14 171.89, 248.28 -0.15 M0.29 285.13 C95.2 167.92, 193.49 55.72, 248.28 -0.15 M0.43 297.17 C90.44 194.99, 174.53 96.4, 258.91 -0.18 M0.43 297.17 C100.62 183.07, 203.87 64.11, 258.91 -0.18 M-0.1 309.97 C66.09 237.38, 133.41 158.54, 269.54 -0.22 M-0.1 309.97 C109.22 189.4, 214.89 67.54, 269.54 -0.22 M0.04 322.01 C107.34 197.94, 214.25 73.26, 280.17 -0.25 M0.04 322.01 C65.99 247.68, 132.37 170.37, 280.17 -0.25 M0.17 334.05 C63.74 260.11, 125.76 187.73, 290.8 -0.28 M0.17 334.05 C66.09 259.91, 131.86 185.58, 290.8 -0.28 M0.3 346.09 C112.7 219.8, 224.68 89.78, 300.78 0.44 M0.3 346.09 C60.26 274.32, 122.98 202.88, 300.78 0.44 M0.44 358.13 C74.91 277.01, 149.95 192.19, 311.41 0.4 M0.44 358.13 C93.81 247.41, 188.34 138.97, 311.41 0.4 M-0.09 370.93 C111.11 247.81, 216.71 123.92, 322.04 0.37 M-0.09 370.93 C79.11 282.51, 156.36 192.49, 322.04 0.37 M0.05 382.97 C105.87 255.81, 212.48 132.83, 332.67 0.33 M0.05 382.97 C84.53 283.65, 172.99 183.2, 332.67 0.33 M0.18 395.01 C120.32 259.99, 237.13 127.13, 343.3 0.3 M0.18 395.01 C77.57 302.58, 156.56 210.42, 343.3 0.3 M0.31 407.05 C80.97 317.78, 158.74 228.69, 353.93 0.26 M0.31 407.05 C131.99 253.06, 264.86 99.72, 353.93 0.26 M0.45 419.09 C92.15 311.17, 186.82 203.97, 364.56 0.23 M0.45 419.09 C145.95 255.27, 286.98 93.38, 364.56 0.23 M-0.08 431.89 C146.57 263.37, 294.45 95.52, 375.19 0.19 M-0.08 431.89 C135.43 279.23, 267.69 126.36, 375.19 0.19 M0.06 443.93 C148.65 273.23, 294.95 102.04, 385.82 0.16 M0.06 443.93 C99.17 331.57, 198.57 215.07, 385.82 0.16 M0.19 455.97 C81.95 360.86, 162.03 265.67, 396.45 0.12 M0.19 455.97 C133.34 302.19, 263.63 151.44, 396.45 0.12 M0.32 468.01 C90.65 369.29, 179.16 267.56, 407.08 0.09 M0.32 468.01 C137.4 312.79, 270.98 155.93, 407.08 0.09 M0.46 480.05 C147.71 314.98, 293.11 147.76, 417.71 0.06 M0.46 480.05 C120.71 339.09, 242.13 199.68, 417.71 0.06 M-0.07 492.85 C116.1 357.52, 236.63 217.83, 428.34 0.02 M-0.07 492.85 C91.77 386.57, 186.99 278.35, 428.34 0.02 M0.07 504.89 C102.14 390.34, 204.01 273.67, 438.97 -0.01 M0.07 504.89 C107.22 381.74, 211.48 261.22, 438.97 -0.01 M0.2 516.93 C141.02 357.42, 284.91 191.57, 449.6 -0.05 M0.2 516.93 C124.37 375.06, 249.99 230.56, 449.6 -0.05 M0.33 528.97 C168.72 331.94, 336.6 138.59, 460.23 -0.08 M0.33 528.97 C100.07 415.72, 200.85 297.27, 460.23 -0.08 M0.47 541.01 C130.62 391.73, 259.25 243.88, 470.86 -0.12 M0.47 541.01 C189 322.52, 376.74 108.83, 470.86 -0.12 M2.57 550.79 C187.82 336.13, 379.25 116.89, 481.49 -0.15 M2.57 550.79 C151.18 375.66, 303.55 200.54, 481.49 -0.15 M5.98 559.05 C160.89 377.95, 317.03 194.99, 492.12 -0.19 M5.98 559.05 C193.6 338.86, 383.69 120.11, 492.12 -0.19 M12.02 564.3 C148.73 413.61, 279.33 261.53, 502.75 -0.22 M12.02 564.3 C126.63 432.33, 244.21 296.5, 502.75 -0.22 M18.71 568.8 C136.86 425.26, 259.49 285.12, 513.38 -0.25 M18.71 568.8 C124.07 441.95, 232.26 316.39, 513.38 -0.25 M28.03 570.27 C150.7 423.19, 276.3 280.09, 523.35 0.47 M28.03 570.27 C193.81 378.27, 361.26 185.22, 523.35 0.47 M38.66 570.24 C160.88 429.65, 285.13 288.69, 533.98 0.43 M38.66 570.24 C225.2 357.21, 410.71 143.81, 533.98 0.43 M49.29 570.2 C211.98 381.88, 375.73 192.3, 544.61 0.4 M49.29 570.2 C242.01 343.27, 435.63 119.79, 544.61 0.4 M59.92 570.17 C227.05 378.68, 395.31 186.46, 555.24 0.36 M59.92 570.17 C196.56 416.5, 332.29 260.34, 555.24 0.36 M70.55 570.13 C168.57 453.92, 269.74 336.98, 565.87 0.33 M70.55 570.13 C181.08 447.55, 290.66 322.65, 565.87 0.33 M81.18 570.1 C253.36 370.71, 426.46 169.7, 576.5 0.29 M81.18 570.1 C223.32 412.45, 362.84 251.79, 576.5 0.29 M91.81 570.06 C230.81 416.15, 370.02 257.59, 587.14 0.26 M91.81 570.06 C223.94 417.78, 358.64 263.3, 587.14 0.26 M102.44 570.03 C265.84 383.51, 428.08 194.43, 597.77 0.22 M102.44 570.03 C246.35 402.89, 389.13 238.67, 597.77 0.22 M113.07 570 C252.13 404.92, 397.16 239.07, 608.4 0.19 M113.07 570 C225.94 434.08, 342.31 301.72, 608.4 0.19 M123.7 569.96 C296.13 376.85, 464.62 181.79, 619.03 0.16 M123.7 569.96 C288.34 387.87, 450.3 203.11, 619.03 0.16 M134.33 569.93 C273.22 414.39, 410.54 255.52, 629.66 0.12 M134.33 569.93 C242.26 444.59, 353.73 316.03, 629.66 0.12 M144.3 570.65 C278.25 416.56, 406.95 268.59, 640.29 0.09 M144.3 570.65 C313.48 370.11, 487.52 171.07, 640.29 0.09 M154.93 570.61 C262.22 445.79, 369.75 324.81, 650.92 0.05 M154.93 570.61 C354.57 346.28, 551.2 118.88, 650.92 0.05 M165.57 570.58 C360.11 352.51, 550.08 134.58, 661.55 0.02 M165.57 570.58 C297.33 418.15, 427.27 270.18, 661.55 0.02 M176.2 570.54 C352.49 362.67, 531.6 155.68, 672.18 -0.02 M176.2 570.54 C348.05 371.09, 517.92 175.55, 672.18 -0.02 M186.83 570.51 C290.77 444.31, 400.19 317.62, 682.81 -0.05 M186.83 570.51 C334.55 404.64, 477.65 239.81, 682.81 -0.05 M197.46 570.47 C354.64 388.54, 512.08 205.07, 693.44 -0.09 M197.46 570.47 C337.3 411.15, 479.17 248.21, 693.44 -0.09 M208.09 570.44 C351.4 403.76, 494.31 236.51, 704.07 -0.12 M208.09 570.44 C403.78 348.18, 601.16 121.11, 704.07 -0.12 M218.72 570.41 C410.85 339.3, 608.69 112.61, 714.7 -0.16 M218.72 570.41 C351.72 410.89, 490.35 253.24, 714.7 -0.16 M229.35 570.37 C397.75 376.36, 566.19 183.31, 725.33 -0.19 M229.35 570.37 C375.16 404.38, 516.09 239.76, 725.33 -0.19 M239.98 570.34 C346.15 444.81, 454.35 323.97, 735.96 -0.22 M239.98 570.34 C348.47 447.05, 453.27 325.02, 735.96 -0.22 M250.61 570.3 C408.6 385, 568.36 199.62, 746.59 -0.26 M250.61 570.3 C447.93 347.61, 641.21 123.65, 746.59 -0.26 M261.24 570.27 C418.39 388.52, 573.49 208.24, 756.56 0.46 M261.24 570.27 C368.28 446.62, 475 321.83, 756.56 0.46 M271.87 570.23 C373.68 452.14, 473.52 332.26, 767.19 0.43 M271.87 570.23 C413.44 412.73, 550.76 254.41, 767.19 0.43 M282.5 570.2 C450.42 371.67, 622.39 173.77, 777.82 0.39 M282.5 570.2 C410.61 425.59, 535.63 282.54, 777.82 0.39 M293.13 570.16 C483.31 353.66, 675.8 132.82, 788.45 0.36 M293.13 570.16 C417.36 428.91, 540.43 289.14, 788.45 0.36 M303.76 570.13 C443.92 412.5, 580.87 252.05, 799.08 0.32 M303.76 570.13 C460.66 396.38, 615.21 219.35, 799.08 0.32 M314.39 570.09 C437.49 422.79, 566.78 276.6, 809.71 0.29 M314.39 570.09 C482.28 372.63, 651.26 177.39, 809.71 0.29 M325.02 570.06 C429.94 453.33, 533.26 334.19, 820.34 0.25 M325.02 570.06 C434.82 444.65, 543.9 319.09, 820.34 0.25 M335.65 570.03 C455.1 433.19, 574.61 292.44, 830.97 0.22 M335.65 570.03 C498.07 386.93, 659.45 199.89, 830.97 0.22 M346.28 569.99 C510.49 381.27, 668.02 198.2, 841.6 0.19 M346.28 569.99 C472.92 425.76, 596.06 283.57, 841.6 0.19 M356.91 569.96 C543.29 354.22, 733.33 135.05, 852.23 0.15 M356.91 569.96 C508.13 395.51, 662.76 217.13, 852.23 0.15 M367.54 569.92 C541.06 367.05, 714.43 170.53, 862.86 0.12 M367.54 569.92 C515.14 401.47, 661.26 234.95, 862.86 0.12 M377.51 570.64 C531.76 394.16, 688.53 212.08, 873.49 0.08 M377.51 570.64 C542.98 381.88, 709.76 190.55, 873.49 0.08 M388.14 570.61 C546.69 388.98, 703.84 206.7, 884.12 0.05 M388.14 570.61 C531.26 411.07, 670.33 250.7, 884.12 0.05 M398.77 570.57 C553.41 392, 707.71 213.4, 894.75 0.01 M398.77 570.57 C583.93 357.16, 769.08 143.3, 894.75 0.01 M409.4 570.54 C595.41 352.74, 781.67 142.01, 905.38 -0.02 M409.4 570.54 C600.3 353.51, 790.91 134.19, 905.38 -0.02 M420.03 570.5 C540.79 423.6, 666.64 279.29, 916.01 -0.06 M420.03 570.5 C582.9 382.29, 748.83 192.34, 916.01 -0.06 M430.66 570.47 C620.15 354.39, 809.91 136.38, 926.64 -0.09 M430.66 570.47 C532.48 454.92, 631.52 340.41, 926.64 -0.09 M441.29 570.44 C555.86 432.23, 672.37 299.5, 937.27 -0.12 M441.29 570.44 C571.46 420.12, 699.2 274.48, 937.27 -0.12 M451.92 570.4 C617.89 388.17, 776.54 199.78, 947.9 -0.16 M451.92 570.4 C631.32 358.36, 814.02 148.86, 947.9 -0.16 M462.55 570.37 C650.19 360.6, 837.32 146.32, 958.53 -0.19 M462.55 570.37 C626.57 385.1, 786.43 200.63, 958.53 -0.19 M473.18 570.33 C615.94 399.44, 761.95 232.17, 969.16 -0.23 M473.18 570.33 C650.35 371.66, 826.55 169.74, 969.16 -0.23 M483.81 570.3 C679.34 347.31, 872.86 124.83, 979.79 -0.26 M483.81 570.3 C603.61 431.61, 725.01 292.98, 979.79 -0.26 M494.44 570.26 C645.98 397.51, 797.74 221.79, 989.77 0.46 M494.44 570.26 C626.64 421.52, 756.04 272.74, 989.77 0.46 M505.07 570.23 C621.31 438.72, 737.2 307.41, 1000.4 0.42 M505.07 570.23 C638.08 417.03, 770.44 266.34, 1000.4 0.42 M515.7 570.19 C653.19 411.66, 792.53 251.5, 1011.03 0.39 M515.7 570.19 C627.96 439.58, 741.73 308.25, 1011.03 0.39 M526.33 570.16 C654.87 418.6, 781.47 271.01, 1021.66 0.35 M526.33 570.16 C710.23 363.72, 892.48 153.98, 1021.66 0.35 M536.96 570.13 C667.19 421.52, 797.67 271.69, 1032.29 0.32 M536.96 570.13 C649.24 433.21, 766.48 298.39, 1032.29 0.32 M547.59 570.09 C672.32 428.78, 794.55 286.14, 1042.92 0.28 M547.59 570.09 C683.56 413.89, 816.12 261.66, 1042.92 0.28 M558.22 570.06 C661.28 449.4, 768.24 328.05, 1053.55 0.25 M558.22 570.06 C700.7 411.9, 840.12 251.5, 1053.55 0.25 M568.85 570.02 C760.37 355.32, 948.19 138.38, 1064.18 0.22 M568.85 570.02 C674.31 450.75, 779.97 330.67, 1064.18 0.22 M579.48 569.99 C775.05 343.7, 970.71 120.54, 1074.81 0.18 M579.48 569.99 C687.18 449.07, 792.21 330.26, 1074.81 0.18 M590.11 569.95 C728.66 414.6, 862.08 259.03, 1085.44 0.15 M590.11 569.95 C780.37 351.79, 970.96 131.55, 1085.44 0.15 M600.74 569.92 C700.77 448.55, 803.79 331.17, 1096.07 0.11 M600.74 569.92 C747.65 400.48, 896.06 229.76, 1096.07 0.11 M610.72 570.64 C775.98 374.98, 947.63 180.76, 1106.7 0.08 M610.72 570.64 C761.66 399.39, 912.56 224.4, 1106.7 0.08 M621.35 570.6 C795.1 366.39, 971.28 164.72, 1117.33 0.04 M621.35 570.6 C747.61 423.78, 875.47 277.88, 1117.33 0.04 M631.98 570.57 C747.68 439.64, 862.36 310.89, 1127.96 0.01 M631.98 570.57 C748.19 438.21, 860.65 308.3, 1127.96 0.01 M642.61 570.53 C767.75 431.34, 891.47 288.8, 1138.59 -0.03 M642.61 570.53 C751.7 439.9, 865.62 308.52, 1138.59 -0.03 M653.24 570.5 C843.87 353.38, 1031.57 137.22, 1149.22 -0.06 M653.24 570.5 C815.1 381.47, 980.5 189.71, 1149.22 -0.06 M663.87 570.47 C781.67 439.23, 898.34 305.16, 1159.85 -0.09 M663.87 570.47 C856.57 345, 1052.21 120.77, 1159.85 -0.09 M674.5 570.43 C810.84 419.32, 943.1 266.14, 1170.48 -0.13 M674.5 570.43 C851.22 373.96, 1025.55 173.45, 1170.48 -0.13 M685.13 570.4 C862.4 364.59, 1039.22 161.5, 1181.11 -0.16 M685.13 570.4 C862.92 366.67, 1043.45 157.78, 1181.11 -0.16 M695.76 570.36 C880.9 353.54, 1066.56 139.12, 1191.74 -0.2 M695.76 570.36 C858.27 385.27, 1020.73 197.54, 1191.74 -0.2 M706.39 570.33 C895.21 345.5, 1084.99 126.44, 1202.37 -0.23 M706.39 570.33 C897.59 344.85, 1090.71 123.45, 1202.37 -0.23 M717.02 570.29 C819.7 454.91, 921.46 337.27, 1213 -0.27 M717.02 570.29 C846.49 422.16, 977.35 272.19, 1213 -0.27 M727.65 570.26 C828.89 452.19, 932.02 336.64, 1222.97 0.45 M727.65 570.26 C902.3 367.77, 1076.29 166.87, 1222.97 0.45 M738.28 570.22 C876.06 413.21, 1009.24 258.15, 1233.6 0.42 M738.28 570.22 C877.72 417.75, 1012.8 263.15, 1233.6 0.42 M748.91 570.19 C850.91 447.18, 957.12 327.9, 1244.23 0.38 M748.91 570.19 C930.55 363.41, 1111.97 154.35, 1244.23 0.38 M759.54 570.16 C907.18 395.77, 1059.17 222.2, 1254.86 0.35 M759.54 570.16 C870.54 443.12, 978.82 317.8, 1254.86 0.35 M770.17 570.12 C923.44 385.41, 1082.3 207, 1265.49 0.32 M770.17 570.12 C964.5 350, 1154.6 130.55, 1265.49 0.32 M780.8 570.09 C901.98 427.2, 1027.6 283, 1276.12 0.28 M780.8 570.09 C925.52 399.66, 1073.51 229.46, 1276.12 0.28 M791.43 570.05 C967.93 372.41, 1142.5 171.05, 1286.75 0.25 M791.43 570.05 C989.33 347.79, 1185.32 123.06, 1286.75 0.25 M802.06 570.02 C935.48 415.88, 1071.88 259.7, 1297.38 0.21 M802.06 570.02 C914.59 434.54, 1028.65 301.52, 1297.38 0.21 M812.69 569.98 C944.73 418.83, 1076.82 267.65, 1308.01 0.18 M812.69 569.98 C915.37 445.74, 1019.57 326.53, 1308.01 0.18 M823.32 569.95 C997.39 372.44, 1174.34 170.76, 1318.64 0.14 M823.32 569.95 C960.67 409.18, 1103.7 246.38, 1318.64 0.14 M833.95 569.91 C992.79 386.91, 1151.32 208.1, 1329.27 0.11 M833.95 569.91 C975.43 402.76, 1119.9 236.94, 1329.27 0.11 M843.92 570.63 C983.96 408.78, 1121.5 251.94, 1339.9 0.07 M843.92 570.63 C969.66 423.65, 1095.45 277.77, 1339.9 0.07 M854.55 570.6 C986.83 410.26, 1126.49 252.48, 1350.53 0.04 M854.55 570.6 C1011.6 388.84, 1171.94 204.51, 1350.53 0.04 M865.18 570.57 C992.42 424.21, 1120.58 275.86, 1361.16 0 M865.18 570.57 C997.68 415.58, 1132.82 259.43, 1361.16 0 M875.81 570.53 C996.15 426.42, 1114.75 287.19, 1371.79 -0.03 M875.81 570.53 C985.72 443.43, 1098.81 312.22, 1371.79 -0.03 M886.44 570.5 C1046.17 390.12, 1206.27 205.92, 1382.42 -0.06 M886.44 570.5 C1082.65 343.91, 1281 117.16, 1382.42 -0.06 M897.07 570.46 C1007.53 444.39, 1119.21 315.91, 1393.05 -0.1 M897.07 570.46 C1076.07 362.57, 1258.59 153.44, 1393.05 -0.1 M907.7 570.43 C1063.11 394.14, 1214.45 216.03, 1403.68 -0.13 M907.7 570.43 C1025.84 435.59, 1142.98 301.87, 1403.68 -0.13 M918.33 570.39 C1084.63 376.18, 1253.01 181.17, 1414.31 -0.17 M918.33 570.39 C1081.32 379.87, 1244.22 193.8, 1414.31 -0.17 M928.96 570.36 C1068.2 415.58, 1206.26 260, 1424.94 -0.2 M928.96 570.36 C1084.63 393.64, 1240.5 213, 1424.94 -0.2 M939.59 570.32 C1054.4 436.76, 1169.93 306.43, 1435.57 -0.24 M939.59 570.32 C1104.83 381, 1271.94 188.23, 1435.57 -0.24 M950.22 570.29 C1092 404.65, 1235.34 239.16, 1446.2 -0.27 M950.22 570.29 C1102.33 392.48, 1255.91 216.1, 1446.2 -0.27 M960.85 570.25 C1089.77 424.7, 1213.31 279.45, 1456.18 0.45 M960.85 570.25 C1090.68 425.2, 1218.01 279.62, 1456.18 0.45 M971.48 570.22 C1095.02 434.75, 1214.51 297.85, 1466.81 0.41 M971.48 570.22 C1082.24 445.76, 1190.03 321.33, 1466.81 0.41 M982.11 570.19 C1118.36 418.7, 1252.62 264.72, 1477.44 0.38 M982.11 570.19 C1169.5 356.44, 1357.09 141.68, 1477.44 0.38 M992.74 570.15 C1112.02 435.6, 1227.05 301.94, 1488.07 0.35 M992.74 570.15 C1180.12 358.22, 1366.32 142.78, 1488.07 0.35 M1003.37 570.12 C1143.24 411.14, 1281.67 250.95, 1498.7 0.31 M1003.37 570.12 C1121.72 437.94, 1236.2 305.19, 1498.7 0.31 M1014 570.08 C1206.94 351.23, 1400.56 128.17, 1509.33 0.28 M1014 570.08 C1140.81 420.34, 1270.36 273.4, 1509.33 0.28 M1024.63 570.05 C1204.31 356.39, 1390.1 146.81, 1519.96 0.24 M1024.63 570.05 C1213.8 354.08, 1403.28 136.47, 1519.96 0.24 M1035.26 570.01 C1145.9 438.23, 1261.22 306.6, 1530.59 0.21 M1035.26 570.01 C1164.87 413.4, 1297.64 258.74, 1530.59 0.21 M1045.89 569.98 C1225.56 365.84, 1406.02 156.01, 1541.22 0.17 M1045.89 569.98 C1160.22 437.32, 1274.57 305.25, 1541.22 0.17 M1056.52 569.94 C1216.45 384.48, 1374.03 202.28, 1551.85 0.14 M1056.52 569.94 C1225.15 371.04, 1398.93 170.77, 1551.85 0.14 M1067.15 569.91 C1259.86 343.62, 1457.11 115.98, 1562.48 0.1 M1067.15 569.91 C1166.04 455.68, 1265.24 341.08, 1562.48 0.1 M1077.13 570.63 C1185.34 447.66, 1294.18 322, 1573.11 0.07 M1077.13 570.63 C1259.08 358.1, 1443.71 145.82, 1573.11 0.07 M1087.76 570.6 C1244.2 392.57, 1396.98 213.4, 1583.74 0.04 M1087.76 570.6 C1272.19 358.88, 1454.27 149.63, 1583.74 0.04 M1098.39 570.56 C1249.64 395.5, 1402.81 219.86, 1594.37 0 M1098.39 570.56 C1273.21 375.47, 1445.2 178.13, 1594.37 0 M1109.02 570.53 C1245.75 414.76, 1385.87 253.56, 1605 -0.03 M1109.02 570.53 C1218.82 437.84, 1331.67 309.81, 1605 -0.03 M1119.65 570.49 C1306.79 353.25, 1493.88 138.53, 1615.63 -0.07 M1119.65 570.49 C1227.06 445.1, 1332.15 323.61, 1615.63 -0.07 M1130.28 570.46 C1310.93 358.13, 1498.23 145.98, 1626.26 -0.1 M1130.28 570.46 C1282.94 391.69, 1438.51 212.55, 1626.26 -0.1 M1140.91 570.42 C1262.51 424.49, 1385.17 282.32, 1636.89 -0.14 M1140.91 570.42 C1267.61 422.8, 1393.64 277.5, 1636.89 -0.14 M1151.54 570.39 C1345.87 348, 1541.32 125.7, 1647.52 -0.17 M1151.54 570.39 C1251.59 456.92, 1350.84 342.83, 1647.52 -0.17 M1162.17 570.35 C1331.65 373.06, 1507.32 172.58, 1658.15 -0.21 M1162.17 570.35 C1297.67 409.1, 1434.78 249.44, 1658.15 -0.21 M1172.8 570.32 C1296.11 433.77, 1417.56 293.93, 1668.78 -0.24 M1172.8 570.32 C1316.17 401.57, 1460.5 237.1, 1668.78 -0.24 M1183.43 570.29 C1343.8 383.74, 1502.28 203.89, 1679.41 -0.28 M1183.43 570.29 C1298.76 435.48, 1414.88 302.56, 1679.41 -0.28 M1194.06 570.25 C1366.27 365.79, 1542.37 163.63, 1689.38 0.44 M1194.06 570.25 C1301.31 447.88, 1410.28 322.25, 1689.38 0.44 M1204.69 570.22 C1313.22 441.33, 1420.26 316.3, 1700.01 0.41 M1204.69 570.22 C1404.73 342.68, 1602.33 116.33, 1700.01 0.41 M1215.32 570.18 C1344.87 421.57, 1478.76 267.52, 1710.64 0.38 M1215.32 570.18 C1345.84 418.84, 1477.81 265.87, 1710.64 0.38 M1225.95 570.15 C1383.5 388.52, 1543.32 201.9, 1721.27 0.34 M1225.95 570.15 C1423.04 350, 1617.01 126.88, 1721.27 0.34 M1236.58 570.11 C1359.8 428.07, 1481.64 288.36, 1731.9 0.31 M1236.58 570.11 C1399 384.3, 1563.81 195.47, 1731.9 0.31 M1247.21 570.08 C1405.53 386.21, 1565.96 203.08, 1742.53 0.27 M1247.21 570.08 C1428.8 366.06, 1605.11 162.88, 1742.53 0.27 M1257.84 570.04 C1386.8 424.52, 1511.4 281.5, 1753.16 0.24 M1257.84 570.04 C1433.93 367.05, 1612.5 161.33, 1753.16 0.24 M1268.47 570.01 C1430.97 384.09, 1591.11 199.55, 1763.79 0.2 M1268.47 570.01 C1460.2 350.75, 1650.71 132.65, 1763.79 0.2 M1279.1 569.97 C1467.8 352.14, 1659.99 133.56, 1774.42 0.17 M1279.1 569.97 C1438.87 379.51, 1602.63 190.93, 1774.42 0.17 M1289.73 569.94 C1411.11 429.37, 1531.62 291.18, 1785.05 0.13 M1289.73 569.94 C1427.27 407.02, 1569.4 244.54, 1785.05 0.13 M1300.36 569.91 C1424.41 429.38, 1544.62 292.4, 1795.68 0.1 M1300.36 569.91 C1423.03 430.04, 1545.36 288.94, 1795.68 0.1 M1310.33 570.63 C1419.18 437.93, 1534.03 305.9, 1806.32 0.07 M1310.33 570.63 C1420.38 444.46, 1528.47 320.46, 1806.32 0.07 M1320.96 570.59 C1494.68 373.73, 1667.18 174.93, 1816.95 0.03 M1320.96 570.59 C1497.05 368.31, 1673.58 165.08, 1816.95 0.03 M1331.59 570.56 C1439.66 442, 1549.95 311.15, 1827.58 0 M1331.59 570.56 C1461.12 419.02, 1594.3 265.72, 1827.58 0 M1342.22 570.52 C1514.03 377.72, 1680.11 185.82, 1838.21 -0.04 M1342.22 570.52 C1513.25 374.02, 1681.82 179.87, 1838.21 -0.04 M1352.85 570.49 C1456.95 454.4, 1556.69 337.56, 1848.84 -0.07 M1352.85 570.49 C1474.56 422.16, 1601.54 276.09, 1848.84 -0.07 M1363.48 570.45 C1539.03 368.19, 1718.01 161.4, 1859.47 -0.11 M1363.48 570.45 C1514.47 391.65, 1666.95 215.83, 1859.47 -0.11 M1374.11 570.42 C1548.41 374.36, 1720.11 177.72, 1870.1 -0.14 M1374.11 570.42 C1544.78 379.11, 1710.28 188.21, 1870.1 -0.14 M1384.75 570.38 C1522.62 409.43, 1665.75 245.9, 1880.73 -0.18 M1384.75 570.38 C1493.24 448.19, 1598.88 327.1, 1880.73 -0.18 M1395.38 570.35 C1520.39 427, 1650.04 281.92, 1891.36 -0.21 M1395.38 570.35 C1590.52 340.97, 1787.54 113.69, 1891.36 -0.21 M1406.01 570.32 C1547.66 402.74, 1693.16 235.68, 1901.99 -0.25 M1406.01 570.32 C1519.89 435.01, 1634.31 302.46, 1901.99 -0.25 M1416.64 570.28 C1593.53 372.44, 1767.08 174.91, 1912.62 -0.28 M1416.64 570.28 C1547.04 416.59, 1680.31 263.37, 1912.62 -0.28 M1427.27 570.25 C1571.21 408.38, 1710.96 246.92, 1922.59 0.44 M1427.27 570.25 C1616.43 352.26, 1806.45 131.88, 1922.59 0.44 M1437.9 570.21 C1559.6 422.16, 1685.02 278.92, 1933.22 0.41 M1437.9 570.21 C1585.68 397.23, 1737.29 221.8, 1933.22 0.41 M1448.53 570.18 C1584.41 411.64, 1717.12 259, 1943.85 0.37 M1448.53 570.18 C1605.71 385.26, 1764.8 202.19, 1943.85 0.37 M1459.16 570.14 C1566.17 445.75, 1671.28 324.03, 1954.48 0.34 M1459.16 570.14 C1556.02 452.77, 1656.75 338.39, 1954.48 0.34 M1469.79 570.11 C1662.8 348.13, 1855.47 128.42, 1965.11 0.3 M1469.79 570.11 C1626.72 386.7, 1787.96 201.02, 1965.11 0.3 M1480.42 570.07 C1631.84 396.89, 1780.23 225.51, 1975.74 0.27 M1480.42 570.07 C1669.58 349.22, 1861.44 128.72, 1975.74 0.27 M1491.05 570.04 C1627.96 417.68, 1758.56 262.86, 1986.37 0.23 M1491.05 570.04 C1650.59 385.36, 1809.7 204.31, 1986.37 0.23 M1501.68 570 C1688.4 348.74, 1880.35 130.95, 1997 0.2 M1501.68 570 C1612.05 446.54, 1721.37 321.34, 1997 0.2 M1512.31 569.97 C1652.63 404.13, 1794.94 241.46, 2007.63 0.16 M1512.31 569.97 C1642.09 428.24, 1768.88 282.57, 2007.63 0.16 M1522.94 569.94 C1706.02 367.65, 1884.63 160.98, 2018.26 0.13 M1522.94 569.94 C1717.93 340.89, 1915.57 115.04, 2018.26 0.13 M1533.57 569.9 C1689.12 392.32, 1842.46 215.57, 2028.89 0.1 M1533.57 569.9 C1695.17 387.21, 1855.22 203.31, 2028.89 0.1 M1543.54 570.62 C1715.75 375.73, 1881.99 180.09, 2039.52 0.06 M1543.54 570.62 C1712.87 370.43, 1886.72 169.13, 2039.52 0.06 M1554.17 570.59 C1719.11 377.5, 1886.6 185.58, 2050.15 0.03 M1554.17 570.59 C1723.02 374.44, 1894.39 176.74, 2050.15 0.03 M1564.8 570.55 C1683.77 429.31, 1805.99 288.1, 2060.78 -0.01 M1564.8 570.55 C1686.11 429.37, 1806.5 290.16, 2060.78 -0.01 M1575.43 570.52 C1708.75 413.9, 1843.59 261.36, 2071.41 -0.04 M1575.43 570.52 C1765.02 357.21, 1952.91 141.03, 2071.41 -0.04 M1586.06 570.48 C1694.39 442.95, 1804.77 317.63, 2082.04 -0.08 M1586.06 570.48 C1772.82 350.48, 1960.83 133.57, 2082.04 -0.08 M1596.69 570.45 C1758.73 383.17, 1923.03 194.6, 2092.67 -0.11 M1596.69 570.45 C1752.09 395.3, 1906.56 216.54, 2092.67 -0.11 M1607.32 570.41 C1717.27 442.75, 1824.96 316.67, 2103.3 -0.15 M1607.32 570.41 C1798.47 345.52, 1991.59 124.25, 2103.3 -0.15 M1617.95 570.38 C1745.37 420.22, 1877.66 268.47, 2113.93 -0.18 M1617.95 570.38 C1750.89 410.8, 1888.5 253.29, 2113.93 -0.18 M1628.58 570.35 C1739.07 451, 1842.7 328.53, 2124.56 -0.21 M1628.58 570.35 C1743.9 438.39, 1861.02 302.85, 2124.56 -0.21 M1639.21 570.31 C1801.55 387.62, 1961.31 201.16, 2135.19 -0.25 M1639.21 570.31 C1754.7 437.47, 1867.55 306.64, 2135.19 -0.25 M1649.84 570.28 C1844.83 346.76, 2037.91 125.46, 2145.82 -0.28 M1649.84 570.28 C1761.9 434.89, 1876.4 301.96, 2145.82 -0.28 M1660.47 570.24 C1801.32 411.39, 1939.82 252.53, 2155.8 0.44 M1660.47 570.24 C1843 359.41, 2025.15 151.26, 2155.8 0.44 M1671.1 570.21 C1845.66 368.66, 2018.45 168.14, 2166.43 0.4 M1671.1 570.21 C1774.4 455.57, 1877.43 337.12, 2166.43 0.4 M1681.73 570.17 C1783.12 447.65, 1889.28 323.73, 2177.06 0.37 M1681.73 570.17 C1834.99 390.25, 1990.67 210.8, 2177.06 0.37 M1692.36 570.14 C1852.39 392.49, 2009.21 210.37, 2187.69 0.33 M1692.36 570.14 C1862.2 377.17, 2028.07 184.9, 2187.69 0.33 M1702.99 570.1 C1869.68 380.54, 2031.51 190.08, 2198.32 0.3 M1702.99 570.1 C1873.57 379.13, 2041.36 185.83, 2198.32 0.3 M1713.62 570.07 C1869.22 387.88, 2031.39 204.22, 2208.95 0.26 M1713.62 570.07 C1872.01 383.2, 2031.12 198.5, 2208.95 0.26 M1724.25 570.04 C1901.46 372.87, 2071.15 173.27, 2219.58 0.23 M1724.25 570.04 C1888.16 378.35, 2054.48 185.85, 2219.58 0.23 M1734.88 570 C1843.59 447.12, 1950.39 321.24, 2230.21 0.19 M1734.88 570 C1840.69 455.04, 1944.46 337.48, 2230.21 0.19 M1745.51 569.97 C1894.35 399.24, 2039.78 231.79, 2240.84 0.16 M1745.51 569.97 C1864.07 431.39, 1984.17 292.73, 2240.84 0.16 M1756.14 569.93 C1889.26 419.7, 2021.39 267.69, 2251.47 0.13 M1756.14 569.93 C1939.28 362.7, 2120.21 155.49, 2251.47 0.13 M1766.77 569.9 C1928.24 388.64, 2088.67 204.6, 2262.1 0.09 M1766.77 569.9 C1873.4 446.28, 1981.87 320.19, 2262.1 0.09 M1776.75 570.62 C1947.96 373.46, 2119.79 175.79, 2272.73 0.06 M1776.75 570.62 C1923.22 394.95, 2073.52 221.97, 2272.73 0.06 M1787.38 570.58 C1935.65 398.98, 2082.65 232.58, 2283.36 0.02 M1787.38 570.58 C1924.74 411.44, 2059.25 257.25, 2283.36 0.02 M1798.01 570.55 C1980.19 360, 2158.02 154.97, 2293.99 -0.01 M1798.01 570.55 C1931.53 415.58, 2063.83 262.81, 2293.99 -0.01 M1808.64 570.51 C2001.75 347.49, 2193.44 125.53, 2304.62 -0.05 M1808.64 570.51 C1924.26 437.88, 2038.95 306.59, 2304.62 -0.05 M1819.27 570.48 C1931.91 441.42, 2040.65 314.02, 2315.25 -0.08 M1819.27 570.48 C1932.44 436.12, 2046.49 303.09, 2315.25 -0.08 M1829.9 570.44 C1979.21 397.14, 2131.83 225.77, 2325.88 -0.12 M1829.9 570.44 C2015.84 356.92, 2197.99 145.25, 2325.88 -0.12 M1840.53 570.41 C1962.2 425.11, 2086.56 281.26, 2336.51 -0.15 M1840.53 570.41 C1996.36 390.71, 2149.45 214.87, 2336.51 -0.15 M1851.16 570.38 C1974.93 434.96, 2097.61 294.54, 2347.14 -0.18 M1851.16 570.38 C2042.65 350.3, 2236 127.59, 2347.14 -0.18 M1861.79 570.34 C2061.54 341.39, 2260.2 112.88, 2357.77 -0.22 M1861.79 570.34 C2038.01 375.86, 2209.17 176.95, 2357.77 -0.22 M1872.42 570.31 C2044.49 376.87, 2214.75 178.35, 2367.74 0.5 M1872.42 570.31 C1983.49 437.34, 2098.7 306.38, 2367.74 0.5 M1883.05 570.27 C1992.93 443.98, 2102.63 319.44, 2377.06 1.98 M1883.05 570.27 C2041.04 381.68, 2201.1 196.21, 2377.06 1.98 M1893.68 570.24 C2016.16 430.99, 2134.67 294.15, 2385.07 4.96 M1893.68 570.24 C2025.17 416.93, 2157.1 266.08, 2385.07 4.96 M1904.31 570.2 C2044.46 403.68, 2184.58 242.01, 2391.76 9.45 M1904.31 570.2 C2084.3 367.84, 2259.62 165.8, 2391.76 9.45 M1914.94 570.17 C2056.85 409.01, 2199.61 244.28, 2396.48 16.21 M1914.94 570.17 C2056.29 405.92, 2203.83 236.24, 2396.48 16.21 M1925.57 570.13 C2021.77 461.16, 2116.82 348.49, 2398.59 25.99 M1925.57 570.13 C2071.24 410.22, 2214.29 245.63, 2398.59 25.99 M1936.2 570.1 C2114.45 366.64, 2286.87 166.85, 2400.03 36.52 M1936.2 570.1 C2115.67 364.02, 2292.48 161.29, 2400.03 36.52 M1946.83 570.07 C2107.6 380.66, 2273.53 191.06, 2399.51 49.32 M1946.83 570.07 C2096.46 401.39, 2245.19 230.05, 2399.51 49.32 M1957.46 570.03 C2080.23 424.86, 2201.96 284.85, 2399.64 61.36 M1957.46 570.03 C2129.03 378.52, 2297.41 185.89, 2399.64 61.36 M1968.09 570 C2133.02 374.06, 2302.6 180.61, 2399.77 73.4 M1968.09 570 C2128.33 387.6, 2285.38 207.03, 2399.77 73.4 M1978.72 569.96 C2106.5 423.79, 2229.97 279.98, 2399.91 85.44 M1978.72 569.96 C2066.23 473.12, 2154.22 373.24, 2399.91 85.44 M1989.35 569.93 C2118.99 414.25, 2250.7 262.76, 2400.04 97.48 M1989.35 569.93 C2093.72 450.42, 2198.96 329.06, 2400.04 97.48 M1999.32 570.65 C2105.72 446.32, 2209.39 326.34, 2399.52 110.27 M1999.32 570.65 C2079.47 476.34, 2161.21 382.44, 2399.52 110.27 M2009.95 570.61 C2091.05 471.07, 2173.48 378.43, 2399.65 122.32 M2009.95 570.61 C2167.87 394.5, 2322.85 217.34, 2399.65 122.32 M2020.58 570.58 C2136.89 439.17, 2255.43 304.94, 2399.78 134.36 M2020.58 570.58 C2154.95 412.51, 2290.58 255.27, 2399.78 134.36 M2031.21 570.54 C2152.15 428.91, 2274.3 288.74, 2399.92 146.4 M2031.21 570.54 C2146.31 443.87, 2258.58 314.54, 2399.92 146.4 M2041.84 570.51 C2139.61 454.16, 2239.47 340.17, 2400.05 158.44 M2041.84 570.51 C2137.93 459.62, 2237.13 346.24, 2400.05 158.44 M2052.47 570.48 C2178.07 430.4, 2301.68 287.43, 2399.53 171.23 M2052.47 570.48 C2135.8 478.33, 2218.32 384.91, 2399.53 171.23 M2063.1 570.44 C2179.23 432.9, 2298.09 298.49, 2399.66 183.27 M2063.1 570.44 C2130.82 487.76, 2199.89 408.26, 2399.66 183.27 M2073.73 570.41 C2206.87 419.13, 2334.27 270.51, 2399.79 195.32 M2073.73 570.41 C2194.51 429.08, 2317.51 287.45, 2399.79 195.32 M2084.36 570.37 C2207.12 425.81, 2333.05 282.09, 2399.93 207.36 M2084.36 570.37 C2157.44 487.35, 2232.15 402.3, 2399.93 207.36 M2094.99 570.34 C2208.87 439.78, 2322.76 311.9, 2400.06 219.4 M2094.99 570.34 C2171.9 478.5, 2252.3 387.24, 2400.06 219.4 M2105.62 570.3 C2174.93 493.13, 2241.94 415.67, 2399.54 232.19 M2105.62 570.3 C2185.61 477.35, 2265.74 385.26, 2399.54 232.19 M2116.25 570.27 C2226.62 442.17, 2336.02 317.15, 2399.67 244.23 M2116.25 570.27 C2208.23 459.85, 2304.05 349.82, 2399.67 244.23 M2126.88 570.23 C2220.61 460.68, 2313.17 353.8, 2399.8 256.27 M2126.88 570.23 C2204.1 482.47, 2280.1 395.68, 2399.8 256.27 M2137.51 570.2 C2193.27 499.97, 2248.5 434.14, 2399.94 268.32 M2137.51 570.2 C2190 506.45, 2242.38 445.64, 2399.94 268.32 M2148.14 570.16 C2241.01 455.84, 2337.2 345.97, 2400.07 280.36 M2148.14 570.16 C2209.51 502.68, 2266.27 435.84, 2400.07 280.36 M2158.77 570.13 C2210.53 509.3, 2260.26 448.57, 2399.55 293.15 M2158.77 570.13 C2252.38 465.85, 2344.5 357.74, 2399.55 293.15 M2169.4 570.1 C2234.81 491.81, 2299.77 412.58, 2399.68 305.19 M2169.4 570.1 C2250.09 474.59, 2329.56 382.67, 2399.68 305.19 M2180.03 570.06 C2262.68 483.51, 2341.38 388.88, 2399.81 317.23 M2180.03 570.06 C2254.97 483.66, 2330.42 395.57, 2399.81 317.23 M2190.66 570.03 C2258.25 495.63, 2327.65 413.73, 2399.95 329.27 M2190.66 570.03 C2252.13 500.6, 2314.01 429.57, 2399.95 329.27 M2201.29 569.99 C2246.78 513.77, 2291.27 461.19, 2400.08 341.32 M2201.29 569.99 C2260.58 507.1, 2317.99 442.17, 2400.08 341.32 M2211.92 569.96 C2260.09 516.83, 2307.26 456.35, 2399.56 354.11 M2211.92 569.96 C2279.65 498.08, 2344.68 424.02, 2399.56 354.11 M2222.55 569.92 C2267.32 516.13, 2315.33 465.8, 2399.69 366.15 M2222.55 569.92 C2281.61 502.46, 2342.39 435.68, 2399.69 366.15 M2232.53 570.64 C2299.75 491.94, 2360.61 421.8, 2399.82 378.19 M2232.53 570.64 C2269.38 525.84, 2308.37 480.66, 2399.82 378.19 M2243.16 570.61 C2285.83 520.22, 2324.26 473.16, 2399.96 390.23 M2243.16 570.61 C2296.51 508.75, 2350.74 448.23, 2399.96 390.23 M2253.79 570.57 C2302.13 515.24, 2348.36 464.86, 2400.09 402.27 M2253.79 570.57 C2302.41 519.95, 2346.72 466.66, 2400.09 402.27 M2264.42 570.54 C2299.84 524, 2335.43 483.62, 2399.57 415.07 M2264.42 570.54 C2311.19 520.3, 2353.63 470.14, 2399.57 415.07 M2275.05 570.51 C2329.87 516.44, 2374.82 461.77, 2399.7 427.11 M2275.05 570.51 C2323.13 520.7, 2369.51 467.56, 2399.7 427.11 M2285.68 570.47 C2326.51 521.33, 2362.33 477.78, 2399.83 439.15 M2285.68 570.47 C2306.97 544.38, 2330.29 516.31, 2399.83 439.15 M2296.31 570.44 C2318.2 542.55, 2344.72 516.45, 2399.97 451.19 M2296.31 570.44 C2321.46 541.35, 2348.82 511.41, 2399.97 451.19 M2306.94 570.4 C2344.13 532.42, 2375.62 490.22, 2400.1 463.23 M2306.94 570.4 C2329.27 541.02, 2354.62 515.94, 2400.1 463.23 M2317.57 570.37 C2347.71 538.77, 2377.36 499.88, 2399.58 476.03 M2317.57 570.37 C2349.66 536.73, 2382.53 501.12, 2399.58 476.03 M2328.2 570.33 C2343.44 551.3, 2358.13 536.66, 2399.71 488.07 M2328.2 570.33 C2349.32 544.09, 2371.56 522.32, 2399.71 488.07 M2338.83 570.3 C2353.81 548.16, 2378.63 529.46, 2399.84 500.11 M2338.83 570.3 C2354.43 553.15, 2371.89 533.06, 2399.84 500.11 M2349.46 570.26 C2360.92 559.96, 2365.79 548.62, 2399.98 512.15 M2349.46 570.26 C2362.41 555.14, 2372.36 542.75, 2399.98 512.15 M2360.09 570.23 C2369 563.84, 2380.36 552.92, 2400.11 524.19 M2360.09 570.23 C2372.12 558.11, 2381.28 544.03, 2400.11 524.19 M2371.38 569.44 C2375.91 562.09, 2387.51 550.91, 2399.59 536.99 M2371.38 569.44 C2382.65 557.56, 2391.15 548.12, 2399.59 536.99 M2384.63 566.39 C2389.13 562.11, 2387.42 558.21, 2397.75 551.29 M2384.63 566.39 C2388.05 560.58, 2393.73 556.01, 2397.75 551.29" stroke="#ffec99" stroke-width="1" fill="none"></path><path d="M32 0 C550.74 1.91, 1067.08 -0.36, 2367.59 0 M32 0 C546.11 9.39, 1062 9.15, 2367.59 0 M2367.59 0 C2392.02 1.92, 2400.65 13.84, 2399.59 32 M2367.59 0 C2389.33 0.64, 2395.49 11.19, 2399.59 32 M2399.59 32 C2400.3 149.14, 2399.3 269.47, 2399.59 538.27 M2399.59 32 C2401.26 179.1, 2400.74 325.09, 2399.59 538.27 M2399.59 538.27 C2395.99 562.57, 2389.68 572.39, 2367.59 570.27 M2399.59 538.27 C2403.1 561.81, 2391.14 572.22, 2367.59 570.27 M2367.59 570.27 C1526.28 557.77, 685.93 555.1, 32 570.27 M2367.59 570.27 C1659.8 575.55, 953.36 576.04, 32 570.27 M32 570.27 C12.63 567.6, -0.15 562.08, 0 538.27 M32 570.27 C14.89 573.43, 2.91 558.65, 0 538.27 M0 538.27 C1.67 364.84, 3.08 195.16, 0 32 M0 538.27 C-0.78 357.54, -0.81 176.88, 0 32 M0 32 C1.38 9.02, 6.72 -3.45, 32 0 M0 32 C4.38 9.06, 10.03 -0.06, 32 0" stroke="#dfce87" stroke-width="2" fill="none"></path></g></svg>