<svg version="1.1" xmlns="http://www.w3.org/2000/svg" viewBox="0 0 2334.0903389786426 476.9426564532416" width="4668.180677957285" height="953.8853129064833">
  <!-- svg-source:excalidraw -->
  
  <defs>
    <style class="style-fonts">
      @font-face {
        font-family: "Virgil";
        src: url("https://excalidraw.com/Virgil.woff2");
      }
      @font-face {
        font-family: "Cascadia";
        src: url("https://excalidraw.com/Cascadia.woff2");
      }
      @font-face {
        font-family: "Assistant";
        src: url("https://excalidraw.com/Assistant-Regular.woff2");
      }
    </style>
    
  </defs>
  <g stroke-opacity="0.8" fill-opacity="0.8" stroke-linecap="round" transform="translate(10 10) rotate(0 1153.549127141321 155.74394202671567)"><path d="M0 0 C0 0, 0 0, 0 0 M0 0 C0 0, 0 0, 0 0 M0.13 12.04 C2.35 10.74, 5.66 5.08, 10.63 -0.03 M0.13 12.04 C2.33 8.43, 6.23 5.82, 10.63 -0.03 M0.27 24.08 C6.74 17.42, 14.94 9.39, 21.26 -0.07 M0.27 24.08 C4.78 19.54, 9.42 13.83, 21.26 -0.07 M-0.26 36.88 C11.07 25.24, 20.31 12.7, 31.89 -0.1 M-0.26 36.88 C11.28 22.54, 22.39 10.92, 31.89 -0.1 M-0.12 48.92 C11.48 38.12, 19.42 23.73, 42.52 -0.14 M-0.12 48.92 C13.72 31.35, 29.77 15.48, 42.52 -0.14 M0.01 60.96 C10.7 48.12, 25 31.69, 53.15 -0.17 M0.01 60.96 C19.84 37.48, 39.2 16.58, 53.15 -0.17 M0.14 73 C18.86 49.92, 41.46 26.5, 63.78 -0.21 M0.14 73 C16.5 54.19, 31.99 36.04, 63.78 -0.21 M0.28 85.04 C21.06 60.33, 39.11 38.22, 74.41 -0.24 M0.28 85.04 C16.69 64.51, 32.42 46.18, 74.41 -0.24 M-0.25 97.84 C18.6 76.75, 37.41 55.14, 85.04 -0.28 M-0.25 97.84 C29.54 62.39, 59.96 28.6, 85.04 -0.28 M-0.11 109.88 C35.94 68.78, 72.24 28.81, 95.67 -0.31 M-0.11 109.88 C20.52 87.97, 39.58 65.92, 95.67 -0.31 M0.02 121.92 C26.63 93.16, 52.03 61.96, 106.3 -0.34 M0.02 121.92 C25.61 91.26, 53.87 60.63, 106.3 -0.34 M0.15 133.96 C40.62 86.78, 83.67 39.05, 116.27 0.38 M0.15 133.96 C37.17 89.42, 76.93 44.75, 116.27 0.38 M0.29 146 C33.7 109.01, 69.37 66.04, 126.91 0.34 M0.29 146 C29.53 112.94, 57.05 79.84, 126.91 0.34 M-0.24 158.8 C42.26 108.33, 88.55 58.61, 137.54 0.31 M-0.24 158.8 C51.22 100.46, 99.54 44.57, 137.54 0.31 M-0.1 170.84 C29.86 136.62, 59.59 99.61, 148.17 0.27 M-0.1 170.84 C55.97 107.17, 110.63 43.81, 148.17 0.27 M0.03 182.88 C48.66 124.5, 96.47 67.39, 158.8 0.24 M0.03 182.88 C62.8 110.66, 123.04 39.66, 158.8 0.24 M0.16 194.92 C60.35 126.62, 121.32 57, 169.43 0.2 M0.16 194.92 C37.5 151.23, 77.22 106.64, 169.43 0.2 M0.3 206.96 C47.84 151.84, 95.29 98.26, 180.06 0.17 M0.3 206.96 C47.6 153.05, 92.32 99.14, 180.06 0.17 M-0.23 219.75 C44.41 167.67, 90.99 115.94, 190.69 0.13 M-0.23 219.75 C73.34 135.16, 147 49.71, 190.69 0.13 M-0.09 231.8 C46.87 180.37, 93.6 126.55, 201.32 0.1 M-0.09 231.8 C68.71 152.56, 138.93 71.78, 201.32 0.1 M0.04 243.84 C80.22 148.1, 164.65 53.92, 211.95 0.06 M0.04 243.84 C58.85 176.27, 116.43 110.41, 211.95 0.06 M0.17 255.88 C81.12 161.8, 161.81 68.07, 222.58 0.03 M0.17 255.88 C84.17 161.73, 167.71 65.46, 222.58 0.03 M0.3 267.92 C80.45 176.12, 162.66 83.55, 233.21 0 M0.3 267.92 C80.81 174.4, 160.87 81.34, 233.21 0 M-0.22 280.71 C82.57 184.46, 165.49 88.91, 243.84 -0.04 M-0.22 280.71 C50.44 224.79, 100.17 167.45, 243.84 -0.04 M-0.08 292.75 C62.35 219.71, 127.44 145.18, 254.47 -0.07 M-0.08 292.75 C81.16 198.72, 162.16 105.95, 254.47 -0.07 M0.05 304.8 C89.8 205.68, 176.07 104.15, 265.1 -0.11 M0.05 304.8 C64.5 232.81, 127.85 159.74, 265.1 -0.11 M2.81 313.82 C72.46 232.86, 143.47 150.01, 275.73 -0.14 M2.81 313.82 C92.55 207.96, 183.4 103.39, 275.73 -0.14 M13.44 313.78 C75.19 242.71, 134.54 175.18, 286.36 -0.18 M13.44 313.78 C73.7 245.45, 132.75 176.47, 286.36 -0.18 M24.07 313.75 C119.26 205.35, 214.34 96.82, 296.99 -0.21 M24.07 313.75 C127.52 194.67, 232.05 75.37, 296.99 -0.21 M34.7 313.71 C93.16 248.44, 150.11 183.72, 307.62 -0.25 M34.7 313.71 C95.61 242.48, 156.44 171.73, 307.62 -0.25 M45.33 313.68 C121.77 226.55, 198.98 140.05, 318.25 -0.28 M45.33 313.68 C122.57 222.41, 202.69 130.94, 318.25 -0.28 M55.96 313.64 C164.27 186.4, 272.97 62, 328.88 -0.31 M55.96 313.64 C134.45 222.86, 211.91 132.98, 328.88 -0.31 M66.59 313.61 C132.64 237.01, 200.43 158.78, 339.51 -0.35 M66.59 313.61 C155.3 210.49, 244.88 108.19, 339.51 -0.35 M77.22 313.58 C133.37 248.23, 189.64 182.71, 349.48 0.37 M77.22 313.58 C176.5 200.37, 275.36 86.25, 349.48 0.37 M87.85 313.54 C153.8 239.55, 219.9 164.1, 360.11 0.34 M87.85 313.54 C143.23 248.73, 200.18 183.33, 360.11 0.34 M98.48 313.51 C193.67 202.78, 291.53 91.87, 370.74 0.3 M98.48 313.51 C196.45 199.8, 295.37 85.85, 370.74 0.3 M108.45 314.23 C180.06 229.59, 253.57 144.15, 381.37 0.27 M108.45 314.23 C184.45 229.4, 257.99 144.67, 381.37 0.27 M119.08 314.19 C195.64 227.14, 271.96 139.1, 392 0.23 M119.08 314.19 C209.96 210.22, 299.96 106.26, 392 0.23 M129.71 314.16 C221.12 207.97, 313.07 100.34, 402.63 0.2 M129.71 314.16 C216.1 214.85, 303.53 114.68, 402.63 0.2 M140.34 314.12 C227.58 214.23, 314.82 112.89, 413.26 0.16 M140.34 314.12 C209.58 235.65, 277.86 156.57, 413.26 0.16 M150.97 314.09 C228.27 227.31, 303.46 139.63, 423.89 0.13 M150.97 314.09 C253.39 195.12, 356.09 75.47, 423.89 0.13 M161.6 314.05 C250.29 211.24, 340.17 108.01, 434.52 0.1 M161.6 314.05 C228.71 236.45, 296.15 157.86, 434.52 0.1 M172.23 314.02 C256.33 215.54, 343.81 116.96, 445.15 0.06 M172.23 314.02 C258.98 211.83, 346.82 111.5, 445.15 0.06 M182.86 313.99 C257.88 228.63, 329.88 143.06, 455.78 0.03 M182.86 313.99 C292.25 189.45, 400.75 64.93, 455.78 0.03 M193.49 313.95 C274.96 221.69, 353.87 129.99, 466.41 -0.01 M193.49 313.95 C264.88 231.41, 335.98 149.4, 466.41 -0.01 M204.12 313.92 C263.06 246.51, 319.71 181.67, 477.04 -0.04 M204.12 313.92 C285.45 219.62, 367.68 125.47, 477.04 -0.04 M214.75 313.88 C284.68 231.9, 355.43 150.95, 487.67 -0.08 M214.75 313.88 C312.6 204.27, 408.2 94.11, 487.67 -0.08 M225.38 313.85 C318.2 208.74, 409.51 102.82, 498.3 -0.11 M225.38 313.85 C308.68 216.58, 394 118.8, 498.3 -0.11 M236.01 313.81 C312.22 228.03, 387.16 141.63, 508.93 -0.15 M236.01 313.81 C341.36 193.19, 447.2 71.96, 508.93 -0.15 M246.64 313.78 C335.81 210.74, 426.43 107.29, 519.56 -0.18 M246.64 313.78 C331.59 215.14, 416.9 117.4, 519.56 -0.18 M257.27 313.74 C317.07 244.99, 373.87 177.79, 530.19 -0.22 M257.27 313.74 C366.7 189.93, 475.98 65.42, 530.19 -0.22 M267.9 313.71 C374.08 188.26, 483.45 64.41, 540.82 -0.25 M267.9 313.71 C361.63 207.21, 453.52 100.78, 540.82 -0.25 M278.53 313.67 C375.26 203.16, 471.9 93.22, 551.45 -0.28 M278.53 313.67 C349.81 231, 421.31 149.04, 551.45 -0.28 M289.16 313.64 C356.93 237.22, 422.08 160.94, 562.08 -0.32 M289.16 313.64 C386.1 201.32, 484.12 88.55, 562.08 -0.32 M299.79 313.61 C402.82 198, 504.46 78.99, 572.71 -0.35 M299.79 313.61 C382.89 221.25, 465.02 126.85, 572.71 -0.35 M310.42 313.57 C387.08 226.4, 463.65 137.23, 582.69 0.37 M310.42 313.57 C388.58 223.97, 466.13 135.54, 582.69 0.37 M321.05 313.54 C424.63 193.07, 529.19 75.72, 593.32 0.33 M321.05 313.54 C392.05 231.47, 462.99 149.48, 593.32 0.33 M331.68 313.5 C396.83 237.28, 463.59 159.27, 603.95 0.3 M331.68 313.5 C431.99 199.36, 532.51 84.07, 603.95 0.3 M341.66 314.22 C417.24 228.15, 492.44 140.6, 614.58 0.26 M341.66 314.22 C437.78 205.36, 532.37 95.4, 614.58 0.26 M352.29 314.19 C454.13 198.24, 556.94 83.78, 625.21 0.23 M352.29 314.19 C460.36 189.79, 570.15 63.78, 625.21 0.23 M362.92 314.15 C465.56 194.93, 571.08 74.31, 635.84 0.19 M362.92 314.15 C471.44 189.27, 579.34 65.7, 635.84 0.19 M373.55 314.12 C429.6 251.98, 482.96 189.2, 646.47 0.16 M373.55 314.12 C457.7 216.09, 544.19 116.85, 646.47 0.16 M384.18 314.08 C444.45 246.11, 503.07 178.04, 657.1 0.13 M384.18 314.08 C459.19 225.53, 536.15 136.87, 657.1 0.13 M394.81 314.05 C503.05 189.98, 609.55 67.92, 667.73 0.09 M394.81 314.05 C500.33 192.64, 605.23 70.58, 667.73 0.09 M405.44 314.02 C494.09 212.57, 583.13 113.46, 678.36 0.06 M405.44 314.02 C492.88 212.49, 582.41 110.33, 678.36 0.06 M416.07 313.98 C502.13 216.65, 585.98 118.82, 688.99 0.02 M416.07 313.98 C477.66 242.37, 540.57 169.77, 688.99 0.02 M426.7 313.95 C490.04 239.78, 554.82 164.62, 699.62 -0.01 M426.7 313.95 C504.23 224.45, 583.35 133.07, 699.62 -0.01 M437.33 313.91 C497.97 244.68, 560.79 173.24, 710.25 -0.05 M437.33 313.91 C545.11 189.01, 653.22 64.17, 710.25 -0.05 M447.96 313.88 C534.84 214.87, 621.42 114.97, 720.88 -0.08 M447.96 313.88 C547.98 199.21, 649.07 82.18, 720.88 -0.08 M458.59 313.84 C547.95 210.38, 636.46 107.03, 731.51 -0.12 M458.59 313.84 C563.94 194.18, 668.81 72.36, 731.51 -0.12 M469.22 313.81 C557.72 210.83, 646.32 107.4, 742.14 -0.15 M469.22 313.81 C528.94 248.37, 586.53 182.48, 742.14 -0.15 M479.85 313.77 C563.14 219.83, 644.96 123.11, 752.77 -0.19 M479.85 313.77 C544.53 241.58, 608.07 168, 752.77 -0.19 M490.48 313.74 C553.25 239.51, 618.67 165.47, 763.4 -0.22 M490.48 313.74 C571.6 221, 651.29 128.59, 763.4 -0.22 M501.11 313.71 C598.77 201.23, 696.04 89.81, 774.03 -0.25 M501.11 313.71 C586.14 216.17, 671.9 117.42, 774.03 -0.25 M511.74 313.67 C572.47 240.98, 635.75 172, 784.66 -0.29 M511.74 313.67 C603.8 208, 695.52 102.42, 784.66 -0.29 M522.37 313.64 C631.88 188.97, 740.9 63.2, 795.29 -0.32 M522.37 313.64 C616.4 206.07, 711.28 97.7, 795.29 -0.32 M533 313.6 C611.19 222.51, 690.91 131.44, 805.92 -0.36 M533 313.6 C618.43 217.61, 701.56 121.67, 805.92 -0.36 M543.63 313.57 C610.81 233.2, 680.36 155.61, 815.89 0.36 M543.63 313.57 C650.48 191.82, 756.87 70.05, 815.89 0.36 M554.26 313.53 C615.72 238.86, 679.02 167.65, 826.52 0.33 M554.26 313.53 C611.86 248.89, 667.87 185.01, 826.52 0.33 M564.23 314.25 C631.79 237.75, 699.55 160.51, 837.15 0.29 M564.23 314.25 C630.25 239.97, 695.71 165.73, 837.15 0.29 M574.86 314.22 C645.51 234.67, 715.01 155.41, 847.78 0.26 M574.86 314.22 C649.88 226.12, 725.73 139.61, 847.78 0.26 M585.49 314.18 C646.62 245.69, 707.52 177.64, 858.41 0.22 M585.49 314.18 C650.52 239.2, 715.46 164.23, 858.41 0.22 M596.12 314.15 C701.53 195.58, 805.68 76.81, 869.04 0.19 M596.12 314.15 C653.97 250.49, 710.36 186.64, 869.04 0.19 M606.75 314.11 C695.65 215.1, 783.77 114.16, 879.67 0.16 M606.75 314.11 C679.06 231.18, 750.73 148.06, 879.67 0.16 M617.38 314.08 C683.78 240.15, 749.74 165.55, 890.3 0.12 M617.38 314.08 C703.71 215.22, 789.87 115.92, 890.3 0.12 M628.01 314.05 C687.91 247.6, 745.61 180.39, 900.93 0.09 M628.01 314.05 C719.55 209.34, 811.81 103.93, 900.93 0.09 M638.64 314.01 C711.72 228.56, 785.04 146.26, 911.56 0.05 M638.64 314.01 C741.64 194.42, 844.16 75.58, 911.56 0.05 M649.27 313.98 C720.07 234.14, 790.52 152.18, 922.19 0.02 M649.27 313.98 C707.54 244.72, 768.42 175.89, 922.19 0.02 M659.9 313.94 C744.13 215.93, 830.79 118.55, 932.82 -0.02 M659.9 313.94 C766.38 188.57, 874.33 65.08, 932.82 -0.02 M670.53 313.91 C762.51 210.52, 854.72 105.35, 943.45 -0.05 M670.53 313.91 C730.02 245.45, 788.77 178.1, 943.45 -0.05 M681.16 313.87 C744.72 239.77, 808.27 166.85, 954.08 -0.09 M681.16 313.87 C741.17 247.67, 798.84 180.78, 954.08 -0.09 M691.79 313.84 C754 242.05, 817 170.44, 964.71 -0.12 M691.79 313.84 C791.23 199.4, 890.19 85.32, 964.71 -0.12 M702.42 313.8 C782.66 220.7, 863.55 129.12, 975.34 -0.15 M702.42 313.8 C791.28 211.51, 877.87 111.43, 975.34 -0.15 M713.05 313.77 C779.93 238.09, 845.03 163.21, 985.97 -0.19 M713.05 313.77 C779.48 236.63, 847.1 158.23, 985.97 -0.19 M723.68 313.74 C824.11 198.31, 925.5 81.68, 996.6 -0.22 M723.68 313.74 C790.61 236.09, 857.86 158.38, 996.6 -0.22 M734.31 313.7 C836.12 195.98, 938.67 79.7, 1007.23 -0.26 M734.31 313.7 C842.59 191.01, 949.64 67.56, 1007.23 -0.26 M744.94 313.67 C840.49 202.64, 936.19 93.76, 1017.86 -0.29 M744.94 313.67 C845.19 200.65, 943.03 88.22, 1017.86 -0.29 M755.57 313.63 C847.6 207.52, 937.94 102.76, 1028.49 -0.33 M755.57 313.63 C828.4 230.23, 900.4 147.81, 1028.49 -0.33 M766.2 313.6 C855 212.58, 943.4 112.29, 1039.12 -0.36 M766.2 313.6 C841.95 229.06, 916.08 143.54, 1039.12 -0.36 M776.83 313.56 C873.76 200.76, 972.24 88.57, 1049.1 0.36 M776.83 313.56 C848.41 230.74, 919.53 148.73, 1049.1 0.36 M787.46 313.53 C896.76 189.72, 1002.02 67.52, 1059.73 0.32 M787.46 313.53 C850.75 243.14, 913.61 170.99, 1059.73 0.32 M797.44 314.25 C896.72 199.47, 999.09 82.48, 1070.36 0.29 M797.44 314.25 C888.35 210.41, 980.47 104.38, 1070.36 0.29 M808.07 314.21 C883.61 226.54, 959.85 140.93, 1080.99 0.26 M808.07 314.21 C896.21 211.89, 985.64 109.92, 1080.99 0.26 M818.7 314.18 C879.89 245.27, 938.72 176.62, 1091.62 0.22 M818.7 314.18 C919.98 196.79, 1021.7 79.92, 1091.62 0.22 M829.33 314.15 C909.29 220.84, 991.27 128.75, 1102.25 0.19 M829.33 314.15 C908.51 221.32, 988.27 128.97, 1102.25 0.19 M839.96 314.11 C910.06 233.08, 980.12 152.23, 1112.88 0.15 M839.96 314.11 C948.33 189.62, 1056.74 66.19, 1112.88 0.15 M850.59 314.08 C953.42 194.8, 1056.38 76.23, 1123.51 0.12 M850.59 314.08 C933.91 219.34, 1016.14 124.49, 1123.51 0.12 M861.22 314.04 C953.4 210.25, 1045.63 102.66, 1134.14 0.08 M861.22 314.04 C964.18 196.21, 1066.81 78.77, 1134.14 0.08 M871.85 314.01 C946.97 228.47, 1019.74 143.42, 1144.77 0.05 M871.85 314.01 C972.73 200.64, 1071.59 86.05, 1144.77 0.05 M882.48 313.97 C949.11 238.31, 1013.43 164.97, 1155.4 0.01 M882.48 313.97 C941.49 245.29, 1000.72 177.13, 1155.4 0.01 M893.11 313.94 C981.6 215.74, 1067.5 116.15, 1166.03 -0.02 M893.11 313.94 C984.52 209.99, 1075.44 106.02, 1166.03 -0.02 M903.74 313.9 C968.51 237.4, 1033.94 163.05, 1176.66 -0.06 M903.74 313.9 C1004.46 196.04, 1105.55 78.71, 1176.66 -0.06 M914.37 313.87 C991.65 224.83, 1070.58 134.57, 1187.29 -0.09 M914.37 313.87 C997.11 216.89, 1079.7 121.14, 1187.29 -0.09 M925 313.83 C1015.53 208.34, 1105.48 104.57, 1197.92 -0.12 M925 313.83 C989.75 242.27, 1052.28 169.83, 1197.92 -0.12 M935.63 313.8 C1026.82 206.46, 1119.38 100.38, 1208.55 -0.16 M935.63 313.8 C993.25 247.62, 1051.63 180.84, 1208.55 -0.16 M946.26 313.77 C1002.36 247.21, 1060.68 182.62, 1219.18 -0.19 M946.26 313.77 C1032.26 213.94, 1118.74 114.3, 1219.18 -0.19 M956.89 313.73 C1028.25 233.86, 1096.71 152.91, 1229.81 -0.23 M956.89 313.73 C1020.4 240.31, 1083.98 167.12, 1229.81 -0.23 M967.52 313.7 C1043.34 224.65, 1120.4 136.79, 1240.44 -0.26 M967.52 313.7 C1051.97 216.87, 1135.96 119.98, 1240.44 -0.26 M978.15 313.66 C1042.53 240.81, 1103.64 168.85, 1251.07 -0.3 M978.15 313.66 C1083.27 194.15, 1187.07 73.61, 1251.07 -0.3 M988.78 313.63 C1059.88 228.62, 1133.78 143.98, 1261.7 -0.33 M988.78 313.63 C1046.45 245.78, 1105.04 179.38, 1261.7 -0.33 M999.41 313.59 C1065.68 235.54, 1135.4 155.98, 1272.33 -0.37 M999.41 313.59 C1085.38 215.01, 1171.37 117.23, 1272.33 -0.37 M1010.04 313.56 C1117.34 190.64, 1225.11 68.32, 1282.3 0.35 M1010.04 313.56 C1114.37 193.23, 1217.05 73.51, 1282.3 0.35 M1020.67 313.52 C1110.76 210.26, 1201.19 104.44, 1292.93 0.32 M1020.67 313.52 C1111.01 211.39, 1198.97 109.61, 1292.93 0.32 M1030.64 314.24 C1138.47 188.04, 1248.62 62.85, 1303.56 0.29 M1030.64 314.24 C1116.21 218.88, 1199.49 122.91, 1303.56 0.29 M1041.27 314.21 C1118.28 225.71, 1198.4 135.01, 1314.19 0.25 M1041.27 314.21 C1140.33 201.2, 1238.76 88.5, 1314.19 0.25 M1051.9 314.18 C1142.84 211.21, 1232.83 108.04, 1324.82 0.22 M1051.9 314.18 C1112.05 242.82, 1173.03 172.88, 1324.82 0.22 M1062.53 314.14 C1157.06 207.3, 1251.26 98.53, 1335.45 0.18 M1062.53 314.14 C1169 192.81, 1274.59 71.39, 1335.45 0.18 M1073.16 314.11 C1164.33 208.87, 1256.86 106.12, 1346.09 0.15 M1073.16 314.11 C1156.54 218.7, 1239.34 123.58, 1346.09 0.15 M1083.79 314.07 C1173.93 209.53, 1263.86 106.27, 1356.72 0.11 M1083.79 314.07 C1146.32 240.35, 1209.47 167.87, 1356.72 0.11 M1094.42 314.04 C1172 224.35, 1250.02 135.71, 1367.35 0.08 M1094.42 314.04 C1166.31 230.14, 1238.05 146.93, 1367.35 0.08 M1105.05 314 C1186.16 218.33, 1268.69 125.79, 1377.98 0.04 M1105.05 314 C1201.91 202.21, 1297.56 90.36, 1377.98 0.04 M1115.68 313.97 C1208.12 205.07, 1304.7 96.45, 1388.61 0.01 M1115.68 313.97 C1213.89 203, 1310.66 91.12, 1388.61 0.01 M1126.31 313.93 C1207.01 218.95, 1289.26 124.19, 1399.24 -0.03 M1126.31 313.93 C1193.85 233.98, 1263.42 154.55, 1399.24 -0.03 M1136.95 313.9 C1196.4 246.86, 1255.39 178.53, 1409.87 -0.06 M1136.95 313.9 C1241.26 194.62, 1345.41 76.3, 1409.87 -0.06 M1147.58 313.87 C1253.75 189.99, 1363.2 66.6, 1420.5 -0.09 M1147.58 313.87 C1220.06 229.47, 1292.78 145.58, 1420.5 -0.09 M1158.21 313.83 C1234.95 228.39, 1307.84 142.01, 1431.13 -0.13 M1158.21 313.83 C1232.53 231.24, 1305.12 147.91, 1431.13 -0.13 M1168.84 313.8 C1239.71 232.58, 1312.19 151.4, 1441.76 -0.16 M1168.84 313.8 C1273.29 194.59, 1377.28 76.19, 1441.76 -0.16 M1179.47 313.76 C1240.99 242.48, 1301.66 172.49, 1452.39 -0.2 M1179.47 313.76 C1258.64 220.25, 1339.41 127.16, 1452.39 -0.2 M1190.1 313.73 C1292.55 195.95, 1394.2 78.53, 1463.02 -0.23 M1190.1 313.73 C1248.3 248.07, 1306.6 181.02, 1463.02 -0.23 M1200.73 313.69 C1278.36 223.84, 1356.71 134.34, 1473.65 -0.27 M1200.73 313.69 C1276.76 225.18, 1355.02 136.24, 1473.65 -0.27 M1211.36 313.66 C1274.69 244.73, 1337.05 173.27, 1484.28 -0.3 M1211.36 313.66 C1274.51 240.7, 1337.13 168.77, 1484.28 -0.3 M1221.99 313.62 C1323.5 194.38, 1427.19 75.74, 1494.91 -0.34 M1221.99 313.62 C1328.47 191.01, 1434.38 69.11, 1494.91 -0.34 M1232.62 313.59 C1319.65 214.13, 1407.51 113.52, 1505.54 -0.37 M1232.62 313.59 C1323.38 208.06, 1415.25 103.69, 1505.54 -0.37 M1243.25 313.55 C1329.95 211.62, 1418.4 112.45, 1515.51 0.35 M1243.25 313.55 C1328.07 215.1, 1413.05 117.12, 1515.51 0.35 M1253.88 313.52 C1355.31 199.54, 1456.13 82.56, 1526.14 0.32 M1253.88 313.52 C1326.55 228.2, 1400 143.31, 1526.14 0.32 M1263.85 314.24 C1336.69 231.7, 1409.59 148.81, 1536.77 0.28 M1263.85 314.24 C1343.51 223.98, 1422.68 132.78, 1536.77 0.28 M1274.48 314.21 C1351.78 224.38, 1430.55 134.64, 1547.4 0.25 M1274.48 314.21 C1334.2 245.62, 1393.76 176.19, 1547.4 0.25 M1285.11 314.17 C1353.98 233.51, 1422.04 155.94, 1558.03 0.21 M1285.11 314.17 C1367.65 217.93, 1450.44 122.56, 1558.03 0.21 M1295.74 314.14 C1350.61 249.39, 1406.64 185.34, 1568.66 0.18 M1295.74 314.14 C1352.07 249.01, 1409.33 182.59, 1568.66 0.18 M1306.37 314.1 C1376.27 236.39, 1442.74 160.95, 1579.29 0.14 M1306.37 314.1 C1380.96 229.16, 1456.34 143.04, 1579.29 0.14 M1317 314.07 C1388.37 231.96, 1457.71 152.58, 1589.92 0.11 M1317 314.07 C1400.77 216.05, 1484.57 118.73, 1589.92 0.11 M1327.63 314.03 C1412.18 217.04, 1497.1 119.61, 1600.55 0.07 M1327.63 314.03 C1397.41 232.48, 1468.24 151.14, 1600.55 0.07 M1338.26 314 C1444.96 190.33, 1551.37 67.66, 1611.18 0.04 M1338.26 314 C1398.03 246.36, 1457.85 178.49, 1611.18 0.04 M1348.89 313.96 C1410.98 243.03, 1472.92 170.95, 1621.81 0.01 M1348.89 313.96 C1422.17 230.37, 1493.89 147.37, 1621.81 0.01 M1359.52 313.93 C1460.79 195.93, 1562.68 78.21, 1632.44 -0.03 M1359.52 313.93 C1438.11 223.98, 1517.22 134.19, 1632.44 -0.03 M1370.15 313.9 C1447.27 225.26, 1523.46 138.41, 1643.07 -0.06 M1370.15 313.9 C1434.44 240.84, 1498.29 168.07, 1643.07 -0.06 M1380.78 313.86 C1479.3 201.18, 1578.16 87.53, 1653.7 -0.1 M1380.78 313.86 C1463 217.45, 1547.5 120.97, 1653.7 -0.1 M1391.41 313.83 C1461.67 230.46, 1532.97 149.94, 1664.33 -0.13 M1391.41 313.83 C1457.83 238.25, 1523.3 161.17, 1664.33 -0.13 M1402.04 313.79 C1491.17 208.79, 1580.65 105.81, 1674.96 -0.17 M1402.04 313.79 C1485.3 219.77, 1567.01 125.57, 1674.96 -0.17 M1412.67 313.76 C1489 226.34, 1565.45 138.41, 1685.59 -0.2 M1412.67 313.76 C1501.47 213.26, 1589.29 112.32, 1685.59 -0.2 M1423.3 313.72 C1495.71 230.94, 1567.43 146.56, 1696.22 -0.24 M1423.3 313.72 C1517.99 207.45, 1611.55 100.64, 1696.22 -0.24 M1433.93 313.69 C1529.98 202.84, 1625 92.76, 1706.85 -0.27 M1433.93 313.69 C1497.3 241.39, 1561.62 168.55, 1706.85 -0.27 M1444.56 313.65 C1544.03 198.63, 1645.79 83.91, 1717.48 -0.31 M1444.56 313.65 C1537.65 207.06, 1628.88 101.64, 1717.48 -0.31 M1455.19 313.62 C1565.17 188.23, 1674.03 63.34, 1728.11 -0.34 M1455.19 313.62 C1534.24 223.48, 1610.73 134.11, 1728.11 -0.34 M1465.82 313.59 C1528.44 237.78, 1593.3 164.79, 1738.74 -0.37 M1465.82 313.59 C1529.11 239.42, 1593.13 164.95, 1738.74 -0.37 M1476.45 313.55 C1544.23 233.8, 1613.77 155.38, 1748.72 0.35 M1476.45 313.55 C1562.75 214.61, 1648.93 115.73, 1748.72 0.35 M1487.08 313.52 C1562.47 225.59, 1639.17 138.9, 1759.35 0.31 M1487.08 313.52 C1551.05 242.21, 1614 170.08, 1759.35 0.31 M1497.06 314.24 C1569.03 231.34, 1640.59 150.68, 1769.98 0.28 M1497.06 314.24 C1582.19 214.97, 1668.56 115.32, 1769.98 0.28 M1507.69 314.2 C1597.8 213.45, 1687.12 109.33, 1780.61 0.24 M1507.69 314.2 C1603.27 203.23, 1699.99 92.22, 1780.61 0.24 M1518.32 314.17 C1592.7 228, 1668.27 142.68, 1791.24 0.21 M1518.32 314.17 C1576.02 247.55, 1634.56 180.28, 1791.24 0.21 M1528.95 314.13 C1585.15 248.89, 1642.38 183.35, 1801.87 0.17 M1528.95 314.13 C1603.65 228.09, 1679.23 142.03, 1801.87 0.17 M1539.58 314.1 C1608.82 238.53, 1676.21 160.55, 1812.5 0.14 M1539.58 314.1 C1616.37 227.67, 1690.54 142.01, 1812.5 0.14 M1550.21 314.06 C1651 201.17, 1749.77 85.92, 1823.13 0.1 M1550.21 314.06 C1635.02 214.8, 1720.76 116.94, 1823.13 0.1 M1560.84 314.03 C1631.37 232.04, 1703.55 150.43, 1833.76 0.07 M1560.84 314.03 C1643.21 218.58, 1726.15 122.6, 1833.76 0.07 M1571.47 313.99 C1636.44 238.31, 1701.42 163.86, 1844.39 0.04 M1571.47 313.99 C1629.59 248.49, 1687.49 182.18, 1844.39 0.04 M1582.1 313.96 C1659.04 223.25, 1737.57 133.59, 1855.02 0 M1582.1 313.96 C1653.29 232.54, 1723.5 151.75, 1855.02 0 M1592.73 313.93 C1678.57 216.39, 1762.04 121.12, 1865.65 -0.03 M1592.73 313.93 C1693.73 197.38, 1795.13 80.07, 1865.65 -0.03 M1603.36 313.89 C1663.54 244.76, 1723.56 174.43, 1876.28 -0.07 M1603.36 313.89 C1662.99 244.54, 1723.25 176.07, 1876.28 -0.07 M1613.99 313.86 C1675.54 245.69, 1736.17 173.77, 1886.91 -0.1 M1613.99 313.86 C1675.97 241.9, 1738.07 171.19, 1886.91 -0.1 M1624.62 313.82 C1696.31 232.34, 1765.54 150.91, 1897.54 -0.14 M1624.62 313.82 C1683.15 245.38, 1742.7 177.22, 1897.54 -0.14 M1635.25 313.79 C1711.09 227.54, 1785.7 140.86, 1908.17 -0.17 M1635.25 313.79 C1703.42 235.78, 1771.69 157.88, 1908.17 -0.17 M1645.88 313.75 C1731.5 216.96, 1816.34 119.89, 1918.8 -0.21 M1645.88 313.75 C1708.93 242.83, 1772.11 170.8, 1918.8 -0.21 M1656.51 313.72 C1752.73 204.81, 1846.4 93.78, 1929.43 -0.24 M1656.51 313.72 C1756.8 201.71, 1855.01 88.65, 1929.43 -0.24 M1667.14 313.68 C1774.89 189.03, 1882.74 66.57, 1940.06 -0.27 M1667.14 313.68 C1764.03 199.27, 1862.75 85.61, 1940.06 -0.27 M1677.77 313.65 C1771.95 207.32, 1863.86 101.89, 1950.69 -0.31 M1677.77 313.65 C1762.53 215.37, 1847.63 117.76, 1950.69 -0.31 M1688.4 313.62 C1751.91 239.32, 1815.04 166.68, 1961.32 -0.34 M1688.4 313.62 C1761.95 230.62, 1834.07 146.57, 1961.32 -0.34 M1699.03 313.58 C1797.38 203.55, 1892.29 93.79, 1971.29 0.38 M1699.03 313.58 C1780.93 218.38, 1863.62 123.48, 1971.29 0.38 M1709.66 313.55 C1781.02 229.06, 1855.44 144.96, 1981.92 0.34 M1709.66 313.55 C1802.88 209.39, 1893.57 104.53, 1981.92 0.34 M1720.29 313.51 C1803.48 216, 1887.98 118.59, 1992.55 0.31 M1720.29 313.51 C1819.76 197.74, 1919.99 82.71, 1992.55 0.31 M1730.26 314.23 C1796.47 238.88, 1862.22 162.66, 2003.18 0.27 M1730.26 314.23 C1814.4 218.24, 1897.66 122.74, 2003.18 0.27 M1740.89 314.2 C1833.14 210.16, 1922.54 106.62, 2013.81 0.24 M1740.89 314.2 C1848.57 189.94, 1955.53 67.22, 2013.81 0.24 M1751.52 314.16 C1808.8 247.74, 1867.43 180.22, 2024.44 0.2 M1751.52 314.16 C1818.08 237.13, 1884.54 160.09, 2024.44 0.2 M1762.15 314.13 C1860.33 200.47, 1958.17 87.59, 2035.07 0.17 M1762.15 314.13 C1840.63 225, 1918.38 135.17, 2035.07 0.17 M1772.78 314.09 C1866.9 205.13, 1960.11 96.67, 2045.7 0.13 M1772.78 314.09 C1873.42 198.95, 1975.58 82.71, 2045.7 0.13 M1783.41 314.06 C1871.5 211.87, 1960.84 107.85, 2056.33 0.1 M1783.41 314.06 C1842.13 245.11, 1900.85 176.71, 2056.33 0.1 M1794.04 314.03 C1878.16 217.23, 1961.27 120.91, 2066.96 0.07 M1794.04 314.03 C1858.46 237.67, 1923.46 162.36, 2066.96 0.07 M1804.67 313.99 C1914.58 188.95, 2022.5 62.47, 2077.59 0.03 M1804.67 313.99 C1907.81 195.07, 2011.97 75.89, 2077.59 0.03 M1815.3 313.96 C1894.41 222.48, 1974.34 130.92, 2088.22 0 M1815.3 313.96 C1910.76 206.55, 2005.24 98.57, 2088.22 0 M1825.93 313.92 C1916.65 210.03, 2006.55 106.14, 2098.85 -0.04 M1825.93 313.92 C1886.65 243.36, 1946.15 174, 2098.85 -0.04 M1836.56 313.89 C1940.2 191.98, 2045.3 73.38, 2109.48 -0.07 M1836.56 313.89 C1925.85 212.21, 2013.26 111.33, 2109.48 -0.07 M1847.19 313.85 C1930.28 219.63, 2012.52 125.84, 2120.11 -0.11 M1847.19 313.85 C1905.46 245.74, 1964.49 177.73, 2120.11 -0.11 M1857.82 313.82 C1964.05 194.03, 2070.19 71.49, 2130.74 -0.14 M1857.82 313.82 C1954.07 205.35, 2049.28 95.52, 2130.74 -0.14 M1868.45 313.78 C1947.26 224.37, 2023.93 135.85, 2141.37 -0.18 M1868.45 313.78 C1945.59 224.72, 2025.09 133.47, 2141.37 -0.18 M1879.08 313.75 C1937.16 245.54, 1996.51 178.98, 2152 -0.21 M1879.08 313.75 C1971.98 206.2, 2065.6 97.52, 2152 -0.21 M1889.71 313.71 C1964.66 227.76, 2039.65 141.22, 2162.63 -0.24 M1889.71 313.71 C1944.1 249.95, 1998.82 186.4, 2162.63 -0.24 M1900.34 313.68 C1979.8 223.42, 2058.76 133.4, 2173.26 -0.28 M1900.34 313.68 C1999.6 197.95, 2099.07 84.13, 2173.26 -0.28 M1910.97 313.65 C1986.91 228.29, 2063.1 140.07, 2183.89 -0.31 M1910.97 313.65 C2011.31 200.17, 2110.58 85.85, 2183.89 -0.31 M1921.6 313.61 C2012.28 206.53, 2104.08 100.84, 2194.52 -0.35 M1921.6 313.61 C1977.45 247.56, 2034.65 181.44, 2194.52 -0.35 M1932.23 313.58 C2012.1 219.43, 2094.8 126.05, 2204.5 0.37 M1932.23 313.58 C1989.06 246.34, 2046.73 180.74, 2204.5 0.37 M1942.86 313.54 C2052.21 187.39, 2162.16 63.11, 2215.13 0.34 M1942.86 313.54 C2001.98 246.1, 2061.15 178.15, 2215.13 0.34 M1953.49 313.51 C2051.81 200.56, 2148.61 89.72, 2225.76 0.3 M1953.49 313.51 C2016.53 241.42, 2080.22 168.82, 2225.76 0.3 M1963.47 314.23 C2024.63 243.06, 2086.47 171.21, 2236.39 0.27 M1963.47 314.23 C2035.43 231.27, 2107.82 148.32, 2236.39 0.27 M1974.1 314.19 C2049.46 227.5, 2125.55 141.46, 2247.02 0.23 M1974.1 314.19 C2070.83 203.22, 2166.37 92.34, 2247.02 0.23 M1984.73 314.16 C2057.44 229.27, 2130.72 143.65, 2257.65 0.2 M1984.73 314.16 C2088.06 193.65, 2192.19 74.1, 2257.65 0.2 M1995.36 314.12 C2080.92 219.35, 2164.78 121.7, 2268.28 0.17 M1995.36 314.12 C2087.62 207.68, 2178.97 102.71, 2268.28 0.17 M2005.99 314.09 C2092.1 217.75, 2175.88 120.79, 2278.91 0.13 M2005.99 314.09 C2092.59 214.49, 2180.24 113.93, 2278.91 0.13 M2016.62 314.06 C2096.53 224.44, 2175.15 133.81, 2289.54 0.1 M2016.62 314.06 C2121.76 192.24, 2227.91 69.09, 2289.54 0.1 M2027.25 314.02 C2084.49 248.63, 2141.49 180.62, 2300.17 0.06 M2027.25 314.02 C2133.87 192.28, 2239.06 70.16, 2300.17 0.06 M2037.88 313.99 C2112.07 228.11, 2186.41 141.19, 2309.49 1.54 M2037.88 313.99 C2136.17 201.3, 2235.2 88.15, 2309.49 1.54 M2048.51 313.95 C2142.69 202.69, 2239.21 92.54, 2308.96 14.33 M2048.51 313.95 C2106.33 247.4, 2164.29 181.03, 2308.96 14.33 M2059.14 313.92 C2142.14 216.43, 2226.59 117.59, 2309.1 26.37 M2059.14 313.92 C2143.72 215.64, 2229.86 117.21, 2309.1 26.37 M2069.77 313.88 C2136.14 240.38, 2200.26 164.84, 2309.23 38.41 M2069.77 313.88 C2120.28 255.43, 2170.9 197.88, 2309.23 38.41 M2080.4 313.85 C2162.07 221.19, 2242.69 128.52, 2309.36 50.45 M2080.4 313.85 C2137.41 246.1, 2196.36 179.84, 2309.36 50.45 M2091.03 313.81 C2162.84 229.45, 2233.87 145.83, 2309.5 62.5 M2091.03 313.81 C2150.66 243.85, 2211.42 176.06, 2309.5 62.5 M2101.66 313.78 C2144.15 265.7, 2185.72 217.65, 2308.97 75.29 M2101.66 313.78 C2158.28 250.07, 2214.09 186.17, 2308.97 75.29 M2112.29 313.74 C2164.16 254.57, 2214.8 195.53, 2309.11 87.33 M2112.29 313.74 C2165.78 248.92, 2220.85 186.6, 2309.11 87.33 M2122.92 313.71 C2191.53 234.88, 2263.13 150.76, 2309.24 99.37 M2122.92 313.71 C2197 229.92, 2270.84 144.09, 2309.24 99.37 M2133.55 313.68 C2181.31 255.72, 2230.2 199.02, 2309.37 111.41 M2133.55 313.68 C2173.48 268.09, 2214.02 222.81, 2309.37 111.41 M2144.18 313.64 C2210.29 237.44, 2274.81 162.42, 2309.51 123.45 M2144.18 313.64 C2193.35 257.8, 2240.95 203.67, 2309.51 123.45 M2154.81 313.61 C2205.96 254.6, 2253.97 199.4, 2308.98 136.25 M2154.81 313.61 C2196.4 267.06, 2237.55 218.84, 2308.98 136.25 M2165.44 313.57 C2214.51 257.95, 2266.08 200.4, 2309.12 148.29 M2165.44 313.57 C2197.41 276.39, 2231.61 238.39, 2309.12 148.29 M2176.07 313.54 C2206.12 275.79, 2239.39 237.09, 2309.25 160.33 M2176.07 313.54 C2212.88 270.64, 2251.54 226.88, 2309.25 160.33 M2186.7 313.5 C2232.34 262.24, 2276.88 210.02, 2309.38 172.37 M2186.7 313.5 C2230.29 262.41, 2274.59 209.38, 2309.38 172.37 M2196.67 314.22 C2239.46 265.97, 2284.46 216.27, 2309.52 184.41 M2196.67 314.22 C2230.67 275.41, 2264.54 236.28, 2309.52 184.41 M2207.3 314.19 C2228.47 290.46, 2249.2 267.55, 2308.99 197.21 M2207.3 314.19 C2232.68 283.87, 2257.25 255.23, 2308.99 197.21 M2217.93 314.15 C2252.91 270.46, 2290.58 228.39, 2309.13 209.25 M2217.93 314.15 C2245.08 281.63, 2272.58 252.06, 2309.13 209.25 M2228.56 314.12 C2259.22 278.55, 2287.66 245.9, 2309.26 221.29 M2228.56 314.12 C2254.24 284.39, 2279.23 255.65, 2309.26 221.29 M2239.19 314.09 C2257.52 292.86, 2277.89 272.49, 2309.39 233.33 M2239.19 314.09 C2265.26 285.41, 2290.76 256.22, 2309.39 233.33 M2249.82 314.05 C2264.13 297.35, 2277.35 280.9, 2309.53 245.37 M2249.82 314.05 C2273.53 287.56, 2295.97 259.56, 2309.53 245.37 M2260.45 314.02 C2272.3 297.35, 2288.85 283.38, 2309 258.17 M2260.45 314.02 C2277.97 293.84, 2295.76 273.07, 2309 258.17 M2271.08 313.98 C2284.46 300.64, 2296.25 285.03, 2309.14 270.21 M2271.08 313.98 C2286.82 297.58, 2301.23 279.78, 2309.14 270.21 M2281.71 313.95 C2291.29 303.09, 2303.93 288.58, 2309.27 282.25 M2281.71 313.95 C2288.49 305.45, 2297.49 295.06, 2309.27 282.25 M2292.34 313.91 C2296.15 309.59, 2303.1 301.57, 2309.4 294.29 M2292.34 313.91 C2295.51 308.94, 2301.38 304.4, 2309.4 294.29 M2302.97 313.88 C2305.65 311.39, 2308.59 309.08, 2309.54 306.33 M2302.97 313.88 C2305.01 311.7, 2305.7 310.62, 2309.54 306.33" stroke="#ffec99" stroke-width="1" fill="none"></path><path d="M0 0 C668.44 -5.9, 1338.07 -5.95, 2307.1 0 M0 0 C741.52 -5.77, 1483.61 -5.61, 2307.1 0 M2307.1 0 C2305.43 66.49, 2306.28 130.82, 2307.1 311.49 M2307.1 0 C2308.3 99.59, 2308.23 198.24, 2307.1 311.49 M2307.1 311.49 C1602.32 317.75, 897.12 318.23, 0 311.49 M2307.1 311.49 C1616.45 313.29, 925.07 312.56, 0 311.49 M0 311.49 C-2.07 207.25, -1.06 102.42, 0 0 M0 311.49 C0.07 208.04, -0.09 103.88, 0 0" stroke="#f08c00" stroke-width="2" fill="none"></path></g><g stroke-linecap="round" transform="translate(97.49479675292969 58.33333333333326) rotate(0 98 21.83333396911621)"><path d="M0 0 C72.5 -0.13, 144.43 -1.19, 196 0 M0 0 C70.49 1.33, 139.53 1.55, 196 0 M196 0 C195.69 11.21, 196.1 22.87, 196 43.67 M196 0 C194.78 13.14, 195.71 27.05, 196 43.67 M196 43.67 C122.05 44.93, 51.83 43.16, 0 43.67 M196 43.67 C133.34 44.42, 72.6 46.3, 0 43.67 M0 43.67 C1.38 32.27, 0.68 17.79, 0 0 M0 43.67 C-0.33 27.03, 0.99 10.35, 0 0" stroke="#f08c00" stroke-width="2" fill="none"></path></g><g stroke-linecap="round" transform="translate(43.33333333333337 246.85433794134582) rotate(0 150.4947967529297 21.83333396911621)"><path d="M0 0 C102.61 -1.02, 205.44 -1.57, 300.99 0 M0 0 C60.39 1.01, 121.7 0.82, 300.99 0 M300.99 0 C301.35 18.61, 301.04 32.48, 300.99 43.67 M300.99 0 C300.66 16.36, 301.29 31.36, 300.99 43.67 M300.99 43.67 C210.19 44.62, 119.64 45.78, 0 43.67 M300.99 43.67 C184.64 42.22, 67.7 41.53, 0 43.67 M0 43.67 C0.37 27.9, 1.39 12.14, 0 0 M0 43.67 C1.09 28.3, -0.58 11.88, 0 0" stroke="#f08c00" stroke-width="2" fill="none"></path></g><g stroke-linecap="round" transform="translate(327.964464803327 59.67770600381647) rotate(0 155.4947967529297 21.83333396911621)"><path d="M0 0 C104.26 -0.37, 205.47 0.85, 310.99 0 M0 0 C74.97 0.35, 151.39 0.77, 310.99 0 M310.99 0 C311.13 12.76, 312.3 26.92, 310.99 43.67 M310.99 0 C311.69 12.49, 311.03 24.45, 310.99 43.67 M310.99 43.67 C198.81 43.8, 87.42 41.96, 0 43.67 M310.99 43.67 C247.61 45.68, 184.71 46.19, 0 43.67 M0 43.67 C1.54 27.05, 1.01 10.3, 0 0 M0 43.67 C-1.15 29.36, -1.36 16.15, 0 0" stroke="#f08c00" stroke-width="2" fill="none"></path></g><g stroke-linecap="round" transform="translate(416.36550901312523 248.19871061182903) rotate(0 65.42708587646484 21.83333396911621)"><path d="M0 0 C34.62 1.31, 71.98 -1.05, 130.85 0 M0 0 C35.51 0.78, 69.5 0.98, 130.85 0 M130.85 0 C132.1 14.8, 130.68 33.21, 130.85 43.67 M130.85 0 C131.17 14.69, 131.76 31.24, 130.85 43.67 M130.85 43.67 C96.89 42.79, 57.5 45.09, 0 43.67 M130.85 43.67 C80.2 44.32, 29.13 43.97, 0 43.67 M0 43.67 C0.79 30.15, -0.06 20.05, 0 0 M0 43.67 C-0.63 29.46, 1.2 14.93, 0 0" stroke="#f08c00" stroke-width="2" fill="none"></path></g><g stroke-linecap="round" transform="translate(1006.3781952297511 59.67770600381641) rotate(0 132.78755852747418 22.605950312342458)"><path d="M0 0 C63.32 -2.01, 127.89 -1.47, 265.58 0 M0 0 C63.63 0.19, 127.43 0.07, 265.58 0 M265.58 0 C265.67 10.13, 267.01 21.39, 265.58 45.21 M265.58 0 C266.2 12.65, 265.31 25.47, 265.58 45.21 M265.58 45.21 C170.63 44.17, 80.18 43.5, 0 45.21 M265.58 45.21 C187.17 46.91, 107.55 47.32, 0 45.21 M0 45.21 C0.04 34.23, 0.25 18.08, 0 0 M0 45.21 C1.31 33.8, 1.11 22.59, 0 0" stroke="#f08c00" stroke-width="2" fill="none"></path></g><g stroke-linecap="round" transform="translate(1022.9133499841979 248.19871061182897) rotate(0 120.63541412353516 17.5)"><path d="M0 0 C78.44 0.88, 157.04 3.31, 241.27 0 M0 0 C72.48 -0.34, 143 0.14, 241.27 0 M241.27 0 C242.39 8.8, 240.84 14.92, 241.27 35 M241.27 0 C241.22 7.38, 242 15.32, 241.27 35 M241.27 35 C189.1 35.65, 133.85 36.7, 0 35 M241.27 35 C152.32 36.37, 63.37 36.15, 0 35 M0 35 C0.46 24.39, -1.14 14.86, 0 0 M0 35 C0.37 24.04, 0.59 13.8, 0 0" stroke="#f08c00" stroke-width="2" fill="none"></path></g><g stroke-linecap="round" transform="translate(1326.1590014633418 63.71082401526604) rotate(0 117.60416412353516 17.5)"><path d="M0 0 C48.21 2.63, 98.44 1.59, 235.21 0 M0 0 C74.21 0.46, 149.01 -0.14, 235.21 0 M235.21 0 C235.01 10.72, 233.54 22.61, 235.21 35 M235.21 0 C235.63 11.36, 234.34 20, 235.21 35 M235.21 35 C155.83 35.85, 77.7 36.12, 0 35 M235.21 35 C156.65 37.16, 78.03 36.8, 0 35 M0 35 C-1.17 19.37, -0.05 9.33, 0 0 M0 35 C0.66 25.46, -0.54 15.91, 0 0" stroke="#f08c00" stroke-width="2" fill="none"></path></g><g stroke-linecap="round" transform="translate(1340.4744486273416 246.85433794134588) rotate(0 104.98298959847097 20.589391306617642)"><path d="M0 0 C51.14 -1.17, 102.69 -0.27, 209.97 0 M0 0 C62.87 -1.22, 127.33 -0.63, 209.97 0 M209.97 0 C208.01 16.37, 209.87 29.75, 209.97 41.18 M209.97 0 C209.4 12.04, 210.55 26.92, 209.97 41.18 M209.97 41.18 C149.37 43.53, 86.94 42.09, 0 41.18 M209.97 41.18 C128.9 42.38, 49.34 42.48, 0 41.18 M0 41.18 C0.26 33.66, -0.37 24, 0 0 M0 41.18 C-0.68 30.3, -0.23 18.99, 0 0" stroke="#f08c00" stroke-width="2" fill="none"></path></g><g stroke-linecap="round" transform="translate(1683.424236744539 61.02207867429962) rotate(0 125.35416412353516 21.83333396911621)"><path d="M0 0 C98.05 0.71, 195.56 -1.85, 250.71 0 M0 0 C90.66 0.66, 181.78 0.03, 250.71 0 M250.71 0 C250.29 12.63, 250.61 27.38, 250.71 43.67 M250.71 0 C250.74 17.83, 250.31 33.81, 250.71 43.67 M250.71 43.67 C161.7 45.02, 72.98 44.89, 0 43.67 M250.71 43.67 C161.77 44.19, 70.72 43.54, 0 43.67 M0 43.67 C-0.6 36.11, -0.8 27.65, 0 0 M0 43.67 C0.27 30.13, -0.48 18.73, 0 0" stroke="#f08c00" stroke-width="2" fill="none"></path></g><g stroke-linecap="round" transform="translate(1614.1638200778725 249.54308328231218) rotate(0 192.9479217529297 30)"><path d="M0 0 C126.68 -2.72, 254.01 -2.83, 385.9 0 M0 0 C112.58 -1.43, 224.38 -1.87, 385.9 0 M385.9 0 C386.21 22.72, 387.64 41.82, 385.9 60 M385.9 0 C386.06 12.19, 386.69 25.13, 385.9 60 M385.9 60 C242.97 59.61, 98.74 59.33, 0 60 M385.9 60 C263.8 60.26, 142.03 60.6, 0 60 M0 60 C-0.61 38.56, 0.04 12.94, 0 0 M0 60 C-0.7 43.58, -0.23 26.75, 0 0" stroke="#f08c00" stroke-width="2" fill="none"></path></g><g stroke-linecap="round" transform="translate(2019.8385848999023 58.33333333333326) rotate(0 131.8020782470703 21.83333396911621)"><path d="M0 0 C100.88 0.25, 199.67 1.73, 263.6 0 M0 0 C94.32 -0.32, 189.1 0.42, 263.6 0 M263.6 0 C265.42 10.37, 261.75 24.58, 263.6 43.67 M263.6 0 C264.15 17.78, 264.31 34.52, 263.6 43.67 M263.6 43.67 C187.72 42.69, 110.24 44.77, 0 43.67 M263.6 43.67 C176.99 42.55, 92.6 42.3, 0 43.67 M0 43.67 C0.04 27.02, -0.13 11.88, 0 0 M0 43.67 C0.12 34.7, 0.7 22.96, 0 0" stroke="#f08c00" stroke-width="2" fill="none"></path></g><g stroke-linecap="round" transform="translate(2040.6250406901045 246.85433794134582) rotate(0 115.18229675292969 31.666666666666686)"><path d="M0 0 C50.89 1.8, 103.08 2.86, 230.36 0 M0 0 C65 1.83, 128.73 1.97, 230.36 0 M230.36 0 C228.99 23.02, 232.75 44.44, 230.36 63.33 M230.36 0 C231.46 19.17, 230.64 38.51, 230.36 63.33 M230.36 63.33 C165.33 64.11, 100.22 61.28, 0 63.33 M230.36 63.33 C174.47 63.12, 117.67 63.03, 0 63.33 M0 63.33 C-0.26 38.97, -1.42 12.82, 0 0 M0 63.33 C0.53 39.15, -0.24 16.99, 0 0" stroke="#f08c00" stroke-width="2" fill="none"></path></g><g stroke-linecap="round" transform="translate(22.515358938457666 415.2097524921103) rotate(0 167.69887934337652 22.505520304357788)"><path d="M0 0 C0 0, 0 0, 0 0 M0 0 C0 0, 0 0, 0 0 M0.13 12.04 C1.47 9.56, 5.82 6.34, 10.63 -0.03 M0.13 12.04 C2.44 9.94, 4.35 6.42, 10.63 -0.03 M0.27 24.08 C7.29 19.16, 12.65 13.04, 21.26 -0.07 M0.27 24.08 C4.58 19.17, 9.46 11.82, 21.26 -0.07 M-0.26 36.88 C13.19 24.64, 23.15 10.5, 31.89 -0.1 M-0.26 36.88 C11.45 24.56, 22.99 10.08, 31.89 -0.1 M3.16 45.14 C15.66 29.73, 27.91 14.4, 42.52 -0.14 M3.16 45.14 C14.94 30.63, 28.06 15.84, 42.52 -0.14 M13.79 45.11 C22.23 37.19, 30.85 25.43, 53.15 -0.17 M13.79 45.11 C23.31 35.59, 32.49 23.11, 53.15 -0.17 M24.42 45.08 C35.71 35.4, 43.83 25.15, 63.78 -0.21 M24.42 45.08 C37.05 31.2, 49.15 16.01, 63.78 -0.21 M35.05 45.04 C49.99 26.78, 64.66 10.62, 74.41 -0.24 M35.05 45.04 C47.82 29.63, 62.22 14.86, 74.41 -0.24 M45.68 45.01 C56.83 30.14, 69.28 18.5, 85.04 -0.28 M45.68 45.01 C58.27 30.91, 68.43 18.12, 85.04 -0.28 M56.31 44.97 C67.57 32.11, 79.77 17.13, 95.67 -0.31 M56.31 44.97 C72.59 27.98, 86.81 10.08, 95.67 -0.31 M66.28 45.69 C80.6 26.77, 95.34 12.05, 106.3 -0.34 M66.28 45.69 C78.86 31.89, 90.99 18.57, 106.3 -0.34 M76.91 45.66 C86.81 33.75, 95.25 22.42, 116.27 0.38 M76.91 45.66 C89.91 29.89, 105.56 12.5, 116.27 0.38 M87.54 45.62 C97.92 35.19, 107.86 23.75, 126.91 0.34 M87.54 45.62 C97.32 33.57, 108.08 21.64, 126.91 0.34 M98.17 45.59 C109.29 35.18, 118.38 21.46, 137.54 0.31 M98.17 45.59 C107.42 35.59, 117.69 23.96, 137.54 0.31 M108.8 45.55 C115.69 35.4, 124.25 26.82, 148.17 0.27 M108.8 45.55 C121.43 31.61, 131.87 19.13, 148.17 0.27 M119.43 45.52 C132.98 30.27, 147.22 13.23, 158.8 0.24 M119.43 45.52 C129.7 34.08, 141.81 21.2, 158.8 0.24 M130.06 45.49 C138.78 34.22, 145.44 25.67, 169.43 0.2 M130.06 45.49 C140.21 32.84, 149.82 21.64, 169.43 0.2 M140.69 45.45 C151.11 33.58, 161.7 25.04, 180.06 0.17 M140.69 45.45 C155.39 28.17, 169.51 12.05, 180.06 0.17 M151.32 45.42 C168.13 27.47, 178.97 10.4, 190.69 0.13 M151.32 45.42 C162.8 32.39, 176.11 17.46, 190.69 0.13 M161.95 45.38 C178.23 26.79, 192.93 8.7, 201.32 0.1 M161.95 45.38 C171.23 32.9, 181.13 22.74, 201.32 0.1 M172.58 45.35 C183.99 31.25, 194.42 19.67, 211.95 0.06 M172.58 45.35 C187.73 28.48, 203.07 10.65, 211.95 0.06 M183.21 45.31 C194.62 34.52, 204.74 21.82, 222.58 0.03 M183.21 45.31 C193.29 32.12, 204.62 20.37, 222.58 0.03 M193.84 45.28 C205.18 33.35, 213.83 21.67, 233.21 0 M193.84 45.28 C207.68 30.38, 221.89 14.08, 233.21 0 M204.47 45.24 C217.71 25.9, 235.89 10.8, 243.84 -0.04 M204.47 45.24 C214.31 33.33, 225.53 21.96, 243.84 -0.04 M215.1 45.21 C230.6 28.85, 241.87 15.05, 254.47 -0.07 M215.1 45.21 C223.57 36.69, 230.51 26.53, 254.47 -0.07 M225.73 45.17 C233.78 36.25, 244.95 23.08, 265.1 -0.11 M225.73 45.17 C235.02 34.1, 245.92 22.73, 265.1 -0.11 M236.36 45.14 C245.45 32.94, 256.11 21.74, 275.73 -0.14 M236.36 45.14 C248.04 30.61, 259 16.98, 275.73 -0.14 M246.99 45.11 C259.16 30.12, 274.3 15.65, 286.36 -0.18 M246.99 45.11 C261.34 29.25, 275.61 12.3, 286.36 -0.18 M257.62 45.07 C266.49 32.69, 275.69 22.45, 296.99 -0.21 M257.62 45.07 C270.48 31.23, 281.22 17.15, 296.99 -0.21 M268.25 45.04 C285.09 28.44, 300.08 7.65, 307.62 -0.25 M268.25 45.04 C279.37 32.49, 291.43 18.49, 307.62 -0.25 M278.88 45 C289.69 32.88, 297.55 22.81, 318.25 -0.28 M278.88 45 C291.08 31.88, 302.24 18.59, 318.25 -0.28 M289.51 44.97 C303.2 29.54, 317.09 12.17, 328.88 -0.31 M289.51 44.97 C298.51 34.25, 307.91 24.82, 328.88 -0.31 M299.49 45.69 C312.39 30.06, 325.4 18.27, 336.23 3.42 M299.49 45.69 C312.85 31.01, 325.52 15.69, 336.23 3.42 M310.12 45.65 C322.37 32.04, 330.49 20.97, 336.36 15.47 M310.12 45.65 C320.34 34.21, 329.44 22.91, 336.36 15.47 M320.75 45.62 C326.45 41.75, 328.6 36.33, 335.84 28.26 M320.75 45.62 C324.4 39.92, 330.05 34.96, 335.84 28.26 M331.38 45.58 C332.45 44.15, 333.76 43.29, 335.97 40.3 M331.38 45.58 C333.11 43.66, 335.27 41.56, 335.97 40.3" stroke="#ffec99" stroke-width="1" fill="none"></path><path d="M0 0 C72.13 0.79, 142.42 -0.1, 335.4 0 M0 0 C69.04 0.12, 138.78 0.6, 335.4 0 M335.4 0 C336.79 9.9, 334.91 21.18, 335.4 45.01 M335.4 0 C335.64 17.43, 335.56 33.74, 335.4 45.01 M335.4 45.01 C248.47 46.07, 160.11 45.78, 0 45.01 M335.4 45.01 C234.6 44.08, 133.49 44.3, 0 45.01 M0 45.01 C-1.39 31.66, 1.43 20.48, 0 0 M0 45.01 C-0.53 27.53, 0.74 8.79, 0 0" stroke="#f08c00" stroke-width="2" fill="none"></path></g><g stroke-linecap="round" transform="translate(1088.451861215267 419.24287050355986) rotate(0 198.7835770366484 22.87749068193284)"><path d="M0 0 C0 0, 0 0, 0 0 M0 0 C0 0, 0 0, 0 0 M0.13 12.04 C3.77 8.86, 5.91 4.87, 10.63 -0.03 M0.13 12.04 C3.95 6.95, 7.37 3.94, 10.63 -0.03 M0.27 24.08 C6.7 19.62, 9.26 11.4, 21.26 -0.07 M0.27 24.08 C6.63 15.09, 15.4 7.61, 21.26 -0.07 M-0.26 36.88 C5.77 29.74, 15.26 18.84, 31.89 -0.1 M-0.26 36.88 C11.95 22.42, 23.62 10.37, 31.89 -0.1 M1.84 46.65 C13.14 32.03, 28.41 17.06, 42.52 -0.14 M1.84 46.65 C12.19 34.49, 21.86 23.03, 42.52 -0.14 M12.47 46.62 C24.23 32.58, 33.21 20.92, 53.15 -0.17 M12.47 46.62 C21.53 34.93, 29.83 25.16, 53.15 -0.17 M23.1 46.59 C32.41 37.19, 41.22 27.08, 63.78 -0.21 M23.1 46.59 C37.5 29.48, 52.2 13.77, 63.78 -0.21 M33.73 46.55 C49.28 28.91, 64.93 12.68, 74.41 -0.24 M33.73 46.55 C42.8 37.44, 50.58 28.37, 74.41 -0.24 M44.37 46.52 C54.86 35.69, 64.24 22.93, 85.04 -0.28 M44.37 46.52 C53.6 34.71, 65.03 23.45, 85.04 -0.28 M55 46.48 C68.8 30.18, 85.44 12.82, 95.67 -0.31 M55 46.48 C67.66 31.33, 82.43 15.4, 95.67 -0.31 M65.63 46.45 C75.3 35.65, 87.7 19.45, 106.3 -0.34 M65.63 46.45 C75.68 35.42, 83.54 24.94, 106.3 -0.34 M76.26 46.41 C87.34 31.53, 102.84 17.7, 116.27 0.38 M76.26 46.41 C91.95 28.75, 105 13.41, 116.27 0.38 M86.89 46.38 C94.8 38.28, 102.33 26.33, 126.91 0.34 M86.89 46.38 C102.13 28.85, 116.43 11.85, 126.91 0.34 M97.52 46.34 C109.99 30.5, 120.71 15.62, 137.54 0.31 M97.52 46.34 C113.96 27.91, 127.84 9.88, 137.54 0.31 M108.15 46.31 C121.4 30.62, 136.8 13.57, 148.17 0.27 M108.15 46.31 C116.67 36.13, 126.77 25.88, 148.17 0.27 M118.78 46.27 C129.05 34.16, 139.56 23.36, 158.8 0.24 M118.78 46.27 C130.13 34.66, 138.59 21.76, 158.8 0.24 M129.41 46.24 C137.27 34.9, 147.7 25.38, 169.43 0.2 M129.41 46.24 C144.94 27.98, 159.78 9.96, 169.43 0.2 M140.04 46.21 C150.23 37.62, 159.89 26.42, 180.06 0.17 M140.04 46.21 C153.42 30.99, 168.23 13.94, 180.06 0.17 M150.67 46.17 C164.1 27.22, 181.72 11.19, 190.69 0.13 M150.67 46.17 C162.64 32.99, 173.48 21.05, 190.69 0.13 M161.3 46.14 C176.09 28.3, 189.44 11.59, 201.32 0.1 M161.3 46.14 C175.85 29.64, 191.43 11.46, 201.32 0.1 M171.93 46.1 C184.98 30.64, 201.3 14.98, 211.95 0.06 M171.93 46.1 C186.14 30.09, 199.22 13.55, 211.95 0.06 M182.56 46.07 C196.15 31.17, 209.29 15.79, 222.58 0.03 M182.56 46.07 C190.8 36.95, 198.84 27.49, 222.58 0.03 M193.19 46.03 C201.74 35.1, 214.03 21.56, 233.21 0 M193.19 46.03 C206.34 31.4, 219.47 17.01, 233.21 0 M203.16 46.75 C218.53 31.99, 229.7 15.05, 243.84 -0.04 M203.16 46.75 C213.15 36.19, 223.42 24.01, 243.84 -0.04 M213.79 46.72 C223.01 36.05, 232.83 22.61, 254.47 -0.07 M213.79 46.72 C226.53 30.71, 239.96 15.13, 254.47 -0.07 M224.42 46.68 C234.66 34.61, 241.89 27.67, 265.1 -0.11 M224.42 46.68 C233.52 37.29, 241.97 25.63, 265.1 -0.11 M235.05 46.65 C248.43 30.89, 263.53 15.1, 275.73 -0.14 M235.05 46.65 C249.86 28.25, 266.29 11.09, 275.73 -0.14 M245.68 46.62 C255.71 36.9, 264.07 28.76, 286.36 -0.18 M245.68 46.62 C255.26 35.47, 263.18 24.94, 286.36 -0.18 M256.31 46.58 C266.61 33.09, 279.6 22.45, 296.99 -0.21 M256.31 46.58 C266.84 33.49, 280.49 19.08, 296.99 -0.21 M266.94 46.55 C283.29 26.59, 298.97 9.78, 307.62 -0.25 M266.94 46.55 C279.25 32.52, 289.72 19.05, 307.62 -0.25 M277.57 46.51 C286.26 35.33, 297.15 22.35, 318.25 -0.28 M277.57 46.51 C291.26 30.66, 304.65 16.64, 318.25 -0.28 M288.2 46.48 C295.41 37.1, 303.64 26.19, 328.88 -0.31 M288.2 46.48 C303.67 29.88, 318.16 12.48, 328.88 -0.31 M298.83 46.44 C309.43 36.57, 319.83 25.68, 339.51 -0.35 M298.83 46.44 C306.27 37.56, 316.43 26.1, 339.51 -0.35 M309.46 46.41 C322.94 29.37, 339 13.99, 349.48 0.37 M309.46 46.41 C323.52 29.66, 338.2 12.5, 349.48 0.37 M320.09 46.37 C329.61 34.48, 340.93 19.8, 360.11 0.34 M320.09 46.37 C331.95 33.3, 341.29 22.3, 360.11 0.34 M330.72 46.34 C343.34 33.25, 354.83 19.6, 370.74 0.3 M330.72 46.34 C344.73 31.42, 357.98 15.38, 370.74 0.3 M341.35 46.3 C355.15 31.89, 367.51 14.24, 381.37 0.27 M341.35 46.3 C354.27 31.99, 367.36 17.69, 381.37 0.27 M351.98 46.27 C366.02 32.77, 378.95 16.09, 392 0.23 M351.98 46.27 C362.79 35.56, 373 22.84, 392 0.23 M362.61 46.24 C374.11 36.59, 382.91 24.27, 398.04 5.48 M362.61 46.24 C376.62 31.32, 388.74 14.59, 398.04 5.48 M373.24 46.2 C380.47 38.31, 388.83 29.01, 398.17 17.52 M373.24 46.2 C379.94 39.22, 384.63 31.97, 398.17 17.52 M383.87 46.17 C386.69 42.05, 394.23 37.2, 398.31 29.56 M383.87 46.17 C388.04 40.4, 392.68 36.37, 398.31 29.56 M394.5 46.13 C395.97 44.9, 396.18 43.14, 398.44 41.6 M394.5 46.13 C396.16 44.28, 397.61 42.77, 398.44 41.6" stroke="#ffec99" stroke-width="1" fill="none"></path><path d="M0 0 C121.19 -1.52, 241.78 -0.84, 397.57 0 M0 0 C119.35 0.14, 237.66 -0.91, 397.57 0 M397.57 0 C397.93 16.58, 399.35 32.32, 397.57 45.75 M397.57 0 C397.36 15.83, 397.13 30.66, 397.57 45.75 M397.57 45.75 C241.27 42.95, 86.23 45.04, 0 45.75 M397.57 45.75 C290.5 44.82, 182.23 44.77, 0 45.75 M0 45.75 C1.69 31.1, 2.22 17.9, 0 0 M0 45.75 C1.09 35.34, -0.21 27.03, 0 0" stroke="#f08c00" stroke-width="2" fill="none"></path></g><g stroke-linecap="round" transform="translate(1508.8092526239275 420.2649491778594) rotate(0 234.5364532470703 21.83333396911621)"><path d="M0 0 C0 0, 0 0, 0 0 M0 0 C0 0, 0 0, 0 0 M0.13 12.04 C2.31 8.88, 8.6 3.92, 10.63 -0.03 M0.13 12.04 C3.51 8.56, 7.02 4.37, 10.63 -0.03 M0.27 24.08 C6.62 14.44, 16.33 4.54, 21.26 -0.07 M0.27 24.08 C9.55 14.7, 16.28 5.82, 21.26 -0.07 M-0.26 36.88 C13.24 21.67, 25.81 8.93, 31.89 -0.1 M-0.26 36.88 C12.41 23.63, 24.62 8.17, 31.89 -0.1 M4.47 43.64 C17.06 30.38, 27.45 14.92, 42.52 -0.14 M4.47 43.64 C14.55 31.27, 26.07 18.91, 42.52 -0.14 M15.1 43.6 C27.59 27.74, 41.26 12.17, 53.15 -0.17 M15.1 43.6 C29.12 26.74, 43.7 11.03, 53.15 -0.17 M25.73 43.57 C38.75 30.17, 52.38 15, 63.78 -0.21 M25.73 43.57 C39.87 28.49, 53.46 12.71, 63.78 -0.21 M36.36 43.53 C46.48 33.77, 53.13 21.14, 74.41 -0.24 M36.36 43.53 C46.25 32.59, 55.85 19.97, 74.41 -0.24 M46.33 44.25 C54.72 33.31, 62.47 25.81, 85.04 -0.28 M46.33 44.25 C55.34 35.13, 64.27 24.39, 85.04 -0.28 M56.96 44.22 C73.11 27.19, 86.08 12.96, 95.67 -0.31 M56.96 44.22 C72.97 27, 86.8 9.07, 95.67 -0.31 M67.59 44.18 C76.74 31.62, 84.46 24.19, 106.3 -0.34 M67.59 44.18 C75.63 33.75, 85.23 23.74, 106.3 -0.34 M78.22 44.15 C90.3 32.48, 101.06 18.15, 116.27 0.38 M78.22 44.15 C90.62 29.59, 103.23 14.24, 116.27 0.38 M88.85 44.11 C101.5 27.31, 117.26 11.73, 126.91 0.34 M88.85 44.11 C99.17 31.48, 110.6 19.88, 126.91 0.34 M99.48 44.08 C111.35 27.07, 127.74 13.07, 137.54 0.31 M99.48 44.08 C113.02 26.8, 129.22 9.42, 137.54 0.31 M110.11 44.04 C120.95 31.52, 130.28 21.34, 148.17 0.27 M110.11 44.04 C119.15 34.92, 126.49 24.67, 148.17 0.27 M120.74 44.01 C133.58 30.37, 146.4 13.03, 158.8 0.24 M120.74 44.01 C134.38 26.12, 149.55 9.5, 158.8 0.24 M131.37 43.98 C138.83 35.81, 149.62 26.54, 169.43 0.2 M131.37 43.98 C138.68 34.3, 146.4 26.18, 169.43 0.2 M142 43.94 C152.99 33.63, 162.17 21.74, 180.06 0.17 M142 43.94 C153.51 30.87, 164.4 20.14, 180.06 0.17 M152.63 43.91 C163.06 33.66, 172.3 20.63, 190.69 0.13 M152.63 43.91 C167.23 28.02, 181.1 12.11, 190.69 0.13 M163.26 43.87 C172.36 31.5, 184.96 19.11, 201.32 0.1 M163.26 43.87 C171.69 33.66, 180.55 24.75, 201.32 0.1 M173.89 43.84 C185.18 33.46, 193.88 22.44, 211.95 0.06 M173.89 43.84 C187.28 27.34, 201.89 12.1, 211.95 0.06 M184.52 43.8 C198.52 28.42, 211.47 9.25, 222.58 0.03 M184.52 43.8 C192.04 34.76, 199.59 26.36, 222.58 0.03 M195.15 43.77 C207.97 28.93, 218.95 16.7, 233.21 0 M195.15 43.77 C210.64 27.13, 224.95 8.73, 233.21 0 M205.78 43.73 C212.53 33.54, 219.76 24.02, 243.84 -0.04 M205.78 43.73 C217.18 30.5, 227.15 19.3, 243.84 -0.04 M216.41 43.7 C224.95 31.93, 237.76 20.91, 254.47 -0.07 M216.41 43.7 C230.59 26.85, 245.11 9.57, 254.47 -0.07 M227.04 43.67 C239.8 30.06, 252.64 11.16, 265.1 -0.11 M227.04 43.67 C239.83 27.6, 253.87 12.27, 265.1 -0.11 M237.67 43.63 C248.9 31.68, 261.6 18.44, 275.73 -0.14 M237.67 43.63 C246.91 33.81, 254.38 23.58, 275.73 -0.14 M248.3 43.6 C259.76 33.06, 267.64 20.44, 286.36 -0.18 M248.3 43.6 C259.32 29.61, 271.56 16.01, 286.36 -0.18 M258.94 43.56 C268.17 35.51, 276.29 25.47, 296.99 -0.21 M258.94 43.56 C273.31 28.15, 286.31 13.93, 296.99 -0.21 M269.57 43.53 C284.19 27.51, 299.06 9.29, 307.62 -0.25 M269.57 43.53 C282.03 27.91, 295.27 13.56, 307.62 -0.25 M279.54 44.25 C289.05 31.93, 299.48 23.65, 318.25 -0.28 M279.54 44.25 C291.05 32.48, 300.5 18.64, 318.25 -0.28 M290.17 44.21 C302.57 27.71, 319.04 12.85, 328.88 -0.31 M290.17 44.21 C300.4 32.33, 309.55 20.95, 328.88 -0.31 M300.8 44.18 C310.83 35.39, 316.32 23.85, 339.51 -0.35 M300.8 44.18 C316.21 26.71, 329.99 12.2, 339.51 -0.35 M311.43 44.14 C321.16 34.92, 329.15 26.33, 349.48 0.37 M311.43 44.14 C322.83 30.55, 334.04 18.56, 349.48 0.37 M322.06 44.11 C335.42 26.8, 348.69 11.42, 360.11 0.34 M322.06 44.11 C329.13 35.58, 338.19 25.59, 360.11 0.34 M332.69 44.08 C343.61 32.11, 351.69 21.94, 370.74 0.3 M332.69 44.08 C346.41 28.2, 359.36 14.24, 370.74 0.3 M343.32 44.04 C354.94 28.88, 368.25 16.73, 381.37 0.27 M343.32 44.04 C352.61 34.47, 360.85 24.26, 381.37 0.27 M353.95 44.01 C367.47 28.99, 377.11 14.72, 392 0.23 M353.95 44.01 C367.41 28.53, 379.25 13.53, 392 0.23 M364.58 43.97 C377.71 29.47, 391.84 15.46, 402.63 0.2 M364.58 43.97 C376.16 28.86, 389.15 15.71, 402.63 0.2 M375.21 43.94 C387.09 31.11, 399.2 16.95, 413.26 0.16 M375.21 43.94 C383.13 33.47, 393.16 23.6, 413.26 0.16 M385.84 43.9 C399.8 31.11, 411.13 16.54, 423.89 0.13 M385.84 43.9 C399.51 29.03, 413.5 11.6, 423.89 0.13 M396.47 43.87 C408.09 26.63, 425.04 12.29, 434.52 0.1 M396.47 43.87 C405.98 33.5, 415.77 20.71, 434.52 0.1 M407.1 43.83 C417.44 29.71, 428.08 19.5, 445.15 0.06 M407.1 43.83 C420.74 28.85, 432.98 11.97, 445.15 0.06 M417.73 43.8 C428.57 31.82, 440.89 18.9, 455.78 0.03 M417.73 43.8 C426.82 34.25, 435.59 22.96, 455.78 0.03 M428.36 43.76 C442.04 29.01, 458.03 8.91, 466.41 -0.01 M428.36 43.76 C437.66 33.05, 447.16 21.4, 466.41 -0.01 M438.99 43.73 C447.7 32.07, 457.88 23.39, 469.83 8.26 M438.99 43.73 C448.34 33.1, 457.01 23.08, 469.83 8.26 M449.62 43.7 C453.59 40.03, 460.29 32.59, 469.96 20.3 M449.62 43.7 C457.15 36.36, 463.01 28.98, 469.96 20.3 M460.25 43.66 C462.92 41.34, 465.57 37.82, 470.09 32.34 M460.25 43.66 C462.96 40.57, 466.17 36.17, 470.09 32.34" stroke="#ffec99" stroke-width="1" fill="none"></path><path d="M0 0 C171.66 0.52, 345.01 -0.28, 469.07 0 M0 0 C147.76 -2.29, 296.38 -1.44, 469.07 0 M469.07 0 C470.43 14.31, 469.73 25.54, 469.07 43.67 M469.07 0 C468.6 16.94, 469.92 33.83, 469.07 43.67 M469.07 43.67 C363.61 42.41, 257.84 42.23, 0 43.67 M469.07 43.67 C346.74 43.46, 224.75 43.19, 0 43.67 M0 43.67 C1.59 34.13, -2.06 22.2, 0 0 M0 43.67 C-0.77 30.05, -0.01 15.48, 0 0" stroke="#f08c00" stroke-width="2" fill="none"></path></g><g stroke-linecap="round" transform="translate(1995.0278389786426 423.2759885150092) rotate(0 164.53125 21.83333396911621)"><path d="M0 0 C0 0, 0 0, 0 0 M0 0 C0 0, 0 0, 0 0 M0.13 12.04 C5.04 8.13, 8.7 3.32, 10.63 -0.03 M0.13 12.04 C1.99 10.05, 5.19 7.39, 10.63 -0.03 M0.27 24.08 C9.21 13.33, 18.4 3.82, 21.26 -0.07 M0.27 24.08 C4.27 19.04, 10.7 12.24, 21.26 -0.07 M-0.26 36.88 C13.09 23.5, 25.71 9.99, 31.89 -0.1 M-0.26 36.88 C7.39 27.55, 14.9 18.17, 31.89 -0.1 M4.47 43.64 C15.55 28.05, 28.32 15.06, 42.52 -0.14 M4.47 43.64 C14.54 32.34, 25.45 21.13, 42.52 -0.14 M15.1 43.6 C23.21 33.26, 35.88 22.25, 53.15 -0.17 M15.1 43.6 C22.48 35.58, 31.49 25.92, 53.15 -0.17 M25.73 43.57 C40.51 28.65, 54.4 12.22, 63.78 -0.21 M25.73 43.57 C36.08 32.22, 44.72 20.8, 63.78 -0.21 M36.36 43.53 C45.06 30.07, 57.08 19.6, 74.41 -0.24 M36.36 43.53 C48.51 28.5, 60.97 14.25, 74.41 -0.24 M46.33 44.25 C57.64 31.77, 69.07 14.68, 85.04 -0.28 M46.33 44.25 C57.93 30.88, 69.24 18.09, 85.04 -0.28 M56.96 44.22 C69.45 31.66, 82.84 15.15, 95.67 -0.31 M56.96 44.22 C70.6 27.2, 84.51 10.44, 95.67 -0.31 M67.59 44.18 C80.91 28.6, 95.66 12.66, 106.3 -0.34 M67.59 44.18 C77.27 33.55, 86.17 22.12, 106.3 -0.34 M78.22 44.15 C90 30.02, 100.57 21.06, 116.27 0.38 M78.22 44.15 C85.29 35.09, 94.64 25.86, 116.27 0.38 M88.85 44.11 C104.79 26.73, 117.35 11.6, 126.91 0.34 M88.85 44.11 C98.85 33.65, 108.93 22.12, 126.91 0.34 M99.48 44.08 C110.33 33.63, 119.12 25.74, 137.54 0.31 M99.48 44.08 C110.99 31.28, 120.81 19.26, 137.54 0.31 M110.11 44.04 C121.2 31.61, 133.42 14.87, 148.17 0.27 M110.11 44.04 C121.29 30.06, 133.93 16.51, 148.17 0.27 M120.74 44.01 C131.86 29.51, 146.44 18.3, 158.8 0.24 M120.74 44.01 C134.11 28.59, 147.4 12.07, 158.8 0.24 M131.37 43.98 C143.63 32.93, 150.28 20.57, 169.43 0.2 M131.37 43.98 C139.5 34.53, 148.36 25.03, 169.43 0.2 M142 43.94 C157.52 27.1, 171.16 8.76, 180.06 0.17 M142 43.94 C156.26 29.43, 168.59 11.86, 180.06 0.17 M152.63 43.91 C161.45 32.23, 172.84 23.95, 190.69 0.13 M152.63 43.91 C162.86 32.89, 171.81 21.11, 190.69 0.13 M163.26 43.87 C174.31 31.67, 180.52 20.96, 201.32 0.1 M163.26 43.87 C176.63 29.3, 188.49 14.15, 201.32 0.1 M173.89 43.84 C186.37 30.41, 198.67 17.24, 211.95 0.06 M173.89 43.84 C186.49 30.43, 198.94 16.3, 211.95 0.06 M184.52 43.8 C196.24 26.84, 209.77 12.01, 222.58 0.03 M184.52 43.8 C195.16 31.54, 206.7 17.91, 222.58 0.03 M195.15 43.77 C207.88 29.24, 221.93 15.84, 233.21 0 M195.15 43.77 C207.77 28.2, 219.19 15.19, 233.21 0 M205.78 43.73 C216.68 28.42, 229.61 16.2, 243.84 -0.04 M205.78 43.73 C218.48 29.37, 231.85 12.8, 243.84 -0.04 M216.41 43.7 C231.68 28.34, 246.88 9.87, 254.47 -0.07 M216.41 43.7 C227.02 30.43, 239.51 18.7, 254.47 -0.07 M227.04 43.67 C234.13 32.25, 245.29 23.55, 265.1 -0.11 M227.04 43.67 C242.74 25.83, 257.24 8.7, 265.1 -0.11 M237.67 43.63 C251.49 29.73, 260.61 14.17, 275.73 -0.14 M237.67 43.63 C244.8 33.88, 253.64 25.59, 275.73 -0.14 M248.3 43.6 C257.92 31.35, 271.02 18.5, 286.36 -0.18 M248.3 43.6 C257.69 32.59, 266.5 21.67, 286.36 -0.18 M258.94 43.56 C268.74 33.27, 279.86 18.28, 296.99 -0.21 M258.94 43.56 C273.36 28.22, 287.16 11.91, 296.99 -0.21 M269.57 43.53 C279.06 32.09, 290.03 22.28, 307.62 -0.25 M269.57 43.53 C279 32.9, 288.75 20.72, 307.62 -0.25 M279.54 44.25 C292.06 32.24, 303.12 18.49, 318.25 -0.28 M279.54 44.25 C287.77 32.74, 298.71 21.46, 318.25 -0.28 M290.17 44.21 C304.41 29.96, 315.01 16.72, 328.88 -0.31 M290.17 44.21 C302.05 29.88, 314.56 15.58, 328.88 -0.31 M300.8 44.18 C308.98 32.24, 322.46 18.47, 329.67 10.97 M300.8 44.18 C312.6 32.02, 322.75 17.68, 329.67 10.97 M311.43 44.14 C317.13 39.7, 320.47 33.01, 329.8 23.01 M311.43 44.14 C316.59 38.6, 322.9 31.23, 329.8 23.01 M322.06 44.11 C324.18 40.56, 325.99 39.3, 329.28 35.81 M322.06 44.11 C323.57 42.42, 324.94 40.94, 329.28 35.81" stroke="#ffec99" stroke-width="1" fill="none"></path><path d="M0 0 C99.25 -1.76, 198.73 -0.68, 329.06 0 M0 0 C127.76 2.8, 254.97 2.15, 329.06 0 M329.06 0 C330.03 15.42, 331.05 30.86, 329.06 43.67 M329.06 0 C329.8 15.88, 328.14 30.7, 329.06 43.67 M329.06 43.67 C261.6 46.55, 194.4 46.85, 0 43.67 M329.06 43.67 C232.65 42.83, 135.62 43.79, 0 43.67 M0 43.67 C-2.17 30.56, 0.13 20.65, 0 0 M0 43.67 C0.55 34.08, 0.38 23.37, 0 0" stroke="#f08c00" stroke-width="2" fill="none"></path></g><g mask="url(#mask-QZPXP1fJIKNt3IflxNpVn)" stroke-linecap="round"><g transform="translate(195.29165048027255 103.00000127156568) rotate(0 -0.6096312110420712 69.02700039665766)"><path d="M-0.33 0.19 C-0.55 23.37, -0.29 116.32, -0.6 139.1 M1.71 -0.76 C1.31 22.11, -0.98 114.47, -1.22 137.53" stroke="#f08c00" stroke-width="2" fill="none"></path></g><g transform="translate(195.29165048027255 103.00000127156568) rotate(0 -0.6096312110420712 69.02700039665766)"><path d="M-9.33 113.88 C-6.09 123.49, -1.72 129.45, -1.22 137.53 M-9.33 113.88 C-7.65 118.6, -5.37 124.13, -1.22 137.53" stroke="#f08c00" stroke-width="2" fill="none"></path></g><g transform="translate(195.29165048027255 103.00000127156568) rotate(0 -0.6096312110420712 69.02700039665766)"><path d="M7.77 114.2 C4.83 123.65, 3.02 129.49, -1.22 137.53 M7.77 114.2 C5.97 119.01, 4.76 124.47, -1.22 137.53" stroke="#f08c00" stroke-width="2" fill="none"></path></g></g><mask id="mask-QZPXP1fJIKNt3IflxNpVn"><rect x="0" y="0" fill="#fff" width="296.5109129023567" height="341.054002064881"></rect><rect x="92.39210227704297" y="159.5270016682233" fill="#000" width="204.579833984375" height="25" opacity="1"></rect></mask><g mask="url(#mask-upMmRrDbvEIhInPI0I2Bd)" stroke-linecap="round"><g transform="translate(483.4898545266212 104.34437394204889) rotate(0 -0.7071720797150078 69.02700039665766)"><path d="M0.62 1.05 C0.28 23.83, -2.08 113.88, -2.34 136.9 M-0.51 0.56 C-0.45 23.43, 0.04 115.02, -0.12 137.83" stroke="#f08c00" stroke-width="2" fill="none"></path></g><g transform="translate(483.4898545266212 104.34437394204889) rotate(0 -0.7071720797150078 69.02700039665766)"><path d="M-8.67 114.34 C-4.55 119.15, -5.89 127.86, -0.12 137.83 M-8.67 114.34 C-4.76 124.22, -1.26 133.07, -0.12 137.83" stroke="#f08c00" stroke-width="2" fill="none"></path></g><g transform="translate(483.4898545266212 104.34437394204889) rotate(0 -0.7071720797150078 69.02700039665766)"><path d="M8.43 114.34 C7.88 119.24, 1.87 127.95, -0.12 137.83 M8.43 114.34 C5.64 124.22, 2.45 133.06, -0.12 137.83" stroke="#f08c00" stroke-width="2" fill="none"></path></g></g><mask id="mask-upMmRrDbvEIhInPI0I2Bd"><rect x="0" y="0" fill="#fff" width="584.9041986860511" height="342.3983747353642"></rect><rect x="373.0327739996406" y="148.37137433870657" fill="#000" width="219.49981689453125" height="50" opacity="1"></rect></mask><g mask="url(#mask-jv-2mg_Dmdl0z-uXuU8EL)" stroke-linecap="round"><g transform="translate(1139.7324179341206 105.88960662850133) rotate(0 1.6300702717393278 68.25438405343141)"><path d="M-0.93 -1.16 C-0.42 21.6, 3.02 114.67, 3.71 137.61 M0.78 0.85 C1.12 23.82, 2.73 113.24, 2.99 136.06" stroke="#f08c00" stroke-width="2" fill="none"></path></g><g transform="translate(1139.7324179341206 105.88960662850133) rotate(0 1.6300702717393278 68.25438405343141)"><path d="M-5.91 112.7 C-4.5 121.73, 2.39 129.09, 2.99 136.06 M-5.91 112.7 C-2.4 119.92, -0.57 127.38, 2.99 136.06" stroke="#f08c00" stroke-width="2" fill="none"></path></g><g transform="translate(1139.7324179341206 105.88960662850133) rotate(0 1.6300702717393278 68.25438405343141)"><path d="M11.19 112.44 C6.58 121.43, 7.46 128.88, 2.99 136.06 M11.19 112.44 C9.61 119.86, 6.36 127.39, 2.99 136.06" stroke="#f08c00" stroke-width="2" fill="none"></path></g></g><mask id="mask-jv-2mg_Dmdl0z-uXuU8EL"><rect x="0" y="0" fill="#fff" width="1242.9925584775992" height="342.39837473536414"></rect><rect x="1039.1825794534186" y="149.14399068193273" fill="#000" width="204.3598175048828" height="50" opacity="1"></rect></mask><g mask="url(#mask-0r9sFkEMUy_UVkoeXCKdq)" stroke-linecap="round"><g transform="translate(1444.073840626153 99.71082401526604) rotate(0 0.5829088666228017 70.6715890248075)"><path d="M0.45 1.1 C0.79 24.84, 0.86 117.8, 1.1 141.31 M-0.78 0.63 C-0.52 24.68, -0.26 119.56, 0.11 142.83" stroke="#f08c00" stroke-width="2" fill="none"></path></g><g transform="translate(1444.073840626153 99.71082401526604) rotate(0 0.5829088666228017 70.6715890248075)"><path d="M-8.63 119.41 C-5.08 124.48, -5.02 130.95, 0.11 142.83 M-8.63 119.41 C-5.33 128.86, -2.18 137.22, 0.11 142.83" stroke="#f08c00" stroke-width="2" fill="none"></path></g><g transform="translate(1444.073840626153 99.71082401526604) rotate(0 0.5829088666228017 70.6715890248075)"><path d="M8.47 119.27 C8.21 124.43, 4.47 130.93, 0.11 142.83 M8.47 119.27 C5.48 128.82, 2.32 137.24, 0.11 142.83" stroke="#f08c00" stroke-width="2" fill="none"></path></g></g><mask id="mask-0r9sFkEMUy_UVkoeXCKdq"><rect x="0" y="0" fill="#fff" width="1545.2396583593986" height="341.05400206488105"></rect><rect x="1346.1468312798852" y="132.88241304007352" fill="#000" width="197.01983642578125" height="75" opacity="1"></rect></mask><g mask="url(#mask-vpq9KjsMshHli6QwzgYzb)" stroke-linecap="round"><g transform="translate(1808.8080295822388 105.68874661253204) rotate(0 -0.6734799532683837 69.02700039665766)"><path d="M-0.07 -0.03 C-0.25 22.93, -0.59 115.79, -0.66 138.87 M-1.56 -1.09 C-1.88 22.05, -1.38 114.28, -1.25 137.18" stroke="#f08c00" stroke-width="2" fill="none"></path></g><g transform="translate(1808.8080295822388 105.68874661253204) rotate(0 -0.6734799532683837 69.02700039665766)"><path d="M-9.92 113.74 C-6.83 122.79, -2.49 131.02, -1.25 137.18 M-9.92 113.74 C-7.22 122.06, -4.56 129.45, -1.25 137.18" stroke="#f08c00" stroke-width="2" fill="none"></path></g><g transform="translate(1808.8080295822388 105.68874661253204) rotate(0 -0.6734799532683837 69.02700039665766)"><path d="M7.18 113.65 C4.5 122.72, 3.08 130.98, -1.25 137.18 M7.18 113.65 C4.18 122.14, 1.14 129.57, -1.25 137.18" stroke="#f08c00" stroke-width="2" fill="none"></path></g></g><mask id="mask-vpq9KjsMshHli6QwzgYzb"><rect x="0" y="0" fill="#fff" width="1910.1549894887755" height="343.74274740584735"></rect><rect x="1723.9946189038728" y="149.71574700918973" fill="#000" width="168.2798614501953" height="50" opacity="1"></rect></mask><g mask="url(#mask-qeN2GES6kkpsbLvLOqTJw)" stroke-linecap="round"><g transform="translate(2152.120763106821 103.00000127156568) rotate(0 1.4500091360442866 69.02700039665766)"><path d="M0.69 0.82 C1.33 23.9, 3.42 115.41, 3.78 138.46 M-0.41 0.21 C0.15 22.92, 2.89 113.7, 3.29 136.54" stroke="#f08c00" stroke-width="2" fill="none"></path></g><g transform="translate(2152.120763106821 103.00000127156568) rotate(0 1.4500091360442866 69.02700039665766)"><path d="M-5.84 113.27 C-1.79 121.53, 0.2 126.75, 3.29 136.54 M-5.84 113.27 C-2.77 122.32, 2.05 131.37, 3.29 136.54" stroke="#f08c00" stroke-width="2" fill="none"></path></g><g transform="translate(2152.120763106821 103.00000127156568) rotate(0 1.4500091360442866 69.02700039665766)"><path d="M11.26 112.85 C10.27 121.33, 7.23 126.67, 3.29 136.54 M11.26 112.85 C7.76 122.16, 6.01 131.37, 3.29 136.54" stroke="#f08c00" stroke-width="2" fill="none"></path></g></g><mask id="mask-qeN2GES6kkpsbLvLOqTJw"><rect x="0" y="0" fill="#fff" width="2255.0207813789093" height="341.054002064881"></rect><rect x="2067.4808369401308" y="159.5270016682233" fill="#000" width="172.17987060546875" height="25" opacity="1"></rect></mask><g mask="url(#mask-ijihOeLi3kdr40_ZwBeON)" stroke-linecap="round"><g transform="translate(134.57379568204522 292.86537855006145) rotate(0 3.1689250238529496 60.00335109455955)"><path d="M0.88 0.4 C1.8 20.43, 5.36 100.97, 6.23 121.02 M-0.12 -0.43 C0.57 19.21, 4.33 99.57, 5.23 119.43" stroke="#f08c00" stroke-width="2" fill="none"></path></g><g transform="translate(134.57379568204522 292.86537855006145) rotate(0 3.1689250238529496 60.00335109455955)"><path d="M-4.39 96.35 C-0.13 104.35, 4.33 112.44, 5.23 119.43 M-4.39 96.35 C-0.12 104.85, 1.65 112.31, 5.23 119.43" stroke="#f08c00" stroke-width="2" fill="none"></path></g><g transform="translate(134.57379568204522 292.86537855006145) rotate(0 3.1689250238529496 60.00335109455955)"><path d="M12.69 95.57 C10.86 103.97, 9.22 112.34, 5.23 119.43 M12.69 95.57 C10.85 104.37, 6.51 112.11, 5.23 119.43" stroke="#f08c00" stroke-width="2" fill="none"></path></g></g><mask id="mask-ijihOeLi3kdr40_ZwBeON"><rect x="0" y="0" fill="#fff" width="240.91164572975111" height="512.8720807391805"></rect><rect x="33.332800967128605" y="340.368729644621" fill="#000" width="208.81983947753906" height="25" opacity="1"></rect></mask><g stroke-linecap="round"><g transform="translate(471.17994363867973 292.8653785500615) rotate(0 -92.56209340521688 60.00335109455952)"><path d="M-0.1 1.01 C-31.14 21.06, -154.41 100.84, -185.32 120.7 M-1.62 0.5 C-32.9 20.17, -155.54 98.76, -186.38 118.94" stroke="#f08c00" stroke-width="2" fill="none"></path></g><g transform="translate(471.17994363867973 292.8653785500615) rotate(0 -92.56209340521688 60.00335109455952)"><path d="M-171.29 99.01 C-175.16 106.1, -181.32 113.07, -186.38 118.94 M-171.29 99.01 C-176.61 104.79, -181.58 111.63, -186.38 118.94" stroke="#f08c00" stroke-width="2" fill="none"></path></g><g transform="translate(471.17994363867973 292.8653785500615) rotate(0 -92.56209340521688 60.00335109455952)"><path d="M-162 113.37 C-169.39 115.09, -179.01 116.71, -186.38 118.94 M-162 113.37 C-170.39 114.65, -178.28 116.96, -186.38 118.94" stroke="#f08c00" stroke-width="2" fill="none"></path></g></g><mask></mask><g stroke-linecap="round"><g transform="translate(1459.9525173134423 291.03312182614707) rotate(0 -42.13879498677659 59.86066579175832)"><path d="M-0.2 0.69 C-14.31 20.51, -70.92 100.01, -84.75 119.9 M-1.76 0.01 C-16.06 20.57, -72.35 101.29, -85.95 121.54" stroke="#f08c00" stroke-width="2" fill="none"></path></g><g transform="translate(1459.9525173134423 291.03312182614707) rotate(0 -42.13879498677659 59.86066579175832)"><path d="M-79.71 97.33 C-80.17 103.58, -82.84 113.26, -85.95 121.54 M-79.71 97.33 C-82.89 105.2, -83.09 112.77, -85.95 121.54" stroke="#f08c00" stroke-width="2" fill="none"></path></g><g transform="translate(1459.9525173134423 291.03312182614707) rotate(0 -42.13879498677659 59.86066579175832)"><path d="M-65.61 107.01 C-70.26 110.41, -77.04 117.27, -85.95 121.54 M-65.61 107.01 C-73.31 111.65, -78.1 116.07, -85.95 121.54" stroke="#f08c00" stroke-width="2" fill="none"></path></g></g><mask></mask><g stroke-linecap="round"><g transform="translate(1818.1531582427288 312.543084553878) rotate(0 -9.064562833402988 50.9610964355258)"><path d="M-0.48 0.18 C-3.28 17.11, -13.94 85.38, -17.03 102.23 M1.47 -0.77 C-1.38 15.72, -14.39 83.1, -17.4 100.27" stroke="#f08c00" stroke-width="2" fill="none"></path></g><g transform="translate(1818.1531582427288 312.543084553878) rotate(0 -9.064562833402988 50.9610964355258)"><path d="M-21.53 75.61 C-19.91 84.45, -18.53 88.1, -17.4 100.27 M-21.53 75.61 C-19.88 81.38, -19.07 87.34, -17.4 100.27" stroke="#f08c00" stroke-width="2" fill="none"></path></g><g transform="translate(1818.1531582427288 312.543084553878) rotate(0 -9.064562833402988 50.9610964355258)"><path d="M-4.72 78.73 C-7.88 86.61, -11.27 89.39, -17.4 100.27 M-4.72 78.73 C-7.17 83.73, -10.49 88.93, -17.4 100.27" stroke="#f08c00" stroke-width="2" fill="none"></path></g></g><mask></mask><g stroke-opacity="0.8" fill-opacity="0.8" transform="translate(1042.1831832326295 15) rotate(0 121.3659439086914 17.5)"><text x="121.3659439086914" y="24.528" font-family="Virgil, Segoe UI Emoji" font-size="28px" fill="#f08c00" text-anchor="middle" style="white-space: pre;" direction="ltr" dominant-baseline="alphabetic">FishWatch System</text></g><g stroke-linecap="round"><g transform="translate(2157.2581769273474 313.18767254624504) rotate(0 0.6452654233530666 52.14432210791722)"><path d="M1.1 0.31 C1.24 17.55, 0.55 86.3, 0.39 103.64 M0.22 -0.58 C0.78 16.8, 2.26 87.13, 2.63 104.83" stroke="#f08c00" stroke-width="2" fill="none"></path></g><g transform="translate(2157.2581769273474 313.18767254624504) rotate(0 0.6452654233530666 52.14432210791722)"><path d="M-6.42 81.53 C-3.51 86.01, -2.76 91.65, 2.63 104.83 M-6.42 81.53 C-2.81 88.2, 0.14 95.56, 2.63 104.83" stroke="#f08c00" stroke-width="2" fill="none"></path></g><g transform="translate(2157.2581769273474 313.18767254624504) rotate(0 0.6452654233530666 52.14432210791722)"><path d="M10.68 81.17 C9.13 85.9, 5.44 91.63, 2.63 104.83 M10.68 81.17 C9.13 87.89, 6.91 95.37, 2.63 104.83" stroke="#f08c00" stroke-width="2" fill="none"></path></g></g><mask></mask><g transform="translate(121.14486694335938 67.66666730244947) rotate(0 74.34992980957031 12.5)"><text x="74.34992980957031" y="17.52" font-family="Virgil, Segoe UI Emoji" font-size="20px" fill="#f08c00" text-anchor="middle" style="white-space: pre;" direction="ltr" dominant-baseline="alphabetic">Edge Computing</text></g><g transform="translate(67.82822163899743 256.18767191046203) rotate(0 125.99990844726562 12.5)"><text x="125.99990844726562" y="17.52" font-family="Virgil, Segoe UI Emoji" font-size="20px" fill="#f08c00" text-anchor="middle" style="white-space: pre;" direction="ltr" dominant-baseline="alphabetic">Data Volume and Velocity</text></g><g transform="translate(354.9593836265692 69.01103997293268) rotate(0 128.4998779296875 12.5)"><text x="128.4998779296875" y="17.52" font-family="Virgil, Segoe UI Emoji" font-size="20px" fill="#f08c00" text-anchor="middle" style="white-space: pre;" direction="ltr" dominant-baseline="alphabetic">Microservices Architecture</text></g><g transform="translate(432.29264066595726 257.53204458094524) rotate(0 49.49995422363281 12.5)"><text x="49.49995422363281" y="17.52" font-family="Virgil, Segoe UI Emoji" font-size="20px" fill="#f08c00" text-anchor="middle" style="white-space: pre;" direction="ltr" dominant-baseline="alphabetic">Scalability</text></g><g transform="translate(1013.335843478905 69.78365631615887) rotate(0 125.82991027832031 12.5)"><text x="125.82991027832031" y="17.52" font-family="Virgil, Segoe UI Emoji" font-size="20px" fill="#f08c00" text-anchor="middle" style="white-space: pre;" direction="ltr" dominant-baseline="alphabetic">Data Insight &amp; Analytics</text></g><g transform="translate(1045.478855965643 253.19871061182897) rotate(0 98.06990814208984 12.5)"><text x="98.06990814208984" y="17.52" font-family="Virgil, Segoe UI Emoji" font-size="20px" fill="#f08c00" text-anchor="middle" style="white-space: pre;" direction="ltr" dominant-baseline="alphabetic">Cross farm Insights</text></g><g transform="translate(1336.2032595810176 68.71082401526604) rotate(0 107.55990600585938 12.5)"><text x="107.55990600585938" y="17.52" font-family="Virgil, Segoe UI Emoji" font-size="20px" fill="#f08c00" text-anchor="middle" style="white-space: pre;" direction="ltr" dominant-baseline="alphabetic">Web/Mobile Application</text></g><g transform="translate(1349.3075129938793 254.94372924796352) rotate(0 96.14992523193365 12.5)"><text x="96.1499252319336" y="17.52" font-family="Virgil, Segoe UI Emoji" font-size="20px" fill="#f08c00" text-anchor="middle" style="white-space: pre;" direction="ltr" dominant-baseline="alphabetic">Farm User Adoption</text></g><g transform="translate(1702.1984753309648 70.35541264341583) rotate(0 106.57992553710938 12.5)"><text x="106.57992553710938" y="17.52" font-family="Virgil, Segoe UI Emoji" font-size="20px" fill="#f08c00" text-anchor="middle" style="white-space: pre;" direction="ltr" dominant-baseline="alphabetic">Flexible API Gateway</text></g><g transform="translate(1666.7018602390053 254.54308328231218) rotate(0 140.40988159179688 25)"><text x="140.40988159179688" y="17.52" font-family="Virgil, Segoe UI Emoji" font-size="20px" fill="#f08c00" text-anchor="middle" style="white-space: pre;" direction="ltr" dominant-baseline="alphabetic">Integration with Security &amp; </text><text x="140.40988159179688" y="42.519999999999996" font-family="Virgil, Segoe UI Emoji" font-size="20px" fill="#f08c00" text-anchor="middle" style="white-space: pre;" direction="ltr" dominant-baseline="alphabetic">Scalability</text></g><g transform="translate(2045.8207702636719 67.66666730244947) rotate(0 105.81989288330078 12.5)"><text x="105.81989288330078" y="17.52" font-family="Virgil, Segoe UI Emoji" font-size="20px" fill="#f08c00" text-anchor="middle" style="white-space: pre;" direction="ltr" dominant-baseline="alphabetic">Connectivity Solutions</text></g><g transform="translate(2049.1174265543623 253.5210046080125) rotate(0 106.68991088867188 25)"><text x="106.68991088867188" y="17.52" font-family="Virgil, Segoe UI Emoji" font-size="20px" fill="#f08c00" text-anchor="middle" style="white-space: pre;" direction="ltr" dominant-baseline="alphabetic">Connectivity SatCom, </text><text x="106.68991088867188" y="42.519999999999996" font-family="Virgil, Segoe UI Emoji" font-size="20px" fill="#f08c00" text-anchor="middle" style="white-space: pre;" direction="ltr" dominant-baseline="alphabetic">LoROWAN</text></g><g transform="translate(86.10433685361153 425.21527279646807) rotate(0 104.10990142822266 12.5)"><text x="104.10990142822266" y="17.52" font-family="Virgil, Segoe UI Emoji" font-size="20px" fill="#f08c00" text-anchor="middle" style="white-space: pre;" direction="ltr" dominant-baseline="alphabetic">Cloud Infrastructure</text></g><g transform="translate(1101.4055737499625 429.6203611854927) rotate(0 185.82986450195318 12.5)"><text x="185.82986450195312" y="17.52" font-family="Virgil, Segoe UI Emoji" font-size="20px" fill="#f08c00" text-anchor="middle" style="white-space: pre;" direction="ltr" dominant-baseline="alphabetic">User Engagement and Adoption Rates</text></g><g transform="translate(1540.3758724969744 429.59828314697563) rotate(0 202.96983337402344 12.5)"><text x="202.96983337402344" y="17.52" font-family="Virgil, Segoe UI Emoji" font-size="20px" fill="#f08c00" text-anchor="middle" style="white-space: pre;" direction="ltr" dominant-baseline="alphabetic">Existing Hardware and Software Systems</text></g><g transform="translate(2021.2791970108692 432.6093224841254) rotate(0 138.27989196777344 12.5)"><text x="138.27989196777344" y="17.52" font-family="Virgil, Segoe UI Emoji" font-size="20px" fill="#f08c00" text-anchor="middle" style="white-space: pre;" direction="ltr" dominant-baseline="alphabetic">Remote Fish Farm Locations</text></g><g transform="translate(92.39210227704297 159.5270016682233) rotate(0 103.1421421456244 12.64612157978587)"><text x="102.2899169921875" y="17.52" font-family="Virgil, Segoe UI Emoji" font-size="20px" fill="#f08c00" text-anchor="middle" style="white-space: pre;" direction="ltr" dominant-baseline="alphabetic">Process data locally</text></g><g transform="translate(373.03277399964054 148.37137433870657) rotate(0 109.59565324112772 25.165001042345523)"><text x="109.74990844726562" y="17.52" font-family="Virgil, Segoe UI Emoji" font-size="20px" fill="#f08c00" text-anchor="middle" style="white-space: pre;" direction="ltr" dominant-baseline="alphabetic">Independently scalable</text><text x="109.74990844726562" y="42.519999999999996" font-family="Virgil, Segoe UI Emoji" font-size="20px" fill="#f08c00" text-anchor="middle" style="white-space: pre;" direction="ltr" dominant-baseline="alphabetic">components</text></g><g transform="translate(1039.1825794534184 149.14399068193273) rotate(0 101.9387198619545 24.97106730416418)"><text x="102.1799087524414" y="17.52" font-family="Virgil, Segoe UI Emoji" font-size="20px" fill="#f08c00" text-anchor="middle" style="white-space: pre;" direction="ltr" dominant-baseline="alphabetic">Analyze factors </text><text x="102.1799087524414" y="42.519999999999996" font-family="Virgil, Segoe UI Emoji" font-size="20px" fill="#f08c00" text-anchor="middle" style="white-space: pre;" direction="ltr" dominant-baseline="alphabetic">contributing growth  </text></g><g transform="translate(1346.1468312798852 132.88241304007352) rotate(0 98.08760375245936 38.55914845154622)"><text x="98.50991821289062" y="17.52" font-family="Virgil, Segoe UI Emoji" font-size="20px" fill="#f08c00" text-anchor="middle" style="white-space: pre;" direction="ltr" dominant-baseline="alphabetic">Customizable </text><text x="98.50991821289062" y="42.519999999999996" font-family="Virgil, Segoe UI Emoji" font-size="20px" fill="#f08c00" text-anchor="middle" style="white-space: pre;" direction="ltr" dominant-baseline="alphabetic">dashboards &amp; user </text><text x="98.50991821289062" y="67.52" font-family="Virgil, Segoe UI Emoji" font-size="20px" fill="#f08c00" text-anchor="middle" style="white-space: pre;" direction="ltr" dominant-baseline="alphabetic">centric design</text></g><g transform="translate(1723.994618903873 149.71574700918973) rotate(0 83.94574013665692 24.86361639537381)"><text x="84.13993072509766" y="17.52" font-family="Virgil, Segoe UI Emoji" font-size="20px" fill="#f08c00" text-anchor="middle" style="white-space: pre;" direction="ltr" dominant-baseline="alphabetic">Integration with </text><text x="84.13993072509766" y="42.519999999999996" font-family="Virgil, Segoe UI Emoji" font-size="20px" fill="#f08c00" text-anchor="middle" style="white-space: pre;" direction="ltr" dominant-baseline="alphabetic">existing systems</text></g><g transform="translate(2067.480836940131 159.5270016682233) rotate(0 86.32140975996379 12.803524924595862)"><text x="86.08993530273438" y="17.52" font-family="Virgil, Segoe UI Emoji" font-size="20px" fill="#f08c00" text-anchor="middle" style="white-space: pre;" direction="ltr" dominant-baseline="alphabetic">Ensure data flow</text></g><g transform="translate(33.332800967128605 340.368729644621) rotate(0 104.29600827171936 12.789574019690065)"><text x="104.40991973876953" y="17.52" font-family="Virgil, Segoe UI Emoji" font-size="20px" fill="#f08c00" text-anchor="middle" style="white-space: pre;" direction="ltr" dominant-baseline="alphabetic">Reduce load on cloud</text></g><g stroke-linecap="round" transform="translate(737.8044203375551 421.0871999408072) rotate(0 167.06615674338838 22.666667302449582)"><path d="M0 0 C0 0, 0 0, 0 0 M0 0 C0 0, 0 0, 0 0 M0.13 12.04 C3.31 8.74, 5.46 4.89, 10.63 -0.03 M0.13 12.04 C2.65 7.94, 6.6 3.88, 10.63 -0.03 M0.27 24.08 C6.35 16.82, 15.35 10.22, 21.26 -0.07 M0.27 24.08 C8.17 14.88, 15.56 6.37, 21.26 -0.07 M-0.26 36.88 C10.61 26.4, 18.46 15.22, 31.89 -0.1 M-0.26 36.88 C13.13 21.2, 24.52 8.39, 31.89 -0.1 M1.84 46.65 C15.54 28.39, 34.16 12.36, 42.52 -0.14 M1.84 46.65 C10.8 35.34, 21.93 21.92, 42.52 -0.14 M12.47 46.62 C25.83 31.63, 42.36 12.79, 53.15 -0.17 M12.47 46.62 C28.99 28.14, 44.31 9.17, 53.15 -0.17 M23.1 46.59 C32.98 37.12, 40.13 25.72, 63.78 -0.21 M23.1 46.59 C35.96 30.27, 50.16 14.45, 63.78 -0.21 M33.73 46.55 C42.94 33, 57.11 22.11, 74.41 -0.24 M33.73 46.55 C43.4 33.7, 55.75 22.39, 74.41 -0.24 M44.37 46.52 C57.94 32.53, 66.31 19.94, 85.04 -0.28 M44.37 46.52 C55.63 33.37, 68.3 19.79, 85.04 -0.28 M55 46.48 C63.56 35.14, 74.39 21.83, 95.67 -0.31 M55 46.48 C66.31 33.26, 75.86 21.49, 95.67 -0.31 M65.63 46.45 C74.62 34.45, 82.16 25.3, 106.3 -0.34 M65.63 46.45 C74.74 36.82, 83.18 26.75, 106.3 -0.34 M75.6 47.17 C88.66 32.07, 104.9 17.3, 116.27 0.38 M75.6 47.17 C92.28 28.04, 107.36 10.73, 116.27 0.38 M86.23 47.13 C95.51 36.32, 104.19 23.17, 126.91 0.34 M86.23 47.13 C96.93 33.1, 109.02 21.58, 126.91 0.34 M96.86 47.1 C109.6 29.57, 123.92 13.25, 137.54 0.31 M96.86 47.1 C105.65 36.48, 115.04 26.11, 137.54 0.31 M107.49 47.06 C117.46 33.7, 127.41 25.34, 148.17 0.27 M107.49 47.06 C117.46 34.28, 130.02 21.9, 148.17 0.27 M118.12 47.03 C130.31 33.07, 145.86 17.57, 158.8 0.24 M118.12 47.03 C126.64 35.78, 134.86 27.32, 158.8 0.24 M128.75 46.99 C140.7 32.83, 152.71 22.43, 169.43 0.2 M128.75 46.99 C138.43 38.08, 146.02 26.72, 169.43 0.2 M139.38 46.96 C153.11 32.73, 161.83 17.14, 180.06 0.17 M139.38 46.96 C147.82 36.45, 157.29 27.29, 180.06 0.17 M150.01 46.93 C159.73 38.19, 169.48 26.29, 190.69 0.13 M150.01 46.93 C165.46 28.02, 181.17 10.63, 190.69 0.13 M160.64 46.89 C176.32 31.03, 189.43 12, 201.32 0.1 M160.64 46.89 C177.06 29.09, 193 10.03, 201.32 0.1 M171.27 46.86 C188.64 28.5, 201.39 9.8, 211.95 0.06 M171.27 46.86 C185.26 31.46, 196.8 16.54, 211.95 0.06 M181.9 46.82 C194.27 29.37, 212.39 12.75, 222.58 0.03 M181.9 46.82 C192.08 35.23, 202.62 22.38, 222.58 0.03 M192.53 46.79 C200.58 36.03, 213 22.4, 233.21 0 M192.53 46.79 C207.77 29.42, 222.7 12.72, 233.21 0 M203.16 46.75 C220.24 27.99, 236.01 12.34, 243.84 -0.04 M203.16 46.75 C213.49 35.22, 222.97 22.96, 243.84 -0.04 M213.79 46.72 C228.74 32.73, 239.92 16, 254.47 -0.07 M213.79 46.72 C227.24 32.12, 239.17 17.82, 254.47 -0.07 M224.42 46.68 C235.48 31.71, 247.74 19.9, 265.1 -0.11 M224.42 46.68 C239.47 29.32, 254.77 10.82, 265.1 -0.11 M235.05 46.65 C248.41 29.76, 261.77 16.67, 275.73 -0.14 M235.05 46.65 C251.94 27.9, 267.51 10.95, 275.73 -0.14 M245.68 46.62 C254.33 37.04, 262.7 23.76, 286.36 -0.18 M245.68 46.62 C261.5 28.41, 276.46 10.75, 286.36 -0.18 M256.31 46.58 C270.51 29.21, 288.41 12.31, 296.99 -0.21 M256.31 46.58 C269.41 32.19, 280.48 17.53, 296.99 -0.21 M266.94 46.55 C278.09 35.66, 285.27 25.68, 307.62 -0.25 M266.94 46.55 C279.3 32.27, 291.58 17.49, 307.62 -0.25 M277.57 46.51 C285.28 36.84, 295.14 26.71, 318.25 -0.28 M277.57 46.51 C292.26 30.01, 307 13.57, 318.25 -0.28 M288.2 46.48 C302.03 31.22, 312.12 17.61, 328.88 -0.31 M288.2 46.48 C303.9 28.11, 319.7 9.66, 328.88 -0.31 M298.83 46.44 C312.02 29.35, 328.29 15.89, 336.88 2.67 M298.83 46.44 C309.71 33.19, 322.07 19.96, 336.88 2.67 M308.81 47.16 C314.97 36.89, 324.37 31.26, 337.02 14.71 M308.81 47.16 C320.61 35.09, 330.19 21.85, 337.02 14.71 M319.44 47.13 C322.06 41, 326.69 36.37, 337.15 26.75 M319.44 47.13 C324.62 39.62, 330.53 33.45, 337.15 26.75 M330.07 47.09 C333.13 44.31, 335.31 41.75, 337.28 38.79 M330.07 47.09 C332.35 43.78, 335.26 41.17, 337.28 38.79" stroke="#ffec99" stroke-width="1" fill="none"></path><path d="M0 0 C71.65 -0.21, 142.06 -0.78, 334.13 0 M0 0 C91.13 0.07, 182.7 -0.05, 334.13 0 M334.13 0 C334.48 12.43, 333.93 21.74, 334.13 45.33 M334.13 0 C334.47 13.34, 333.85 25.36, 334.13 45.33 M334.13 45.33 C208.36 44.28, 79.62 45.02, 0 45.33 M334.13 45.33 C233.61 47.9, 133.44 47.32, 0 45.33 M0 45.33 C-1.16 29.86, 0.81 14.54, 0 0 M0 45.33 C0.46 32.96, -1.24 20.06, 0 0" stroke="#f08c00" stroke-width="2" fill="none"></path></g><g transform="translate(747.1407186825061 431.25386724325676) rotate(0 157.7298583984375 12.5)"><text x="157.7298583984375" y="17.52" font-family="Virgil, Segoe UI Emoji" font-size="20px" fill="#f08c00" text-anchor="middle" style="white-space: pre;" direction="ltr" dominant-baseline="alphabetic">Optimize Operations &amp; Harvests</text></g><g stroke-linecap="round"><g transform="translate(1144.8196539339447 284.198710611829) rotate(0 -86.15822900909899 62.9596716271291)"><path d="M0.03 0.72 C-28.42 21.69, -143 104.51, -171.56 125.18 M-1.42 0.05 C-29.87 21.22, -143.74 105.43, -172.12 126.32" stroke="#f08c00" stroke-width="2" fill="none"></path></g><g transform="translate(1144.8196539339447 284.198710611829) rotate(0 -86.15822900909899 62.9596716271291)"><path d="M-158.29 105.49 C-160.32 111.45, -165.88 116.46, -172.12 126.32 M-158.29 105.49 C-161.34 110.37, -164.95 113.45, -172.12 126.32" stroke="#f08c00" stroke-width="2" fill="none"></path></g><g transform="translate(1144.8196539339447 284.198710611829) rotate(0 -86.15822900909899 62.9596716271291)"><path d="M-148.14 119.25 C-152.38 122.11, -160.23 124.01, -172.12 126.32 M-148.14 119.25 C-153.14 121.37, -158.8 121.68, -172.12 126.32" stroke="#f08c00" stroke-width="2" fill="none"></path></g></g><mask></mask><g stroke-linecap="round" transform="translate(668.6636569184711 60.063631573742896) rotate(0 156.59097156754763 17.5)"><path d="M0 0 C79.53 -2.18, 161.76 -0.9, 313.18 0 M0 0 C93.59 -0.13, 188.45 -0.97, 313.18 0 M313.18 0 C314.77 10.87, 311.29 24.22, 313.18 35 M313.18 0 C313.83 14.27, 313.38 26.14, 313.18 35 M313.18 35 C218.63 33.21, 122.76 34.71, 0 35 M313.18 35 C226.03 33.72, 137.49 33.4, 0 35 M0 35 C1.9 24.46, -0.92 13.4, 0 0 M0 35 C0.06 22.04, 0.79 11.08, 0 0" stroke="#f08c00" stroke-width="2" fill="none"></path></g><g stroke-linecap="round" transform="translate(642.6479239679752 249.92900885223872) rotate(0 172.87380945787226 17.5)"><path d="M0 0 C121.28 1.89, 242.5 2.02, 345.75 0 M0 0 C113.65 -1.87, 226.38 -1.99, 345.75 0 M345.75 0 C344.42 15.83, 347.81 27.97, 345.75 35 M345.75 0 C346.16 11.72, 346.03 26.25, 345.75 35 M345.75 35 C250.99 33.13, 153.52 32.37, 0 35 M345.75 35 C264 35.4, 183.49 35.47, 0 35 M0 35 C-1.28 27.04, 0.73 16.17, 0 0 M0 35 C0.88 22.25, -0.95 7.32, 0 0" stroke="#f08c00" stroke-width="2" fill="none"></path></g><g mask="url(#mask-8b2rVLsVwKrn1k3Lftuwm)" stroke-linecap="round"><g transform="translate(797.0633722905003 102.24241418697824) rotate(0 1.5404773645881846 71.61531572963946)"><path d="M0.2 0 C0.91 23.92, 3.02 119.55, 3.4 143.56 M-1.16 -1.05 C-0.5 22.5, 2.19 117.74, 2.62 141.61" stroke="#f08c00" stroke-width="2" fill="none"></path></g><g transform="translate(797.0633722905003 102.24241418697824) rotate(0 1.5404773645881846 71.61531572963946)"><path d="M-6.49 118.32 C-4.42 124.11, -1.82 127.85, 2.62 141.61 M-6.49 118.32 C-2.76 126.23, 1.38 136.4, 2.62 141.61" stroke="#f08c00" stroke-width="2" fill="none"></path></g><g transform="translate(797.0633722905003 102.24241418697824) rotate(0 1.5404773645881846 71.61531572963946)"><path d="M10.61 117.92 C8.8 123.82, 7.54 127.65, 2.62 141.61 M10.61 117.92 C8.05 125.89, 5.91 136.2, 2.62 141.61" stroke="#f08c00" stroke-width="2" fill="none"></path></g></g><mask id="mask-8b2rVLsVwKrn1k3Lftuwm"><rect x="0" y="0" fill="#fff" width="900.1443270196767" height="345.47304564625716"></rect><rect x="710.1139051970807" y="148.8577299166177" fill="#000" width="176.97988891601562" height="50" opacity="1"></rect></mask><g stroke-linecap="round"><g transform="translate(810.5594743416339 285.9290088522388) rotate(0 -113.30788120042251 63.27787139891723)"><path d="M0.32 0.33 C-37.58 21.55, -189.55 106.43, -227.21 127.37 M-0.97 -0.55 C-38.49 20.34, -187.32 104.42, -224.82 125.67" stroke="#f08c00" stroke-width="2" fill="none"></path></g><g transform="translate(810.5594743416339 285.9290088522388) rotate(0 -113.30788120042251 63.27787139891723)"><path d="M-208.58 106.66 C-213.17 111.72, -217.5 120.32, -224.82 125.67 M-208.58 106.66 C-211.59 112.19, -216.77 115.18, -224.82 125.67" stroke="#f08c00" stroke-width="2" fill="none"></path></g><g transform="translate(810.5594743416339 285.9290088522388) rotate(0 -113.30788120042251 63.27787139891723)"><path d="M-200.16 121.55 C-207.42 121.92, -214.41 125.81, -224.82 125.67 M-200.16 121.55 C-205.3 123.32, -212.57 122.6, -224.82 125.67" stroke="#f08c00" stroke-width="2" fill="none"></path></g></g><mask></mask><g transform="translate(724.1847127145344 65.0636315737429) rotate(0 101.06991577148438 12.5)"><text x="101.06991577148438" y="17.52" font-family="Virgil, Segoe UI Emoji" font-size="20px" fill="#f08c00" text-anchor="middle" style="white-space: pre;" direction="ltr" dominant-baseline="alphabetic">Event Driven System</text></g><g transform="translate(679.2018481719413 254.92900885223872) rotate(0 136.31988525390628 12.5)"><text x="136.31988525390625" y="17.52" font-family="Virgil, Segoe UI Emoji" font-size="20px" fill="#f08c00" text-anchor="middle" style="white-space: pre;" direction="ltr" dominant-baseline="alphabetic">Monitoring and Observability</text></g><g transform="translate(710.1139051970806 148.8577299166177) rotate(0 88.068895380334 24.63997160726693)"><text x="88.48994445800781" y="17.52" font-family="Virgil, Segoe UI Emoji" font-size="20px" fill="#f08c00" text-anchor="middle" style="white-space: pre;" direction="ltr" dominant-baseline="alphabetic">Manage alerts &amp; </text><text x="88.48994445800781" y="42.519999999999996" font-family="Virgil, Segoe UI Emoji" font-size="20px" fill="#f08c00" text-anchor="middle" style="white-space: pre;" direction="ltr" dominant-baseline="alphabetic">notifications</text></g><g stroke-linecap="round" transform="translate(372.75130356764316 415.288581666802) rotate(0 174.2181821283554 23.54967701717436)"><path d="M0 0 C0 0, 0 0, 0 0 M0 0 C0 0, 0 0, 0 0 M0.13 12.04 C3.69 9.9, 3.4 6.28, 10.63 -0.03 M0.13 12.04 C3.45 9.05, 6.09 5.35, 10.63 -0.03 M0.27 24.08 C5.6 19.37, 12.85 10.22, 21.26 -0.07 M0.27 24.08 C5.87 17.64, 13.46 9.24, 21.26 -0.07 M-0.26 36.88 C11.93 24.87, 23.66 10.23, 31.89 -0.1 M-0.26 36.88 C10.69 23.87, 23.14 9.08, 31.89 -0.1 M1.19 47.41 C13.17 33.59, 22.64 19.98, 42.52 -0.14 M1.19 47.41 C17.63 29.32, 33.18 12.55, 42.52 -0.14 M11.82 47.37 C24.2 32.79, 35.27 21.19, 53.15 -0.17 M11.82 47.37 C20.58 37.14, 30.01 27.45, 53.15 -0.17 M22.45 47.34 C37.89 31.36, 48.58 14.34, 63.78 -0.21 M22.45 47.34 C35.42 32.6, 48.68 16.69, 63.78 -0.21 M33.08 47.31 C42.13 38.49, 48.98 29.7, 74.41 -0.24 M33.08 47.31 C45.27 34.51, 56.86 20.85, 74.41 -0.24 M43.71 47.27 C60.94 27.72, 76.47 7.98, 85.04 -0.28 M43.71 47.27 C53.75 36.11, 62.77 25.86, 85.04 -0.28 M54.34 47.24 C68.16 27.21, 84.54 10.95, 95.67 -0.31 M54.34 47.24 C63.97 35.87, 72.93 26.22, 95.67 -0.31 M64.97 47.2 C80.47 30.31, 96.04 10.52, 106.3 -0.34 M64.97 47.2 C73.69 35.72, 82.68 26.6, 106.3 -0.34 M75.6 47.17 C85.62 35.76, 98.27 20.84, 116.27 0.38 M75.6 47.17 C87.61 33.1, 100.18 18.39, 116.27 0.38 M86.23 47.13 C96.78 35.6, 111.42 19.58, 126.91 0.34 M86.23 47.13 C101.44 29.34, 118.23 10.14, 126.91 0.34 M96.86 47.1 C107.68 31.66, 122.31 18.3, 137.54 0.31 M96.86 47.1 C110.49 30.38, 125.67 15.16, 137.54 0.31 M107.49 47.06 C119.13 36.01, 128.63 23.05, 148.17 0.27 M107.49 47.06 C116.4 36.33, 126.26 24.94, 148.17 0.27 M118.12 47.03 C127.28 35.22, 139.54 24.46, 158.8 0.24 M118.12 47.03 C126.83 36.62, 135.74 27.8, 158.8 0.24 M128.75 46.99 C137.99 33.33, 150.37 19.36, 169.43 0.2 M128.75 46.99 C138.54 35.19, 148.16 24.61, 169.43 0.2 M139.38 46.96 C151.33 34.07, 159.6 23.84, 180.06 0.17 M139.38 46.96 C152.52 30.71, 166.71 15.64, 180.06 0.17 M150.01 46.93 C163.22 34.35, 175.21 20.06, 190.69 0.13 M150.01 46.93 C160.92 34.58, 171.92 21.12, 190.69 0.13 M160.64 46.89 C174.4 31.31, 183.87 18.13, 201.32 0.1 M160.64 46.89 C173.36 31.65, 187.97 15.82, 201.32 0.1 M171.27 46.86 C187.98 29.75, 201.28 11.6, 211.95 0.06 M171.27 46.86 C181.72 34.24, 192.37 23.79, 211.95 0.06 M181.9 46.82 C191.45 35.28, 198.28 26.69, 222.58 0.03 M181.9 46.82 C191.57 36.36, 201.41 25, 222.58 0.03 M192.53 46.79 C201.4 36.08, 210.77 28.09, 233.21 0 M192.53 46.79 C201.71 37.98, 208.83 26.97, 233.21 0 M202.5 47.51 C217.19 30.47, 229.37 17.07, 243.84 -0.04 M202.5 47.51 C213.36 35.64, 222.92 22.42, 243.84 -0.04 M213.13 47.47 C222.61 35.1, 236.75 23.56, 254.47 -0.07 M213.13 47.47 C221.32 38.46, 230.15 28, 254.47 -0.07 M223.76 47.44 C235.62 34.01, 248.02 18.69, 265.1 -0.11 M223.76 47.44 C232.3 37.59, 242.67 26.29, 265.1 -0.11 M234.39 47.4 C246.04 32.22, 258.89 16.74, 275.73 -0.14 M234.39 47.4 C246.9 32.73, 260.52 17.26, 275.73 -0.14 M245.02 47.37 C256.74 31.35, 272.45 16.79, 286.36 -0.18 M245.02 47.37 C257.3 32.18, 270.89 19.5, 286.36 -0.18 M255.65 47.34 C269.94 28.35, 285.63 10.98, 296.99 -0.21 M255.65 47.34 C272.2 28.26, 287.38 10.96, 296.99 -0.21 M266.28 47.3 C282.17 29.47, 300.46 10.78, 307.62 -0.25 M266.28 47.3 C280.51 30.44, 294.07 15.47, 307.62 -0.25 M276.91 47.27 C286.95 34.65, 299.51 21.95, 318.25 -0.28 M276.91 47.27 C287.8 34.54, 298.59 21.75, 318.25 -0.28 M287.55 47.23 C300.36 31, 316.54 13.69, 328.88 -0.31 M287.55 47.23 C299.5 33.44, 310.14 20.48, 328.88 -0.31 M298.18 47.2 C306.34 35.87, 316.64 26.89, 339.51 -0.35 M298.18 47.2 C313.28 28.43, 329.55 11.46, 339.51 -0.35 M308.81 47.16 C324.72 30.77, 342.26 11.56, 348.17 1.88 M308.81 47.16 C321.81 31.64, 334.38 17.7, 348.17 1.88 M319.44 47.13 C325.65 40.46, 330.45 31.89, 348.3 13.92 M319.44 47.13 C330.75 34.96, 342.17 21.82, 348.3 13.92 M330.07 47.09 C338.1 39, 342.85 31.55, 348.44 25.96 M330.07 47.09 C336.09 41.42, 340.73 35.72, 348.44 25.96 M340.7 47.06 C344.53 44.06, 347.49 39.57, 348.57 38 M340.7 47.06 C343.01 44.64, 345.15 42.07, 348.57 38" stroke="#ffec99" stroke-width="1" fill="none"></path><path d="M0 0 C134.52 -0.35, 270.57 1.57, 348.44 0 M0 0 C72.13 0.17, 145.09 0.1, 348.44 0 M348.44 0 C346.45 19.15, 346.84 33.01, 348.44 47.1 M348.44 0 C347.84 13.64, 348.7 27.18, 348.44 47.1 M348.44 47.1 C258.31 49.37, 169.43 48.1, 0 47.1 M348.44 47.1 C232.12 49.03, 115.52 49.11, 0 47.1 M0 47.1 C-2.1 34.86, 1.26 19.38, 0 0 M0 47.1 C0.47 29.24, -0.27 9.87, 0 0" stroke="#f08c00" stroke-width="2" fill="none"></path></g><g transform="translate(381.31962912861576 426.3382586839764) rotate(0 165.6498565673828 12.5)"><text x="165.6498565673828" y="17.52" font-family="Virgil, Segoe UI Emoji" font-size="20px" fill="#f08c00" text-anchor="middle" style="white-space: pre;" direction="ltr" dominant-baseline="alphabetic">Ensure farming ecosystem health </text></g></svg>